<?xml version="1.0" encoding="UTF-8" standalone="no"?>
<svg
   version="1.1"
   width="223.28329"
   height="324.2298"
   id="svg335"
   sodipodi:docname="business_man.svg"
   xmlns:inkscape="http://www.inkscape.org/namespaces/inkscape"
   xmlns:sodipodi="http://sodipodi.sourceforge.net/DTD/sodipodi-0.dtd"
   xmlns="http://www.w3.org/2000/svg"
   xmlns:svg="http://www.w3.org/2000/svg">
  <defs
     id="defs335" />
  <sodipodi:namedview
     id="namedview335"
     pagecolor="#ffffff"
     bordercolor="#000000"
     borderopacity="0.25"
     inkscape:showpageshadow="2"
     inkscape:pageopacity="0.0"
     inkscape:pagecheckerboard="0"
     inkscape:deskcolor="#d1d1d1">
    <inkscape:page
       x="0"
       y="0"
       width="223.28329"
       height="324.2298"
       id="page2"
       margin="0"
       bleed="0" />
  </sodipodi:namedview>
  <g
     id="g336"
     transform="translate(-398.09512,-22.722042)">
    <path
       d="m 0,0 c 23.505123,-0.67157493 53.962563,4.2644191 72.34375,20.21875 0,0.66 0,1.32 0,2 0.72832,0.251367 1.456641,0.502734 2.207031,0.761719 3.011529,1.335181 5.02283,2.868531 7.480469,5.050781 1.150488,0.999668 1.150488,0.999668 2.324219,2.019531 1.988281,2.167969 1.988281,2.167969 3.007812,4.804688 0.727334,2.493872 0.727334,2.493872 2.828125,3.253906 6.705944,3.456421 10.600094,15.039455 12.812504,21.867187 3.61765,12.919649 3.97276,25.977179 4.06445,39.302247 0.0564,7.039511 0.35746,13.750041 1.80981,20.671631 0.77088,3.75573 0.91085,7.52767 1.12183,11.34643 0.26536,3.01526 0.26536,3.01526 1.34424,6.16602 0.99812,3.75063 1.28642,6.90119 1.33545,10.77148 0.008,0.64888 0.0168,1.29775 0.0254,1.96628 0.0195,2.08962 0.0196,4.17841 0.0137,6.2681 -5.4e-4,0.71686 -0.001,1.43372 -0.002,2.1723 -0.0406,11.6506 -1.18082,22.35892 -4.37335,33.5777 -0.48911,1.81193 -0.97598,3.62446 -1.46094,5.4375 -1.01259,3.76144 -2.05025,7.51484 -3.10156,11.26562 -1.1082,4.0028 -2.08433,8.01406 -2.97534,12.07007 -3.364861,15.30274 -8.867785,34.0796 -20.46216,45.22681 -0.446016,0.74508 -0.892031,1.49016 -1.351563,2.25781 -2.070654,3.44455 -4.511197,6.48707 -7.023437,9.61719 -2.820305,3.52538 -5.593061,7.04504 -8.164063,10.75781 -2.204028,3.12532 -4.703869,5.70844 -7.460937,8.36719 -1.318504,1.44661 -2.636817,2.89346 -3.942871,4.35132 -10.974445,12.20882 -21.248735,19.45085 -38.057129,21.64868 -1.022227,0.13406 -2.044453,0.26812 -3.097656,0.40625 -18.0850285,1.82719 -37.539931,-0.62209 -52.09375,-12.14063 -5.520339,-4.62167 -5.520339,-4.62167 -6.660156,-7.16796 -1.393525,-2.54532 -3.297957,-3.92067 -5.543458,-5.70508 -2.7507,-2.38668 -4.85244,-5.24885 -7.04248,-8.14258 -0.475181,-0.61617 -0.950361,-1.23234 -1.439941,-1.86719 -1.379618,-1.79018 -2.751294,-3.58623 -4.122559,-5.38281 -1.289708,-1.66818 -2.581035,-3.33512 -3.875,-5 -0.538828,-0.69609 -1.077656,-1.39219 -1.632812,-2.10938 -1.378949,-1.74714 -2.797372,-3.44788 -4.242188,-5.14062 -2.050817,-2.50655 -3.640129,-4.95022 -5.25,-7.75 -0.611016,-0.89977 -1.222031,-1.79953 -1.851562,-2.72656 -11.197341,-17.06068 -15.847326,-36.72406 -20.249998,-56.41797 -0.87238,-3.74364 -1.89878,-7.41187 -2.96094,-11.10547 -1.65441,-6.12067 -2.76777,-12.22786 -3.6875,-18.5 -0.1277,-0.8511 -0.2554,-1.70221 -0.38696,-2.5791 -1.5514,-11.29917 -0.55152,-21.75302 1.21661,-32.94443 2.08413,-13.33106 3.34682,-26.42201 3.54535,-39.91397 0.17579,-11.219312 0.58146,-21.888864 3.375,-32.8125 0.27715,-1.144688 0.5543,-2.289375 0.83984,-3.46875 3.699488,-13.591239 11.236181,-23.849319 21.16016,-33.53125 0.476953,-0.52207 0.953906,-1.044141 1.445313,-1.582031 C -57.910843,5.9146373 -28.102747,1.6813609 0,0 Z"
       fill="#212d43"
       transform="translate(508.65625,22.78125)"
       id="path1" />
    <path
       d="m 0,0 c 2.1944428,-0.3742218 2.1944428,-0.3742218 4.9528809,-0.37231445 1.0312449,-0.006229 2.0624899,-0.0124576 3.1249847,-0.0188751 1.1177028,0.00921 2.2354054,0.0184195 3.3869784,0.0279083 1.716374,-7.4776e-4 1.716374,-7.4776e-4 3.467422,-0.001511 2.423556,0.002344 4.847114,0.0120911 7.270615,0.0286102 3.715797,0.0235623 7.430876,0.0205669 11.146728,0.013916 2.350916,0.005577 4.701829,0.0126878 7.052735,0.0214844 1.673518,-0.001367 1.673518,-0.001367 3.380844,-0.002762 1.034397,0.009532 2.068794,0.019064 3.134537,0.0288849 0.91108,0.004607 1.82216,0.009215 2.760849,0.0139618 C 52,0 52,0 55,2 c 0.372314,2.5820312 0.372314,2.5820312 0.363281,5.8125 -6.44e-4,1.1575781 -0.0013,2.315156 -0.002,3.507813 -0.01611,1.214296 -0.03223,2.428593 -0.04883,3.679687 0.0032,1.214297 0.0064,2.428594 0.0098,3.679687 C 55.266815,27.733185 55.266815,27.733185 53,30 c -2.239136,0.253967 -2.239136,0.253967 -5.060547,0.258789 -1.58174,0.0095 -1.58174,0.0095 -3.195434,0.0191 -1.142714,-0.004 -2.285428,-0.0081 -3.462769,-0.01227 -1.753226,0.0029 -1.753226,0.0029 -3.54187,0.0058 -2.474815,0.0014 -4.949637,-0.0023 -7.424439,-0.01068 -3.799153,-0.0107 -7.597834,-1.08e-4 -11.396972,0.0127 -2.399741,-0.0013 -4.799481,-0.0039 -7.199219,-0.0078 -1.71407,0.0061 -1.71407,0.0061 -3.4627685,0.01227 -1.0544935,-0.0063 -2.1089869,-0.01261 -3.1954346,-0.0191 -0.9310657,-0.0016 -1.8621314,-0.0032 -2.8214112,-0.0048 C 0,30 0,30 -2,28 c -0.2587891,-2.474365 -0.2587891,-2.474365 -0.265625,-5.558594 -0.00258,-1.107949 -0.00516,-2.215898 -0.00781,-3.357422 0.00773,-1.162089 0.015469,-2.324179 0.023437,-3.521484 -0.00773,-1.158223 -0.015469,-2.316445 -0.023437,-3.509766 0.00258,-1.109238 0.00516,-2.2184762 0.00781,-3.3613277 0.00226,-1.0189234 0.00451,-2.0378467 0.00684,-3.0876465 C -2,3 -2,3 0,0 Z"
       fill="#191a1b"
       transform="translate(540,149)"
       id="path5" />
    <path
       d="m 0,0 c 1.0343971,-0.00622879 2.0687942,-0.01245758 3.1345367,-0.01887512 1.1156786,0.00920975 2.2313572,0.01841949 3.3808442,0.02790832 1.1452061,-4.985e-4 2.2904123,-9.9701e-4 3.4703216,-0.00151062 2.4217755,0.00234156 4.8435535,0.01207479 7.2652745,0.02861023 3.717912,0.02360966 7.435108,0.0205592 11.153076,0.01391602 2.349613,0.0055759 4.699224,0.01268529 7.048828,0.02148437 1.117703,-9.114e-4 2.235405,-0.0018228 3.386978,-0.0027618 1.031245,0.009532 2.06249,0.01906403 3.124985,0.02888489 0.910284,0.0046074 1.820569,0.0092148 2.758438,0.01396179 2.194443,0.26069641 2.194443,0.26069641 4.194443,2.26069642 0.22705,2.7055664 0.22705,2.7055664 0.195312,6.1015624 -0.0064,1.2117188 -0.01289,2.4234371 -0.01953,3.6718751 -0.01676,1.271016 -0.03352,2.542031 -0.05078,3.851562 -0.009,1.27875 -0.01805,2.5575 -0.02734,3.875 -0.02363,3.166852 -0.05658,6.333335 -0.09766,9.5 -2.513688,1.256844 -4.247438,1.133747 -7.060547,1.145264 -1.054494,0.0064 -2.108987,0.01276 -3.195435,0.01933 -1.142713,0.0011 -2.285427,0.0022 -3.462768,0.0034 -1.168818,0.0033 -2.337635,0.0067 -3.541871,0.01009 -2.474808,0.0051 -4.949624,0.0074 -7.424438,0.0072 -3.799104,0.0022 -7.59792,0.02035 -11.396973,0.03931 -2.399738,0.0029 -4.7994782,0.0049 -7.1992184,0.0059 -1.7140704,0.01078 -1.7140704,0.01078 -3.4627686,0.02178 -1.58174006,-0.0046 -1.58174006,-0.0046 -3.1954345,-0.0093 -0.9310657,0.0014 -1.8621314,0.0028 -2.8214112,0.0043 -2.2391357,-0.247239 -2.2391357,-0.247239 -4.2391357,-2.247239 -0.4581599,-4.127511 -0.3240086,-8.287507 -0.3125,-12.4375 -0.016113,-1.158222 -0.032227,-2.316445 -0.048828,-3.509765 -6.446e-4,-1.109238 -0.00129,-2.218477 -0.00195,-3.3613283 -0.00298,-1.0189233 -0.00596,-2.0378467 -0.00903,-3.0876465 C -7.7130529,0.79017824 -4.8455713,-0.00334759 0,0 Z"
       fill="#1d1e1e"
       transform="translate(433.08228,148.62769)"
       id="path6" />
    <path
       d="M 0,0 C 2.0974084,3.1461125 2.2532822,3.9118808 2.1875,7.5 2.1810547,8.2734375 2.1746094,9.046875 2.1679688,9.84375 2,12 2,12 1,15 c -0.66,0 -1.32,0 -2,0 0.33,0.66 0.66,1.32 1,2 0.14328742,2.050524 0.22656014,4.105359 0.28125,6.160156 0.0372217,1.261509 0.0744434,2.523018 0.11279297,3.822754 0.035765,1.359852 0.071076,2.719715 0.10595703,4.07959 0.0721888,2.738383 0.14730088,5.476656 0.2265625,8.214844 0.0194266,0.671964 0.0388532,1.343928 0.0588684,2.036255 0.120418,3.78523 0.3301743,7.544138 0.6755066,11.315307 0.068965,0.779158 0.1379297,1.558316 0.2089844,2.361084 0.1908808,1.987206 0.411634,3.971479 0.6347656,5.955322 C 2,64 2,64 -0.06640625,66.414062 -3.6015304,68.325195 -5.8201831,68.411306 -9.8125,68.25 -10.973945,68.21391 -12.135391,68.17781 -13.332031,68.140625 -14.212461,68.094219 -15.092891,68.047813 -16,68 c -1.312235,-3.936705 -0.242963,-6.124881 1,-10 -0.66,0 -1.32,0 -2,0 0.06852,-0.59888 0.137033,-1.197761 0.207626,-1.814789 0.67759,-6.270388 0.993117,-12.483107 1.10878,-18.786774 0.02078,-0.962476 0.04156,-1.924953 0.06297,-2.916595 0.06471,-3.035551 0.12401,-6.071178 0.183121,-9.106842 0.04326,-2.074226 0.08688,-4.148445 0.130859,-6.222656 C -15.200313,14.101639 -15.098831,9.0508572 -15,4 -14.373516,3.7950391 -13.747031,3.5900781 -13.101563,3.3789063 -12.284297,3.1094922 -11.467031,2.8400781 -10.625,2.5625 -9.8128906,2.2956641 -9.0007812,2.0288281 -8.1640625,1.7539062 -3.1295337,0 -3.1295337,0 0,0 Z"
       fill="#586e8e"
       transform="translate(517,155)"
       id="path8" />
    <path
       d="M 0,0 C 0.975065,-3.9276e-4 1.95013,-7.8552e-4 2.9547424,-0.00119019 43.518423,0.01842333 43.518423,0.01842333 46.6875,3.1875 c 0.04093,2.3329743 0.04242,4.6670522 0,7 -30.472761,2.090069 -61.618489,4.165207 -92,0 0,-2.31 0,-4.62 0,-7 1.74876,-0.3193658 3.499119,-0.6299735 5.25,-0.9375 0.974531,-0.1740234 1.949062,-0.3480469 2.953125,-0.5273438 C -24.764358,-0.01733068 -12.4411,-0.01056619 0,0 Z"
       fill="#020303"
       transform="translate(509.3125,264.8125)"
       id="path10" />
    <path
       d="M 0,0 C 0,0.33 0,0.66 0,1 -0.845625,1.0863672 -1.69125,1.1727344 -2.5625,1.2617187 -9.6502832,2.1396374 -15.531472,3.1630081 -21,8 c -0.99,1.485 -0.99,1.485 -2,3 0.33,-0.33 0.66,-0.66 1,-1 5.998051,-5.0253937 9.63842,-6.330084 17.5,-6.25 C -3.7407422,3.74227 -2.9814844,3.734531 -2.1992188,3.726563 1.6679228,3.7401077 4.7279135,3.8070059 8,6 c 0,2.64 0,5.28 0,8 -0.99,0 -1.98,0 -3,0 0,0.66 0,1.32 0,2 -0.66,0 -1.32,0 -2,0 0,0.66 0,1.32 0,2 5.445,-1.485 5.445,-1.485 11,-3 0,0.66 0,1.32 0,2 -0.721875,0.4125 -1.44375,0.825 -2.1875,1.25 C 8.3183886,20.424114 6.4855578,22.733267 4,26 c 0,0.33 0,0.66 0,1 -4.66307014,0.04937 -9.3259887,0.08571 -13.9892578,0.109863 -1.5869412,0.01007 -3.1738632,0.02372 -4.7607422,0.04102 -2.278692,0.02421 -4.55714,0.0356 -6.835937,0.04443 -0.711513,0.01032 -1.423025,0.02065 -2.156098,0.03128 C -25.496317,27.226994 -27.249967,27.122022 -29,27 c -2.480005,-2.480005 -2.467024,-3.55078 -2.6875,-7 0.124825,-6.332771 2.642179,-9.553129 7.066406,-13.8945313 C -16.989756,-0.02462233 -9.5420988,-0.59023292 0,0 Z"
       fill="#202122"
       transform="translate(569,152)"
       id="path11" />
    <path
       d="m 0,0 c 23.764763,-0.67417768 54.213654,4.0197784 72.804687,20.15625 0,0.66 0,1.32 0,2 0.728321,0.251367 1.456641,0.502734 2.207032,0.761719 3.011529,1.335181 5.022829,2.868531 7.480468,5.050781 0.766993,0.666445 1.533985,1.332891 2.324219,2.019531 1.988281,2.167969 1.988281,2.167969 3.007813,4.804688 0.727334,2.493872 0.727334,2.493872 2.828125,3.253906 6.127449,3.15825 9.746986,13.30272 12.035646,19.501953 5.31979,16.678281 5.03335,34.28099 5.1167,51.607422 -0.99,0.495 -0.99,0.495 -2,1 -0.0198,-0.90766 -0.0396,-1.81532 -0.0601,-2.75049 -0.0784,-3.38844 -0.1651,-6.77647 -0.25733,-10.164549 -0.0381,-1.462483 -0.073,-2.925054 -0.10449,-4.387695 -0.046,-2.110347 -0.10393,-4.220092 -0.16406,-6.330079 -0.0314,-1.267309 -0.0628,-2.534619 -0.0952,-3.840332 -0.38329,-4.239617 -1.41582,-7.778072 -3.36573,-11.554199 -1.19047,-2.463877 -1.64694,-4.857635 -2.203123,-7.535156 -3.499,-14.290471 -13.090563,-27.57721 -24.75,-36.4375 C 74.091836,26.596797 73.378984,26.037344 72.644531,25.460937 61.725491,17.330901 49.0369,11.304604 35.804687,8.15625 34.600703,7.8584766 33.396719,7.5607031 32.15625,7.2539062 13.106677,3.0883437 -9.9987613,3.0119231 -28.953125,7.5976562 -32.62477,8.2302408 -35.554938,7.8556095 -39.195312,7.15625 c 2.227947,-2.2279478 3.077959,-2.4226171 6.078125,-3.0351563 0.824194,-0.1691894 1.648388,-0.3383789 2.497558,-0.5126953 1.323787,-0.2547509 1.323787,-0.2547509 2.674317,-0.5146484 0.904438,-0.1762793 1.808876,-0.3525586 2.740722,-0.5341797 C -16.790964,0.9798692 -8.5353501,0.41737653 0,0 Z"
       fill="#abafb4"
       transform="translate(508.19531,22.84375)"
       id="path13" />
    <path
       d="M 0,0 C 0.60730957,0.13712402 1.2146191,0.27424805 1.840332,0.41552734 7.8804545,1.7112479 13.707337,2.4044162 19.875,2.625 21.287128,2.679745 21.287128,2.679745 22.727783,2.7355957 46.922672,3.5756004 70.866928,2.600359 95,1 94.67,1.99 94.34,2.98 94,4 87.73,4.33 81.46,4.66 75,5 c 0,1.65 0,3.3 0,5 -1.98,0 -3.96,0 -6,0 0,0.66 0,1.32 0,2 -0.99,-0.33 -1.98,-0.66 -3,-1 -0.33,0.66 -0.66,1.32 -1,2 -11.627793,3.475466 -23.277444,2.087323 -35,0 1.32,-0.66 2.64,-1.32 4,-2 C 34,9.68 34,8.36 34,7 25.274771,5.5551469 16.697517,4.69585 7.8676758,4.342041 2.1953219,4.0976609 2.1953219,4.0976609 0,3 0,2.01 0,1.02 0,0 Z"
       fill="#34435a"
       transform="translate(462,273)"
       id="path14" />
    <path
       d="M 0,0 C 2.0974084,3.1461125 2.2532822,3.9118808 2.1875,7.5 2.1810547,8.2734375 2.1746094,9.046875 2.1679688,9.84375 2,12 2,12 1,15 c -0.66,0 -1.32,0 -2,0 0.33,0.66 0.66,1.32 1,2 0.14328742,2.050524 0.22656014,4.105359 0.28125,6.160156 0.0372217,1.261509 0.0744434,2.523018 0.11279297,3.822754 0.035765,1.359852 0.071076,2.719715 0.10595703,4.07959 0.0721888,2.738383 0.14730088,5.476656 0.2265625,8.214844 0.0194266,0.671964 0.0388532,1.343928 0.0588684,2.036255 0.120418,3.78523 0.3301743,7.544138 0.6755066,11.315307 0.068965,0.779158 0.1379297,1.558316 0.2089844,2.361084 0.1908808,1.987206 0.411634,3.971479 0.6347656,5.955322 C 2,64 2,64 -0.06640625,66.414062 -3.6015304,68.325195 -5.8201831,68.411306 -9.8125,68.25 -10.973945,68.21391 -12.135391,68.17781 -13.332031,68.140625 -14.212461,68.094219 -15.092891,68.047813 -16,68 c -1.312235,-3.936705 -0.242963,-6.124881 1,-10 -0.66,0 -1.32,0 -2,0 0.33,-3.3 0.66,-6.6 1,-10 0.66,0 1.32,0 2,0 0.04898,-0.999023 0.09797,-1.998047 0.148437,-3.027344 0.07477,-1.290351 0.149532,-2.580703 0.226563,-3.910156 0.104414,-1.93166 0.104414,-1.93166 0.210937,-3.902344 C -13.209102,35.595879 -13.209102,35.595879 -13,34 c 0.99,-0.495 0.99,-0.495 2,-1 0,10.56 0,21.12 0,32 2.97,0 5.94,0 9,0 0.027662,-1.49989 0.046686,-2.999939 0.0625,-4.5 0.011602,-0.835313 0.023203,-1.670625 0.035156,-2.53125 C -1.9522218,54.882129 -1.9522218,54.882129 -2.5,51.382812 -3.0765127,46.876984 -3.1273022,42.443438 -3.0976563,37.90625 c 0.00142,-0.83213 0.00283,-1.66426 0.00429,-2.521606 0.00555,-2.628253 0.018089,-5.256417 0.030868,-7.884644 0.00502,-1.79427 0.00958,-3.588541 0.013672,-5.382813 C -3.0378697,17.744758 -3.0206425,13.372394 -3,9 c -0.66,0 -1.32,0 -2,0 0,-0.66 0,-1.32 0,-2 -2.6493767,0.8355102 -2.6493767,0.8355102 -5,3 -0.654754,3.070759 -0.469461,6.065192 -0.3125,9.1875 0.02256,0.84498 0.04512,1.689961 0.06836,2.560547 0.05889,2.084741 0.148572,4.168571 0.24414,6.251953 -0.66,0.33 -1.32,0.66 -2,1 -0.690939,2.579519 -0.690939,2.579519 -1.125,5.5625 -0.167578,1.011914 -0.335156,2.023828 -0.507813,3.066406 C -13.753984,38.411367 -13.875156,39.193828 -14,40 c -0.33,0 -0.66,0 -1,0 0,-11.88 0,-23.76 0,-36 2.97,-0.99 5.94,-1.98 9,-3 2,-1 2,-1 6,-1 z"
       fill="#445774"
       transform="translate(517,155)"
       id="path15" />
    <path
       d="m 0,0 c 0,6.9621273 -3.2853303,13.147046 -6.3457031,19.248047 -5.7610999,12.38449 -6.0078479,25.959301 -6.0224919,39.342102 -0.03982,14.830259 -0.958583,28.994533 -3.904754,43.543151 -2.248163,11.2441 -2.517841,21.99935 -0.164551,33.2417 1.231916,5.92368 1.459204,10.6301 0.4375,16.625 0.66,0.33 1.32,0.66 2,1 -0.33,1.65 -0.66,3.3 -1,5 -1.52182,-2.80172 -2.415387,-5.32586 -3.035156,-8.44922 -0.169512,-0.84885 -0.339024,-1.69769 -0.513672,-2.57226 -0.169512,-0.87979 -0.339024,-1.75957 -0.513672,-2.66602 -0.260068,-1.29067 -0.260068,-1.29067 -0.525391,-2.60742 -2.840476,-14.44181 -2.624059,-27.47393 -0.332458,-41.978609 C -17.836222,86.395414 -16.573534,73.304462 -16.375,59.8125 -16.199215,48.593188 -15.793544,37.923636 -13,27 c 0.277148,-1.144688 0.554297,-2.289375 0.839844,-3.46875 C -9.8687691,15.113107 -6.2644375,6.2644375 0,0 Z"
       fill="#7c7e84"
       transform="translate(420,62)"
       id="path17" />
    <path
       d="M 0,0 C 2.875577,-0.08138426 5.7488226,-0.14067851 8.625,-0.1875 9.4332422,-0.2126367 10.241484,-0.2377734 11.074219,-0.2636719 16.176893,-0.32589961 19.531397,0.24508449 24,3 c -0.476452,4.2880687 -1.659025,6.2664749 -5,9 -0.66,0 -1.32,0 -2,0 0.33,0.66 0.66,1.32 1,2 3.465,-0.495 3.465,-0.495 7,-1 -2.940601,4.410902 -6.294938,4.550893 -11.324219,5.625 C 7.8214221,19.222257 2.4602756,18.149088 -3,16 c -1.8671875,-1.617187 -1.8671875,-1.617187 -3,-3 2.64,0.33 5.28,0.66 8,1 0,-0.66 0,-1.32 0,-2 -1.32,-0.66 -2.64,-1.32 -4,-2 0,-2.64 0,-5.28 0,-8 0.66,0 1.32,0 2,0 C 0,1.34 0,0.68 0,0 Z"
       fill="#1a2944"
       transform="translate(446,156)"
       id="path19" />
    <path
       d="M 0,0 C 1.5546094,0.10828125 1.5546094,0.10828125 3.140625,0.21875 4.5104118,0.31257101 5.8802037,0.40631708 7.25,0.5 8.2728711,0.57154297 8.2728711,0.57154297 9.3164063,0.64453125 12.557315,0.86478719 15.749337,1 19,1 c 0.66,2.97 1.32,5.94 2,9 5.94,1.485 5.94,1.485 12,3 0,0.33 0,0.66 0,1 -0.549644,0.01031 -1.099288,0.02061 -1.665588,0.03124 -5.776281,0.109082 -11.552437,0.223583 -17.328553,0.341079 -2.149061,0.04303 -4.2981503,0.08472 -6.4472653,0.125 -15.1667616,0.249862 -15.1667616,0.249862 -30.2939457,1.295411 -3.009752,0.275472 -5.994006,0.305735 -9.014648,0.269775 -1.005469,-0.009 -2.010937,-0.01805 -3.046875,-0.02734 C -35.523906,16.023555 -36.250937,16.011953 -37,16 c 6.992694,-4.009797 16.161915,-3.128493 24,-3 0,-0.66 0,-1.32 0,-2 3.96,0.33 7.92,0.66 12,1 C -1.020625,10.576875 -1.04125,9.15375 -1.0625,7.6875 -1.1058188,4.6985004 -0.96070434,2.882113 0,0 Z"
       fill="#314059"
       transform="translate(501,251)"
       id="path23" />
    <path
       d="M 0,0 C 0.77601563,0.00773438 1.5520312,0.01546875 2.3515625,0.0234375 3.1198437,0.01570312 3.888125,0.00796875 4.6796875,0 11.638227,0.02407799 11.638227,0.02407799 14.976563,2.2734375 c 0,2.64 0,5.28 0,8.0000005 -0.99,0 -1.98,0 -3,0 0,0.66 0,1.32 0,2 -0.66,0 -1.32,0 -2.0000005,0 0,0.66 0,1.32 0,2 3.6300005,-0.99 7.2600005,-1.98 10.9999995,-3 0,0.66 0,1.32 0,2 -8.199746,3.840839 -16.2439851,6.923898 -25.3593745,4.328124 -1.9039997,-0.715687 -3.7763235,-1.514611 -5.6406255,-2.328124 3.0000005,-1 3.0000005,-1 6.0000005,-1 -0.66,-0.495 -1.32,-0.99 -2,-1.5 -2.9257306,-3.6571637 -2.4460759,-5.8905497 -2,-10.5000005 C -5.4143416,-0.33565839 -3.5561743,0.01234783 0,0 Z"
       fill="#1b2841"
       transform="translate(562.02344,155.72656)"
       id="path24" />
    <path
       d="m 0,0 c 1.1376329,-0.00241196 2.2752658,-0.00482391 3.4473724,-0.00730896 2.4014485,9.7825e-4 4.8029196,0.01436642 7.2042386,0.03929138 3.678756,0.03433538 7.355114,0.02064894 11.033936,0.0012207 2.333994,0.0068976 4.667983,0.01656916 7.001953,0.02929688 1.101106,-0.0049599 2.202212,-0.0099197 3.336685,-0.01502991 1.536958,0.0237545 1.536958,0.0237545 3.104965,0.04798889 0.899811,0.0061986 1.799622,0.01239716 2.7267,0.01878357 3.198485,0.67980525 4.40841,1.98802405 6.421494,4.51466365 0.517578,2.8850098 0.517578,2.8850098 0.53125,6.1914068 0.0077,1.787607 0.0077,1.787607 0.01563,3.611328 -0.01547,1.240722 -0.03094,2.481445 -0.04687,3.759765 0.01547,1.24459 0.03094,2.48918 0.04687,3.771485 -0.0052,1.190449 -0.01031,2.380898 -0.01563,3.607421 -0.0045,1.089983 -0.009,2.179966 -0.01367,3.302979 -0.517578,2.755615 -0.517578,2.755615 -2.221436,4.402588 -2.740936,1.615127 -4.385303,1.738495 -7.552002,1.75708 -1.57183,0.01903 -1.57183,0.01903 -3.175415,0.03844 -1.126117,-0.0029 -2.252234,-0.0059 -3.412475,-0.0089 -1.161244,0.0052 -2.322488,0.01048 -3.518921,0.01588 -2.45446,0.0064 -4.90895,0.0051 -7.363403,-0.0034 -3.759834,-0.0085 -7.518149,0.02026 -11.2778325,0.052 -2.3841141,0.0016 -4.768231,0.001 -7.15234375,-0.002 -1.12611695,0.01123 -2.25223385,0.02247 -3.41247555,0.03404 -1.047887,-0.0094 -2.095774,-0.01876 -3.1754151,-0.02843 -1.380888,-2.49e-4 -1.380888,-2.49e-4 -2.7896731,-5.03e-4 -3.234434,-0.657337 -4.432813,-1.954198 -6.466186,-4.501206 -0.820526,-4.106385 -0.602799,-8.258264 -0.5625,-12.4375 -0.02385,-1.132441 -0.0477,-2.264883 -0.07227,-3.43164 0.0019,-1.09377 0.0039,-2.187539 0.0059,-3.314453 -7.26e-4,-0.995721 -0.0015,-1.9914409 -0.0022,-3.0173345 C -15.284767,-0.74842382 -7.7488116,-0.09347381 0,0 Z m -14.722656,5.6289062 c -0.446441,2.674816 -0.446441,2.674816 -0.363282,5.6914068 6.45e-4,1.109238 0.0013,2.218476 0.002,3.361328 0.01611,1.158222 0.03223,2.316445 0.04883,3.509765 -0.0032,1.16209 -0.0064,2.32418 -0.0098,3.521485 -0.399489,6.032144 -0.399489,6.032144 2.322266,10.916015 2.331074,0.299421 2.331074,0.299421 5.0605466,0.24292 1.5817401,0.0046 1.5817401,0.0046 3.1954346,0.0093 1.7140704,-0.01078 1.7140704,-0.01078 3.4627686,-0.02177 1.16881709,-4.58e-4 2.3376342,-9.16e-4 3.5418701,-0.0014 2.4748231,-0.003 4.9496443,-0.01092 7.4244384,-0.02327 3.7990587,-0.01823 7.5978747,-0.02051 11.3969727,-0.02026 2.399742,-0.0049 4.799482,-0.01074 7.199219,-0.01758 1.142713,-0.0011 2.285427,-0.0022 3.462768,-0.0034 1.054494,-0.0064 2.108987,-0.01276 3.195435,-0.01933 0.931066,-0.0038 1.862131,-0.0076 2.821411,-0.01155 2.276766,0.01127 2.276766,0.01127 4.239136,-1.133713 0.05783,-4.458279 0.09354,-8.916463 0.125,-13.375 0.01676,-1.271015 0.03352,-2.542031 0.05078,-3.851562 0.0064,-1.211719 0.01289,-2.423438 0.01953,-3.671875 0.01047,-1.120679 0.02095,-2.2413577 0.03174,-3.3959963 0.0535,-2.8553449 0.0535,-2.8553449 -2.227051,-4.7055664 C 37.994686,2.3157853 37.994686,2.3157853 35.324476,2.354195 34.293231,2.344665 33.261986,2.335131 32.199491,2.32531 31.081788,2.3262214 29.964086,2.32713 28.812513,2.32807 27.668264,2.32378 26.524014,2.3195 25.345091,2.315085 22.921559,2.309335 20.49801,2.308845 18.074476,2.313175 14.358601,2.316335 10.643524,2.292892 6.9277474,2.267521 4.5768369,2.265251 2.2259243,2.264541 -0.124987,2.265571 -1.2406656,2.256361 -2.3563441,2.247152 -3.5058311,2.237663 c -1.5515957,0.00934 -1.5515957,0.00934 -3.1345368,0.018875 -0.9110801,-6.294e-4 -1.8221603,-0.00126 -2.760849,-0.00191 -2.7798771,0.4481256 -3.6692311,1.1274941 -5.3214261,3.3742217 z"
       fill="#727a83"
       transform="translate(439.72266,146.37109)"
       id="path26" />
    <path
       d="m 0,0 c 1.7064494,-0.00929787 1.7064494,-0.00929787 3.4473724,-0.01878357 2.4014043,-0.0070948 4.8028578,-0.0039302 7.2042386,0.0087738 3.678895,0.01388079 7.355255,-0.02023238 11.033936,-0.05834961 2.333985,-9.5104e-4 4.667973,9.0682e-4 7.001953,0.0058594 1.101106,-0.01325821 2.202212,-0.02651642 3.336685,-0.04017639 7.539658,0.09222312 7.539658,0.09222312 10.944321,2.84486387 1.446916,3.122165 1.824535,5.2081305 1.840088,8.6406255 0.0077,1.640654 0.0077,1.640654 0.01563,3.314453 -0.01547,1.132441 -0.03094,2.264882 -0.04687,3.43164 0.01547,1.136309 0.03094,2.272617 0.04687,3.44336 -0.0052,1.09248 -0.01031,2.184961 -0.01563,3.310546 -0.0045,0.994593 -0.009,1.989185 -0.01367,3.013917 -0.667498,3.442965 -1.817481,4.477158 -4.517578,6.669677 -2.466187,0.501206 -2.466187,0.501206 -5.25586,0.501709 -1.57183,0.01407 -1.57183,0.01407 -3.175415,0.02843 -1.126117,-0.01123 -2.252234,-0.02247 -3.412475,-0.03404 -1.741866,0.0022 -1.741866,0.0022 -3.518921,0.0044 -2.454493,-0.0017 -4.908997,-0.01323 -7.363403,-0.03395 -3.759727,-0.02894 -7.518043,-0.02061 -11.2778325,-0.0076 C 3.8893161,35.019153 1.5051991,35.010762 -0.87890625,35 c -1.12611695,0.0029 -2.25223385,0.0059 -3.41247555,0.0089 -1.047887,-0.01268 -2.095774,-0.02537 -3.1754151,-0.03844 -0.920592,-0.0054 -1.8411841,-0.01081 -2.7896731,-0.01637 -2.948063,-0.46343 -4.331702,-1.325658 -6.466186,-3.38768 -0.857135,-4.427679 -0.602125,-8.936631 -0.5625,-13.4375 -0.02385,-1.240722 -0.0477,-2.481445 -0.07227,-3.759765 0.0019,-1.191739 0.0039,-2.383477 0.0059,-3.611328 -7.26e-4,-1.0911113 -0.0015,-2.1822222 -0.0022,-3.306397 0.631104,-2.8850098 0.631104,-2.8850098 2.437744,-5.2365722 C -10.038816,-0.30280542 -5.4138518,-0.0244313 0,0 Z m -12.722656,2.5664063 c -2.275318,3.4129764 -2.256747,4.681309 -2.265625,8.6914067 -0.0026,1.109238 -0.0052,2.218476 -0.0078,3.361328 0.0077,1.158222 0.01547,2.316445 0.02344,3.509765 -0.0077,1.16209 -0.01547,2.32418 -0.02344,3.521485 0.0026,1.107949 0.0052,2.215898 0.0078,3.357421 0.0023,1.017796 0.0045,2.035591 0.0068,3.084229 0.01463,2.650015 0.01463,2.650015 2.258789,4.474365 2.330794,0.306321 2.330794,0.306321 5.0605466,0.258789 1.5817401,0.0095 1.5817401,0.0095 3.1954346,0.0191 1.1427136,-0.004 2.2854272,-0.0081 3.4627686,-0.01227 1.16881709,0.0019 2.3376342,0.0038 3.5418701,0.0058 2.474815,0.0014 4.9496371,-0.0023 7.4244384,-0.01068 3.7991537,-0.0107 7.5978337,-1.08e-4 11.3969727,0.0127 2.399741,-0.0013 4.799481,-0.0039 7.199219,-0.0078 1.71407,0.0061 1.71407,0.0061 3.462768,0.01227 1.054494,-0.0063 2.108987,-0.01261 3.195435,-0.0191 0.931066,-0.0016 1.862131,-0.0032 2.821411,-0.0048 2.44196,-0.04152 2.44196,-0.04152 4.239136,-2.253968 0.45906,-4.315574 0.32401,-8.662841 0.3125,-13 0.01611,-1.214297 0.03223,-2.428593 0.04883,-3.679687 6.44e-4,-1.157578 0.0013,-2.315156 0.002,-3.507813 0.003,-1.0660544 0.006,-2.1321091 0.009,-3.2304685 C 42.526794,6.2963672 42.403931,5.4442969 42.277344,4.5664062 38.9936,2.3772436 38.00675,2.311024 34.195068,2.291748 33.160671,2.282216 32.126274,2.272684 31.060532,2.2628632 c -1.115679,9.114e-4 -2.231358,0.00182 -3.380845,0.00276 -1.145206,-0.00429 -2.290412,-0.00857 -3.470321,-0.012985 -2.421751,-0.00575 -4.84352,-0.00624 -7.265274,-0.00191 -3.717989,0.00316 -7.4351857,-0.020312 -11.1530764,-0.045654 -2.3496083,-0.00227 -4.6992189,-0.00298 -7.0488281,-0.00195 -1.1177028,-0.00921 -2.2354056,-0.018419 -3.3869781,-0.027908 -1.5468675,0.00934 -1.5468675,0.00934 -3.1249848,0.018875 -0.9102846,-6.294e-4 -1.8205691,-0.00126 -2.7584386,-0.00191 -0.724166,0.1234931 -1.448332,0.2469863 -2.194442,0.3742218 z"
       fill="#4b5059"
       transform="translate(552.72266,146.43359)"
       id="path27" />
    <path
       d="M 0,0 C 2.125,0.9375 2.125,0.9375 4,2 3.38125,2.268125 2.7625,2.53625 2.125,2.8125 -0.2995233,3.9555685 -0.2995233,3.9555685 -2,7 -2,5.68 -2,4.36 -2,3 -8.073968,4.22804 -8.073968,4.22804 -13.9375,6.1875 -14.618125,6.455625 -15.29875,6.72375 -16,7 -16.66,6.67 -17.32,6.34 -18,6 -19.936942,6.7456199 -19.936942,6.7456199 -22.0625,7.875 -27.30575,10.335425 -32.25089,11 -38,11 c -3.329012,2.219342 -3.750232,3.346833 -5,7 -1.32,0 -2.64,0 -4,0 -0.487202,-1.351296 -0.964282,-2.706243 -1.4375,-4.0625 -0.400254,-1.131152 -0.400254,-1.131152 -0.808594,-2.285156 C -50.152984,8.4617813 -50.554002,5.2835584 -51,2 c 0.914152,-0.015461 0.914152,-0.015461 1.846771,-0.031235 6.326254,-0.1079348 12.652361,-0.2225432 18.978424,-0.3410798 2.362925,-0.043391 4.725882,-0.085063 7.088868,-0.125 3.390723,-0.057602 6.781285,-0.1213256 10.171874,-0.1862793 1.592239,-0.025069 1.592239,-0.025069 3.2166448,-0.050644 0.9808658,-0.019945 1.9617316,-0.03989 2.9723205,-0.06044 1.2990578,-0.023316 1.2990578,-0.023316 2.6243592,-0.047104 C -1.9424211,1.1290341 -1.9424211,1.1290341 0,0 Z"
       fill="#283851"
       transform="translate(482,179)"
       id="path28" />
    <path
       d="m 0,0 c 4.035206,1.5896266 8.0181128,3.2823232 12,5 0,0.66 0,1.32 0,2 1.09248,0.3770508 1.09248,0.3770508 2.207031,0.7617187 3.011529,1.3351814 5.02283,2.8685313 7.480469,5.0507813 0.766992,0.666445 1.533984,1.332891 2.324219,2.019531 C 26,17 26,17 27.019531,19.636719 c 0.727334,2.493872 0.727334,2.493872 2.828125,3.253906 6.127449,3.15825 9.746989,13.30272 12.035645,19.501953 C 47.203097,59.070859 46.916653,76.673568 47,94 c -0.99,0.495 -0.99,0.495 -2,1 -0.01982,-0.907661 -0.03964,-1.815322 -0.06006,-2.750488 -0.0784,-3.388443 -0.1651,-6.776467 -0.257324,-10.164551 -0.03813,-1.462483 -0.07301,-2.925054 -0.104492,-4.387695 -0.046,-2.110347 -0.103934,-4.220092 -0.164063,-6.330079 -0.03142,-1.267309 -0.06284,-2.534619 -0.09521,-3.840332 C 43.935562,63.287238 42.903033,59.748783 40.953125,55.972656 39.762657,53.508779 39.306183,51.115021 38.75,48.4375 34.2979,30.254419 21.275926,16.839097 6.2773437,6.578125 3.7548662,4.8301303 1.357402,2.9645017 -1,1 -0.67,0.67 -0.34,0.34 0,0 Z"
       fill="#a9adb2"
       transform="translate(569,38)"
       id="path33" />
    <path
       d="m 0,0 c 0.33,0 0.66,0 1,0 0.2909304,5.1001808 0.5754101,10.200671 0.8544922,15.301514 0.09533,1.726981 0.1922757,3.453874 0.2910156,5.180664 C 2.4786,26.319789 2.7641614,32.157648 3,38 c 0.053174,1.225324 0.053174,1.225324 0.1074219,2.475403 0.092221,2.342866 0.1539008,4.68442 0.2050781,7.028503 0.029729,0.699795 0.059458,1.39959 0.090088,2.12059 0.039977,3.398083 -0.1706636,5.07585 -2.2785645,7.799332 C -2.5885035,60.178779 -6.4853108,60.20215 -11,60 c -2.895055,-0.7354 -5.271212,-1.736672 -8,-3 -0.223546,-1.8941 -0.4282,-3.790435 -0.625,-5.6875 -0.116016,-1.055742 -0.232031,-2.111484 -0.351562,-3.199219 C -20.001033,44.862837 -19.408526,42.897692 -18,40 c 0.66,0.33 1.32,0.66 2,1 -0.33,1.32 -0.66,2.64 -1,4 0.66,0.33 1.32,0.66 2,1 -0.66,3.3 -1.32,6.6 -2,10 1.268437,-0.2475 1.268437,-0.2475 2.5625,-0.5 C -11,55 -11,55 -7.375,55.125 -3.6009324,54.98522 -2.5374678,54.727081 0,52 0.30239162,48.957823 0.30239162,48.957823 -0.1875,45.3125 -0.32101532,43.81041 -0.44800217,42.307732 -0.5703125,40.804687 -0.67907715,39.48356 -0.67907715,39.48356 -0.79003906,38.135742 -1.2401863,31.412846 -1.3715352,24.671908 -1.5625,17.9375 -1.6061215,16.464592 -1.6499812,14.991692 -1.6940918,13.518799 -1.7986486,10.012605 -1.9002041,6.5063328 -2,3 -1.34,3 -0.68,3 0,3 0,2.01 0,1.02 0,0 Z"
       fill="#2d3c55"
       transform="translate(518,167)"
       id="path36" />
    <path
       d="m 0,0 c 0.99,0 1.98,0 3,0 -2.38936847,9.0796002 -8.30441,16.707633 -14,24 -1.688823,2.186495 -3.376203,4.37406 -5.0625,6.5625 -0.436912,0.565012 -0.873823,1.130024 -1.323975,1.712158 -2.209667,2.865223 -4.368194,5.749301 -6.426025,8.725342 -2.190436,3.004027 -4.553257,5.380875 -7.1875,8 -2.446832,2.630776 -4.845645,5.305431 -7.246094,7.978516 C -39.477935,58.336916 -40.736607,59.670894 -42,61 c -0.33,0 -0.66,0 -1,0 0,-1.65 0,-3.3 0,-5 1.32,0 2.64,0 4,0 0.07992,-0.727031 0.159844,-1.454063 0.242188,-2.203125 0.937533,-3.460175 2.404749,-4.97641 4.882812,-7.546875 3.738662,-3.976793 7.123791,-8.050298 10.367188,-12.4375 C -22,32 -22,32 -19,30 c 0,-0.66 0,-1.32 0,-2 0.66,0 1.32,0 2,0 0.242344,-0.519492 0.484688,-1.038984 0.734375,-1.574219 C -11.335766,16.167883 -11.335766,16.167883 -7,14 c 1.1335053,-2.016698 1.1335053,-2.016698 2,-4 0.66,0.33 1.32,0.66 2,1 C -3.20625,10.38125 -3.4125,9.7625 -3.625,9.125 -3.74875,8.42375 -3.8725,7.7225 -4,7 -3.34,6.34 -2.68,5.68 -2,5 -2,4.34 -2,3.68 -2,3 -1.34,2.67 -0.68,2.34 0,2 0,1.34 0,0.68 0,0 Z"
       fill="#747678"
       transform="translate(596,271)"
       id="path41" />
    <path
       d="M 0,0 C 0,6.9621273 -3.2853303,13.147046 -6.3457031,19.248047 -12.323266,32.097862 -12.646983,47.263256 -13.625,61.1875 c -0.180749,2.480469 -0.364085,4.96071 -0.550629,7.44075 -0.114027,1.52453 -0.224461,3.049335 -0.330627,4.574432 C -14.774257,76.8721 -15.175252,80.412214 -16,84 c -0.33,0 -0.66,0 -1,0 0.06996,-5.385752 0.158405,-10.770805 0.262451,-16.156006 0.03282,-1.823813 0.06098,-3.647717 0.08399,-5.47168 C -16.389429,41.966457 -15.369542,15.369542 0,0 Z"
       fill="#9c9ea2"
       transform="translate(420,62)"
       id="path42" />
    <path
       d="m 0,0 c 0.33,0.99 0.66,1.98 1,3 3.4579617,1.3299853 7.3440861,1.5078577 11,2 0.33,0.99 0.66,1.98 1,3 0.66,0.33 1.32,0.66 2,1 0.33,-0.66 0.66,-1.32 1,-2 0.66,2.31 1.32,4.62 2,7 -2.762233,2.762233 -5.207066,2.578563 -9,3 0.66,0.33 1.32,0.66 2,1 -0.66,2.31 -1.32,4.62 -2,7 C 8.67,25 8.34,25 8,25 7.67,23.35 7.34,21.7 7,20 6.01,19.67 5.02,19.34 4,19 1.8630641,14.844847 0.58111391,10.273953 1.4375,5.625 1.623125,5.08875 1.80875,4.5525 2,4 0.68,3.34 -0.64,2.68 -2,2 -1.34,1.34 -0.68,0.68 0,0 Z"
       fill="#495e7c"
       transform="translate(551,196)"
       id="path45" />
    <path
       d="M 0,0 C -1.3333333,1 -2.6666667,2 -4,3 -4.66,3.53625 -5.32,4.0725 -6,4.625 -8,6 -8,6 -10.125,6.4375 -10.74375,6.623125 -11.3625,6.80875 -12,7 c -0.33,0.66 -0.66,1.32 -1,2 -0.33,0.66 -0.66,1.32 -1,2 -1.325941,0.36162 -2.659385,0.69728 -4,1 -0.33,0.99 -0.66,1.98 -1,3 -0.558164,-0.239766 -1.116328,-0.479531 -1.691406,-0.726562 -2.445215,-0.531601 -2.445215,-0.531601 -4.710938,1.203125 -1.254902,1.063476 -1.254902,1.063476 -2.535156,2.148437 -0.875273,0.738633 -1.750547,1.477266 -2.652344,2.238281 C -34.178264,23.044588 -37.321753,25.982629 -40,30 c -2.625,0.6875 -2.625,0.6875 -5,1 0,-2 0,-2 1.1875,-3.3125 0.598125,-0.556875 1.19625,-1.11375 1.8125,-1.6875 0.7425,-0.7425 1.485,-1.485 2.25,-2.25 0.9075,-0.9075 1.815,-1.815 2.75,-2.75 0.48082,-0.527227 0.961641,-1.054453 1.457031,-1.597656 C -28.319559,11.686828 -19.402198,6.4589111 -9.9375,1.9375 -9.2942578,1.6261914 -8.6510156,1.3148828 -7.9882812,0.99414062 -3.3700721,-1.1233574 -3.3700721,-1.1233574 0,0 Z"
       fill="#7e8186"
       transform="translate(466,31)"
       id="path46" />
    <path
       d="M 0,0 C 0.60730957,0.13712402 1.2146191,0.27424805 1.840332,0.41552734 7.8804545,1.7112479 13.707337,2.4044162 19.875,2.625 21.287128,2.679745 21.287128,2.679745 22.727783,2.7355957 46.922672,3.5756004 70.866928,2.600359 95,1 94.67,1.99 94.34,2.98 94,4 15.482218,10.741109 15.482218,10.741109 0,3 0,2.01 0,1.02 0,0 Z"
       fill="#969ea8"
       transform="translate(462,273)"
       id="path48" />
    <path
       d="M 0,0 C 3.0476288,1.1082286 5.5922672,2.361941 8.375,4.0625 11.92569,6.161699 14.911377,6.6662349 19,7 c 0.06188,0.78375 0.12375,1.5675 0.1875,2.375 0.545276,2.808965 0.545276,2.808965 3.0625,3.9375 2.712432,0.678108 4.96799,0.846472 7.75,0.6875 0,1.65 0,3.3 0,5 0.804375,0.268125 1.60875,0.53625 2.4375,0.8125 0.845625,0.391875 1.69125,0.78375 2.5625,1.1875 0.495,1.485 0.495,1.485 1,3 -1.65,-0.33 -3.3,-0.66 -5,-1 0,-0.66 0,-1.32 0,-2 -2.280671,-1.212976 -2.280671,-1.212976 -5,-2 -2.033271,0.849917 -2.033271,0.849917 -4,2 -2.75,0.125 -2.75,0.125 -5,0 C 16.806641,20.445703 16.613281,19.891406 16.414062,19.320312 16.153672,18.595859 15.893281,17.871406 15.625,17.125 15.369766,16.405703 15.114531,15.686406 14.851563,14.945313 14.061222,12.81842 14.061222,12.81842 12,11 11.01,11.495 11.01,11.495 10,12 9.34,11.67 8.68,11.34 8,11 7.938125,10.2575 7.87625,9.515 7.8125,8.75 6.7102405,5.0192755 4.6875079,4.0447736 1.4960937,2.015625 1.0023828,1.6804687 0.50867188,1.3453125 0,1 0,0.67 0,0.34 0,0 Z m 15,8 c 0.33,0.66 0.66,1.32 1,2 0.33,-0.66 0.66,-1.32 1,-2 -0.66,0 -1.32,0 -2,0 z"
       fill="#516581"
       transform="translate(513,67)"
       id="path50" />
    <path
       d="M 0,0 C 0.33,0.66 0.66,1.32 1,2 1.66,2.33 2.32,2.66 3,3 2.525625,3.7425 2.05125,4.485 1.5625,5.25 0.19744705,7.6524932 -0.38583598,9.3678685 -1,12 c -0.99,1.485 -0.99,1.485 -2,3 -1.32,0 -2.64,0 -4,0 -0.0825,1.216875 -0.165,2.43375 -0.25,3.6875 -0.5437325,4.151471 -1.54935,6.448761 -4.75,9.3125 -3.75,1.3125 -3.75,1.3125 -7,2 1.198997,-3.083135 2.477005,-6.062795 4,-9 0.66,0 1.32,0 2,0 0.154687,-0.897188 0.154687,-0.897188 0.3125,-1.8125 C -12,17 -12,17 -10.4375,15.5625 -8.4361328,13.387101 -8.9296285,11.885233 -9,9 -8.0625,6.8125 -8.0625,6.8125 -7,5 -6.67,4.34 -6.34,3.68 -6,3 -4.0247715,1.9519196 -2.0251849,0.9479589 0,0 Z"
       fill="#4d607d"
       transform="translate(472,193)"
       id="path52" />
    <path
       d="M 0,0 C 0.33,0 0.66,0 1,0 0.6875,3.375 0.6875,3.375 0,7 c -3.2975068,2.1983379 -4.3090728,2.2555196 -8.142334,2.2746582 -1.5719437,0.014298 -1.5719437,0.014298 -3.175644,0.028885 -1.696917,-0.00137 -1.696917,-0.00137 -3.428116,-0.00276 -1.743988,0.00643 -1.743988,0.00643 -3.523208,0.012985 -2.460438,0.00575 -4.920892,0.00624 -7.381333,0.00191 -3.768442,-0.00316 -7.536098,0.020291 -11.304443,0.045654 -2.388671,0.00227 -4.777344,0.00298 -7.166016,0.00195 -1.129254,0.00921 -2.258508,0.018419 -3.421982,0.027908 -1.576672,-0.00934 -1.576672,-0.00934 -3.185195,-0.018875 -0.923609,6.295e-4 -1.847217,0.00126 -2.798813,0.00191 C -56.516792,8.9217948 -57.901509,8.1691059 -60,6 c 0,-1.32 0,-2.64 0,-4 0.66,0 1.32,0 2,0 0.66,1.32 1.32,2.64 2,4 17.49,0 34.98,0 53,0 0.99,-1.98 1.98,-3.96 3,-6 z"
       fill="#7e8895"
       transform="translate(596,172)"
       id="path57" />
    <path
       d="m 0,0 c 6.9723107,0.49037872 13.472277,1.6329685 20.1875,3.5625 0.904036,0.2588599 1.808071,0.5177197 2.739502,0.7844238 C 31.353299,6.8888979 42.922343,10.383514 48,18 45.49161,16.996644 42.986497,15.994261 40.5,14.9375 38.069108,13.93954 38.069108,13.93954 35.671875,13.585938 32.785042,12.95286 30.431546,11.924842 27.75,10.6875 21.798428,8.1166588 15.850279,6.6384092 9.5244141,5.3444824 7.6701187,4.9527508 5.8326565,4.482944 4,4 3.67,3.34 3.34,2.68 3,2 2.01,1.34 1.02,0.68 0,0 Z"
       fill="#b8bcc0"
       transform="translate(531,25)"
       id="path58" />
    <path
       d="M 0,0 C 1.2307692,5.4153846 1.2307692,5.4153846 0.0625,8.375 -0.288125,8.91125 -0.63875,9.4475 -1,10 -1.66,8.68 -2.32,7.36 -3,6 c -3.4694155,0.4582247 -6.6739505,0.8913168 -10,2 0.0052,0.6851367 0.01047,1.3702734 0.01587,2.076172 0.02094,3.141266 0.03385,6.282518 0.04663,9.423828 0.0084,1.077656 0.01676,2.155312 0.02539,3.265625 C -12.894281,28.613284 -13.10894,34.218637 -14,40 c -0.33,0 -0.66,0 -1,0 0,-11.88 0,-23.76 0,-36 2.97,-0.99 5.94,-1.98 9,-3 2,-1 2,-1 6,-1 z"
       fill="#33435d"
       transform="translate(517,155)"
       id="path60" />
    <path
       d="M 0,0 C 2.0625,0.4375 2.0625,0.4375 4,1 -4.4431497,11.190008 -19.18115,13.556088 -31.6875,14.8125 -40.216722,15.313652 -48.565727,14.157083 -57,13 c 0,-0.33 0,-0.66 0,-1 9.9,0 19.8,0 30,0 0.33,-0.66 0.66,-1.32 1,-2 2.688046,-0.6801795 5.347002,-1.2679801 8.0625,-1.8125 C -11.093456,6.7136941 -5.1345931,5.1345931 0,0 Z"
       fill="#aaadaf"
       transform="translate(548,332)"
       id="path61" />
    <path
       d="m 0,0 c 0.33,0 0.66,0 1,0 1.357403,6.6947645 2.2792574,13.254559 2.65625,20.078125 0.2617459,3.009992 0.2617459,3.009992 1.3530273,6.124268 1.0439262,4.001545 1.2191899,7.353441 1.1860352,11.481201 -0.00283,0.700369 -0.00566,1.400737 -0.00858,2.122329 C 6.1756488,42.016632 6.150567,44.226917 6.125,46.4375 6.1149555,47.94726 6.1058322,49.457026 6.0976562,50.966797 6.0757471,54.644666 6.0412976,58.322292 6,62 5.67,62 5.34,62 5,62 4.67,53.42 4.34,44.84 4,36 3.34,35.67 2.68,35.34 2,35 1.2994589,32.685437 0.76480456,30.491677 0.3125,28.125 0.17803467,27.426973 0.04356934,26.728945 -0.0949707,26.009766 -1.5575135,17.320485 -0.78724621,8.7261026 0,0 Z"
       fill="#8c8e91"
       transform="translate(615,134)"
       id="path63" />
    <path
       d="M 0,0 C 0.66,0.66 1.32,1.32 2,2 0.1436027,3.8563973 -1.7232982,5.6888554 -3.625,7.5 -6.1812626,9.8368875 -6.1812626,9.8368875 -7,13 -7.66,12.67 -8.32,12.34 -9,12 -9.45375,12.61875 -9.9075,13.2375 -10.375,13.875 -12,16 -12,16 -14,18 c -0.647678,2.570613 -0.647678,2.570613 -1,5 -0.66,0 -1.32,0 -2,0 -0.33,0.99 -0.66,1.98 -1,3 0.66,0.66 1.32,1.32 2,2 -0.66,0 -1.32,0 -2,0 0,0.99 0,1.98 0,3 -0.78375,0.2475 -1.5675,0.495 -2.375,0.75 -2.948171,1.403891 -3.527478,2.256757 -4.625,5.25 -0.33,-0.66 -0.66,-1.32 -1,-2 0.859242,-1.932561 1.813702,-3.823233 2.8125,-5.6875 C -20.875986,24.8603 -19.234144,20.83373 -18,16 c 0.66,-0.99 1.32,-1.98 2,-3 1.32,0 2.64,0 4,0 0.37125,-0.928125 0.37125,-0.928125 0.75,-1.875 C -9.7722924,8.612897 -8.5604482,8.2389266 -6,7 -5.67,6.01 -5.34,5.02 -5,4 -3.3766703,2.6142308 -1.7127553,1.2735873 0,0 Z"
       fill="#282c36"
       transform="translate(438,48)"
       id="path64" />
    <path
       d="M 0,0 C 0.66,0 1.32,0 2,0 2.33,1.32 2.66,2.64 3,4 3.6507349,4.025056 4.3014697,4.050112 4.9719238,4.075928 7.9189805,4.191937 10.865721,4.3146411 13.8125,4.4375 c 1.53624,0.058975 1.53624,0.058975 3.103516,0.1191406 0.98291,0.041895 1.96582,0.083789 2.978515,0.1269531 0.905969,0.036658 1.811939,0.073315 2.745362,0.111084 C 25,5 25,5 28,6 25.078039,7.6411012 22.705588,8.3242446 19.375,8.625 18.598984,8.6997656 17.822969,8.7745313 17.023437,8.8515625 15,9 15,9 13,9 9.6709875,11.219342 9.2497676,12.346833 8,16 6.68,16 5.36,16 4,16 2.0752868,10.661645 0.60108576,5.6502062 0,0 Z"
       fill="#40526e"
       transform="translate(431,181)"
       id="path65" />
    <path
       d="M 0,0 C 0.33,0 0.66,0 1,0 1.027121,1.4373951 1.046451,2.8749386 1.0625,4.3125 1.074102,5.1130078 1.085703,5.9135156 1.097656,6.7382812 1,9 1,9 0,12 c -0.66,0 -1.32,0 -2,0 0,5.28 0,10.56 0,16 -0.66,0 -1.32,0 -2,0 0,-7.26 0,-14.52 0,-22 -0.66,0 -1.32,0 -2,0 0,-0.66 0,-1.32 0,-2 -2.6493767,0.8355102 -2.6493767,0.8355102 -5,3 -0.654754,3.070759 -0.469461,6.065192 -0.3125,9.1875 0.02256,0.84498 0.04512,1.689961 0.06836,2.560547 0.05889,2.084741 0.148572,4.168571 0.24414,6.251953 -0.66,0.33 -1.32,0.66 -2,1 -1.068308,-4.38523 -1.217491,-8.69716 -1.25,-13.1875 -0.02063,-0.723809 -0.04125,-1.447617 -0.0625,-2.193359 C -14.328125,8.5195313 -14.328125,8.5195313 -14,5 c 3.679965,-2.45331 5.6541317,-2.3950789 10,-2 0.99,1.485 0.99,1.485 2,3 0.66,-1.98 1.32,-3.96 2,-6 z"
       fill="#4f617e"
       transform="translate(518,158)"
       id="path70" />
    <path
       d="m 0,0 c 0,1.65 0,3.3 0,5 -1.98,0 -3.96,0 -6,0 0,0.66 0,1.32 0,2 -0.99,-0.33 -1.98,-0.66 -3,-1 -0.33,0.66 -0.66,1.32 -1,2 -4.17348,1.3502436 -7.739336,0.7518819 -12,0 2,-3 2,-3 5,-5 -0.99,-0.66 -1.98,-1.32 -3,-2 6.696132,-0.797837 13.2576658,-1.12910853 20,-1 z"
       fill="#2d3b54"
       transform="translate(537,278)"
       id="path71" />
    <path
       d="M 0,0 C 1.32,0 2.64,0 4,0 4.495,2.475 4.495,2.475 5,5 4.34,5 3.68,5 3,5 3,5.66 3,6.32 3,7 2.01,7 1.02,7 0,7 -0.495,6.01 -0.495,6.01 -1,5 -2.98,5 -4.96,5 -7,5 -7.66,6.32 -8.32,7.64 -9,9 -9.7502344,8.7344531 -10.500469,8.4689063 -11.273438,8.1953125 -17.167642,6.1612924 -22.875934,4.4695121 -29.039062,3.4921875 -31,3 -31,3 -33,1 c 1.645942,0.1445968 3.291747,0.2907594 4.9375,0.4375 1.010625,0.087656 2.02125,0.1753125 3.0625,0.265625 1.77562,0.1757124 3.54937,0.3822501 5.3125,0.65625 C -13.264232,3.3512031 -7.3070948,2.4948634 -1,1 -0.67,0.67 -0.34,0.34 0,0 Z"
       fill="#384a65"
       transform="translate(577,181)"
       id="path72" />
    <path
       d="m 0,0 c 0.66,6.6 1.32,13.2 2,20 -2.31,0.33 -4.62,0.66 -7,1 C -6.0017028,14.689272 -6.3843343,9.0581557 -4,3 -1.4133333,0 -1.4133333,0 0,0 Z"
       fill="#6d88a8"
       transform="translate(512,199)"
       id="path74" />
    <path
       d="M 0,0 C 3,2 3,2 3.6677246,3.9929199 4.150751,8.3642914 4.2379829,12.7181 4.3164062,17.113281 c 0.020781,0.969551 0.041562,1.939103 0.062973,2.938034 0.06521,3.086992 0.1242475,6.174067 0.1831207,9.261185 0.043212,2.097014 0.086828,4.194019 0.1308594,6.291016 C 4.8002415,40.735593 4.901589,45.867753 5,51 4.01,51.495 4.01,51.495 3,52 2.2879847,46.14317 1.8300697,40.388417 1.71875,34.492187 1.7003406,33.722466 1.6819312,32.952745 1.6629639,32.159698 1.5853349,28.911438 1.5167328,25.663005 1.4477539,22.414551 1.3956432,20.023672 1.3385723,17.632946 1.28125,15.242188 1.2676746,14.519094 1.2540991,13.796 1.2401123,13.050995 1.1327529,8.6123301 0.70673358,4.3727352 0,0 Z"
       fill="#575a61"
       transform="translate(610,95)"
       id="path76" />
    <path
       d="M 0,0 C 0,0.99 0,1.98 0,3 -0.97195313,3.0257813 -1.9439062,3.0515625 -2.9453125,3.078125 -15.57147,3.5505376 -29.028286,4.7545275 -41.100342,8.6835938 -43,9 -43,9 -46,7 c 0.66,-0.66 1.32,-1.32 2,-2 2,0 4,0 6,0 0.825,-0.33 1.65,-0.66 2.5,-1 2.972381,-1.1889526 5.322384,-1 8.5,-1 1.340908,-0.651298 2.675923,-1.3151328 4,-2 0.99,0.33 1.98,0.66 3,1 2.278964,-0.246298 4.550101,-0.5688663 6.8125,-0.9375 C -8.7243682,0.34017105 -4.5235088,-0.11776363 0,0 Z"
       fill="#2d3a4f"
       transform="translate(582,124)"
       id="path77" />
    <path
       d="M 0,0 C 0,3.4946141 -0.60708151,4.1814607 -2.6875,6.875 -3.4358008,7.8611328 -3.4358008,7.8611328 -4.1992187,8.8671875 -6.3325319,11.393845 -8.654862,13.668677 -11,16 c -2.446551,2.631045 -4.845641,5.305427 -7.246094,7.978516 C -19.477935,25.336916 -20.736607,26.670894 -22,28 c -0.33,0 -0.66,0 -1,0 0,-1.65 0,-3.3 0,-5 1.32,0 2.64,0 4,0 0.07734,-0.724453 0.154688,-1.448906 0.234375,-2.195313 0.957121,-3.506186 2.50283,-5.075366 5.015625,-7.679687 2.783725,-2.951366 5.332762,-5.7974594 7.5625,-9.1875 C -3.8893859,0.85146102 -3.5240327,0.59842064 0,0 Z"
       fill="#818286"
       transform="translate(576,304)"
       id="path78" />
    <path
       d="M 0,0 C 0.56589844,0.31839844 1.1317969,0.63679688 1.7148437,0.96484375 4.1185881,2.0537194 5.9456063,2.3543883 8.5625,2.5625 11.320846,2.7904241 13.340527,3.1135089 16,4 c 1.99203,0.08292 3.986737,0.1073818 5.980469,0.097656 1.745068,-0.00483 1.745068,-0.00483 3.52539,-0.00977 C 27.328271,4.075318 27.328271,4.075318 29.1875,4.062495 31.027314,4.055725 31.027314,4.055725 32.904297,4.048823 35.936247,4.0370306 38.968099,4.0205692 42,4 41.67,4.99 41.34,5.98 41,7 6.7307495,7.283109 6.7307495,7.283109 -3,2 -2.01,1.34 -1.02,0.68 0,0 Z"
       fill="#5d6063"
       transform="translate(480,338)"
       id="path79" />
    <path
       d="m 0,0 c 0.33,0.99 0.66,1.98 1,3 0.99,0.33 1.98,0.66 3,1 0.9840732,2.6611978 1.7791235,5.2046939 2.5,7.9375 0.4277869,1.55355 0.8561702,3.106937 1.2851562,4.660156 0.2051221,0.755552 0.4102442,1.511104 0.6215821,2.289551 0.9695265,3.452791 2.1336067,6.842229 3.3081057,10.22998 C 12,31 12,31 10,34 7.4452048,28.062599 5.275937,22.029164 3.3125,15.875 3.0982739,15.218867 2.8840479,14.562734 2.6633301,13.886719 1.216373,9.263838 0.48846859,4.8202725 0,0 Z"
       fill="#83858a"
       transform="translate(409,236)"
       id="path80" />
    <path
       d="M 0,0 C 0.66,0 1.32,0 2,0 2.8024085,1.9539565 3.5912931,3.9134677 4.375,5.875 4.8158594,6.9655469 5.2567187,8.0560938 5.7109375,9.1796875 9.2557672,19.103632 9.4029877,29.211234 9.625,39.625 9.66327,41.121114 9.702327,42.617209 9.7421875,44.113281 9.8371818,47.742003 9.9215635,51.370878 10,55 9.01,55.495 9.01,55.495 8,56 7.9801807,55.092339 7.9603613,54.184678 7.9399414,53.249512 7.8615433,49.861069 7.7748408,46.473045 7.6826172,43.084961 7.6444879,41.622478 7.6096079,40.159907 7.578125,38.697266 7.5321229,36.586919 7.4741906,34.477174 7.4140625,32.367187 7.3826416,31.099878 7.3512207,29.832568 7.3188477,28.526855 6.937003,24.303174 5.9082526,20.771439 3.9765625,17.003906 2.7011807,14.386823 2.0681037,11.762423 1.375,8.9375 1.1146094,7.8946484 0.85421875,6.8517969 0.5859375,5.7773437 0,3 0,3 0,0 Z"
       fill="#939599"
       transform="translate(606,77)"
       id="path82" />
    <path
       d="M 0,0 C 0.66,0.66 1.32,1.32 2,2 1.8636333,4.5537769 1.6060419,6.9741643 1.25,9.5 c -1.17554341,9.222681 -1.90188266,18.453242 -2.5517578,27.726562 -0.077021,1.066055 -0.154043,2.13211 -0.2333984,3.230469 -0.065823,0.948509 -0.1316456,1.897017 -0.1994629,2.874268 C -1.994067,45.940337 -2.4402064,48.440156 -3,51 c -0.33,0 -0.66,0 -1,0 0.069439,-5.495625 0.1576693,-10.99053 0.2624512,-16.485596 0.033016,-1.864826 0.061118,-3.729747 0.083984,-5.594726 C -3.4032698,9.0398944 -3.4032698,9.0398944 0,0 Z"
       fill="#a6a9ab"
       transform="translate(407,95)"
       id="path83" />
    <path
       d="M 0,0 C 18.81,0.495 18.81,0.495 38,1 37.67,1.66 37.34,2.32 37,3 28.744707,5.1473304 21.232975,5.0893557 12.917969,3.5195313 7.920682,2.6297868 2.8852941,2.3715686 -2,4 -1.34,2.68 -0.68,1.36 0,0 Z"
       fill="#29384f"
       transform="translate(539,180)"
       id="path84" />
    <path
       d="m 0,0 c 0.33799692,4.0204554 0.66956119,8.0414169 1,12.0625 0.095391,1.13373 0.1907812,2.267461 0.2890625,3.435547 C 1.7395756,21.016832 2.1285927,26.462476 2,32 -0.17028067,28.388945 -0.58806497,24.89207 -1.125,20.75 -1.2925781,19.486719 -1.4601562,18.223437 -1.6328125,16.921875 -1.7539844,15.957656 -1.8751563,14.993438 -2,14 -5.1178511,14.646447 -5.1178511,14.646447 -6,17 -6.3315768,10.810566 -5.5819085,6.6603378 -3,1 -1,0 -1,0 0,0 Z"
       fill="#5f7696"
       transform="translate(513,187)"
       id="path85" />
    <path
       d="m 0,0 c 1.98,0 3.96,0 6,0 0,0.66 0,1.32 0,2 9.9,0 19.8,0 30,0 0,0.33 0,0.66 0,1 -1.027705,0.025056 -2.05541,0.050112 -3.114258,0.075928 -3.869234,0.095271 -7.738338,0.1951826 -11.607422,0.2963868 -1.664031,0.042902 -3.328093,0.084601 -4.992187,0.125 C 7.6419956,3.7079568 -0.94578144,3.9910764 -9.5595703,4.7927246 -12.628947,5.053419 -15.670745,5.0991578 -18.75,5.0625 -19.755469,5.0534766 -20.760937,5.0444531 -21.796875,5.0351562 -22.523906,5.0235547 -23.250937,5.0119531 -24,5 -17.007306,0.99020328 -7.8380852,1.8715068 0,2 0,1.34 0,0.68 0,0 Z"
       fill="#373c45"
       transform="translate(488,262)"
       id="path87" />
    <path
       d="M 0,0 C 0.66,0 1.32,0 2,0 2.33,1.98 2.66,3.96 3,6 3.61875,5.814375 4.2375,5.62875 4.875,5.4375 7,5 7,5 9,6 10.373428,6.068947 11.750021,6.084677 13.125,6.0625 15.043125,6.0315625 15.043125,6.0315625 17,6 c 0.33,-1.32 0.66,-2.64 1,-4 0.66,0 1.32,0 2,0 0.33,1.65 0.66,3.3 1,5 C 22.030605,6.965195 22.030605,6.965195 23.082031,6.929688 24.433613,6.902618 24.433613,6.902618 25.8125,6.875001 26.70582,6.851798 27.599141,6.828595 28.519531,6.804689 31,7 31,7 34,9 14.2,8.505 14.2,8.505 -6,8 -6,7.67 -6,7.34 -6,7 -4.02,7 -2.04,7 0,7 0,4.69 0,2.38 0,0 Z"
       fill="#434d5d"
       transform="translate(500,256)"
       id="path91" />
    <path
       d="M 0,0 C 0.82435547,-0.01546875 1.6487109,-0.0309375 2.4980469,-0.046875 8.0859665,-0.0111409 11.100583,0.95736459 15.4375,4.5 c -0.66,0.33 -1.32,0.66 -2,1 -1.337812,-0.6576341 -2.670562,-1.3255991 -4,-2 C 7.3193568,3.1408878 7.3193568,3.1408878 5.109375,3.0859375 3.9105469,3.0279297 3.9105469,3.0279297 2.6875,2.96875 1.8625,2.9378125 1.0375,2.906875 0.1875,2.875 -0.65296875,2.8363281 -1.4934375,2.7976563 -2.359375,2.7578125 -4.4267338,2.6638416 -6.4945863,2.5808444 -8.5625,2.5 c 0,0.66 0,1.32 0,2 -1.11375,0.4125 -2.2275,0.825 -3.375,1.25 -2.618207,1.1054652 -3.459931,1.4988079 -5.0625,3.9375 -0.185625,0.598125 -0.37125,1.19625 -0.5625,1.8125 -1.32,-0.66 -2.64,-1.32 -4,-2 C -15.070082,2.4173619 -9.5539435,-0.18012148 0,0 Z"
       fill="#101621"
       transform="translate(454.5625,153.5)"
       id="path92" />
    <path
       d="m 0,0 c 1.485,0.99 1.485,0.99 3,2 0.99,0 1.98,0 3,0 2.4477577,2.5219321 3.8477172,4.4996422 4.875,7.875 1.851932,5.144256 5.1737,8.971959 9.875,11.75 2.861171,1.748493 3.233069,3.245981 4.25,6.375 0.66,0.99 1.32,1.98 2,3 C 24.247339,29.955887 23.154052,29.259088 21.625,26.6875 20.102198,23.825442 20.102198,23.825442 17.253906,21.777344 13.693388,18.889929 11.057923,15.522765 8.3125,11.875 7.3728979,10.641852 6.4315474,9.4100346 5.4882812,8.1796875 5.0813403,7.6406982 4.6743994,7.101709 4.2551269,6.5463867 3.0006745,4.9331162 3.0006745,4.9331162 1.3444824,3.4262695 0,2 0,2 0,0 Z"
       fill="#bebfc1"
       transform="translate(440,301)"
       id="path94" />
    <path
       d="M 0,0 C 2.125,0.9375 2.125,0.9375 4,2 3.38125,2.268125 2.7625,2.53625 2.125,2.8125 -0.2995233,3.9555685 -0.2995233,3.9555685 -2,7 -2,5.68 -2,4.36 -2,3 -8.073968,4.22804 -8.073968,4.22804 -13.9375,6.1875 -14.618125,6.455625 -15.29875,6.72375 -16,7 -16.66,6.67 -17.32,6.34 -18,6 -19.573664,6.2502902 -21.136073,6.5739956 -22.6875,6.9375 -26.928757,7.8546949 -30.67461,8.1880604 -35,8 -35.33,7.34 -35.66,6.68 -36,6 -34.937812,5.8788281 -33.875625,5.7576562 -32.78125,5.6328125 -24.12569,4.7194843 -24.12569,4.7194843 -15.625,2.9375 -11.758149,1.9374524 -8.0735878,1.5473774 -4.1015625,1.2460937 -1.9452743,1.114367 -1.9452743,1.114367 0,0 Z"
       fill="#32425a"
       transform="translate(482,179)"
       id="path95" />
    <path
       d="m 0,0 c 3.4163795,-0.11632513 6.832249,-0.18728897 10.25,-0.25 1.452129,-0.0502734 1.452129,-0.0502734 2.933594,-0.1015625 6.92232,-0.0954803 6.92232,-0.0954803 10.464843,1.6757812 C 25.881959,5.7460744 25.494075,10.189824 25.375,15.0625 25.3737,16.068613 25.3724,17.074727 25.3711,18.111328 25.281314,25.578029 25.281314,25.578029 23,29 22.505,16.625 22.505,16.625 22,4 17.374435,2.1216433 17.374435,2.1216433 12.792969,1.5859375 11.66665,1.5279297 11.66665,1.5279297 10.517578,1.46875 9.7486523,1.4378125 8.9797266,1.406875 8.1875,1.375 7.0051074,1.3169922 7.0051074,1.3169922 5.7988281,1.2578125 3.8662462,1.1641116 1.9331562,1.0809922 0,1 0,0.67 0,0.34 0,0 Z"
       fill="#464b52"
       transform="translate(459,147)"
       id="path97" />
    <path
       d="M 0,0 C 3.0476288,1.1082286 5.5922672,2.361941 8.375,4.0625 11.92569,6.161699 14.911377,6.6662349 19,7 19.12375,8.11375 19.12375,8.11375 19.25,9.25 20.139695,12.512214 21.485037,13.809549 24,16 23.29875,15.71125 22.5975,15.4225 21.875,15.125 17.305956,13.337113 12.838092,11.853781 8,11 7.9690625,9.9171875 7.9690625,9.9171875 7.9375,8.8125 6.6958305,5.0874915 4.7241156,4.0680493 1.4960937,2.015625 1.0023828,1.6804687 0.50867188,1.3453125 0,1 0,0.67 0,0.34 0,0 Z m 15,8 c 0.33,0.66 0.66,1.32 1,2 0.33,-0.66 0.66,-1.32 1,-2 -0.66,0 -1.32,0 -2,0 z"
       fill="#6b82a0"
       transform="translate(513,67)"
       id="path100" />
    <path
       d="M 0,0 C 0,2.64 0,5.28 0,8 -0.60457031,8.0812109 -1.2091406,8.1624219 -1.8320312,8.2460938 -4.6827625,9.2374291 -5.2348542,10.464234 -6.6875,13.0625 -7.4389205,14.38621 -8.204738,15.702156 -9,17 c -0.33,0 -0.66,0 -1,0 -0.549035,-6.313902 1.0566972,-11.3926859 4,-17 2.4909281,-1.245464 3.4108073,-0.7767578 6,0 z"
       fill="#485973"
       transform="translate(480,56)"
       id="path101" />
    <path
       d="M 0,0 C 1.2290897,3.5523371 0.76096612,5.9620835 -0.14453125,9.5703125 -0.40943359,10.631211 -0.67433594,11.692109 -0.94726562,12.785156 -1.232793,13.887305 -1.5183203,14.989453 -1.8125,16.125 -2.0864258,17.234883 -2.3603516,18.344766 -2.6425781,19.488281 -4.737551,27.737551 -4.737551,27.737551 -7,30 c -0.66,-0.33 -1.32,-0.66 -2,-1 1,-3 1,-3 2,-4 0.12375,-1.299375 0.2475,-2.59875 0.375,-3.9375 C -6.1097112,15.808243 -4.6580372,10.994967 -3,6 c 0.66,0 1.32,0 2,0 0.33,-1.98 0.66,-3.96 1,-6 z"
       fill="#838587"
       transform="translate(612,226)"
       id="path102" />
    <path
       d="M 0,0 C 0.80566406,0.16242188 1.6113281,0.32484375 2.4414063,0.4921875 6.6422492,1.0916492 10.701592,1.1460917 14.9375,1.125 15.710293,1.12887 16.483086,1.13273 17.279297,1.136719 21.955778,1.1288126 26.387491,0.77386973 31,0 28.059399,4.410902 24.705062,4.5508933 19.675781,5.625 13.821422,6.2222566 8.4602756,5.1490881 3,3 1.1328125,1.3828125 1.1328125,1.3828125 0,0 Z"
       fill="#303236"
       transform="translate(440,169)"
       id="path104" />
    <path
       d="m 0,0 c 0.99,0.33 1.98,0.66 3,1 0.049454,4.3599287 0.085745,8.7197086 0.1098633,13.079834 0.010055,1.483102 0.023701,2.966184 0.041016,4.449219 0.024271,2.132292 0.035609,4.264323 0.044434,6.396728 0.010474,1.28302 0.020947,2.56604 0.031738,3.88794 C 3,32 3,32 1,35 c -1.50606515,-3.01213 -1.12160331,-6.112826 -1.09765625,-9.414063 0.0014149,-0.729639 0.0028299,-1.459279 0.0042877,-2.211029 0.0056032,-2.333344 0.01815618,-4.666593 0.03086853,-6.999908 0.0050146,-1.580728 0.0095776,-3.161457 0.01367188,-4.742187 C -0.03779484,7.7551715 -0.02052811,3.8776019 0,0 Z"
       fill="#484c51"
       transform="translate(617,169)"
       id="path106" />
    <path
       d="m 0,0 c 0.33,0 0.66,0 1,0 0.050211,3.9102784 0.086094,7.8204266 0.1098633,11.730957 0.014759,1.968655 0.040198,3.93722 0.065918,5.905762 C 1.2164086,25.640309 0.62574252,33.159046 -1,41 -1.66,40.67 -2.32,40.34 -3,40 -3.1832973,34.68438 -2.8822938,29.758825 -2.0625,24.5 -0.80601631,16.355134 -0.37828158,8.222647 0,0 Z"
       fill="#6a6e72"
       transform="translate(406,115)"
       id="path109" />
    <path
       d="M 0,0 C 0.7425,6.4453e-4 1.485,0.00128906 2.25,0.00195312 6.4767527,0.03555805 10.463327,0.36177122 14.625,1.1875 11.436636,4.0314417 9.4421375,4.551119 5.203125,4.4804687 3.665918,4.4659668 3.665918,4.4659668 2.0976563,4.4511719 1.0341797,4.4260352 -0.02929688,4.4008984 -1.125,4.375 -2.743418,4.3546973 -2.743418,4.3546973 -4.3945312,4.3339844 -7.0551942,4.2986658 -9.714843,4.249342 -12.375,4.1875 c 0,-0.66 0,-1.32 0,-2 C -8.51109,-0.39866201 -4.4664684,-0.07290627 0,0 Z"
       fill="#2e3c55"
       transform="translate(508.375,300.8125)"
       id="path110" />
    <path
       d="M 0,0 C 1.9383597,0.06010418 3.8758449,0.14891717 5.8125,0.25 6.8914453,0.29640625 7.9703906,0.3428125 9.0820313,0.390625 12.622113,1.1299191 13.05088,2.0989835 15,5 c 3.604657,0.8131491 3.604657,0.8131491 7,1 0,0.66 0,1.32 0,2 C 19.95921,8.1968121 17.9173,8.3820283 15.875,8.5625 14.16957,8.7191211 14.16957,8.7191211 12.429688,8.8789063 9.1110201,8.9960802 6.2437314,8.6655072 3,8 4.32,7.34 5.64,6.68 7,6 7,4.68 7,3.36 7,2 4.69,1.67 2.38,1.34 0,1 0,0.67 0,0.34 0,0 Z"
       fill="#314058"
       transform="translate(489,278)"
       id="path111" />
    <path
       d="M 0,0 C -1.3333333,1 -2.6666667,2 -4,3 -4.99,3.804375 -4.99,3.804375 -6,4.625 -8,6 -8,6 -10.125,6.4375 -10.74375,6.623125 -11.3625,6.80875 -12,7 c -0.33,0.66 -0.66,1.32 -1,2 -0.33,0.66 -0.66,1.32 -1,2 -1.325941,0.36162 -2.659385,0.69728 -4,1 -0.33,0.99 -0.66,1.98 -1,3 -0.99,-0.33 -1.98,-0.66 -3,-1 1.1875,-2.9375 1.1875,-2.9375 3,-6 2.5625,-0.625 2.5625,-0.625 5,-1 0.433125,-0.9300586 0.433125,-0.9300586 0.875,-1.8789063 C -11.681091,2.3987228 -10.365703,1.879667 -7.5625,0.6875 -6.7800391,0.34074219 -5.9975781,-0.00601562 -5.1914062,-0.36328125 -3,-1 -3,-1 0,0 Z"
       fill="#3b414c"
       transform="translate(466,31)"
       id="path114" />
    <path
       d="M 0,0 C 1.1260284,3.5930946 1.0992095,6.9224099 1.0625,10.671875 1.05477,11.976406 1.047031,13.280938 1.039063,14.625 1.020479,16.682957 1.000092,18.74089 0.9794927,20.798828 0.91388357,27.974339 0.93762356,34.901394 2,42 c 0.1292512,2.122702 0.2172024,4.24862 0.25,6.375 0.025781,1.018359 0.051563,2.036719 0.078125,3.085937 C 2.2198438,52.298828 2.1115625,53.136719 2,54 1.01,54.66 0.02,55.32 -1,56 -1.99,55.67 -2.98,55.34 -4,55 -3.0041992,54.464395 -3.0041992,54.464395 -1.9882812,53.917969 0.31422321,52.124368 0.31422321,52.124368 0.20703125,49.113281 0.07683594,47.859023 -0.05335938,46.604766 -0.1875,45.3125 -0.32101532,43.81041 -0.44800217,42.307732 -0.5703125,40.804687 -0.67907715,39.48356 -0.67907715,39.48356 -0.79003906,38.135742 -1.2401863,31.412846 -1.3715352,24.671908 -1.5625,17.9375 -1.6061215,16.464592 -1.6499812,14.991692 -1.6940918,13.518799 -1.7986486,10.012605 -1.9002041,6.5063328 -2,3 -1.34,3 -0.68,3 0,3 0,2.01 0,1.02 0,0 Z"
       fill="#35465f"
       transform="translate(518,167)"
       id="path117" />
    <path
       d="M 0,0 C 0,0.66 0,1.32 0,2 -8.199746,5.8408397 -16.243986,8.9238981 -25.359375,6.328125 -27.263375,5.6124372 -29.135699,4.8135134 -31,4 -26.564621,2.5215404 -22.018447,2.4953883 -17.5,3.625 -11.077053,4.588442 -6.0948444,0 0,0 Z"
       fill="#323438"
       transform="translate(583,167)"
       id="path120" />
    <path
       d="m 0,0 c 1.3945645,0.00667256 2.7891112,0.01863093 4.1835937,0.03515625 0.710918,0.0045117 1.421836,0.0090234 2.1542969,0.01367187 1.7611033,0.01181949 3.5221635,0.0297555 5.2832034,0.04882813 C 8.8710938,4.9726562 8.8710938,4.9726562 6.6210937,6.0976562 c -2.09375,-0.234375 -2.09375,-0.234375 -4.4999999,-0.75 C 1.3270313,5.1878125 0.53296875,5.0279688 -0.28515625,4.8632812 -2.3789063,4.0976562 -2.3789063,4.0976562 -4.3789062,1.0976562 -3.3789063,0.09765625 -3.3789063,0.09765625 0,0 Z"
       fill="#3d4e68"
       transform="translate(504.37891,278.90234)"
       id="path121" />
    <path
       d="M 0,0 C 0.33,0 0.66,0 1,0 0.6875,3.375 0.6875,3.375 0,7 c -3.3511952,2.2341301 -4.4177755,2.2384776 -8.3242188,2.1953125 -1.542041,-0.00967 -1.542041,-0.00967 -3.1152342,-0.019531 -1.071856,-0.016758 -2.143711,-0.033516 -3.248047,-0.050781 -1.083457,-0.00902 -2.166914,-0.018047 -3.283203,-0.027344 C -20.647357,9.0740734 -23.323568,9.0411613 -26,9 c 0,-0.66 0,-1.32 0,-2 7.59,-0.33 15.18,-0.66 23,-1 0.99,-1.98 1.98,-3.96 3,-6 z"
       fill="#9ea7b3"
       transform="translate(596,172)"
       id="path122" />
    <path
       d="M 0,0 C 2,2 2,2 3,5 3.66,5.66 4.32,6.32 5,7 3,9 3,9 -0.6953125,9.1953125 -2.1720011,9.182009 -3.6486236,9.1581483 -5.125,9.125 -5.8791016,9.1159766 -6.6332031,9.1069531 -7.4101562,9.0976563 -9.2735725,9.0740687 -11.136826,9.0381972 -13,9 c 0,-0.66 0,-1.32 0,-2 3.0931959,-0.8532954 5.7933612,-1 9,-1 0,-0.66 0,-1.32 0,-2 0.66,0 1.32,0 2,0 0.33,-0.66 0.66,-1.32 1,-2 0.33,0.33 0.66,0.66 1,1 C 0,2.01 0,1.02 0,0 Z"
       fill="#2e3d56"
       transform="translate(446,119)"
       id="path123" />
    <path
       d="M 0,0 C 2.4844427,0.75639469 4.9615819,1.5290953 7.4375,2.3125 8.4980762,2.6325098 8.4980762,2.6325098 9.5800781,2.9589844 11.418422,3.5483098 13.21406,4.2670418 15,5 c 0.33,0.99 0.66,1.98 1,3 1.996653,1.685386 1.996653,1.685386 4,3 C 14.725894,10.583623 10.837051,8.5352978 6.2695312,6.0585937 3.9642477,4.7886427 3.9642477,4.7886427 1,5 0.67,3.35 0.34,1.7 0,0 Z"
       fill="#3b4a64"
       transform="translate(480,113)"
       id="path127" />
    <path
       d="m 0,0 c 0.33,0 0.66,0 1,0 0.1033103,7.4268631 -0.001373,14.635126 -1,22 -0.99,0.33 -1.98,0.66 -3,1 -0.33,-2.64 -0.66,-5.28 -1,-8 0.66,0 1.32,0 2,0 0.060586,-0.999023 0.1211719,-1.998047 0.1835938,-3.027344 C -1.7326172,10.682305 -1.6488281,9.3919531 -1.5625,8.0625 -1.4812891,6.7747266 -1.4000781,5.4869531 -1.3164062,4.1601562 -1,1 -1,1 0,0 Z"
       fill="#455773"
       transform="translate(505,188)"
       id="path129" />
    <path
       d="m 0,0 c 4.1992024,-0.04953687 8.3982487,-0.08578411 12.597656,-0.10986328 1.427765,-0.010041 2.855509,-0.0236765 4.283203,-0.0410156 2.05539,-0.0243326 4.110508,-0.0356231 6.166016,-0.0444336 1.235889,-0.0104736 2.471777,-0.0209473 3.745117,-0.0317383 C 29.816594,-0.01298081 31.469857,0.40346841 34,2 33.67,2.66 33.34,3.32 33,4 32.042227,3.8672266 31.084453,3.7344531 30.097656,3.5976563 20.075589,2.2534186 10.098781,1.4749427 0,1 0,0.67 0,0.34 0,0 Z"
       fill="#9ea3ab"
       transform="translate(501,25)"
       id="path134" />
    <path
       d="M 0,0 C 0.556875,0.2475 1.11375,0.495 1.6875,0.75 -2.1942899,4.9743007 -5.7348049,8.4802066 -11.695313,8.9296875 -13.910156,8.9366306 -16.101982,8.8826311 -18.3125,8.75 -16.107283,6.5447827 -14.939017,6.2147193 -12,5.375 -8.7976865,4.3794089 -7.1841584,3.6473268 -4.5,1.5 -2.3125,-0.25 -2.3125,-0.25 0,0 Z"
       fill="#7b7e81"
       transform="translate(550.3125,332.25)"
       id="path135" />
    <path
       d="m 0,0 c 0.598125,0.226875 1.19625,0.45375 1.8125,0.6875 -0.99,0.33 -1.98,0.66 -3,1 -1.2306042,2.4612084 -1.2057723,4.2577687 -1.3164063,7.0078125 -0.041894,0.9861328 -0.083789,1.9722655 -0.1269531,2.9882815 -0.039316,1.032539 -0.078633,2.065078 -0.1191406,3.128906 -0.043184,1.040273 -0.086367,2.080547 -0.1308594,3.152344 -0.1062694,2.574081 -0.2083064,5.148261 -0.3066406,7.722656 -0.66,0 -1.32,0 -2,0 C -5.274485,21.916812 -5.3278858,18.146381 -5.375,14.375 -5.400137,13.303145 -5.425273,12.231289 -5.451172,11.126953 -5.460842,10.098926 -5.470508,9.0708984 -5.480469,8.0117188 -5.4961792,7.063855 -5.5118896,6.1159912 -5.5280762,5.1394043 -5.1875,2.6875 -5.1875,2.6875 -3.8059082,0.83520508 -2.1875,-0.3125 -2.1875,-0.3125 0,0 Z"
       fill="#565b62"
       transform="translate(541.1875,148.3125)"
       id="path137" />
    <path
       d="M 0,0 C 3.1868763,1.3418647 4.6570939,2.5174314 6.359375,5.5195312 6.7525391,6.2124023 7.1457031,6.9052734 7.5507812,7.6191406 8.1443945,8.7048535 8.1443945,8.7048535 8.75,9.8125 9.1612109,10.524707 9.5724219,11.236914 9.9960938,11.970703 12.101743,15.751778 13.595754,18.540603 13,23 11,19.25 11,19.25 11,17 10.01,17.33 9.02,17.66 8,18 7.1593058,16.399679 6.3276849,14.794588 5.5,13.1875 5.0359375,12.29418 4.571875,11.400859 4.09375,10.480469 3,8 3,8 3,5 2.0527305,3.3028087 1.0577174,1.6306476 0,0 Z"
       fill="#afb0b4"
       transform="translate(597,60)"
       id="path138" />
    <path
       d="m 0,0 c 0.33,0.99 0.66,1.98 1,3 3.4579617,1.3299853 7.3440861,1.5078577 11,2 0.33,1.32 0.66,2.64 1,4 C 10.071753,9.9760822 8.0438672,10.082267 5,10 5,9.34 5,8.68 5,8 4.34,7.67 3.68,7.34 3,7 2.67,6.01 2.34,5.02 2,4 -1.6466e-4,2.791179 -1.6466e-4,2.791179 -2,2 -1.34,1.34 -0.68,0.68 0,0 Z"
       fill="#4d607f"
       transform="translate(551,196)"
       id="path145" />
    <path
       d="m 0,0 c 0,7.2707858 -3.381205,12.908822 -7,19 -0.66,-0.66 -1.32,-1.32 -2,-2 0.7393922,-1.899996 1.4920234,-3.794842 2.25,-5.6875 0.4176563,-1.055742 0.8353125,-2.1114844 1.265625,-3.1992187 C -3.9908349,4.9807774 -2.2677642,2.6118053 0,0 Z"
       fill="#939599"
       transform="translate(420,62)"
       id="path147" />
    <path
       d="M 0,0 C 1.32,0 2.64,0 4,0 4.33,1.65 4.66,3.3 5,5 4.34,5 3.68,5 3,5 3,5.66 3,6.32 3,7 2.01,7 1.02,7 0,7 0,6.01 0,5.02 0,4 c -4.29,0 -8.58,0 -13,0 0,-0.33 0,-0.66 0,-1 0.854648,-0.1327734 1.709297,-0.2655469 2.589844,-0.4023437 C -9.3054297,2.4210547 -8.2007031,2.2444531 -7.0625,2.0625 -5.9603516,1.8884766 -4.8582031,1.7144531 -3.7226563,1.5351562 -1.0957307,1.2815486 -1.0957307,1.2815486 0,0 Z"
       fill="#31415a"
       transform="translate(577,181)"
       id="path149" />
    <path
       d="M 0,0 C 0.144375,0.61875 0.28875,1.2375 0.4375,1.875 0.93152225,4.0325832 0.93152225,4.0325832 2,6 1.34,6 0.68,6 0,6 -0.268125,6.639375 -0.53625,7.27875 -0.8125,7.9375 -2,10 -2,10 -5,11 -5,10.34 -5,9.68 -5,9 -5.99,8.67 -6.98,8.34 -8,8 -7,5 -7,5 -4,3.4375 -3.01,2.963125 -2.02,2.48875 -1,2 -0.67,1.34 -0.34,0.68 0,0 Z"
       fill="#384862"
       transform="translate(544,98)"
       id="path151" />
    <path
       d="m 0,0 c 1.98,0.66 3.96,1.32 6,2 -0.4764521,4.2880687 -1.6590248,6.2664749 -5,9 -0.66,0 -1.32,0 -2,0 0,0.66 0,1.32 0,2 -1.32,0.33 -2.64,0.66 -4,1 0.33,-0.66 0.66,-1.32 1,-2 0.66,0 1.32,0 2,0 0.28875,-0.7425 0.5775,-1.485 0.875,-2.25 C -0.17697356,7.432602 0.84845911,5.2208288 2,3 1.34,3 0.68,3 0,3 0,2.01 0,1.02 0,0 Z"
       fill="#1e2530"
       transform="translate(464,157)"
       id="path153" />
    <path
       d="m 0,0 c 0,0.99 0,1.98 0,3 -10.89,0.495 -10.89,0.495 -22,1 2.752189,-2.7521886 4.92156,-2.6161567 8.75,-3.125 1.817578,-0.25136719 1.817578,-0.25136719 3.671875,-0.5078125 C -6.3505889,0.03597746 -3.240714,-0.06958588 0,0 Z"
       fill="#344259"
       transform="translate(582,124)"
       id="path155" />
    <path
       d="m 0,0 c 1.1875,1.625 1.1875,1.625 2,4 -0.875,3.125 -0.875,3.125 -3,6 -2.6955748,1.122715 -5.0843314,1.522022 -8,2 1.2420581,-3.7261742 3.1110675,-5.3929146 6,-8 0.66,0 1.32,0 2,0 0.33,-1.32 0.66,-2.64 1,-4 z"
       fill="#354660"
       transform="translate(462,211)"
       id="path156" />
    <path
       d="m 0,0 c 12.21,0 24.42,0 37,0 0,0.33 0,0.66 0,1 -1.278468,0.037584 -1.278468,0.037584 -2.582764,0.075928 -3.177686,0.095428 -6.355225,0.1946435 -9.532715,0.2963867 -1.372349,0.043174 -2.744746,0.084861 -4.117187,0.125 C 18.788779,1.5554437 16.8104,1.6194574 14.832031,1.683594 13.643274,1.720252 12.454517,1.756909 11.229736,1.794678 8.3859515,1.9754641 5.7709319,2.3580941 3,3 3,2.34 3,1.68 3,1 2.01,0.67 1.02,0.34 0,0 Z"
       fill="#212f41"
       transform="translate(433,181)"
       id="path157" />
    <path
       d="M 0,0 C 0.66,0.66 1.32,1.32 2,2 0.1436027,3.8563973 -1.7232982,5.6888554 -3.625,7.5 -6.1812626,9.8368875 -6.1812626,9.8368875 -7,13 c -0.66,-0.33 -1.32,-0.66 -2,-1 -0.99,1.32 -1.98,2.64 -3,4 -0.25,-2.25 -0.25,-2.25 0,-5 1.875,-2.3125 1.875,-2.3125 4,-4 0.66,0 1.32,0 2,0 0.33,-0.99 0.66,-1.98 1,-3 1.6233297,-1.3857692 3.2872447,-2.7264127 5,-4 z"
       fill="#19202b"
       transform="translate(438,48)"
       id="path159" />
    <path
       d="m 0,0 c 5.94,0 11.88,0 18,0 0,3.3 0,6.6 0,10 C 17.34,9.67 16.68,9.34 16,9 15.67,7.02 15.34,5.04 15,3 7.575,2.01 7.575,2.01 0,1 0,0.67 0,0.34 0,0 Z"
       fill="#42464f"
       transform="translate(540,265)"
       id="path160" />
    <path
       d="m 0,0 c 5.94,0 11.88,0 18,0 0,0.33 0,0.66 0,1 C 17.035781,1.060586 16.071562,1.1211719 15.078125,1.1835937 13.814844,1.2673828 12.551562,1.3511719 11.25,1.4375 9.9970312,1.5187109 8.7440625,1.5999219 7.453125,1.6835937 4.8168245,1.9251552 2.5196271,2.2428393 0,3 0.48484276,7.6458689 0.48484276,7.6458689 2,12 0.68,11.34 -0.64,10.68 -2,10 -2,7.36 -2,4.72 -2,2 -1.34,2 -0.68,2 0,2 0,1.34 0,0.68 0,0 Z"
       fill="#1b2537"
       transform="translate(446,156)"
       id="path161" />
    <path
       d="M 0,0 C 0.66,0.33 1.32,0.66 2,1 0.3393683,2.8978648 -1.3215906,4.7954264 -2.984375,6.6914062 -4.3139653,8.214251 -5.6370517,9.7428023 -6.953125,11.277344 -7.8735156,12.346621 -7.8735156,12.346621 -8.8125,13.4375 -9.3758203,14.096211 -9.9391406,14.754922 -10.519531,15.433594 -12,17 -12,17 -14,18 c 0,-1.65 0,-3.3 0,-5 0.7425,-0.226875 1.485,-0.45375 2.25,-0.6875 C -8.4423419,10.733845 -7.0514159,9.003859 -5,6 -4.67,5.01 -4.34,4.02 -4,3 -1.9375,1.3125 -1.9375,1.3125 0,0 Z"
       fill="#131821"
       transform="translate(574,301)"
       id="path163" />
    <path
       d="M 0,0 C 0.66,0.33 1.32,0.66 2,1 1.67,2.32 1.34,3.64 1,5 1.66,5.33 2.32,5.66 3,6 2.4466146,7.9856771 1.8932292,9.9713542 1.3398437,11.957031 0.80436183,14.192442 0.80436183,14.192442 2,17 1.01,17 0.02,17 -1,17 -1.2235461,15.1059 -1.4281995,13.209565 -1.625,11.3125 -1.7410156,10.256758 -1.8570312,9.2010156 -1.9765625,8.1132813 -2.0010326,4.8628365 -1.4085256,2.897692 0,0 Z"
       fill="#2d3d55"
       transform="translate(500,207)"
       id="path165" />
    <path
       d="M 0,0 C 6.2054142,0.48320848 11.999452,1.3331812 18,3 14.974557,5.0169622 14.389326,5.258111 11,5.1875 10.319375,5.1810547 9.63875,5.1746094 8.9375,5.1679687 7,5 7,5 4,4 3.67,3.34 3.34,2.68 3,2 2.01,1.34 1.02,0.68 0,0 Z"
       fill="#bfc3c8"
       transform="translate(531,25)"
       id="path167" />
    <path
       d="M 0,0 C 0.66,0 1.32,0 2,0 0.46990911,3.4427045 -1.4931222,6.1892582 -4,9 -4.99,9.33 -5.98,9.66 -7,10 -5.3259802,6.043226 -2.8685072,3.1553579 0,0 Z m -10,11 c 0.66,0.33 1.32,0.66 2,1 -1.65,1.98 -3.3,3.96 -5,6 -0.99,-0.33 -1.98,-0.66 -3,-1 2,-2 4,-4 6,-6 z"
       fill="#32435f"
       transform="translate(584,198)"
       id="path169" />
    <path
       d="M 0,0 C 0.33,0 0.66,0 1,0 1.99,4.29 2.98,8.58 4,13 3.01,13.495 3.01,13.495 2,14 1.67,12.68 1.34,11.36 1,10 0.34,14.62 -0.32,19.24 -1,24 -1.33,24 -1.66,24 -2,24 -1.0364465,7.1070615 -1.0364465,7.1070615 0,0 Z"
       fill="#627490"
       transform="translate(504,179)"
       id="path172" />
    <path
       d="m 0,0 c 0.33,0 0.66,0 1,0 -0.57021375,6.9566077 -2.0130269,13.314273 -4,20 -0.33,0 -0.66,0 -1,0 -0.33,-2.64 -0.66,-5.28 -1,-8 0.66,-0.33 1.32,-0.66 2,-1 C -3.061875,9.9275 -3.12375,8.855 -3.1875,7.75 -2.9951775,3.9035499 -2.6611671,2.6611671 0,0 Z"
       fill="#9e9fa2"
       transform="translate(617,206)"
       id="path175" />
    <path
       d="m 0,0 c 0,4.0286792 -1.703437,5.7577934 -4,9 -0.99,1.485 -0.99,1.485 -2,3 -2.625,0.6875 -2.625,0.6875 -5,1 0,-2 0,-2 1.1875,-3.3125 C -9.214375,9.130625 -8.61625,8.57375 -8,8 -7.175,7.175 -6.35,6.35 -5.5,5.5 -3.6666667,3.6666667 -1.8333333,1.8333333 0,0 Z"
       fill="#9da0a3"
       transform="translate(432,49)"
       id="path178" />
    <path
       d="m 0,0 c 1.485,0.99 1.485,0.99 3,2 0.99,0 1.98,0 3,0 3.1782099,3.2690159 4,4.3216599 4,9 C 6.8510285,9.630882 4.9521513,8.1247864 2.75,5.5 2.2292187,4.8915625 1.7084375,4.283125 1.171875,3.65625 0,2 0,2 0,0 Z"
       fill="#84868a"
       transform="translate(440,301)"
       id="path179" />
    <path
       d="M 0,0 C 0.33,0 0.66,0 1,0 2.6088158,7.4264084 3.264429,14.40501 3,22 2.67,22 2.34,22 2,22 1.690625,20.906875 1.38125,19.81375 1.0625,18.6875 0.41662103,16.44592 -0.2623117,14.213065 -1,12 -0.91426773,9.9341289 -0.76166465,7.8705347 -0.5625,5.8125 -0.46066406,4.7258203 -0.35882812,3.6391406 -0.25390625,2.5195313 -0.17011719,1.6880859 -0.08632813,0.85664063 0,0 Z"
       fill="#c8c9cb"
       transform="translate(615,134)"
       id="path180" />
    <path
       d="M 0,0 C 0.56203125,0.31710937 1.1240625,0.63421875 1.703125,0.9609375 4.1519632,2.0687453 6.0838785,2.389754 8.75,2.625 9.5492188,2.6997656 10.348437,2.7745313 11.171875,2.8515625 11.775156,2.9005469 12.378438,2.9495313 13,3 13,3.66 13,4.32 13,5 6.8011251,5.3795229 2.5522888,4.8352113 -3,2 -2.01,1.34 -1.02,0.68 0,0 Z"
       fill="#46494f"
       transform="translate(480,338)"
       id="path182" />
    <path
       d="M 0,0 C 1.8125,0.1875 1.8125,0.1875 4,1 5.8125,3.3125 5.8125,3.3125 7,6 6.6875,8.3125 6.6875,8.3125 6,10 2.4641399,6.8267922 0.41421969,4.832563 0,0 Z"
       fill="#74767a"
       transform="translate(424,277)"
       id="path184" />
    <path
       d="M 0,0 C 0.33,0.99 0.66,1.98 1,3 1.99,3 2.98,3 4,3 3.67,5.64 3.34,8.28 3,11 3.66,11.33 4.32,11.66 5,12 4.67,13.65 4.34,15.3 4,17 1.0170899,11.88644 -0.36844835,5.8951736 0,0 Z"
       fill="#a8aaae"
       transform="translate(401,203)"
       id="path189" />
    <path
       d="M 0,0 C 0.99,0.33 1.98,0.66 3,1 5.2087328,5.6383389 4.9940959,9.0295204 4,14 1.9028421,10.854263 1.4799544,8.9854375 0.875,5.3125 0.70742188,4.3186328 0.53984375,3.3247656 0.3671875,2.3007813 0.24601562,1.5415234 0.12484375,0.78226563 0,0 Z"
       fill="#929499"
       transform="translate(405,220)"
       id="path191" />
    <path
       d="M 0,0 C 0.66,0 1.32,0 2,0 2,3 2,3 -0.25,5.5625 -2.5179752,7.5727508 -4.2318914,8.8722521 -7,10 -7.375,7.75 -7.375,7.75 -7,5 -4.0625,2.75 -4.0625,2.75 -1,1 -0.67,0.67 -0.34,0.34 0,0 Z"
       fill="#2c3a51"
       transform="translate(595,197)"
       id="path192" />
    <path
       d="m 0,0 c 3.594767,3.4920594 6.9202619,7.0403367 10,11 0,0.66 0,1.32 0,2 C 6.9124558,11.644165 4.9529237,10.172826 2.75,7.625 2.2292187,7.0397656 1.7084375,6.4545312 1.171875,5.8515625 0,4 0,4 0,0 Z"
       fill="#484c50"
       transform="translate(450,309)"
       id="path193" />
    <path
       d="M 0,0 C -0.58007812,0.37511719 -1.1601562,0.75023437 -1.7578125,1.1367187 -6.4225281,4.1926463 -10.796456,7.3353719 -15,11 c 0.66,-1.65 1.32,-3.3 2,-5 0.66,0 1.32,0 2,0 0,-0.66 0,-1.32 0,-2 6.2573529,-5.5808823 6.2573529,-5.5808823 11,-4 z"
       fill="#131d2e"
       transform="translate(539,135)"
       id="path195" />
    <path
       d="M 0,0 C 0.66,0.33 1.32,0.66 2,1 2,2.32 2,3.64 2,5 2.66,5.33 3.32,5.66 4,6 3.67,6.66 3.34,7.32 3,8 1.02,7.01 -0.96,6.02 -3,5 c 0,0.66 0,1.32 0,2 -0.66,-0.33 -1.32,-0.66 -2,-1 0.33,-0.99 0.66,-1.98 1,-3 0.66,0 1.32,0 2,0 0.33,-0.66 0.66,-1.32 1,-2 0.33,-0.33 0.66,-0.66 1,-1 z"
       fill="#32415a"
       transform="translate(554,89)"
       id="path196" />
    <path
       d="m 0,0 c 4.1225912,1.4550322 7.570547,3.272026 11,6 0.875,2.75 0.875,2.75 1,5 -0.99,0.495 -0.99,0.495 -2,1 C 9.34,11.67 8.68,11.34 8,11 7.938125,10.2575 7.87625,9.515 7.8125,8.75 6.7102405,5.0192755 4.6875079,4.0447736 1.4960937,2.015625 1.0023828,1.6804687 0.50867188,1.3453125 0,1 0,0.67 0,0.34 0,0 Z"
       fill="#627a9b"
       transform="translate(513,67)"
       id="path197" />
    <path
       d="M 0,0 C 0.66,0.33 1.32,0.66 2,1 2,1.66 2,2.32 2,3 0.02,3.33 -1.96,3.66 -4,4 -4.33,4.99 -4.66,5.98 -5,7 -7.7626429,7.5973282 -10.160328,8 -13,8 -11.399087,6.8496253 -9.7941478,5.7048518 -8.1875,4.5625 -7.2941797,3.9244141 -6.4008594,3.2863281 -5.4804687,2.6289063 -3,1 -3,1 0,0 Z"
       fill="#b0b2b4"
       transform="translate(451,36)"
       id="path198" />
    <path
       d="M 0,0 C 7.4829157,6.1503417 7.4829157,6.1503417 10,10 9.01,10.33 8.02,10.66 7,11 5.8243982,9.7374277 4.6597713,8.4646292 3.5,7.1875 2.8503125,6.4798047 2.200625,5.7721094 1.53125,5.0429687 0,3 0,3 0,0 Z"
       fill="#5a5c61"
       transform="translate(463,325)"
       id="path199" />
    <path
       d="m 0,0 c 0.66,0.33 1.32,0.66 2,1 0.7307565,2.3140622 1.4013826,4.6482887 2,7 1.98,0 3.96,0 6,0 0,0.99 0,1.98 0,3 C 8.68,10.67 7.36,10.34 6,10 5.67,10.66 5.34,11.32 5,12 2.8039793,9.7912488 0.73919133,7.5900572 -1,5 -0.875,2.0625 -0.875,2.0625 0,0 Z"
       fill="#0e131f"
       transform="translate(445,297)"
       id="path200" />
    <path
       d="m 0,0 c 0.33,0 0.66,0 1,0 0.33,4.95 0.66,9.9 1,15 -0.66,0 -1.32,0 -2,0 -0.33,0.66 -0.66,1.32 -1,2 C -1.1047751,11.214085 -0.992505,5.7069063 0,0 Z"
       fill="#a9aaad"
       transform="translate(402,146)"
       id="path204" />
    <path
       d="M 0,0 C 0.66,0 1.32,0 2,0 0.25740319,10.558087 0.25740319,10.558087 -3,15 -3.33,14.34 -3.66,13.68 -4,13 -3.690625,12.4225 -3.38125,11.845 -3.0625,11.25 -1.7820489,8.9531654 -1.7820489,8.9531654 -2,5.9375 -2,3 -2,3 0,0 Z"
       fill="#929295"
       transform="translate(603,256)"
       id="path208" />
    <path
       d="m 0,0 c 3.63,0.33 7.26,0.66 11,1 0,0.33 0,0.66 0,1 C 9.35,2.33 7.7,2.66 6,3 6.99,3.66 7.98,4.32 9,5 1.25,4.125 1.25,4.125 -1,3 -0.67,2.01 -0.34,1.02 0,0 Z"
       fill="#3b4b64"
       transform="translate(503,222)"
       id="path209" />
    <path
       d="M 0,0 C 1.65,0 3.3,0 5,0 5,2 5,2 2.6875,4.4375 1.800625,5.283125 0.91375,6.12875 0,7 -0.8971875,7.8971875 -0.8971875,7.8971875 -1.8125,8.8125 -2.204375,9.204375 -2.59625,9.59625 -3,10 -3.33,8.35 -3.66,6.7 -4,5 -2.68,4.67 -1.36,4.34 0,4 0,2.68 0,1.36 0,0 Z"
       fill="#1b2435"
       transform="translate(602,209)"
       id="path210" />
    <path
       d="M 0,0 C 1.98,0 3.96,0 6,0 5.01,0.495 5.01,0.495 4,1 4,1.99 4,2.98 4,4 3.21625,4.2475 2.4325,4.495 1.625,4.75 -1.3231711,6.153891 -1.9024777,7.0067574 -3,10 -3.33,9.34 -3.66,8.68 -4,8 -3.2226563,6.0546875 -3.2226563,6.0546875 -2.0625,3.875 -1.4920898,2.7883203 -1.4920898,2.7883203 -0.91015625,1.6796875 -0.60980469,1.1253906 -0.30945313,0.57109375 0,0 Z"
       fill="#121825"
       transform="translate(416,75)"
       id="path212" />
    <path
       d="M 0,0 C 0.99,0.33 1.98,0.66 3,1 3,1.99 3,2.98 3,4 2.01,4.33 1.02,4.66 0,5 0,5.99 0,6.98 0,8 -1.32,8.33 -2.64,8.66 -4,9 -4.33,7.68 -4.66,6.36 -5,5 -4.01,4.67 -3.02,4.34 -2,4 -0.79117904,1.9998353 -0.79117904,1.9998353 0,0 Z"
       fill="#1e2229"
       transform="translate(590,278)"
       id="path214" />
    <path
       d="M 0,0 C 0.99,0 1.98,0 3,0 1.587079,4.8274799 -0.42974154,8.7162359 -3,13 -4.3488776,10.302245 -3.7030048,8.8823198 -3,6 -2.67,5.01 -2.34,4.02 -2,3 -1.34,2.67 -0.68,2.34 0,2 0,1.34 0,0.68 0,0 Z"
       fill="#909294"
       transform="translate(596,271)"
       id="path215" />
    <path
       d="M 0,0 C 0.66,0.99 1.32,1.98 2,3 1.67,3.99 1.34,4.98 1,6 0.01,6.33 -0.98,6.66 -2,7 -2.66,6.67 -3.32,6.34 -4,6 -4.33,6.99 -4.66,7.98 -5,9 -5.66,8.67 -6.32,8.34 -7,8 -6.2136608,6.8505041 -5.4207374,5.7055101 -4.625,4.5625 -4.1841406,3.9244141 -3.7432813,3.2863281 -3.2890625,2.6289063 -2,1 -2,1 0,0 Z"
       fill="#1a2537"
       transform="translate(591,224)"
       id="path216" />
    <path
       d="M 0,0 C 0.99,0 1.98,0 3,0 3,0.99 3,1.98 3,3 3.66,3.33 4.32,3.66 5,4 4.34,6.31 3.68,8.62 3,11 2.67,11 2.34,11 2,11 1.67,9.35 1.34,7.7 1,6 0.01,5.67 -0.98,5.34 -2,5 -1.34,3.35 -0.68,1.7 0,0 Z"
       fill="#394a64"
       transform="translate(557,210)"
       id="path218" />
    <path
       d="M 0,0 C 1.32,0 2.64,0 4,0 4.33,1.98 4.66,3.96 5,6 3.35,6.33 1.7,6.66 0,7 -0.66,5.35 -1.32,3.7 -2,2 -1.34,1.34 -0.68,0.68 0,0 Z"
       fill="#28364e"
       transform="translate(450,121)"
       id="path219" />
    <path
       d="M 0,0 C -0.5775,0.40992188 -1.155,0.81984375 -1.75,1.2421875 -2.4925,1.7810156 -3.235,2.3198438 -4,2.875 -4.7425,3.4086719 -5.485,3.9423438 -6.25,4.4921875 -6.8275,4.9897656 -7.405,5.4873437 -8,6 c 0,0.66 0,1.32 0,2 -1.32,-0.66 -2.64,-1.32 -4,-2 7.2,-7.6 7.2,-7.6 12,-6 z"
       fill="#121414"
       transform="translate(445,157)"
       id="path221" />
    <path
       d="m 0,0 c 0.99,0.66 1.98,1.32 3,2 -0.99,2.97 -1.98,5.94 -3,9 -1.32,0 -2.64,0 -4,0 0,-0.99 0,-1.98 0,-3 0.66,0 1.32,0 2,0 0.66,-2.64 1.32,-5.28 2,-8 z"
       fill="#1b1f27"
       transform="translate(580,289)"
       id="path223" />
    <path
       d="M 0,0 C 0.99,0 1.98,0 3,0 2.67,2.97 2.34,5.94 2,9 0.68,8.67 -0.64,8.34 -2,8 -2,4.2331214 -1.7646268,3.088097 0,0 Z"
       fill="#111720"
       transform="translate(595,265)"
       id="path225" />
    <path
       d="M 0,0 C 2.97,0 5.94,0 9,0 9.33,1.65 9.66,3.3 10,5 9.34,4.67 8.68,4.34 8,4 8,3.34 8,2.68 8,2 3.3541311,2.4848428 3.3541311,2.4848428 -1,4 -0.67,2.68 -0.34,1.36 0,0 Z"
       fill="#40526e"
       transform="translate(506,159)"
       id="path228" />
    <path
       d="M 0,0 C 2,2 2,2 3,5 3.66,5.66 4.32,6.32 5,7 4.34,7.66 3.68,8.32 3,9 3,8.34 3,7.68 3,7 1.5459375,6.814375 1.5459375,6.814375 0.0625,6.625 -0.948125,6.41875 -1.95875,6.2125 -3,6 -3.33,5.34 -3.66,4.68 -4,4 c 0.66,0 1.32,0 2,0 0.33,-0.66 0.66,-1.32 1,-2 0.33,0.33 0.66,0.66 1,1 C 0,2.01 0,1.02 0,0 Z"
       fill="#3c4b64"
       transform="translate(446,119)"
       id="path230" />
    <path
       d="M 0,0 C 1.3333333,0.66666667 2.6666667,1.3333333 4,2 5.0828125,2.4640625 5.0828125,2.4640625 6.1875,2.9375 8,4 8,4 9,7 4.545,6.01 4.545,6.01 0,5 -0.33,3.68 -0.66,2.36 -1,1 -0.67,0.67 -0.34,0.34 0,0 Z"
       fill="#1a2335"
       transform="translate(579,49)"
       id="path233" />
    <path
       d="M 0,0 C -4.3842395,3.4447596 -7.3083577,5.3162023 -13,5 -9.7622063,1.0003725 -4.977766,-1.6592553 0,0 Z"
       fill="#a8abae"
       transform="translate(466,31)"
       id="path235" />
    <path
       d="M 0,0 C 1.5043359,0.01353516 1.5043359,0.01353516 3.0390625,0.02734375 3.8099219,0.03894531 4.5807812,0.05054687 5.375,0.0625 c -0.33,0.66 -0.66,1.32 -1,2 C 2.4140625,2.546875 2.4140625,2.546875 0,2.8125 -0.79148437,2.9104688 -1.5829687,3.0084375 -2.3984375,3.109375 -4.625,3.0625 -4.625,3.0625 -7.625,1.0625 -4.9804162,-0.25979189 -2.947387,-0.03427194 0,0 Z"
       fill="#7b7f86"
       transform="translate(476.625,27.9375)"
       id="path236" />
    <path
       d="M 0,0 C 0.66,0 1.32,0 2,0 3.7578125,5.9570312 3.7578125,5.9570312 4,8 3.01,9.485 3.01,9.485 2,11 -0.32590854,7.3657679 -0.16265833,4.2291167 0,0 Z"
       fill="#75777c"
       transform="translate(417,259)"
       id="path238" />
    <path
       d="M 0,0 C 0.66,0.66 1.32,1.32 2,2 1.6860376,5.9559266 1.2517218,9.2448345 0,13 -0.66,13 -1.32,13 -2,13 -1.3917496,8.6553546 -0.73832608,4.3244813 0,0 Z"
       fill="#43464b"
       transform="translate(611,219)"
       id="path239" />
    <path
       d="M 0,0 C 2,2 2,2 2.25,5.4375 2,9 2,9 0,12 -1.4949891,9.0100218 -1.1157745,6.2995722 -1,3 -0.67,2.01 -0.34,1.02 0,0 Z"
       fill="#6b6e70"
       transform="translate(618,192)"
       id="path241" />
    <path
       d="M 0,0 C 3.395177,3.0718268 5.8759731,6.139596 6.1875,10.8125 6.125625,11.534375 6.06375,12.25625 6,13 4,9.25 4,9.25 4,7 3.01,7.33 2.02,7.66 1,8 0,2.25 0,2.25 0,0 Z"
       fill="#b7b9bb"
       transform="translate(604,70)"
       id="path243" />
    <path
       d="M 0,0 C 2.0625,0.4375 2.0625,0.4375 4,1 1.6875,3.5 1.6875,3.5 -1,6 -1.99,6 -2.98,6 -4,6 -1.125,1.125 -1.125,1.125 0,0 Z"
       fill="#9a9c9f"
       transform="translate(548,332)"
       id="path244" />
    <path
       d="M 0,0 C 0.66,0 1.32,0 2,0 2,0.99 2,1.98 2,3 1.34,3 0.68,3 0,3 0.66,4.98 1.32,6.96 2,9 1.01,9.495 1.01,9.495 0,10 -1.32,7.36 -2.64,4.72 -4,2 -2.68,2 -1.36,2 0,2 0,1.34 0,0.68 0,0 Z"
       fill="#0d141e"
       transform="translate(430,273)"
       id="path245" />
    <path
       d="M 0,0 C 2.7007875,2.7007875 2.2989436,4.2403517 2.3125,8 2.329258,9.0725 2.346016,10.145 2.363281,11.25 2.183457,12.61125 2.183457,12.61125 2,14 1.01,14.66 0.02,15.32 -1,16 -1.99,15.67 -2.98,15.34 -4,15 -3.3451563,14.632617 -2.6903125,14.265234 -2.015625,13.886719 0.29716453,12.120768 0.29716453,12.120768 0.390625,9.0820313 0.34421875,8.0030859 0.2978125,6.9241406 0.25,5.8125 0.21390625,4.7258203 0.1778125,3.6391406 0.140625,2.5195313 0.09421875,1.6880859 0.0478125,0.85664063 0,0 Z"
       fill="#3b4b67"
       transform="translate(518,207)"
       id="path246" />
    <path
       d="M 0,0 C 1.32,0.66 2.64,1.32 4,2 4,5.3 4,8.6 4,12 3.67,12 3.34,12 3,12 2.34,9.69 1.68,7.38 1,5 0.34,5 -0.32,5 -1,5 -0.67,3.35 -0.34,1.7 0,0 Z"
       fill="#4e627e"
       transform="translate(501,208)"
       id="path247" />
    <path
       d="M 0,0 C 2.31,0 4.62,0 7,0 7.33,1.32 7.66,2.64 8,4 4.2331214,4 3.088097,3.7646268 0,2 0,1.34 0,0.68 0,0 Z"
       fill="#586e8e"
       transform="translate(556,201)"
       id="path248" />
    <path
       d="M 0,0 C 0.66,0.33 1.32,0.66 2,1 2.9354866,4.3677519 3.099473,7.5184446 3,11 2.01,11.495 2.01,11.495 1,12 0.63762737,10.37681 0.28534843,8.7513642 -0.0625,7.125 -0.25972656,6.2200781 -0.45695313,5.3151562 -0.66015625,4.3828125 -1,2 -1,2 0,0 Z"
       fill="#3d4f6c"
       transform="translate(553,202)"
       id="path249" />
    <path
       d="M 0,0 C 2.9640451,2.8080427 5.4449902,5.1831577 7,9 5.25,8.9375 5.25,8.9375 3,8 1.4049846,5.7583568 0.25456982,3.4643336 -1,1 -0.67,0.67 -0.34,0.34 0,0 Z"
       fill="#70727b"
       transform="translate(595,59)"
       id="path251" />
    <path
       d="M 0,0 C 1.32,0.33 2.64,0.66 4,1 4.9502498,4.6954159 4.9502498,7.3045841 4,11 2.0369841,7.4946144 1.0409761,3.8664827 0,0 Z"
       fill="#919397"
       transform="translate(413,253)"
       id="path255" />
    <path
       d="M 0,0 C 2.3907345,3.8251751 2.5596655,7.5966552 3,12 2.01,12.495 2.01,12.495 1,13 0.855625,11.9275 0.71125,10.855 0.5625,9.75 0.10566824,6.215274 0.10566824,6.215274 -0.625,3.6875 -1,2 -1,2 0,0 Z"
       fill="#555960"
       transform="translate(405,209)"
       id="path256" />
    <path
       d="m 0,0 c 0.66,0 1.32,0 2,0 -0.99,5.28 -1.98,10.56 -3,16 -0.33,0 -0.66,0 -1,0 0.1402422,-2.479601 0.2869185,-4.958524 0.4375,-7.4375 C -1.523184,7.8554492 -1.483867,7.1483984 -1.4433594,6.4199219 -1.1132812,1.1132812 -1.1132812,1.1132812 0,0 Z"
       fill="#546987"
       transform="translate(507,192)"
       id="path257" />
    <path
       d="M 0,0 C 1,3 1,3 0.22265625,4.8242187 -0.8515625,6.5494792 -1.9257812,8.2747396 -3,10 -3.66,9.34 -4.32,8.68 -5,8 -2.25,2.25 -2.25,2.25 0,0 Z"
       fill="#47494c"
       transform="translate(601,262)"
       id="path260" />
    <path
       d="M 0,0 C 3.3,0 6.6,0 10,0 9.34,1.32 8.68,2.64 8,4 5.36,3.01 2.72,2.02 0,1 0,0.67 0,0.34 0,0 Z"
       fill="#445674"
       transform="translate(560,186)"
       id="path262" />
    <path
       d="M 0,0 C 0.99,0.33 1.98,0.66 3,1 3.7304688,2.8476563 3.7304688,2.8476563 4.1875,5.0625 4.3460547,5.7959766 4.5046094,6.5294531 4.6679687,7.2851562 4.8323242,8.1340039 4.8323242,8.1340039 5,9 4.01,9.495 4.01,9.495 3,10 2.01,6.7 1.02,3.4 0,0 Z"
       fill="#0c111b"
       transform="translate(418,257)"
       id="path265" />
    <path
       d="M 0,0 C 0.33,0 0.66,0 1,0 1.053955,1.6246384 1.092772,3.2497854 1.125,4.875 1.148203,5.7799219 1.171406,6.6848437 1.195312,7.6171875 1,10 1,10 -1,12 -1.33,9.36 -1.66,6.72 -2,4 -1.34,4 -0.68,4 0,4 0,2.68 0,1.36 0,0 Z"
       fill="#40526b"
       transform="translate(503,199)"
       id="path267" />
    <path
       d="M 0,0 C 0.66,0.33 1.32,0.66 2,1 1.3125,3.4375 1.3125,3.4375 0,6 -2.625,6.8125 -2.625,6.8125 -5,7 -3.35,4.69 -1.7,2.38 0,0 Z"
       fill="#3c4d69"
       transform="translate(470,201)"
       id="path268" />
    <path
       d="M 0,0 C 0,0.66 0,1.32 0,2 -1.9794659,3.3636321 -3.9819245,4.6941864 -6,6 -7.7939445,7.6235111 -7.7939445,7.6235111 -9,9 -9.33,8.34 -9.66,7.68 -10,7 -9.34,7 -8.68,7 -8,7 -7.7525,6.401875 -7.505,5.80375 -7.25,5.1875 -5.5529433,2.2176508 -3.5650877,0 0,0 Z"
       fill="#131517"
       transform="translate(554,156)"
       id="path271" />
    <path
       d="M 0,0 C 1.98,0 3.96,0 6,0 4.68,0.33 3.36,0.66 2,1 2,2.98 2,4.96 2,7 1.01,6.67 0.02,6.34 -1,6 -0.67,4.02 -0.34,2.04 0,0 Z"
       fill="#373c44"
       transform="translate(462,267)"
       id="path275" />
    <path
       d="M 0,0 C 1.8839178,3.2654576 2.4928797,6.2811176 3,10 2.01,9.67 1.02,9.34 0,9 -0.87890625,2.8476563 -0.87890625,2.8476563 -1,1 -0.67,0.67 -0.34,0.34 0,0 Z"
       fill="#52565c"
       transform="translate(410,230)"
       id="path276" />
    <path
       d="M 0,0 C 0.33,0.66 0.66,1.32 1,2 1.66,2.33 2.32,2.66 3,3 1.625,4.5 1.625,4.5 0,6 -1.6666667,6 -3.3333333,6 -5,6 -3.35,4.02 -1.7,2.04 0,0 Z"
       fill="#3b4d6a"
       transform="translate(472,193)"
       id="path280" />
    <path
       d="M 0,0 C 0.66,0 1.32,0 2,0 2.185625,0.639375 2.37125,1.27875 2.5625,1.9375 3.9424606,4.4212621 3.9424606,4.4212621 7.625,4.75 8.73875,4.8325 9.8525,4.915 11,5 11,5.33 11,5.66 11,6 9.5420712,6.0539974 8.0835729,6.0927918 6.625,6.125 5.8128906,6.1482031 5.0007812,6.1714063 4.1640625,6.1953125 2,6 2,6 0,4 0,2.68 0,1.36 0,0 Z"
       fill="#99a2af"
       transform="translate(536,174)"
       id="path281" />
    <path
       d="M 0,0 C 0.66,0 1.32,0 2,0 0.73058503,3.9140295 -0.51167694,5.7907287 -4,8 -4,6.35 -4,4.7 -4,3 -2.68,3 -1.36,3 0,3 0,2.01 0,1.02 0,0 Z"
       fill="#9b9c9f"
       transform="translate(557,324)"
       id="path286" />
    <path
       d="M 0,0 C 0.99,0.33 1.98,0.66 3,1 1.9024777,3.9932426 1.3231711,4.846109 -1.625,6.25 -2.40875,6.4975 -3.1925,6.745 -4,7 -2.25,3.125 -2.25,3.125 0,2 0,1.34 0,0.68 0,0 Z"
       fill="#67696c"
       transform="translate(577,299)"
       id="path287" />
    <path
       d="m 0,0 c 1.4168712,4.2506136 0.19320039,6.7185163 -1,11 -0.66,0 -1.32,0 -2,0 C -3.75,9.4375 -3.75,9.4375 -4,7 -2.8691556,4.4971359 -1.4786048,2.3299228 0,0 Z"
       fill="#11151f"
       transform="translate(612,213)"
       id="path290" />
    <path
       d="M 0,0 C 0.66,0.33 1.32,0.66 2,1 0.515,4.96 0.515,4.96 -1,9 -3.1519437,5.7720845 -3.2008644,4.7159919 -3,1 -2.01,0.67 -1.02,0.34 0,0 Z"
       fill="#455774"
       transform="translate(558,205)"
       id="path291" />
    <path
       d="M 0,0 C 2,3 2,3 2,5 1.34,5 0.68,5 0,5 0,5.66 0,6.32 0,7 -0.99,7 -1.98,7 -3,7 -2.67,5.35 -2.34,3.7 -2,2 -1.34,2 -0.68,2 0,2 0,1.34 0,0.68 0,0 Z"
       fill="#40516b"
       transform="translate(580,181)"
       id="path292" />
    <path
       d="M 0,0 C 2.31,1.65 4.62,3.3 7,5 6.67,5.66 6.34,6.32 6,7 4.125,6.875 4.125,6.875 2,6 0.75,2.9375 0.75,2.9375 0,0 Z"
       fill="#989ea1"
       transform="translate(590,53)"
       id="path294" />
    <path
       d="m 0,0 c -2.462788,2.462788 -4.7067698,2.9977126 -8,4 0,-0.99 0,-1.98 0,-3 3.0674887,-1.86240388 4.5974551,-2.2151946 8,-1 z"
       fill="#666870"
       transform="translate(470,31)"
       id="path296" />
    <path
       d="M 0,0 C 0.33,0 0.66,0 1,0 1.33,3.3 1.66,6.6 2,10 1.34,10 0.68,10 0,10 -1.125,2.25 -1.125,2.25 0,0 Z"
       fill="#61646a"
       transform="translate(402,196)"
       id="path301" />
    <path
       d="m 0,0 c 0.66,0 1.32,0 2,0 0,2.64 0,5.28 0,8 -0.99,0 -1.98,0 -3,0 0,0.66 0,1.32 0,2 -0.66,0 -1.32,0 -2,0 C -2.690625,9.443125 -2.38125,8.88625 -2.0625,8.3125 -0.84620449,5.6652686 0,2.9465044 0,0 Z"
       fill="#20262f"
       transform="translate(575,158)"
       id="path303" />
    <path
       d="M 0,0 C 2.4375,0.8125 2.4375,0.8125 5,2 5.33,2.99 5.66,3.98 6,5 4.35,4.67 2.7,4.34 1,4 1,3.34 1,2.68 1,2 0.34,1.67 -0.32,1.34 -1,1 -0.67,0.67 -0.34,0.34 0,0 Z"
       fill="#44546e"
       transform="translate(543,86)"
       id="path305" />
    <path
       d="M 0,0 C -0.33,0.99 -0.66,1.98 -1,3 -4.3,2.67 -7.6,2.34 -11,2 -6.7837087,-0.10814567 -4.6020922,-0.17700355 0,0 Z"
       fill="#a5aaae"
       transform="translate(486,26)"
       id="path308" />
    <path
       d="M 0,0 C 1.98,0.495 1.98,0.495 4,1 3.67,2.65 3.34,4.3 3,6 1.68,4.68 0.36,3.36 -1,2 -0.67,1.34 -0.34,0.68 0,0 Z"
       fill="#0d131e"
       transform="translate(456,313)"
       id="path311" />
    <path
       d="M 0,0 C 0.66,0.99 1.32,1.98 2,3 1.01,4.32 0.02,5.64 -1,7 -1.99,6.67 -2.98,6.34 -4,6 -2.68,4.02 -1.36,2.04 0,0 Z"
       fill="#1a263c"
       transform="translate(565,250)"
       id="path314" />
    <path
       d="m 0,0 c 3.96,0.33 7.92,0.66 12,1 0,0.33 0,0.66 0,1 C 10.951992,2.090879 10.951992,2.090879 9.8828125,2.1835938 8.9727344,2.2673828 8.0626563,2.3511719 7.125,2.4375 6.2200781,2.5187109 5.3151562,2.5999219 4.3828125,2.6835938 1.9888914,2.8698928 1.9888914,2.8698928 0,4 0,2.68 0,1.36 0,0 Z"
       fill="#33435e"
       transform="translate(434,185)"
       id="path316" />
    <path
       d="M 0,0 C 0.144375,0.61875 0.28875,1.2375 0.4375,1.875 0.93152225,4.0325832 0.93152225,4.0325832 2,6 1.34,6 0.68,6 0,6 -0.33,6.99 -0.66,7.98 -1,9 -2.1875,7.3125 -2.1875,7.3125 -3,5 -1.625,2.25 -1.625,2.25 0,0 Z"
       fill="#475871"
       transform="translate(544,98)"
       id="path318" />
    <path
       d="M 0,0 C -0.33,0.99 -0.66,1.98 -1,3 -3.31,3.33 -5.62,3.66 -8,4 -7.34,3.67 -6.68,3.34 -6,3 -6,2.34 -6,1.68 -6,1 -3.9244635,0.4465236 -2.1563404,0 0,0 Z"
       fill="#495c79"
       transform="translate(538,84)"
       id="path319" />
    <path
       d="M 0,0 C 1.125,1.75 1.125,1.75 2,4 1.125,6.25 1.125,6.25 0,8 -0.99,7.67 -1.98,7.34 -3,7 -3,6.34 -3,5.68 -3,5 -2.01,5 -1.02,5 0,5 -0.33,4.01 -0.66,3.02 -1,2 -0.67,1.34 -0.34,0.68 0,0 Z"
       fill="#3c4c66"
       transform="translate(469,70)"
       id="path320" />
    <path
       d="M 0,0 C -1.2851956,2.8669749 -2.5712925,4.9760771 -5,7 -5.66,7 -6.32,7 -7,7 -3.862069,0 -3.862069,0 0,0 Z"
       fill="#57595f"
       transform="translate(437,48)"
       id="path321" />
    <path
       d="M 0,0 C 4.875,2.75 4.875,2.75 6,5 3.03,4.01 0.06,3.02 -3,2 -2.01,1.34 -1.02,0.68 0,0 Z"
       fill="#96989d"
       transform="translate(480,338)"
       id="path322" />
    <path
       d="M 0,0 C 1.32,0.33 2.64,0.66 4,1 5.125,4.75 5.125,4.75 4,7 2.02,3.535 2.02,3.535 0,0 Z"
       fill="#727376"
       transform="translate(435,294)"
       id="path325" />
    <path
       d="M 0,0 C 0.66,0.66 1.32,1.32 2,2 1.625,5.625 1.625,5.625 1,9 0.34,8.67 -0.32,8.34 -1,8 -0.67,5.36 -0.34,2.72 0,0 Z"
       fill="#47494e"
       transform="translate(616,200)"
       id="path328" />
    <path
       d="M 0,0 C 6.625,-0.25 6.625,-0.25 10,2 4.5846154,3.2307692 4.5846154,3.2307692 1.625,2.0625 1.08875,1.711875 0.5525,1.36125 0,1 0,0.67 0,0.34 0,0 Z"
       fill="#121c2f"
       transform="translate(468,130)"
       id="path331" />
  </g>
</svg>
