<?xml version="1.0" encoding="UTF-8" standalone="no"?>
<svg
   version="1.1"
   width="203.909"
   height="311.91507"
   id="svg381"
   sodipodi:docname="informante.svg"
   xmlns:inkscape="http://www.inkscape.org/namespaces/inkscape"
   xmlns:sodipodi="http://sodipodi.sourceforge.net/DTD/sodipodi-0.dtd"
   xmlns="http://www.w3.org/2000/svg"
   xmlns:svg="http://www.w3.org/2000/svg">
  <defs
     id="defs381" />
  <sodipodi:namedview
     id="namedview381"
     pagecolor="#ffffff"
     bordercolor="#000000"
     borderopacity="0.25"
     inkscape:showpageshadow="2"
     inkscape:pageopacity="0.0"
     inkscape:pagecheckerboard="0"
     inkscape:deskcolor="#d1d1d1">
    <inkscape:page
       x="0"
       y="0"
       width="203.909"
       height="311.91507"
       id="page2"
       margin="0"
       bleed="0" />
  </sodipodi:namedview>
  <g
     id="g381"
     transform="translate(-67.069641,-32.519314)">
    <path
       d="M 0,0 C 1.3034121,0.75317607 2.6093877,1.5019345 3.9179688,2.2460938 4.9350391,2.8248828 5.9521094,3.4036719 7,4 7,4.66 7,5.32 7,6 7.7425,6.226875 8.485,6.45375 9.25,6.6875 12.558662,8.2666342 13.794644,10.105471 16,13 c 0.785039,0.594258 1.570078,1.188516 2.378906,1.800781 C 31.088588,25.464792 35.507729,45.543177 39,61 c 0.277148,1.158867 0.554297,2.317734 0.839844,3.511719 C 40.590738,67.668462 41.305361,70.830449 42,74 c 0.184336,0.817266 0.368672,1.634531 0.558594,2.476562 7.261335,35.462338 5.08051,74.736158 -2.932617,109.774418 -0.574857,2.52452 -1.124353,5.05294 -1.66504,7.58496 -1.656652,7.59959 -3.728685,14.83312 -6.714843,22.03906 -0.975611,2.44667 -1.816196,4.85134 -2.617188,7.35547 -1.703673,5.18547 -3.87457,10.1158 -6.128906,15.08203 -0.390586,0.87979 -0.781172,1.75957 -1.183594,2.66602 -0.382851,0.84884 -0.765703,1.69769 -1.160156,2.57226 -0.342246,0.75966 -0.684492,1.51932 -1.037109,2.302 C 17.944016,248.10741 16.547081,249.9873 15,252 c -0.556875,1.01062 -1.11375,2.02125 -1.6875,3.0625 C 5.3580764,269.21397 5.3580764,269.21397 0,271 c -0.28875,0.78375 -0.5775,1.5675 -0.875,2.375 -1.4322519,3.34192 -3.0189445,3.85011 -6.125,5.625 -0.5762109,0.76312 -1.1524219,1.52625 -1.7460938,2.3125 -8.3576802,9.96548 -23.8080482,15.5204 -36.4521482,16.93311 -19.693382,1.40292 -38.084217,-5.07532 -53.454102,-17.3667 C -100.82298,278.96831 -102.92743,277.01609 -105,275 c -0.92812,-0.88687 -1.85625,-1.77375 -2.8125,-2.6875 C -114,265.77143 -114,265.77143 -114,263 c -0.99,-0.33 -1.98,-0.66 -3,-1 -1.49854,-1.97398 -2.82104,-3.90256 -4.125,-6 -0.38962,-0.61867 -0.77924,-1.23734 -1.18066,-1.87476 C -129.42743,242.63304 -135.60472,230.80744 -140,218 c -0.23815,-0.68707 -0.47631,-1.37414 -0.72168,-2.08203 C -142.54745,210.63271 -144.33425,205.33802 -146,200 c -0.31735,-1.00474 -0.6347,-2.00949 -0.96167,-3.04468 -2.90232,-9.60628 -4.69241,-19.23861 -6.22583,-29.14282 -0.12979,-0.8312 -0.25958,-1.66241 -0.39331,-2.5188 -4.77629,-30.97036 -4.75503,-62.25184 2.08569,-92.9458 0.53984,-2.559983 0.97912,-5.127981 1.417,-7.707275 1.05245,-5.861722 2.60644,-11.506289 4.32812,-17.203125 0.27457,-0.963574 0.54914,-1.927148 0.83203,-2.919922 1.81094,-6.021562 4.17394,-11.099009 7.56641,-16.396484 1.50686,-2.289705 1.50686,-2.289705 3.10156,-5.558594 9.0633,-15.7220525 26.472,-26.481183 43.67041,-31.230957 C -60.985332,-15.953109 -26.649432,-16.367111 0,0 Z"
       fill="#17171c"
       transform="translate(224,46)"
       id="path2" />
    <path
       d="M 0,0 C 1.36125,0.0309375 1.36125,0.0309375 2.75,0.0625 6.3530936,1.563789 8.4428231,4.4681904 10,8 c 0.386719,3.015625 0.386719,3.015625 0,6 C 8.3125,15.878906 8.3125,15.878906 6,17.5625 -8.4507965,29.510009 -11.406151,47.698138 -14.582764,65.127441 -15,67 -15,67 -16,69 c -0.66,0 -1.32,0 -2,0 0,0.66 0,1.32 0,2 -7.356428,3.425416 -13.839522,5.801404 -22,6 -0.304893,-26.08532 -0.304893,-26.08532 2,-33 -0.05156,-1.220742 -0.103125,-2.441484 -0.15625,-3.699219 -0.05172,-4.718515 1.454301,-8.01303 3.65625,-12.113281 0.360212,-0.691421 0.720425,-1.382842 1.091553,-2.095215 C -26.065493,12.33841 -17.019536,-1.168317 0,0 Z"
       fill="#d4d4d6"
       transform="translate(131,51)"
       id="path4" />
    <path
       d="m 0,0 c 4.472202,0.69878156 8.9663373,1.9163861 13,4 0.99,1.485 0.99,1.485 2,3 0.825,0.45375 1.65,0.9075 2.5,1.375 3.021074,1.963698 3.289283,3.315706 4.5,6.625 0.943594,0.926191 0.943594,0.926191 1.90625,1.871094 C 31.499384,24.591724 33.397042,37.803364 36,48 c 0.17283,0.62232 0.34566,1.24464 0.523727,1.885818 0.771308,3.423846 0.597432,6.887946 0.573929,10.379807 -0.0014,0.793398 -0.0028,1.586796 -0.0043,2.404236 -0.0056,2.526752 -0.01813,5.053414 -0.03087,7.580139 -0.005,1.716145 -0.0096,3.43229 -0.01367,5.148437 C 37.03782,79.598993 37.020566,83.799481 37,88 34.389222,85.573079 33.106769,84.355897 32.0625,80.875 31.281314,77.773772 31.281314,77.773772 28.375,76.625 27.59125,76.41875 26.8075,76.2125 26,76 c 0,-1.32 0,-2.64 0,-4 -1.32,0 -2.64,0 -4,0 0,-0.66 0,-1.32 0,-2 -0.99,0 -1.98,0 -3,0 -0.495,-0.99 -0.495,-0.99 -1,-2 -0.99,0.99 -0.99,0.99 -2,2 C 13.333825,65.363174 12.441594,61.251133 12,56 11.837083,54.499588 11.670349,52.999586 11.5,51.5 11.420078,50.752344 11.340156,50.004688 11.257813,49.234375 11.088015,47.7628 10.89582,46.293611 10.679688,44.828125 10.25774,41.950225 9.9046303,39.46258 10.496094,36.59375 11.930797,29.208922 9.7658935,21.1813 8,14 7.34,14 6.68,14 6,14 5.34,10.7 4.68,7.4 4,4 3.34,4 2.68,4 2,4 1.34,2.68 0.68,1.36 0,0 Z"
       fill="#4d4d50"
       transform="translate(205,64)"
       id="path5" />
    <path
       d="m 0,0 c 1.875,0.125 1.875,0.125 4,1 1.7466108,4.1634993 2.247992,7.7300477 2.2304687,12.21875 -0.00113,1.17353 -0.00226,2.347061 -0.00342,3.556152 C 6.213999,18.004185 6.2009473,19.233467 6.1875,20.5 6.1796045,21.756353 6.171709,23.012705 6.1635742,24.307129 5.9558694,46.853335 5.9558694,46.853335 3,55 c -5.1220313,0.209063 -9.1029182,-0.58738 -14,-2 -1.485,0.495 -1.485,0.495 -3,1 -3.424543,-6.849085 -3.625011,-14.489824 -1.734375,-21.796875 1.012721,-3.038164 2.361823,-5.86959 3.746094,-8.753906 C -10.862219,20.658542 -10.329672,17.950715 -9.75,15 -8.2574617,8.4227128 -4.832486,4.5455213 0,0 Z"
       fill="#87878b"
       transform="translate(160,169)"
       id="path9" />
    <path
       d="M 0,0 C 1.36125,0.0309375 1.36125,0.0309375 2.75,0.0625 6.3530936,1.563789 8.4428231,4.4681904 10,8 c 0.386719,3.015625 0.386719,3.015625 0,6 C 8.3125,15.878906 8.3125,15.878906 6,17.5625 -5.7451714,27.273075 -10.113332,41.566661 -13,56 c -2.166573,-1.718512 -2.940075,-2.560792 -3.320312,-5.347656 0.499236,-6.939385 2.370541,-11.042691 6.726562,-16.460938 C -8.0338338,32.046521 -7.4244206,30.587787 -7,28 c 0.66,0 1.32,0 2,0 0,-0.99 0,-1.98 0,-3 1.312004,-1.354327 2.646314,-2.687335 4,-4 C 0.04976964,17.850691 0.10131595,15.611855 0.0625,12.3125 0.05347656,11.318633 0.04445312,10.324766 0.03515625,9.3007813 0.02355469,8.5415234 0.01195312,7.7822656 0,7 -5.5071341,5.811817 -11.608291,4.9973651 -17,7 c -1.155215,2.4713092 -1.155215,2.4713092 -2,5 -0.99,0.33 -1.98,0.66 -3,1 -0.28875,1.051875 -0.5775,2.10375 -0.875,3.1875 -1.280674,4.340061 -3.177238,6.433358 -6.125,9.8125 -1.031616,1.983877 -2.035236,3.982767 -3,6 -0.498867,0.571055 -0.997734,1.142109 -1.511719,1.730469 C -39.286095,42.536014 -37.227453,58.789887 -37,69 c 3.028661,0.950701 5.050309,1.021596 8.125,0.25 0.683203,-0.159844 1.366406,-0.319688 2.070313,-0.484375 C -24.628036,68.037164 -24.628036,68.037164 -23,65 c 0.825,-0.12375 1.65,-0.2475 2.5,-0.375 1.2375,-0.309375 1.2375,-0.309375 2.5,-0.625 1.247144,-2.40952 1.247144,-2.40952 2,-5 0.66,-0.66 1.32,-1.32 2,-2 -0.140951,1.625431 -0.287921,3.250341 -0.4375,4.875 -0.08121,0.904922 -0.162422,1.809844 -0.246094,2.742187 C -15,67 -15,67 -16,69 c -0.66,0 -1.32,0 -2,0 0,0.66 0,1.32 0,2 -7.356428,3.425416 -13.839522,5.801404 -22,6 -0.304893,-26.08532 -0.304893,-26.08532 2,-33 -0.05156,-1.220742 -0.103125,-2.441484 -0.15625,-3.699219 -0.05172,-4.718515 1.454301,-8.01303 3.65625,-12.113281 0.360212,-0.691421 0.720425,-1.382842 1.091553,-2.095215 C -26.065493,12.33841 -17.019536,-1.168317 0,0 Z"
       fill="#9d9d9f"
       transform="translate(131,51)"
       id="path10" />
    <path
       d="m 0,0 c -2.9734749,3.4103362 -5.2448235,4.6874235 -9.625,5.75 -1.442461,0.3635156 -1.442461,0.3635156 -2.914063,0.734375 C -15,7 -15,7 -17,7 c 0,0.99 0,1.98 0,3 1.546875,-0.3403125 1.546875,-0.3403125 3.125,-0.6875 4.9697213,-0.400784 7.6537906,0.90624 11.4921875,3.984375 C -0.57262599,15.52637 -0.40390816,17.160208 -0.125,20 0.02582031,21.299375 0.02582031,21.299375 0.1796875,22.625 0,25 0,25 -1.4296875,26.8125 -3,28 -3,28 -4,28 -4.268125,26.741875 -4.53625,25.48375 -4.8125,24.1875 -5.6114459,20.92849 -6.3499786,19.168199 -9,17 c 0,-0.66 0,-1.32 0,-2 -2.208055,-0.05444 -4.416506,-0.09299 -6.625,-0.125 -1.844648,-0.03481 -1.844648,-0.03481 -3.726562,-0.07031 C -22.94316,14.996957 -25.666612,15.697414 -29,17 c -0.33,-0.99 -0.66,-1.98 -1,-3 -0.675469,0.421523 -1.350937,0.843047 -2.046875,1.277344 -0.892031,0.547851 -1.784062,1.095703 -2.703125,1.660156 -0.881719,0.545273 -1.763438,1.090547 -2.671875,1.652344 C -39.703104,19.837607 -41.438637,20.649205 -44,21 c -0.66,-0.33 -1.32,-0.66 -2,-1 1.53909,-1.253172 3.081409,-2.502378 4.625,-3.75 1.287773,-1.044141 1.287773,-1.044141 2.601563,-2.109375 C -33.534362,10.096944 -28.294907,6.996678 -22.25,4.375 -21.548428,4.0701367 -20.846855,3.7652734 -20.124023,3.4511719 -6.9230163,-2.1205636 -6.9230163,-2.1205636 0,0 Z"
       fill="#212026"
       transform="translate(145,37)"
       id="path16" />
    <path
       d="m 0,0 c 0.99,0 1.98,0 3,0 0.086367,0.825 0.1727344,1.65 0.2617188,2.5 1.3950841,11.467848 4.6986102,21.899318 8.6210942,32.714844 0.319445,0.888003 0.638891,1.776006 0.968017,2.690918 0.626581,1.731011 1.263933,3.458174 1.913574,5.180664 C 16.506404,47.871247 17.541356,51.827764 17,57 c -0.66,0.99 -1.32,1.98 -2,3 -0.495,-4.95 -0.495,-4.95 -1,-10 -0.495,2.475 -0.495,2.475 -1,5 -0.99,0 -1.98,0 -3,0 C 9.731875,53.88625 9.46375,52.7725 9.1875,51.625 8.3419098,47.78159 8.3419098,47.78159 5,46 5,45.34 5,44.68 5,44 4.34,44 3.68,44 3,44 0.16460451,38.417815 -1.3410982,34.367167 -1,28 c -0.2560556,-3.009861 -0.619497,-6.003539 -1,-9 0.66,0 1.32,0 2,0 1.32,4.62 2.64,9.24 4,14 C 3.67,31.68 3.34,30.36 3,29 1.0094737,19.263954 -0.51964931,9.9888145 0,0 Z"
       fill="#222227"
       transform="translate(183,172)"
       id="path19" />
    <path
       d="M 0,0 C 0.67119549,1.4562545 1.3368181,2.9150787 2,4.375 2.556875,5.5931641 2.556875,5.5931641 3.125,6.8359375 4,9 4,9 4,11 c 2.475,0.495 2.475,0.495 5,1 0,0.66 0,1.32 0,2 C 8.2007813,14.10957 7.4015625,14.219141 6.578125,14.332031 0.83089694,15.161737 -4.7615839,16.125721 -10.375,17.625 -14.768281,18.7845 -18.474438,19.308561 -23,19 c 0,-0.99 0,-1.98 0,-3 0.99,0 1.98,0 3,0 1.002171,-3.583278 1.002171,-3.583278 0,-7 -0.99,0.495 -0.99,0.495 -2,1 1.35154,-4.423222 3.097261,-6.5164388 7,-9 4.910504,-1.33922849 9.9448255,-1.10110349 15,-1 z"
       fill="#403f45"
       transform="translate(108,153)"
       id="path20" />
    <path
       d="m 0,0 c 6.6514294,-0.23289319 12.175525,0.87886372 18.414062,3.1523438 -0.329999,1.98 -0.66,3.9599999 -1,6 -6.826502,1.7713902 -13.026205,2.2793832 -20.0624995,2.1875002 -1.4124902,-9.67e-4 -1.4124902,-9.67e-4 -2.8535156,-0.002 -5.4465789,-0.03411 -10.6954589,-0.392184 -16.0839839,-1.185547 0,-1.3200002 0,-2.6400002 0,-4.0000003 C -14.105878,2.426064 -8.2381715,0.48533034 0,0 Z"
       fill="#20201f"
       transform="translate(218.58594,168.84766)"
       id="path21" />
    <path
       d="M 0,0 C 0,0.33 0,0.66 0,1 1.2671484,1.1469531 2.5342969,1.2939062 3.8398438,1.4453125 21.189668,3.6805026 21.189668,3.6805026 28,10 23.495148,14.504852 16.703292,13.22297 10.75,13.25 9.069707,13.280938 9.069707,13.280938 7.3554687,13.3125 1.1473315,13.341818 -3.5845508,13.169097 -9,10 -10.694164,7.2469831 -11.141631,5.8733898 -10.625,2.6875 -10.41875,2.130625 -10.2125,1.57375 -10,1 -6.6198147,-0.04005702 -3.5219721,-0.08004482 0,0 Z"
       fill="#202020"
       transform="translate(114,167)"
       id="path22" />
    <path
       d="m 0,0 c 0.74362793,0.01047363 1.4872559,0.02094727 2.253418,0.03173828 1.2084961,0.009668 1.2084961,0.009668 2.4414062,0.01953125 1.2626367,0.02513672 1.2626367,0.02513672 2.5507813,0.05078125 1.2742383,0.0135352 1.2742383,0.0135352 2.5742187,0.0273438 2.1003798,0.0235998 4.2006158,0.0594714 6.3007808,0.0976563 0.625,2.37500002 0.625,2.37500002 1,5.00000002 -0.66,0.66 -1.32,1.32 -2,2 -0.315377,4.3364361 -0.448978,6.3265321 2,10.0000001 -7.7545176,-0.580063 -15.3474223,-1.624406 -22.9999995,-3 0,-0.66 0,-1.32 0,-2 -2.64,0 -5.2800005,0 -8.0000005,0 3.401949,-2.093507 6.0527246,-2.179422 10.0000005,-2 -0.04125,-1.2787501 -0.0825,-2.5575001 -0.125,-3.8750001 -0.070312,-2.1796875 -0.070312,-2.1796875 0.125,-4.125 2,-2.00000002 2,-2.00000002 3.8793945,-2.2270509 z"
       fill="#252427"
       transform="translate(225.87939,152.77295)"
       id="path25" />
    <path
       d="M 0,0 C 10.959538,-0.77666015 20.389434,1.6285849 29.378906,8.046875 31.117599,9.2534193 31.117599,9.2534193 34,9 c 0,0.66 0,1.32 0,2 0.66,0 1.32,0 2,0 0,1.32 0,2.64 0,4 -1.9375,-0.375 -1.9375,-0.375 -4,-1 -0.495,-0.99 -0.495,-0.99 -1,-2 -0.706406,0.216563 -1.412813,0.433125 -2.140625,0.65625 C 10.196274,17.720609 -13.93065,16.733526 -31,7 c 0,-0.33 0,-0.66 0,-1 2.539584,-0.6756137 5.081188,-1.3406583 7.625,-2 0.712852,-0.1907812 1.425703,-0.3815625 2.160156,-0.578125 C -17.041515,2.3498271 -13.348212,1.7805319 -9,2 c -0.309375,0.86625 -0.309375,0.86625 -0.625,1.75 -0.532513,2.243865 -0.532513,2.243865 0.1875,4.375 2.1712488,2.832064 3.9348643,3.024307 7.4375,3.875 4.2111608,0.288888 8.4054903,0.279033 12.625,0.25 1.697695,0.0116 1.697695,0.0116 3.429688,0.02344 1.087968,-0.0026 2.175937,-0.0052 3.296874,-0.0078 0.988228,-0.0023 1.976456,-0.0045 2.994629,-0.0068 C 23.043483,11.99576 24.691861,11.378177 27,10 21.035641,5.5509846 15.830862,4.0239429 8.5,3.1875 7.1232812,3.006709 7.1232812,3.006709 5.71875,2.8222656 3.4807579,2.5308604 1.2421346,2.2572049 -1,2 -0.67,1.34 -0.34,0.68 0,0 Z"
       fill="#070708"
       transform="translate(114,167)"
       id="path27" />
    <path
       d="M 0,0 C 0.93730957,-0.00193359 1.8746191,-0.00386719 2.840332,-0.00585938 14.617275,0.24953022 25.8501,3.37101 37.125,6.5625 c -3.170561,3.3569655 -5.140577,4.638347 -9.6875,5.625 -0.973242,0.219141 -1.946484,0.438281 -2.949219,0.664063 -1.109883,0.234609 -2.219765,0.469218 -3.363281,0.710937 -0.661047,0.171365 -1.322095,0.342729 -2.003174,0.519287 C 12.985126,15.618877 7.1240923,15.908436 0.8125,15.875 -0.19627197,15.8737 -1.205044,15.8724 -2.2443848,15.8711 -9.5099332,15.777398 -15.996767,15.047539 -22.875,12.5625 c 0,-3 0,-3 1.375,-4.6875 1.625,-1.3125 1.625,-1.3125 3.625,-1.3125 0.33,-0.99 0.66,-1.98 1,-3 C -11.300175,0.43497857 -6.3179529,-0.01369251 0,0 Z m -19.875,9.5625 c 0.33,0.99 0.66,1.98 1,3 6.341675,0.933698 12.5315113,1.183115 18.9375,1.1875 1.4066894,0.01837 1.4066894,0.01837 2.8417969,0.03711 C 8.9530544,13.79972 14.26785,13.082355 20.125,11.5625 c 0.33,-1.98 0.66,-3.96 1,-6 -14.0531451,-5.12131967 -28.3411458,-4.1891847 -41,4 z"
       fill="#050607"
       transform="translate(215.875,166.4375)"
       id="path28" />
    <path
       d="M 0,0 C 0.98097656,0.25394531 1.9619531,0.50789062 2.9726563,0.76953125 12.267466,3.1488913 21.572849,5.2120921 31,7 31,7.33 31,7.66 31,8 22.949244,8.6572046 15.643275,6.2292885 8,4 10.388926,6.420673 12.703641,8.7660323 15.375,10.875 17,13 17,13 16.75,16.75 16.5025,17.8225 16.255,18.895 16,20 c -0.66,0 -1.32,0 -2,0 -0.33,-0.66 -0.66,-1.32 -1,-2 -0.66,0.99 -1.32,1.98 -2,3 C 9.125,21.328125 9.125,21.328125 7,21.25 6.29875,21.234531 5.5975,21.219062 4.875,21.203125 3,21 3,21 1,20 1,18.35 1,16.7 1,15 0.34,15 -0.32,15 -1,15 -2.125,7.375 -2.125,7.375 -1,4 -0.34,4 0.32,4 1,4 0.67,2.68 0.34,1.36 0,0 Z m 14,15 c 1,2 1,2 1,2 z"
       fill="#68696c"
       transform="translate(85,175)"
       id="path29" />
    <path
       d="M 0,0 C 0.99,0.33 1.98,0.66 3,1 2.125,6.875 2.125,6.875 1,8 -1.9019512,23.214516 -0.95472115,39.573681 4.09375,54.160156 4.9880242,56.962472 5.1715707,59.083298 5,62 2.69,62 0.38,62 -2,62 -3.7152786,51.472686 -4.3447734,41.211615 -4.3156738,30.554687 c 0.0032,-2.448354 -0.020548,-4.895539 -0.045654,-7.34375 C -4.3923326,15.338204 -4.2877633,8.3079903 -1,1 -0.67,0.67 -0.34,0.34 0,0 Z"
       fill="#4f5053"
       transform="translate(178,166)"
       id="path31" />
    <path
       d="M 0,0 C 0.99,0 1.98,0 3,0 3.33,1.65 3.66,3.3 4,5 3.34,5 2.68,5 2,5 c 0,3.63 0,7.26 0,11 0.66,0 1.32,0 2,0 0,1.65 0,3.3 0,5 1.6033279,0.08122 3.2078403,0.139291 4.8125,0.1875 0.8933203,0.0348 1.786641,0.06961 2.707031,0.105469 C 14.416475,20.95081 15.22555,20.246064 17,18 c 0,0.99 0,1.98 0,3 0.66,0 1.32,0 2,0 0.33,-0.99 0.66,-1.98 1,-3 0.104775,5.785915 -0.0075,11.293094 -1,17 C 17.35,34.67 15.7,34.34 14,34 13.505,32.515 13.505,32.515 13,31 12.414766,30.867227 11.829531,30.734453 11.226563,30.597656 6.2749836,29.268548 2.9373423,23.966274 0,20 -2.5982756,14.447791 -2.9679396,7.8433226 -1,2.0625 -0.505,1.0415625 -0.505,1.0415625 0,0 Z"
       fill="#4d4e53"
       transform="translate(82,174)"
       id="path34" />
    <path
       d="M 0,0 C 1,2 1,2 0.125,5 -1,8 -1,8 -2,10 -3.9052642,21.028281 -4.2486346,31.83907 -4,43 -0.97133918,43.950701 1.0503088,44.021596 4.125,43.25 4.8082031,43.090156 5.4914062,42.930312 6.1953125,42.765625 8.3719639,42.037164 8.3719639,42.037164 10,39 c 0.825,-0.12375 1.65,-0.2475 2.5,-0.375 0.825,-0.20625 1.65,-0.4125 2.5,-0.625 1.247144,-2.40952 1.247144,-2.40952 2,-5 0.66,-0.66 1.32,-1.32 2,-2 -0.140951,1.625431 -0.287921,3.250341 -0.4375,4.875 -0.08121,0.904922 -0.162422,1.809844 -0.246094,2.742187 C 18,41 18,41 17,43 c -0.66,0 -1.32,0 -2,0 0,0.66 0,1.32 0,2 C 7.643572,48.425416 1.160478,50.801404 -7,51 -7.3048934,24.91468 -7.3048934,24.91468 -5,18 -5.0825,16.824375 -5.165,15.64875 -5.25,14.4375 -5.3730549,8.9307937 -2.6742069,4.6607605 0,0 Z"
       fill="#94959a"
       transform="translate(98,77)"
       id="path36" />
    <path
       d="M 0,0 C 0.33,0 0.66,0 1,0 1.33,1.98 1.66,3.96 2,6 1.34,6 0.68,6 0,6 -0.25007813,6.8430469 -0.50015625,7.6860938 -0.7578125,8.5546875 -2.1123267,12.311548 -3.9195243,15.661802 -5.875,19.125 -9.408093,25.533922 -12.001455,31.93935 -14,39 c -1.98,0 -3.96,0 -6,0 2.998657,-14.83546 9.904705,-27.750957 20,-39 z"
       fill="#3e3d42"
       transform="translate(98,58)"
       id="path38" />
    <path
       d="m 0,0 c 1.7357892,3.4715784 1.4759643,7.2046486 1,11 -1.09053305,2.619184 -2.390579,4.636163 -4,7 -0.66,0 -1.32,0 -2,0 0,0.99 0,1.98 0,3 -0.66,0 -1.32,0 -2,0 -0.0825,0.7425 -0.165,1.485 -0.25,2.25 -0.8896946,3.262214 -2.2350375,4.559549 -4.75,6.75 1.026747,-4.021428 2.2478415,-7.671667 4,-11.4375 C -6.0971598,14.430213 -4.9687764,10.440225 -4,6 -4.66,6 -5.32,6 -6,6 -6.33,5.34 -6.66,4.68 -7,4 c -4.269315,-0.3627028 -6.262172,0.4877048 -9.6875,3 -4.131944,3 -4.131944,3 -6.3125,3 0.33,-1.65 0.66,-3.3 1,-5 0.99,0 1.98,0 3,0 0.66,-1.98 1.32,-3.96 2,-6 5.898002,-1.4298186 11.5039114,-1.909694 17,1 z"
       fill="#cececf"
       transform="translate(131,58)"
       id="path40" />
    <path
       d="M 0,0 C 0.33,0.66 0.66,1.32 1,2 0.51789063,2.3519141 0.03578125,2.7038281 -0.4609375,3.0664063 -5.0623626,6.6630304 -6.7792761,9.1183303 -8,15 c -0.99,1.485 -0.99,1.485 -2,3 0.33,0.66 0.66,1.32 1,2 -0.5689966,2.0644 -1.22818,4.104513 -1.9375,6.125 -0.380273,1.095703 -0.760547,2.191406 -1.152344,3.320312 C -12.390195,30.288359 -12.690547,31.131406 -13,32 c -0.66,0 -1.32,0 -2,0 -0.126328,0.861094 -0.252656,1.722187 -0.382813,2.609375 -0.606501,3.331921 -1.448584,6.420828 -2.492187,9.640625 -0.327422,1.036406 -0.654844,2.072812 -0.992187,3.140625 C -20,50 -20,50 -23,52 -22.257491,34.476783 -17.116446,15.848287 -4.21875,3.2617188 -2.8558486,2.1206102 -1.4345243,1.0496519 0,0 Z"
       fill="#444449"
       transform="translate(139,66)"
       id="path42" />
    <path
       d="m 0,0 c 5.1357475,0.43523284 8.7776477,0.80124824 13,4 0.33,0.66 0.66,1.32 1,2 C 12.607813,5.505 12.607813,5.505 11.1875,5 8.0797071,3.85033 8.0797071,3.85033 5,4 c 0,0.66 0,1.32 0,2 0.66,0 1.32,0 2,0 2.0935069,3.4019487 2.1794216,6.052724 2,10 0.66,0 1.32,0 2,0 3.625453,9.300076 5.779335,19.440506 2,29 C 11.040849,42.061274 10.671472,40.963957 10.253906,37.613281 10.08085,36.328408 10.08085,36.328408 9.9042969,35.017578 9.6789227,33.233902 9.4549326,31.450051 9.2324219,29.666016 8.660116,25.432217 7.9752019,21.59072 6.4023437,17.605469 5,14 5,14 5,10 4.34,10 3.68,10 3,10 0.4606772,6.5816808 -0.3636198,4.242231 0,0 Z"
       fill="#27262b"
       transform="translate(202,62)"
       id="path43" />
    <path
       d="M 0,0 C 0.66,0.33 1.32,0.66 2,1 1.0157112,4.7184243 -0.4648561,6.5757344 -3.375,8.9375 -8.7382192,13.290258 -11.672134,19.057383 -15,25 c -0.99,-0.66 -1.98,-1.32 -3,-2 -1.485,2.475 -1.485,2.475 -3,5 -0.66,-0.33 -1.32,-0.66 -2,-1 1.501864,-4.232527 3.650267,-7.899861 5.976563,-11.71875 C -15.855962,12.678938 -15.811269,10.821034 -16,8 -15.21625,7.79375 -14.4325,7.5875 -13.625,7.375 -9.4230706,5.7811647 -5.9344081,3.5787762 -2.171875,1.1445312 -1.4551562,0.76683594 -0.7384375,0.38914063 0,0 Z"
       fill="#26252b"
       transform="translate(115,50)"
       id="path47" />
    <path
       d="M 0,0 C 0.66,0.66 1.32,1.32 2,2 2.99,1.67 3.98,1.34 5,1 5.33,2.65 5.66,4.3 6,6 4.68,5.34 3.36,4.68 2,4 2,4.99 2,5.98 2,7 2.66,7.33 3.32,7.66 4,8 3.67,8.99 3.34,9.98 3,11 c 1.65,-0.33 3.3,-0.66 5,-1 1.905247,5.10334 3.42589,9.463427 3,15 0.66,0 1.32,0 2,0 0,3.3 0,6.6 0,10 0.66,0 1.32,0 2,0 0.125,3.375 0.125,3.375 0,7 -0.66,0.66 -1.32,1.32 -2,2 C 9.2544511,35.512095 6.2837999,26.964803 3.6875,18.0625 3.3284961,16.870762 2.9694922,15.679023 2.5996094,14.451172 2.2612305,13.303262 1.9228516,12.155352 1.5742187,10.972656 1.2708862,9.9440649 0.96755371,8.9154736 0.6550293,7.8557129 0.02818501,5.1228774 -0.1291072,2.7907019 0,0 Z"
       fill="#38373b"
       transform="translate(74,227)"
       id="path48" />
    <path
       d="M 0,0 C 0.66,0 1.32,0 2,0 4.5074335,8.6193026 4.2604982,17.120076 4,26 3.980664,26.74959 3.961328,27.49918 3.941406,28.271484 3.8768481,30.453171 3.787672,32.632183 3.6875,34.8125 3.6294922,36.097695 3.5714844,37.382891 3.5117188,38.707031 2.9847914,42.097869 2.4829998,43.658549 0,46 c -0.99,0 -1.98,0 -3,0 0.1452046,-1.625056 0.2912087,-3.250041 0.4375,-4.875 0.081211,-0.904922 0.1624219,-1.809844 0.2460937,-2.742188 0.1727007,-1.846404 0.350714,-3.692459 0.5549317,-5.535644 C -1.0037059,25.863809 -0.68639664,18.893069 -0.4375,11.875 -0.39431641,10.727734 -0.35113281,9.5804688 -0.30664062,8.3984375 -0.20166354,5.5990486 -0.09950535,2.7995879 0,0 Z"
       fill="#dedfe1"
       transform="translate(161,175)"
       id="path49" />
    <path
       d="M 0,0 C 0.33,0 0.66,0 1,0 1.4086211,3.4732791 1.0029,4.9946279 -0.6875,8.125 -2.9959811,10.995004 -4.8016908,12.277834 -8,14 -8.556875,14.556875 -9.11375,15.11375 -9.6875,15.6875 -10.120625,16.120625 -10.55375,16.55375 -11,17 c -0.66,0 -1.32,0 -2,0 -0.33,0.99 -0.66,1.98 -1,3 -0.99,0 -1.98,0 -3,0 0,-2.97 0,-5.94 0,-9 -3.141914,1.536047 -6.085967,3.057312 -9,5 0.33,-3.63 0.66,-7.26 1,-11 0.33,0 0.66,0 1,0 0,1.65 0,3.3 0,5 C -17.842745,9.023066 -12.504575,7.586667 -6.9101562,4.8046875 -5,4 -5,4 -2,4 -2,3.34 -2,2.68 -2,2 -1.34,2 -0.68,2 0,2 0,1.34 0,0.68 0,0 Z"
       fill="#4d4d52"
       transform="translate(115,118)"
       id="path50" />
    <path
       d="m 0,0 c 0.33,0 0.66,0 1,0 0.25,7.625 0.25,7.625 -2,11 -0.6847339,2.328095 -1.3485315,4.662378 -2,7 -0.7054766,2.004195 -1.4559218,3.984831 -2.2265625,5.964844 -0.5070621,1.334239 -0.9824396,2.681048 -1.421875,4.039062 C -8.4270135,33.350096 -11.087641,37.902376 -15,42 c -0.66,0 -1.32,0 -2,0 0.434949,-3.370854 1.456362,-6.133637 2.875,-9.1875 C -11.908117,28.006556 -10.403979,23.094743 -9,18 c 0.66,0 1.32,0 2,0 1.32,-5.28 2.64,-10.56 4,-16 0.99,0 1.98,0 3,0 C 0,1.34 0,0.68 0,0 Z"
       fill="#212227"
       transform="translate(133,80)"
       id="path51" />
    <path
       d="m 0,0 c 1.965596,3.931192 -0.68914865,9.014375 -2,13 -0.6837687,1.511356 -1.3906871,3.012546 -2.125,4.5 C -6.4690118,22.466431 -7.0467126,27.534628 -7,33 c 0.33,0.66 0.66,1.32 1,2 0.4322545,2.657565 0.6977952,5.323329 1,8 0.804375,-0.525937 0.804375,-0.525937 1.625,-1.0625 C -0.26725237,40.710758 1.794317,41.271436 5,42 c 0,0.66 0,1.32 0,2 1.98,0 3.96,0 6,0 0,0.33 0,0.66 0,1 -6.6,0.33 -13.2,0.66 -20,1 -0.33,-0.66 -0.66,-1.32 -1,-2 -0.495,2.475 -0.495,2.475 -1,5 -0.66,-0.33 -1.32,-0.66 -2,-1 0.141077,-1.458801 0.288024,-2.917036 0.4375,-4.375 0.08121,-0.812109 0.162422,-1.624219 0.246094,-2.460938 C -12,39 -12,39 -11,37 c 0.05356,-1.666327 0.09259,-3.333128 0.125,-5 C -10.227067,23.06933 -6.4874504,15.139302 -3,7 -2.7044824,6.30729 -2.4089648,5.6145801 -2.1044922,4.9008789 -1.4055911,3.2661402 -0.70320121,1.6328936 0,0 Z"
       fill="#5f5f64"
       transform="translate(151,180)"
       id="path52" />
    <path
       d="M 0,0 C 0.99,0 1.98,0 3,0 3.0863672,0.825 3.1727344,1.65 3.2617188,2.5 4.4328737,12.127109 6.8906564,20.845313 10,30 c 1.157751,3.473252 1.068667,6.360674 1,10 C 7.7816149,38.662926 6.3762353,37.620157 4.9375,34.4375 0.5604659,23.711171 -0.59664138,11.468773 0,0 Z"
       fill="#616266"
       transform="translate(183,172)"
       id="path55" />
    <path
       d="M 0,0 C 0.33,0 0.66,0 1,0 1,2.31 1,4.62 1,7 1.66,7 2.32,7 3,7 3,7.66 3,8.32 3,9 3.66,9 4.32,9 5,9 4.95875,10.11375 4.9175,11.2275 4.875,12.375 4.86,16.612527 5.6494975,20.465492 6.5546875,24.589844 7.147471,27.798155 7.1414179,30.747388 7,34 4.525,34.495 4.525,34.495 2,35 1.67,32.69 1.34,30.38 1,28 1.99,28 2.98,28 4,28 3.67,27.34 3.34,26.68 3,26 2.01,26.33 1.02,26.66 0,27 -0.53251766,25.086547 -1.0505948,23.16907 -1.5625,21.25 -1.8525391,20.182656 -2.1425781,19.115313 -2.4414063,18.015625 -2.9960708,15.021212 -2.9353478,13.806043 -2,11 -1.6337001,9.0856151 -1.280136,7.1687615 -0.9375,5.25 -0.67259766,3.7727344 -0.67259766,3.7727344 -0.40234375,2.265625 -0.26957031,1.5179688 -0.13679688,0.7703125 0,0 Z"
       fill="#27272b"
       transform="translate(75,203)"
       id="path57" />
    <path
       d="m 0,0 c 3.3125,-0.3125 3.3125,-0.3125 7,0 1.75,2.375 1.75,2.375 3,5 2.91765,1.9451 4.625373,2.4527632 8,3 0,0.66 0,1.32 0,2 -7.986142,1.307747 -15.9295642,2.385418 -24,3 0.4833984,-0.457617 0.9667969,-0.915234 1.4648438,-1.386719 C -2.7076757,9.6927992 -2.5150911,8.5754557 -2,6 -1.344905,3.9961799 -0.68025637,1.9954187 0,0 Z"
       fill="#808084"
       transform="translate(99,157)"
       id="path59" />
    <path
       d="M 0,0 C 0.66,0 1.32,0 2,0 2.7150149,7.2137063 1.5928044,13.582088 -0.3125,20.5 -0.52543701,21.28939 -0.73837402,22.078779 -0.95776367,22.89209 -2.8471645,29.418087 -2.8471645,29.418087 -6,32 -6.66,32 -7.32,32 -8,32 -8.5968857,24.389708 -6.3784636,18.169613 -4,11 -3.1916012,8.2795623 -2.4004838,5.5547485 -1.6132812,2.828125 -1,1 -1,1 0,0 Z"
       fill="#cdcdd0"
       transform="translate(153,179)"
       id="path64" />
    <path
       d="M 0,0 C 0.72868956,3.0058444 0.99123219,5.5085332 0.9375,8.625 0.69905398,12.132714 0.69905398,12.132714 3,15 c -6.848171,-0.486412 -13.330421,-1.35994 -20,-3 0,-0.33 0,-0.66 0,-1 5.125836,-0.102517 9.9499778,-0.0359 15,1 0,-0.66 0,-1.32 0,-2 C -3.27875,9.855625 -4.5575,9.71125 -5.875,9.5625 -8.2569289,9.2935725 -9.8445269,9.0777365 -12,8 -12,6.35 -12,4.7 -12,3 -10.753367,2.4916641 -9.5025061,1.9936885 -8.25,1.5 -7.5539062,1.2215625 -6.8578125,0.943125 -6.140625,0.65625 -4,0 -4,0 0,0 Z"
       fill="#555557"
       transform="translate(240,155)"
       id="path65" />
    <path
       d="M 0,0 C 1.36125,0.0309375 1.36125,0.0309375 2.75,0.0625 6.4514179,1.6047575 8.2225743,4.495521 10,8 c 0.75,3.125 0.75,3.125 0,6 C 7.8042603,16.0653 5.6045822,17.418647 3,19 3.33,15.04 3.66,11.08 4,7 3.01,7 2.02,7 1,7 0.59136719,6.4985547 0.18273437,5.9971094 -0.23828125,5.4804687 -2.0448097,3.6486023 -2.0448097,3.6486023 -5.3554687,3.9257813 -6.6200391,4.0533984 -7.8846094,4.1810156 -9.1875,4.3125 -10.459805,4.4323828 -11.732109,4.5522656 -13.042969,4.6757812 -14.018789,4.7827734 -14.994609,4.8897656 -16,5 -10.979171,-0.36709295 -6.9682977,-0.23391812 0,0 Z"
       fill="#7d7e7f"
       transform="translate(131,51)"
       id="path66" />
    <path
       d="M 0,0 C 0.66,0 1.32,0 2,0 2.66,2.31 3.32,4.62 4,7 5.65,7 7.3,7 9,7 8.8466016,7.5207812 8.6932031,8.0415625 8.5351563,8.578125 7.8601749,11.632785 7.6558888,14.63016 7.4375,17.75 7.3537109,18.920469 7.2699219,20.090937 7.1835937,21.296875 7.1230078,22.188906 7.0624219,23.080937 7,24 c -0.33,0 -0.66,0 -1,0 0,-2.97 0,-5.94 0,-9 -0.99,0 -1.98,0 -3,0 0,1.98 0,3.96 0,6 -1.32,-0.99 -2.64,-1.98 -4,-3 -0.33,0.99 -0.66,1.98 -1,3 0.144375,-0.70125 0.28875,-1.4025 0.4375,-2.125 C -0.98521625,15.924439 -0.48304859,12.967298 0,10 c -0.66,0 -1.32,0 -2,0 -0.66,1.65 -1.32,3.3 -2,5 C -4.9042552,12.493267 -5.0918267,11.283213 -4.2578125,8.7109375 -3.6970703,7.5546484 -3.6970703,7.5546484 -3.125,6.375 -2.7563281,5.5989844 -2.3876563,4.8229687 -2.0078125,4.0234375 -1.3395727,2.6817777 -0.6703127,1.3406254 0,0 Z"
       fill="#3d3e40"
       transform="translate(180,157)"
       id="path68" />
    <path
       d="m 0,0 c 1.3768702,3.7175496 0.46151233,5.4274143 -1,9 -0.4563812,2.663877 -0.7262686,5.308308 -1,8 0.61875,-0.495 1.2375,-0.99 1.875,-1.5 C 2,14 2,14 4,14 4,13.34 4,12.68 4,12 4.99,11.67 5.98,11.34 7,11 7.9597119,18.197839 4.6619988,22.97296 1,29 0.34,29 -0.32,29 -1,29 -4.8545444,21.290911 -4.4844738,13.038934 -2,5 -1.3810337,3.3150362 -0.73882078,1.6359603 0,0 Z"
       fill="#b0afb4"
       transform="translate(147,194)"
       id="path70" />
    <path
       d="M 0,0 C 5.99291,0.41330414 9.250366,1.3190336 14,5 12.875483,7.9719385 11.777062,10.334407 10,13 8.125,13.328125 8.125,13.328125 6,13.25 5.29875,13.234531 4.5975,13.219063 3.875,13.203125 2,13 2,13 0,12 0.33,11.34 0.66,10.68 1,10 1.66,10 2.32,10 3,10 2.67,8.68 2.34,7.36 2,6 1.34,6 0.68,6 0,6 0,4.02 0,2.04 0,0 Z"
       fill="#696a70"
       transform="translate(86,183)"
       id="path71" />
    <path
       d="m 0,0 c -1.32,0.33 -2.64,0.66 -4,1 0,0.66 0,1.32 0,2 -0.66,0 -1.32,0 -2,0 -0.2514477,0.6127881 -0.5028955,1.2255762 -0.7619629,1.8569336 -1.4408927,2.4942135 -2.5008188,3.1515611 -5.0466311,4.4321289 -0.747011,0.3841406 -1.494023,0.7682815 -2.263672,1.1640625 -0.780527,0.386719 -1.561054,0.773438 -2.365234,1.171875 -1.540982,0.78264 -3.08137,1.566449 -4.621094,2.351563 -0.683767,0.341118 -1.367534,0.682236 -2.072021,1.033691 C -25.237752,16.085628 -25.237752,16.085628 -28,18 -30.1875,17.625 -30.1875,17.625 -32,17 -7.89093,-2.63031 -7.89093,-2.63031 0,0 Z"
       fill="#403f43"
       transform="translate(131,40)"
       id="path73" />
    <path
       d="M 0,0 C 0,3 0,3 -0.9375,5.125 -2.1734848,8.4694295 -2.3741205,11.471022 -2.5585938,15.011719 -3,17 -3,17 -6,19 -6.2932982,20.98791 -6.5775129,22.979144 -6.7578125,24.980469 -7.0668735,27.557639 -7.9433739,29.63813 -9,32 c -0.6779553,1.996202 -1.347335,3.995387 -2,6 -0.33,0 -0.66,0 -1,0 C -12.312483,16.183017 -12.312483,16.183017 -5,8 -4.2197934,6.7263515 -3.4688972,5.4342325 -2.75,4.125 -1,1 -1,1 0,0 Z"
       fill="#d3d3d4"
       transform="translate(105,72)"
       id="path75" />
    <path
       d="m 0,0 c 4.7946347,4.3141702 6.0955628,8.9810381 8,15 0.3029297,0.928125 0.6058594,1.85625 0.9179688,2.8125 C 10.789014,23.996612 11.377545,29.553768 11,36 10.34,36 9.68,36 9,36 6,24 3,12 0,0 Z"
       fill="#b2b1b6"
       transform="translate(230,86)"
       id="path77" />
    <path
       d="m 0,0 c 1.1754656,0.65102708 2.345617,1.3122825 3.5,2 0,0.66 0,1.32 0,2 0.66,0 1.32,0 2,0 1.3506493,7.489965 1.3506493,7.489965 -0.375,10 C 3.5,15 3.5,15 2.5,15 2.231875,13.741875 1.96375,12.48375 1.6875,11.1875 0.88855405,7.9284903 0.15002135,6.1681993 -2.5,4 c 0,-0.66 0,-1.32 0,-2 -5.28,0 -10.56,0 -16,0 1,-2 1,-2 3.0625,-3.125 C -9.6395301,-2.8520549 -5.3419431,-2.6662442 0,0 Z"
       fill="#48484c"
       transform="translate(138.5,50)"
       id="path79" />
    <path
       d="M 0,0 C 0.99,0.33 1.98,0.66 3,1 2.125,6.875 2.125,6.875 1,8 c -0.81372448,4.682851 -1.16874496,9.281088 -1.31640625,14.027344 -0.0418945,1.28584 -0.0837891,2.571679 -0.12695313,3.896484 -0.0397976,1.337888 -0.0795101,2.675779 -0.11914062,4.013672 -0.0432665,1.365246 -0.0868832,2.73048 -0.13085938,4.095703 C -0.79901153,37.355377 -0.90111395,40.677619 -1,44 c -0.33,0 -0.66,0 -1,0 -1.263441,-6.583059 -1.222339,-13.119944 -1.2402344,-19.794922 -0.00974,-2.198948 -0.040827,-4.396972 -0.072266,-6.595703 -0.00653,-1.411453 -0.01178,-2.822912 -0.015625,-4.234375 -0.00935,-1.271016 -0.018691,-2.542031 -0.02832,-3.8515625 C -2.9715567,5.71884 -1.9123001,3.2818351 0,0 Z"
       fill="#6a6b6f"
       transform="translate(178,166)"
       id="path80" />
    <path
       d="M 0,0 C 1.4379152,0.14168137 2.8753237,0.28851043 4.3125,0.4375 5.1130078,0.51871094 5.9135156,0.59992188 6.7382812,0.68359375 9,1 9,1 12,2 11.67,3.98 11.34,5.96 11,8 5.9252321,9.2630534 1.2720365,10.270361 -4,10 -3.525625,9.46375 -3.05125,8.9275 -2.5625,8.375 -0.71813924,5.5715716 -0.37543153,3.3037974 0,0 Z"
       fill="#3a3b3a"
       transform="translate(225,170)"
       id="path82" />
    <path
       d="M 0,0 C 1.1629797,2.3259595 1.1660069,3.7872323 1.1875,6.375 1.20168,7.1458594 1.215859,7.9167187 1.230469,8.7109375 0.97801607,11.218349 0.25193467,12.832619 -1,15 c -0.33,0 -0.66,0 -1,0 0,-4.29 0,-8.58 0,-13 -2.2507383,0.06018 -4.5007232,0.1490121 -6.75,0.25 -1.879453,0.069609 -1.879453,0.069609 -3.796875,0.140625 C -16.479342,3.0845898 -17.461046,4.0493235 -20,7 c -0.99,0.33 -1.98,0.66 -3,1 0.33,-0.99 0.66,-1.98 1,-3 0.99,0 1.98,0 3,0 0.66,-1.98 1.32,-3.96 2,-6 5.898002,-1.4298186 11.5039114,-1.909694 17,1 z"
       fill="#b6b7b8"
       transform="translate(131,58)"
       id="path84" />
    <path
       d="M 0,0 C 0.33,0 0.66,0 1,0 1.33,1.98 1.66,3.96 2,6 1.34,6 0.68,6 0,6 -0.226875,6.804375 -0.45375,7.60875 -0.6875,8.4375 -2.3363159,12.912857 -4.6054441,16.887213 -7,21 -7.99,21 -8.98,21 -10,21 -10.637718,13.18795 -7.590136,8.7841509 -2.8125,3.0625 -1.9038883,2.0158713 -0.97404037,0.98602855 0,0 Z m -12,21 c 0.66,0.33 1.32,0.66 2,1 -0.99,0 -1.98,0 -3,0 0.33,-0.33 0.66,-0.66 1,-1 z"
       fill="#343339"
       transform="translate(98,58)"
       id="path86" />
    <path
       d="m 0,0 c 2.475,0.495 2.475,0.495 5,1 0,0.66 0,1.32 0,2 3.8768409,1.1928741 6.916219,2 11,2 0,-1.65 0,-3.3 0,-5 0.33,0 0.66,0 1,0 C 16.67,4.29 16.34,8.58 16,13 14.35,12.67 12.7,12.34 11,12 10.67,11.01 10.34,10.02 10,9 8.6734819,8.6405024 7.3388838,8.3102888 6,8 4.296875,6.6601562 4.296875,6.6601562 2.75,5.0625 2.2292187,4.5378516 1.7084375,4.0132031 1.171875,3.4726563 0,2 0,2 0,0 Z"
       fill="#2e2f34"
       transform="translate(85,196)"
       id="path95" />
    <path
       d="m 0,0 c 0.33,0 0.66,0 1,0 0.376741,4.3953117 -0.76826438,6.2966126 -3,10 -2.6799282,6.828571 -4.5633047,13.816523 -6,21 -2.166573,-1.718512 -2.940075,-2.560792 -3.320313,-5.347656 C -10.821076,18.712959 -8.9497708,14.609653 -4.59375,9.1914063 -3.0338338,7.0465214 -2.4244206,5.5877867 -2,3 -1.34,3 -0.68,3 0,3 0,2.01 0,1.02 0,0 Z"
       fill="#a8a8ac"
       transform="translate(126,76)"
       id="path96" />
    <path
       d="M 0,0 C 0.33,0.66 0.66,1.32 1,2 0.51789063,2.3519141 0.03578125,2.7038281 -0.4609375,3.0664063 -5.1477178,6.7297468 -6.5325604,9.1302415 -8,15 c -1.219191,1.411695 -2.441022,2.821848 -3.703125,4.195312 -2.213848,3.080717 -3.168532,6.629303 -4.304687,10.21875 C -17.010929,32.028483 -18.218854,33.856587 -20,36 -19.136297,23.620255 -12.998323,11.791185 -4.1523437,3.2070313 -2.8158411,2.0790609 -1.4159058,1.0265317 0,0 Z"
       fill="#535358"
       transform="translate(139,66)"
       id="path98" />
    <path
       d="M 0,0 C 1,3 1,3 0.109375,5.09375 -0.56351563,6.2848437 -0.56351563,6.2848437 -1.25,7.5 -4.0692149,12.824311 -5.6329362,18.153857 -7,24 c -0.66,0 -1.32,0 -2,0 -0.1121484,0.684492 -0.2242969,1.368984 -0.3398438,2.074219 -0.7678702,3.403164 -1.9442952,6.493212 -3.2226562,9.738281 -0.455039,1.161445 -0.910078,2.322891 -1.378906,3.519531 C -14.290742,40.212461 -14.640078,41.092891 -15,42 c -0.66,0 -1.32,0 -2,0 0.434949,-3.370854 1.456362,-6.133637 2.875,-9.1875 C -11.908117,28.006556 -10.403979,23.094743 -9,18 c 0.66,0 1.32,0 2,0 1.32,-5.28 2.64,-10.56 4,-16 0.99,0 1.98,0 3,0 C 0,1.34 0,0.68 0,0 Z"
       fill="#2d2d32"
       transform="translate(133,80)"
       id="path103" />
    <path
       d="m 0,0 c 0.66,0 1.32,0 2,0 0.6407718,13.385011 -2.71010108,25.761653 -8,38 -0.99,0.495 -0.99,0.495 -2,1 0.5603421,-4.998506 1.6873252,-9.253 3.5,-13.9375 C -2.5895594,19.863686 -1.3668653,15.50298 -1,10 -0.81714971,8.1661971 -0.62949042,6.3328685 -0.4375,4.5 -0.29067215,3.000097 -0.14447983,1.500131 0,0 Z"
       fill="#717074"
       transform="translate(250,182)"
       id="path104" />
    <path
       d="M 0,0 C 1.32,3.3 2.64,6.6 4,10 2.68,9.67 1.36,9.34 0,9 -0.33,7.35 -0.66,5.7 -1,4 -9.6124308,3.1071343 -9.6124308,3.1071343 -17.125,6.4375 -17.74375,7.283125 -18.3625,8.12875 -19,9 c -0.99,0.33 -1.98,0.66 -3,1 1.35154,-4.423222 3.097261,-6.5164388 7,-9 4.928403,-1.34410981 9.9267692,-1.07686713 15,-1 z"
       fill="#3d3c42"
       transform="translate(108,153)"
       id="path107" />
    <path
       d="M 0,0 C 1.0686328,0.01804688 2.1372656,0.03609375 3.2382813,0.0546875 4.0465234,0.07789063 4.8547656,0.10109375 5.6875,0.125 c 0.66,1.32 1.32,2.64 2,4 -0.99,0.495 -0.99,0.495 -2,1 -0.33,-1.32 -0.66,-2.64 -1,-4 -5.445,1.485 -5.445,1.485 -11,3 -0.33,1.65 -0.66,3.3 -1,5 2.97,0.495 2.97,0.495 6,1 0,0.33 0,0.66 0,1 -7.4285714,0.285714 -7.4285714,0.285714 -11,-2 0.33,-0.33 0.66,-0.66 1,-1 0.04081,-1.9995836 0.04254,-4.0004525 0,-6 C -7.3839225,0.27368517 -4.3247489,-0.09504943 0,0 Z"
       fill="#3d3f40"
       transform="translate(235.3125,153.875)"
       id="path109" />
    <path
       d="M 0,0 C 0.103125,1.093125 0.20625,2.18625 0.3125,3.3125 0.97307727,6.8555963 1.2027092,7.9324372 4,10 -4.5,9 -4.5,9 -8,7 -9.3125,4.375 -9.3125,4.375 -10,2 -6.5980513,-0.09350689 -3.9472759,-0.17942163 0,0 Z"
       fill="#373737"
       transform="translate(113,170)"
       id="path110" />
    <path
       d="M 0,0 C 2.31,0.66 4.62,1.32 7,2 6.01,2.99 5.02,3.98 4,5 4.99,5.66 5.98,6.32 7,7 7,7.66 7,8.32 7,9 4.03,8.505 4.03,8.505 1,8 c 0,1.98 0,3.96 0,6 0.66,0 1.32,0 2,0 0.28875,0.61875 0.5775,1.2375 0.875,1.875 C 4.9372004,18.133258 4.9372004,18.133258 7,20 5.35,19.67 3.7,19.34 2,19 1.67,17.68 1.34,16.36 1,15 0.34,15 -0.32,15 -1,15 -2.125,7.375 -2.125,7.375 -1,4 -0.34,4 0.32,4 1,4 0.67,2.68 0.34,1.36 0,0 Z"
       fill="#636268"
       transform="translate(85,175)"
       id="path113" />
    <path
       d="m 0,0 c 0.66,0.33 1.32,0.66 2,1 -2.57074923,4.284582 -4.6157718,6.6392617 -9,9 -0.556875,0.556875 -1.11375,1.11375 -1.6875,1.6875 C -9.3371875,12.337188 -9.3371875,12.337188 -10,13 c -0.66,0 -1.32,0 -2,0 -0.33,0.99 -0.66,1.98 -1,3 -0.99,0 -1.98,0 -3,0 0.262859,-3.508858 0.704079,-4.732938 3.363281,-7.1328125 C -11.663477,8.2097656 -10.690234,7.5523438 -9.6875,6.875 -8.7219922,6.2124219 -7.7564844,5.5498437 -6.7617187,4.8671875 -5.8503516,4.2510156 -4.9389844,3.6348438 -4,3 -2.6600298,2.0089109 -1.3238405,1.0125336 0,0 Z"
       fill="#323338"
       transform="translate(114,122)"
       id="path117" />
    <path
       d="M 0,0 C 0.33,0 0.66,0 1,0 1.7424372,7.0531533 -1.2181546,13.271549 -5,19.0625 -7.0616012,21.059676 -8.1773356,21.697572 -11,22 -9.9873379,19.974676 -8.9745045,17.950509 -7.9375,15.9375 -6.8838805,13.865898 -6.8838805,13.865898 -6,11 c 0.66,0 1.32,0 2,0 0.12375,-0.78375 0.2475,-1.5675 0.375,-2.375 C -3,6 -3,6 -1,4 -0.3574765,1.9312597 -0.3574765,1.9312597 0,0 Z"
       fill="#e0e1e1"
       transform="translate(126,64)"
       id="path120" />
    <path
       d="m 0,0 c 0.33,0.66 0.66,1.32 1,2 2.6261688,1.174865 5.2704458,2.0901486 8,3 0.33,-0.99 0.66,-1.98 1,-3 2.31,0.33 4.62,0.66 7,1 0,0.66 0,1.32 0,2 1.98,0 3.96,0 6,0 0,0.33 0,0.66 0,1 C 16.4,6.33 9.8,6.66 3,7 2.67,6.34 2.34,5.68 2,5 1.67,6.65 1.34,8.3 1,10 0.34,9.67 -0.32,9.34 -1,9 -0.67,6.03 -0.34,3.06 0,0 Z"
       fill="#39383e"
       transform="translate(139,219)"
       id="path121" />
    <path
       d="M 0,0 C 2,2 2,2 2.2270508,5.0727539 2.2165772,6.3610107 2.2061035,7.6492676 2.1953125,8.9765625 2.1924826,9.66181 2.1896527,10.347058 2.1867371,11.05307 2.1755328,13.24389 2.1504286,15.434303 2.125,17.625 2.1149705,19.109369 2.1058446,20.593745 2.0976563,22.078125 2.0755929,25.718883 2.0410618,29.359402 2,33 1.67,33 1.34,33 1,33 -1.6123983,26.209759 -1.0162703,19.734485 -0.625,12.5625 -0.56828125,11.354004 -0.5115625,10.145508 -0.453125,8.9003906 -0.31237601,5.9329327 -0.16103485,2.9664146 0,0 Z"
       fill="#eff0f2"
       transform="translate(162,184)"
       id="path123" />
    <path
       d="M 0,0 C 0.99,0 1.98,0 3,0 3.33,1.65 3.66,3.3 4,5 3.34,5 2.68,5 2,5 2.33,10.61 2.66,16.22 3,22 -0.50966658,19.660222 -0.78847934,18.163419 -1.6523437,14.15625 -2.4966027,8.9199472 -2.3239297,4.793105 0,0 Z"
       fill="#3e3d43"
       transform="translate(82,174)"
       id="path124" />
    <path
       d="m 0,0 c -2,2 -2,2 -4,3 -0.33,0.99 -0.66,1.98 -1,3 -3.005608,2.7829704 -6.12206,3.8197573 -10,5 -0.99,0.495 -0.99,0.495 -2,1 0.25,-1.875 0.25,-1.875 1,-4 2,-1.125 2,-1.125 4,-2 0.33,-0.66 0.66,-1.32 1,-2 -1.32,-0.66 -2.64,-1.32 -4,-2 1.934757,-0.5309332 3.872932,-1.04942317 5.8125,-1.5625 1.0789453,-0.29003906 2.1578906,-0.58007812 3.2695313,-0.87890625 C -3,-1 -3,-1 0,0 Z"
       fill="#393a3c"
       transform="translate(249,178)"
       id="path126" />
    <path
       d="M 0,0 C 4.514784,0.53115106 7.3466686,2.3662029 11,5 8.6545467,7.3454533 7.0401416,7.9550889 3.7382813,8.0976563 2.9377734,8.0860547 2.1372656,8.0744531 1.3125,8.0625 0.10013672,8.0489648 0.10013672,8.0489648 -1.1367187,8.0351563 -2.059043,8.0177539 -2.059043,8.0177539 -3,8 -2.34,7.34 -1.68,6.68 -1,6 -0.60235737,4.0117869 -0.26224651,2.0105566 0,0 Z"
       fill="#383838"
       transform="translate(131,172)"
       id="path128" />
    <path
       d="M 0,0 C 1.36125,0.0309375 1.36125,0.0309375 2.75,0.0625 6.4336117,1.5973382 8.2592637,4.4898733 10,8 c 0.5,3.3125 0.5,3.3125 0,6 C 9.01,14.66 8.02,15.32 7,16 6.9742188,15.396719 6.9484375,14.793438 6.921875,14.171875 6.8651562,13.372656 6.8084375,12.573438 6.75,11.75 6.7035937,10.961094 6.6571875,10.172188 6.609375,9.359375 5.7693519,6.106978 4.7484258,4.9379925 2,3 -0.73682971,2.7088479 -3.0394004,2.6167758 -5.75,2.75 -6.4473828,2.7680469 -7.1447656,2.7860938 -7.8632812,2.8046875 -9.5761154,2.8516145 -11.288238,2.923354 -13,3 -10.74865,-1.5027006 -4.3524617,-0.14610737 0,0 Z"
       fill="#6a6a6d"
       transform="translate(131,51)"
       id="path130" />
    <path
       d="m 0,0 c 1.4560652,4.5209297 0.27032841,7.516488 -1,12 -2.97,0.66 -5.94,1.32 -9,2 0.33,-1.65 0.66,-3.3 1,-5 C -8.05125,8.773125 -7.1025,8.54625 -6.125,8.3125 -2.8287044,7.3179358 -2.8287044,7.3179358 -1.6875,4.5 -1.460625,3.675 -1.23375,2.85 -1,2 -0.67,1.34 -0.34,0.68 0,0 Z"
       fill="#8f8e94"
       transform="translate(116,108)"
       id="path131" />
    <path
       d="M 0,0 C 0.28875,0.94875 0.5775,1.8975 0.875,2.875 1.7682511,6.0521158 1.7682511,6.0521158 4,8 -0.29,7.67 -4.58,7.34 -9,7 -9,5.68 -9,4.36 -9,3 -2.25,0 -2.25,0 0,0 Z"
       fill="#3b3c3c"
       transform="translate(206,172)"
       id="path133" />
    <path
       d="M 0,0 C 0.33,0 0.66,0 1,0 1,4.29 1,8.58 1,13 2.8975,12.71125 4.795,12.4225 6.75,12.125 7.8173437,11.962578 8.8846875,11.800156 9.984375,11.632813 12.700338,11.062882 14.575844,10.275872 17,9 19.75,8.875 19.75,8.875 22,9 14.877873,13.748084 8.5219215,15.519892 0,16 0,10.72 0,5.44 0,0 Z"
       fill="#6f7075"
       transform="translate(91,112)"
       id="path134" />
    <path
       d="M 0,0 C 0.99,0 1.98,0 3,0 2.6276975,4.2194287 1.0680407,6.3271503 -1.7226562,9.4414063 -3.607026,11.740683 -4.7808359,14.305006 -6,17 -7.5280005,12.332842 -6.0722618,9.2713967 -4,5 -2,2 -2,2 0,0 Z"
       fill="#c1c0c4"
       transform="translate(105,66)"
       id="path137" />
    <path
       d="M 0,0 C 0.66,0.66 1.32,1.32 2,2 2.99,1.67 3.98,1.34 5,1 5.33,2.65 5.66,4.3 6,6 4.68,5.34 3.36,4.68 2,4 2,4.99 2,5.98 2,7 2.66,7.33 3.32,7.66 4,8 3.67,8.99 3.34,9.98 3,11 4.65,10.67 6.3,10.34 8,10 7.4527632,13.374627 6.9451,15.08235 5,18 5.66,18.33 6.32,18.66 7,19 6.34,19.99 5.68,20.98 5,22 4.1582061,19.273189 3.3263693,16.543986 2.5,13.8125 2.2615234,13.043574 2.0230469,12.274648 1.7773437,11.482422 0.59786383,7.5564387 -0.3326262,4.1495118 0,0 Z"
       fill="#515153"
       transform="translate(74,227)"
       id="path140" />
    <path
       d="M 0,0 C 1.32,0 2.64,0 4,0 5.3543967,2.7087934 5.0650145,5.0093327 5,8 6.98,7.34 8.96,6.68 11,6 11,6.99 11,7.98 11,9 5.3460537,9.34616 1.9699319,8.4342524 -3,6 -1.125,1.125 -1.125,1.125 0,0 Z"
       fill="#5e5d62"
       transform="translate(152,215)"
       id="path141" />
    <path
       d="m 0,0 c 1.32,0.66 2.64,1.32 4,2 -0.99,2.97 -1.98,5.94 -3,9 -1.98,0 -3.96,0 -6,0 0.66,-2.64 1.32,-5.28 2,-8 0.66,0 1.32,0 2,0 0.33,-0.99 0.66,-1.98 1,-3 z"
       fill="#3c3b3e"
       transform="translate(83,86)"
       id="path151" />
    <path
       d="m 0,0 c 0,0.33 0,0.66 0,1 -5.61,0.66 -11.22,1.32 -17,2 -0.66,1.65 -1.32,3.3 -2,5 -0.99,0.33 -1.98,0.66 -3,1 -0.33,0.66 -0.66,1.32 -1,2 -0.66,0 -1.32,0 -2,0 1.415871,-4.5050428 3.217121,-7.1435404 7,-10 6.109154,-1.91678252 11.765015,-2.3855522 18,-1 z"
       fill="#8e8e90"
       transform="translate(131,55)"
       id="path156" />
    <path
       d="M 0,0 C 0.66,0.33 1.32,0.66 2,1 1.34,1.66 0.68,2.32 0,3 -0.20575495,5.4334157 -0.20575495,5.4334157 -0.0625,8.1875 0.0131448,12.61563 -0.05814607,16.667472 -1,21 -1.66,21.33 -2.32,21.66 -3,22 -3.0605859,20.963594 -3.1211719,19.927187 -3.1835938,18.859375 -3.2680337,17.489571 -3.35268,16.11978 -3.4375,14.75 -3.4768164,14.068086 -3.5161328,13.386172 -3.5566406,12.683594 -3.7666647,9.3555196 -4.01934,6.197446 -5,3 -2.625,1.4375 -2.625,1.4375 0,0 Z"
       fill="#222325"
       transform="translate(231,187)"
       id="path157" />
    <path
       d="M 0,0 C 0.66,0 1.32,0 2,0 4.513526,8.6402456 4.1841724,17.0881 4,26 3.67,26 3.34,26 3,26 2.67,21.05 2.34,16.1 2,11 1.67,12.98 1.34,14.96 1,17 0.67,17 0.34,17 0,17 0,11.39 0,5.78 0,0 Z"
       fill="#cdced2"
       transform="translate(161,175)"
       id="path158" />
    <path
       d="M 0,0 C 1,2 1,2 0.125,5 -1,8 -1,8 -2,10 c -0.29029,1.882421 -0.5341343,3.772112 -0.7539063,5.664063 -0.1321289,1.121484 -0.2642578,2.242968 -0.4003906,3.398437 -0.134707,1.175625 -0.269414,2.35125 -0.4082031,3.5625 -0.2078613,1.775039 -0.2078613,1.775039 -0.4199219,3.585937 C -4.3249627,29.140252 -4.6640059,32.069929 -5,35 -5.33,35 -5.66,35 -6,35 -6.026997,32.729232 -6.046394,30.458372 -6.0625,28.1875 -6.079902,26.290645 -6.079902,26.290645 -6.097656,24.355469 -6,21 -6,21 -5,18 -5.0825,16.824375 -5.165,15.64875 -5.25,14.4375 -5.3730549,8.9307937 -2.6742069,4.6607605 0,0 Z"
       fill="#75757a"
       transform="translate(98,77)"
       id="path162" />
    <path
       d="M 0,0 C 0.99,0.495 0.99,0.495 2,1 2,2.98 2,4.96 2,7 2.66,7 3.32,7 4,7 6.609006,13.645581 7.6143354,19.885153 8,27 5.9764968,23.964745 5.6787598,22.805738 5.375,19.3125 5.3002344,18.504258 5.2254687,17.696016 5.1484375,16.863281 5.0994531,16.248398 5.0504687,15.633516 5,15 4.34,15 3.68,15 3,15 1.094753,9.8966598 -0.42589023,5.5365729 0,0 Z"
       fill="#3c3b40"
       transform="translate(209,71)"
       id="path163" />
    <path
       d="M 0,0 C 0.99,0.66 1.98,1.32 3,2 2.67,3.65 2.34,5.3 2,7 1.01,7 0.02,7 -1,7 -1.33,8.32 -1.66,9.64 -2,11 -2.99,11 -3.98,11 -5,11 -5.33,9.68 -5.66,8.36 -6,7 -5.34,7 -4.68,7 -4,7 -3.71125,6.401875 -3.4225,5.80375 -3.125,5.1875 -2,3 -2,3 0,0 Z"
       fill="#28272d"
       transform="translate(110,294)"
       id="path165" />
    <path
       d="M 0,0 C 0.33,0 0.66,0 1,0 3.2857143,8.4285714 3.2857143,8.4285714 3,13 1.35,13.33 -0.3,13.66 -2,14 -2,3.5 -2,3.5 0,0 Z"
       fill="#2a2b2e"
       transform="translate(82,238)"
       id="path167" />
    <path
       d="M 0,0 C 1.32,0.33 2.64,0.66 4,1 3.67,1.66 3.34,2.32 3,3 2.01,2.67 1.02,2.34 0,2 c 0,2.64 0,5.28 0,8 -1.32,0 -2.64,0 -4,0 -0.33,0.66 -0.66,1.32 -1,2 0,-0.66 0,-1.32 0,-2 -0.99,0.33 -1.98,0.66 -3,1 C -6.636297,8.0077973 -5.0509192,5.7097347 -2.875,3.25 -2.3361719,2.6364062 -1.7973437,2.0228125 -1.2421875,1.390625 -0.62730469,0.70226562 -0.62730469,0.70226562 0,0 Z"
       fill="#5d5c62"
       transform="translate(160,169)"
       id="path168" />
    <path
       d="M 0,0 C 1,2 1,2 0.22265625,4.8203125 -0.16019531,5.9108594 -0.54304687,7.0014062 -0.9375,8.125 -1.3177734,9.2207031 -1.6980469,10.316406 -2.0898438,11.445313 -2.5403711,12.709883 -2.5403711,12.709883 -3,14 c -0.66,0 -1.32,0 -2,0 -0.103125,0.804375 -0.20625,1.60875 -0.3125,2.4375 C -6.1510037,20.782474 -7.5282166,24.834575 -9,29 -10.608416,24.174753 -9.5564194,20.282184 -7.5625,15.6875 -6,13 -6,13 -4,11 -3.3963783,8.8680963 -3.3963783,8.8680963 -3,6.5 -2.2222222,2.2222222 -2.2222222,2.2222222 0,0 Z"
       fill="#38393e"
       transform="translate(129,84)"
       id="path169" />
    <path
       d="m 0,0 c 0,1.98 0,3.96 0,6 -0.99,0.33 -1.98,0.66 -3,1 0,0.99 0,1.98 0,3 -0.66,0 -1.32,0 -2,0 -0.0825,0.7425 -0.165,1.485 -0.25,2.25 C -6.1396946,15.512214 -7.4850375,16.809549 -10,19 -5.1489362,0 -5.1489362,0 0,0 Z"
       fill="#c4c5c5"
       transform="translate(129,69)"
       id="path170" />
    <path
       d="M 0,0 C 4.238879,4.238879 6.2218237,12.114153 6.375,18.0625 6,21 6,21 4,24 3.9439258,23.073809 3.9439258,23.073809 3.8867188,22.128906 3.424079,16.169018 2.5941879,10.449036 0,5 -0.66,4.67 -1.32,4.34 -2,4 -1.34,4 -0.68,4 0,4 0,2.68 0,1.36 0,0 Z"
       fill="#29292d"
       transform="translate(194,208)"
       id="path171" />
    <path
       d="M 0,0 C 1.2258984,0.01353516 1.2258984,0.01353516 2.4765625,0.02734375 3.4162891,0.04474609 3.4162891,0.04474609 4.375,0.0625 c 0,0.99 0,1.98 0,3 -0.33,-0.33 -0.66,-0.66 -1,-1 -2.3329743,-0.040929 -4.6670522,-0.042417 -7,0 -0.12375,0.7425 -0.2475,1.485 -0.375,2.25 -0.579867,2.5514148 -1.3620874,4.4767573 -2.625,6.75 -1.32,0 -2.64,0 -4,0 0,-1.32 0,-2.64 0,-4 0.66,0 1.32,0 2,0 C -8.33625,6.093125 -8.0475,5.12375 -7.75,4.125 -6.0958897,-0.37785573 -4.4212175,-0.06316025 0,0 Z"
       fill="#57575c"
       transform="translate(102.625,155.9375)"
       id="path172" />
    <path
       d="m 0,0 c 0.74362793,0.01047363 1.4872559,0.02094727 2.253418,0.03173828 1.2084961,0.009668 1.2084961,0.009668 2.4414062,0.01953125 1.2626367,0.02513672 1.2626367,0.02513672 2.5507813,0.05078125 1.2742383,0.0135352 1.2742383,0.0135352 2.5742187,0.0273438 2.1003798,0.0235998 4.2006158,0.0594714 6.3007808,0.0976563 0,0.99000002 0,1.98000002 0,3.00000002 -0.33,-0.33 -0.66,-0.66 -1,-1 -1.935389,-0.099551 -3.874557,-0.1296867 -5.8124995,-0.125 -1.0583203,-0.00258 -2.1166407,-0.00516 -3.2070313,-0.00781 -2.5173589,0.1121759 -4.5847013,0.4019004 -6.98046873,1.1328125 0,2.31 0,4.62 0,7.0000006 -1.31999997,0.33 -2.63999997,0.66 -3.99999997,1 0.1140959,-1.4592276 0.2416554,-2.9174066 0.375,-4.3750006 C -4.4347852,6.0399414 -4.3651758,5.227832 -4.293457,4.3911133 -3.7561157,1.5827442 -2.9273831,0.35365891 0,0 Z"
       fill="#2a2a2d"
       transform="translate(225.87939,152.77295)"
       id="path174" />
    <path
       d="M 0,0 C -2.5183075,3.1227013 -3.7261549,3.945231 -7.75,4.75 -9.35875,4.87375 -9.35875,4.87375 -11,5 c 0,-0.99 0,-1.98 0,-3 -0.99,-0.33 -1.98,-0.66 -3,-1 1.58086,-0.36504603 3.164839,-0.71660506 4.75,-1.0625 0.8817187,-0.19722656 1.7634375,-0.39445312 2.671875,-0.59765625 C -4.0132097,-0.99825872 -2.4290836,-0.81158635 0,0 Z"
       fill="#343337"
       transform="translate(145,37)"
       id="path175" />
    <path
       d="M 0,0 C 0.33,0 0.66,0 1,0 1.2913694,8.077408 0.9515611,16.121475 -1,24 -1.66,24.33 -2.32,24.66 -3,25 -3.1021033,19.806344 -2.7351437,14.834894 -2.0625,9.6875 -1.9754883,8.9727148 -1.8884766,8.2579297 -1.7988281,7.5214844 -1.1291482,2.2582965 -1.1291482,2.2582965 0,0 Z"
       fill="#b1b2b6"
       transform="translate(96,85)"
       id="path176" />
    <path
       d="M 0,0 C 0.99,0.33 1.98,0.66 3,1 1.1327388,2.7796389 -0.74307807,4.5484763 -2.625,6.3125 -3.4081055,7.0617676 -3.4081055,7.0617676 -4.2070312,7.8261719 -7.5678008,10.958741 -10.744242,13.127722 -15,15 c 0.573449,-2.867247 0.861451,-3.861451 3,-6 0.639375,-0.144375 1.27875,-0.28875 1.9375,-0.4375 C -7.6081271,7.8931256 -6.7281712,6.8067244 -5,5 -4.34,5 -3.68,5 -3,5 -2.690625,4.360625 -2.38125,3.72125 -2.0625,3.0625 -1,1 -1,1 0,0 Z"
       fill="#222227"
       transform="translate(109,129)"
       id="path179" />
    <path
       d="M 0,0 C 3.4360056,5.1540084 4.2440384,8.7770217 4,15 1.1788039,13.965561 0.15503802,13.267793 -1.375,10.625 -2.1278473,7.4630412 -1.5841549,6.7282669 0,4 0,2.68 0,1.36 0,0 Z"
       fill="#4f4f53"
       transform="translate(190,197)"
       id="path180" />
    <path
       d="M 0,0 C 1.32,0.33 2.64,0.66 4,1 5.2623773,3.5247546 5.098564,5.3120047 5.0625,8.125 5.0534766,9.0350781 5.0444531,9.9451563 5.0351562,10.882813 5.0235547,11.581484 5.0119531,12.280156 5,13 4.67,13 4.34,13 4,13 3.67,10.03 3.34,7.06 3,4 2.34,4 1.68,4 1,4 1,9.28 1,14.56 1,20 0.67,20 0.34,20 0,20 0,13.4 0,6.8 0,0 Z"
       fill="#919196"
       transform="translate(160,171)"
       id="path181" />
    <path
       d="M 0,0 C 0.66,0 1.32,0 2,0 2.66,2.31 3.32,4.62 4,7 5.65,7 7.3,7 9,7 8.67,8.32 8.34,9.64 8,11 6.3333333,11 4.6666667,11 3,11 2.67,9.35 2.34,7.7 2,6 0.35,6.66 -1.3,7.32 -3,8 -1.125,2.25 -1.125,2.25 0,0 Z"
       fill="#323434"
       transform="translate(180,157)"
       id="path186" />
    <path
       d="m 0,0 c 0.33,0 0.66,0 1,0 0.33,1.98 0.66,3.96 1,6 -1.65,0.33 -3.3,0.66 -5,1 -0.66,1.98 -1.32,3.96 -2,6 -1.32,0 -2.64,0 -4,0 C -7.512227,9.7403566 -5.6433318,7.0683071 -3.4375,4.25 -2.8174609,3.4507813 -2.1974219,2.6515625 -1.5585937,1.828125 -0.78708984,0.92320313 -0.78708984,0.92320313 0,0 Z"
       fill="#6f6f72"
       transform="translate(98,58)"
       id="path187" />
    <path
       d="M 0,0 C 3.8063457,0.67170806 7.3520682,1.7274656 11,3 10.67,3.99 10.34,4.98 10,6 7.03,5.67 4.06,5.34 1,5 0.67,3.35 0.34,1.7 0,0 Z"
       fill="#2a2b2f"
       transform="translate(157,229)"
       id="path189" />
    <path
       d="m 0,0 c 1.1467161,3.8439215 0.51721724,5.2912467 -1,9 -0.4563812,2.663877 -0.7262686,5.308308 -1,8 1.65,-0.99 3.3,-1.98 5,-3 -0.6875,2.4375 -0.6875,2.4375 -2,5 -2.5820312,0.660156 -2.5820312,0.660156 -5,1 0.35001,-7.241586 1.0560241,-13.3440545 4,-20 z"
       fill="#949398"
       transform="translate(147,194)"
       id="path191" />
    <path
       d="M 0,0 C 0,0.66 0,1.32 0,2 1.65,2.33 3.3,2.66 5,3 5,3.33 5,3.66 5,4 3.4191395,4.365046 1.8351609,4.7166051 0.25,5.0625 -0.63171875,5.2597266 -1.5134375,5.4569531 -2.421875,5.6601562 -4.9867903,5.9982587 -6.5709164,5.8115863 -9,5 -8.01,4.67 -7.02,4.34 -6,4 -6,3.01 -6,2.02 -6,1 -4,0 -4,0 0,0 Z"
       fill="#919297"
       transform="translate(107,160)"
       id="path194" />
    <path
       d="M 0,0 C 3,2 3,2 4,5 6.0971987,6.0228152 6.0971987,6.0228152 8.5625,6.6875 9.3887891,6.9388672 10.215078,7.1902344 11.066406,7.4492187 12.023535,7.7218555 12.023535,7.7218555 13,8 13,8.33 13,8.66 13,9 4.4285714,9.1428571 4.4285714,9.1428571 1,8 0.34,5.69 -0.32,3.38 -1,1 -0.67,0.67 -0.34,0.34 0,0 Z"
       fill="#111211"
       transform="translate(102,172)"
       id="path196" />
    <path
       d="M 0,0 C 1.5,3 1.5,3 3,6 -3.848171,5.5135879 -10.330421,4.6400605 -17,3 -17,2.67 -17,2.34 -17,2 -11.39,2 -5.78,2 0,2 0,1.34 0,0.68 0,0 Z"
       fill="#444446"
       transform="translate(240,164)"
       id="path197" />
    <path
       d="M 0,0 C 0.625,2.3125 0.625,2.3125 1,5 0.01,6.485 0.01,6.485 -1,8 -1.33,6.35 -1.66,4.7 -2,3 -3.6396875,3.2475 -3.6396875,3.2475 -5.3125,3.5 -9,4 -9,4 -12,4 -11,2 -11,2 -7.6875,0.875 -4,0 -4,0 0,0 Z"
       fill="#4b4c4d"
       transform="translate(240,155)"
       id="path198" />
    <path
       d="M 0,0 C 3,1 3,1 4.1875,2.625 5.2749935,5.8038273 5.1282071,8.6666153 5,12 4.01,12 3.02,12 2,12 0.70756464,7.8803623 -0.26252625,4.3316832 0,0 Z"
       fill="#29292d"
       transform="translate(191,215)"
       id="path199" />
    <path
       d="M 0,0 C 0,0.33 0,0.66 0,1 -0.59167969,1.0863672 -1.1833594,1.1727344 -1.7929687,1.2617187 -7.4332418,2.2646384 -10.132297,3.5635174 -14,8 c -0.99,0.33 -1.98,0.66 -3,1 2.779916,-9.09790773 8.5359921,-9.5916588 17,-9 z"
       fill="#2b2a30"
       transform="translate(103,154)"
       id="path201" />
    <path
       d="M 0,0 C 1.6194901,2.5721313 2.0440875,3.6766916 1.625,6.75 1.41875,7.4925 1.2125,8.235 1,9 c 0.66,0.33 1.32,0.66 2,1 -1.2896518,1.375629 -2.62689293,2.707664 -4,4 -0.66,0 -1.32,0 -2,0 0.5961995,-4.868963 1.5697682,-9.3279095 3,-14 z"
       fill="#575659"
       transform="translate(77,98)"
       id="path202" />
    <path
       d="m 0,0 c -0.66,0.66 -1.32,1.32 -2,2 0.66,0.66 1.32,1.32 2,2 -0.33,0.99 -0.66,1.98 -1,3 -0.66,0 -1.32,0 -2,0 -0.33,0.66 -0.66,1.32 -1,2 -3,-5.625 -3,-5.625 -3,-9 3.0103174,-0.93423645 3.8665027,-1.0444991 7,0 z"
       fill="#4b4b4f"
       transform="translate(96,274)"
       id="path207" />
    <path
       d="M 0,0 C 0.85603377,2.926441 1.0586399,5.3984683 0.9375,8.4375 0.89196623,13.059177 1.4604167,16.282772 4.625,19.8125 5.07875,20.204375 5.5325,20.59625 6,21 3.0629662,20.370636 0.66211372,19.375798 -2,18 -1.8594613,15.374617 -1.7128105,12.749826 -1.5625,10.125 -1.523184,9.3786328 -1.483867,8.6322656 -1.4433594,7.8632812 -1.1132812,2.2265625 -1.1132812,2.2265625 0,0 Z"
       fill="#4e4d52"
       transform="translate(142,203)"
       id="path208" />
    <path
       d="M 0,0 C 1.32,0.33 2.64,0.66 4,1 3.67,2.98 3.34,4.96 3,7 1.02,7.33 -0.96,7.66 -3,8 -2.4527632,4.6253728 -1.9451,2.91765 0,0 Z"
       fill="#202120"
       transform="translate(233,171)"
       id="path209" />
    <path
       d="M 0,0 C 0.33,1.32 0.66,2.64 1,4 -1.3666183,5.2073969 -3.7409035,6.3905425 -6.125,7.5625 -6.7901562,7.9047461 -7.4553125,8.2469922 -8.140625,8.5996094 -12.495836,10.713168 -15.151072,11.382171 -20,10 c 0,-0.33 0,-0.66 0,-1 1.485,-0.4021875 1.485,-0.4021875 3,-0.8125 2.817583,-0.7960246 5.523325,-1.747077 8.25,-2.8125 C -5,4 -5,4 -2,4 -2,3.34 -2,2.68 -2,2 -1.34,2 -0.68,2 0,2 0,1.34 0,0.68 0,0 Z"
       fill="#505056"
       transform="translate(115,118)"
       id="path210" />
    <path
       d="m 0,0 c 5.1357475,0.43523284 8.7776477,0.80124824 13,4 0.33,0.66 0.66,1.32 1,2 C 12.607813,5.505 12.607813,5.505 11.1875,5 8.0797071,3.85033 8.0797071,3.85033 5,4 5,4.66 5,5.32 5,6 5.66,6 6.32,6 7,6 6.67,6.99 6.34,7.98 6,9 4.9940676,7.8803014 3.9954151,6.7540588 3,5.625 2.443125,4.9985156 1.88625,4.3720312 1.3125,3.7265625 0,2 0,2 0,0 Z"
       fill="#3a3a3e"
       transform="translate(202,62)"
       id="path211" />
    <path
       d="M 0,0 C 0.66,0 1.32,0 2,0 2.0543,1.7496536 2.092928,3.4997979 2.125,5.25 2.148203,6.2245312 2.171406,7.1990625 2.195312,8.203125 1.9986278,11.01965 1.4456892,12.60949 0,15 -0.33,12.36 -0.66,9.72 -1,7 -1.99,7.495 -1.99,7.495 -3,8 -1.125,1.125 -1.125,1.125 0,0 Z"
       fill="#afafb3"
       transform="translate(153,179)"
       id="path213" />
    <path
       d="M 0,0 C 0.33,0.66 0.66,1.32 1,2 0.51789063,2.3519141 0.03578125,2.7038281 -0.4609375,3.0664063 -5.0979306,6.6908315 -6.6452346,9.1293498 -8,15 -8.99,15.66 -9.98,16.32 -11,17 -11.384753,11.855046 -9.7721255,9.7715662 -6.6679687,5.8710937 -4.6478906,3.6050107 -2.4783548,1.7494269 0,0 Z"
       fill="#404045"
       transform="translate(139,66)"
       id="path214" />
    <path
       d="M 0,0 C 0.66,0 1.32,0 2,0 1.75,2.375 1.75,2.375 1,5 c -1.32467746,0.6837045 -2.6586363,1.3496419 -4,2 -0.7215942,1.6436313 -1.3935142,3.310504 -2,5 -0.99,0.495 -0.99,0.495 -2,1 0.99,-2.97 1.98,-5.94 3,-9 0.66,0 1.32,0 2,0 0.66,-1.32 1.32,-2.64 2,-4 z"
       fill="#5f5f60"
       transform="translate(227,310)"
       id="path215" />
    <path
       d="M 0,0 C 0.99,0 1.98,0 3,0 3.33,3.96 3.66,7.92 4,12 2.68,12 1.36,12 0,12 0,8.04 0,4.08 0,0 Z"
       fill="#5a5b5e"
       transform="translate(183,172)"
       id="path219" />
    <path
       d="m 0,0 c 2,1 2,1 2,1 z m -4,1 c 2.0625,0.4375 2.0625,0.4375 4,1 -0.99,0.495 -0.99,0.495 -2,1 0,1.98 0,3.96 0,6 2.31,0.33 4.62,0.66 7,1 0,0.33 0,0.66 0,1 -7.4285714,0.285714 -7.4285714,0.285714 -11,-2 0.33,-0.33 0.66,-0.66 1,-1 0,-0.99 0,-1.98 0,-3 0,-3 0,-3 1,-4 z"
       fill="#373739"
       transform="translate(229,154)"
       id="path221" />
    <path
       d="M 0,0 C 0.79921875,0.01804688 1.5984375,0.03609375 2.421875,0.0546875 3.0251563,0.07789063 3.6284375,0.10109375 4.25,0.125 c -1.75,2.5 -1.75,2.5 -4,5 -1.32,0 -2.64,0 -4,0 0,-0.66 0,-1.32 0,-2 -1.65,-0.33 -3.3,-0.66 -5,-1 C -5.6875325,0.34090198 -3.5292073,-0.10380021 0,0 Z"
       fill="#414043"
       transform="translate(154.75,33.875)"
       id="path224" />
    <path
       d="M 0,0 C 0.66,1.32 1.32,2.64 2,4 2.99,4 3.98,4 5,4 5,4.66 5,5.32 5,6 6.32,6 7.64,6 9,6 8.67,7.32 8.34,8.64 8,10 6.6839748,9.3824574 5.3722644,8.7557126 4.0625,8.125 3.3316016,7.7769531 2.6007031,7.4289062 1.8476562,7.0703125 0,6 0,6 -1,4 -0.5625,1.875 -0.5625,1.875 0,0 Z"
       fill="#1f2022"
       transform="translate(222,130)"
       id="path229" />
    <path
       d="M 0,0 C 0.66,0 1.32,0 2,0 2.1845103,12.669704 2.1845103,12.669704 1,18 -0.625,16.5625 -0.625,16.5625 -2,14 -1.7240635,11.65235 -1.164476,9.4769017 -0.55078125,7.1953125 0.06461304,4.7424643 0.16257874,2.5199704 0,0 Z"
       fill="#505055"
       transform="translate(250,182)"
       id="path236" />
    <path
       d="M 0,0 C 3.1140733,4.6711099 4.4699416,10.65883 3.6796875,16.277344 3.125,18.1875 3.125,18.1875 2,21 1.67,21 1.34,21 1,21 0.67,14.07 0.34,7.14 0,0 Z"
       fill="#302f34"
       transform="translate(213,86)"
       id="path239" />
    <path
       d="M 0,0 C 0.7734375,0.61875 0.7734375,0.61875 1.5625,1.25 -0.0153125,1.62125 -0.0153125,1.62125 -1.625,2 c -5.4671005,1.565178 -8.938266,5.2322756 -12.8125,9.25 0.550256,-3.8517925 2.054836,-5.5198622 5,-8 C -3.4548913,-1.0630435 -3.4548913,-1.0630435 0,0 Z"
       fill="#dcdcdd"
       transform="translate(120.4375,62.75)"
       id="path240" />
    <path
       d="M 0,0 C 2.0072092,0.28674418 4.0085944,0.61866701 6,1 6,1.99 6,2.98 6,4 2.04,4.66 -1.92,5.32 -6,6 -4,4 -2,2 0,0 Z"
       fill="#26252b"
       transform="translate(145,36)"
       id="path241" />
    <path
       d="M 0,0 C 2.475,0.495 2.475,0.495 5,1 5,1.66 5,2.32 5,3 6.2065625,3.433125 6.2065625,3.433125 7.4375,3.875 10,5 10,5 11,7 4.6428571,6.510989 4.6428571,6.510989 1.5625,4.0625 0,2 0,2 0,0 Z"
       fill="#393a3f"
       transform="translate(85,196)"
       id="path242" />
    <path
       d="m 0,0 c -0.99,2.97 -1.98,5.94 -3,9 -0.66,0 -1.32,0 -2,0 -0.66,0.99 -1.32,1.98 -2,3 0,-1.98 0,-3.96 0,-6 0.66,-0.33 1.32,-0.66 2,-1 0,-0.66 0,-1.32 0,-2 2.5384615,-3 2.5384615,-3 5,-3 z"
       fill="#323237"
       transform="translate(80,212)"
       id="path244" />
    <path
       d="M 0,0 C 0.99,0.33 1.98,0.66 3,1 2.67,2.98 2.34,4.96 2,7 1.01,7 0.02,7 -1,7 -1.66,7.99 -2.32,8.98 -3,10 -2.25,3.375 -2.25,3.375 0,0 Z"
       fill="#5b5c60"
       transform="translate(178,166)"
       id="path246" />
    <path
       d="M 0,0 C 0.66,0.33 1.32,0.66 2,1 2,2.32 2,3.64 2,5 2.99,4.67 3.98,4.34 5,4 4.67,5.98 4.34,7.96 4,10 2.68,10 1.36,10 0,10 -0.74926071,6.3369477 -1.2380014,3.5764485 0,0 Z"
       fill="#313134"
       transform="translate(74,112)"
       id="path249" />
    <path
       d="M 0,0 C 0.66,0 1.32,0 2,0 4.1829418,5.2157311 4.090581,9.3811438 3.625,14.875 3.5682813,15.65875 3.5115625,16.4425 3.453125,17.25 3.3128214,19.167483 3.157898,21.083886 3,23 2.67,23 2.34,23 2,23 1.9394141,21.842422 1.8788281,20.684844 1.8164062,19.492187 1.731945,17.953115 1.6472998,16.414053 1.5625,14.875 1.5231836,14.114453 1.4838672,13.353906 1.4433594,12.570313 1.20491,8.314908 0.79769763,4.1962917 0,0 Z"
       fill="#262528"
       transform="translate(188,275)"
       id="path252" />
    <path
       d="M 0,0 C 0.82638376,2.8923432 1,4.8874243 1,8 1.66,8 2.32,8 3,8 2.1875,9.9375 2.1875,9.9375 1,12 0.01,12.33 -0.98,12.66 -2,13 -2.1668227,8.0787297 -2.2482805,4.496561 0,0 Z"
       fill="#bfbec2"
       transform="translate(147,198)"
       id="path255" />
    <path
       d="M 0,0 C 2.9375,0.375 2.9375,0.375 6,1 6.33,1.66 6.66,2.32 7,3 6.34,3 5.68,3 5,3 4.67,4.32 4.34,5.64 4,7 2.68,6.67 1.36,6.34 0,6 0,4.02 0,2.04 0,0 Z"
       fill="#77777c"
       transform="translate(86,183)"
       id="path256" />
    <path
       d="M 0,0 C 0,0.66 0,1.32 0,2 0.66,2.33 1.32,2.66 2,3 -1.4732518,4.1577506 -4.3606745,4.0686665 -8,4 -8,3.01 -8,2.02 -8,1 -5.1076568,0.17361624 -3.1125757,0 0,0 Z"
       fill="#49484b"
       transform="translate(93,168)"
       id="path257" />
    <path
       d="M 0,0 C 0.99,0.99 1.98,1.98 3,3 -2.94,3.495 -2.94,3.495 -9,4 -9.33,3.01 -9.66,2.02 -10,1 -6.6044497,-0.04478472 -3.5429486,-0.30152754 0,0 Z"
       fill="#141417"
       transform="translate(114,167)"
       id="path258" />
    <path
       d="M 0,0 C 0.33,0.99 0.66,1.98 1,3 0.34,3.66 -0.32,4.32 -1,5 -1.309375,6.155 -1.61875,7.31 -1.9375,8.5 -3,12 -3,12 -6,14 -5.6225777,7.8354352 -3.8412969,4.8262448 0,0 Z"
       fill="#c4c5c8"
       transform="translate(118,88)"
       id="path262" />
    <path
       d="M 0,0 C 0.66,1.32 1.32,2.64 2,4 1.2884375,4.8971875 1.2884375,4.8971875 0.5625,5.8125 -1.1646574,8.0038292 -1.1646574,8.0038292 -2,11 -2.99,11 -3.98,11 -5,11 -3.7747297,6.9471829 -2.3011951,3.5563924 0,0 Z"
       fill="#5f5f62"
       transform="translate(87,73)"
       id="path264" />
    <path
       d="M 0,0 C 1.32,1.32 2.64,2.64 4,4 2.35,4.66 0.7,5.32 -1,6 -2.65,4.35 -4.3,2.7 -6,1 -5.38125,1.20625 -4.7625,1.4125 -4.125,1.625 -3.073125,1.810625 -3.073125,1.810625 -2,2 -1.34,1.34 -0.68,0.68 0,0 Z"
       fill="#5a5a5c"
       transform="translate(133,326)"
       id="path265" />
    <path
       d="M 0,0 C 1.1875,1.5625 1.1875,1.5625 2,4 0.625,7.75 0.625,7.75 -1,11 -1.66,11 -2.32,11 -3,11 -2.4489409,7.0507432 -1.6106463,3.6507983 0,0 Z"
       fill="#37383b"
       transform="translate(241,219)"
       id="path268" />
    <path
       d="M 0,0 C 0.33,0 0.66,0 1,0 1.33,2.64 1.66,5.28 2,8 3.32,7.34 4.64,6.68 6,6 5.67,7.65 5.34,9.3 5,11 3.02,11.33 1.04,11.66 -1,12 -0.67,8.04 -0.34,4.08 0,0 Z"
       fill="#111115"
       transform="translate(263,178)"
       id="path269" />
    <path
       d="M 0,0 C 3.7668786,3.7668786 4.6765299,5.1472762 6,10 5.01,10.66 4.02,11.32 3,12 2.01,8.04 1.02,4.08 0,0 Z"
       fill="#86858a"
       transform="translate(230,86)"
       id="path272" />
    <path
       d="M 0,0 C 0,3 0,3 -1,5 -1.99,5.66 -2.98,6.32 -4,7 -4.66,7.66 -5.32,8.32 -6,9 -7,8 -7,8 -7.0625,5.4375 -7.041875,4.633125 -7.02125,3.82875 -7,3 -5.5459375,2.5359375 -5.5459375,2.5359375 -4.0625,2.0625 -1.1593421,1.3047666 -1.1593421,1.3047666 0,0 Z"
       fill="#353439"
       transform="translate(106,55)"
       id="path275" />
    <path
       d="m 0,0 c 0.33,1.32 0.66,2.64 1,4 -3.3,0.66 -6.6,1.32 -10,2 0,-0.66 0,-1.32 0,-2 0.66,0 1.32,0 2,0 0,-0.66 0,-1.32 0,-2 2.6473892,-1.4606285 3.8944833,-2 7,-2 z"
       fill="#2f2e34"
       transform="translate(134,39)"
       id="path276" />
    <path
       d="M 0,0 C 0.66,0.66 1.32,1.32 2,2 2.99,1.67 3.98,1.34 5,1 5.33,2.65 5.66,4.3 6,6 4.68,5.34 3.36,4.68 2,4 2,4.99 2,5.98 2,7 2.66,7.33 3.32,7.66 4,8 3.34,9.32 2.68,10.64 2,12 0.70756464,7.8803623 -0.26252625,4.3316832 0,0 Z"
       fill="#6c6c6e"
       transform="translate(74,227)"
       id="path278" />
    <path
       d="m 0,0 c 2.4294516,3.6441774 2.1617958,5.7124127 2,10 -1.32,0 -2.64,0 -4,0 -0.33,-2.64 -0.66,-5.28 -1,-8 0.33,1.32 0.66,2.64 1,4 0.66,0 1.32,0 2,0 C 0,4.02 0,2.04 0,0 Z"
       fill="#535256"
       transform="translate(180,217)"
       id="path279" />
    <path
       d="M 0,0 C 1,3 1,3 0,6 -0.26466936,8.8651508 -0.44396154,11.729759 -0.62109375,14.601563 -0.74613281,15.393047 -0.87117188,16.184531 -1,17 c -0.66,0.33 -1.32,0.66 -2,1 0.1136515,-2.625948 0.2403905,-5.250115 0.375,-7.875 C -2.594063,9.3786328 -2.563125,8.6322656 -2.53125,7.8632812 -2.2265625,2.2265625 -2.2265625,2.2265625 0,0 Z"
       fill="#c3c3c6"
       transform="translate(99,82)"
       id="path282" />
    <path
       d="m 0,0 c 0.33,0 0.66,0 1,0 0.3721083,4.3412636 -0.65778979,6.3965997 -3,10 -0.6982262,1.653694 -1.3749861,3.31727 -2,5 -0.33,0 -0.66,0 -1,0 0.5079701,-4.317746 1.1968278,-8.0330211 3,-12 0.66,0 1.32,0 2,0 C 0,2.01 0,1.02 0,0 Z"
       fill="#ababae"
       transform="translate(126,76)"
       id="path284" />
    <path
       d="M 0,0 C 0.33,0.99 0.66,1.98 1,3 1.66,3 2.32,3 3,3 3,5.64 3,8.28 3,11 2.01,11.495 2.01,11.495 1,12 0.03929566,9.117887 -0.10581883,7.3014996 -0.0625,4.3125 -0.05347656,3.5042578 -0.04445312,2.6960156 -0.03515625,1.8632812 -0.02355469,1.2483984 -0.01195312,0.63351563 0,0 Z"
       fill="#6e6f73"
       transform="translate(184,181)"
       id="path287" />
    <path
       d="m 0,0 c -1.32,0.33 -2.64,0.66 -4,1 0,0.66 0,1.32 0,2 -0.66,0 -1.32,0 -2,0 0,0.66 0,1.32 0,2 C -8.97,4.505 -8.97,4.505 -12,4 -8.599145,0.59914501 -4.6723533,-1.5574511 0,0 Z"
       fill="#7e7d83"
       transform="translate(131,40)"
       id="path291" />
    <path
       d="M 0,0 C 3.3,0 6.6,0 10,0 9.67,0.66 9.34,1.32 9,2 6.7148437,2.4140625 6.7148437,2.4140625 3.9375,2.625 3.0183984,2.6997656 2.0992969,2.7745313 1.1523437,2.8515625 0.44207031,2.9005469 -0.26820313,2.9495313 -1,3 -0.67,2.01 -0.34,1.02 0,0 Z"
       fill="#202124"
       transform="translate(168,232)"
       id="path294" />
    <path
       d="M 0,0 C 2.475,0.495 2.475,0.495 5,1 5,2.65 5,4.3 5,6 3.68,6.33 2.36,6.66 1,7 0.67,4.69 0.34,2.38 0,0 Z"
       fill="#232227"
       transform="translate(76,231)"
       id="path295" />
    <path
       d="M 0,0 C 0.99,0.66 1.98,1.32 3,2 3,2.66 3,3.32 3,4 3.99,4.33 4.98,4.66 6,5 3.36,5 0.72,5 -2,5 -2,3.68 -2,2.36 -2,1 -1.34,0.67 -0.68,0.34 0,0 Z"
       fill="#292a2b"
       transform="translate(199,174)"
       id="path298" />
    <path
       d="M 0,0 C 2.0421971,1.6917933 2.9179331,2.6372767 3.5117188,5.2617187 3.5697266,6.0622266 3.6277344,6.8627344 3.6875,7.6875 3.7532422,8.4957422 3.8189844,9.3039844 3.8867188,10.136719 3.9241016,10.751602 3.9614844,11.366484 4,12 0.46209597,8.3082741 0.40884117,4.906094 0,0 Z"
       fill="#d2d1d6"
       transform="translate(234,95)"
       id="path300" />
    <path
       d="M 0,0 C 4.6769231,1.4769231 4.6769231,1.4769231 6.3125,4.125 6.539375,4.74375 6.76625,5.3625 7,6 6.01,6.66 5.02,7.32 4,8 0,2.25 0,2.25 0,0 Z"
       fill="#4e4e55"
       transform="translate(96,289)"
       id="path302" />
    <path
       d="M 0,0 C 0.99,0 1.98,0 3,0 3.33,2.64 3.66,5.28 4,8 2.02,8.99 2.02,8.99 0,10 0,6.7 0,3.4 0,0 Z"
       fill="#5e5e61"
       transform="translate(175,204)"
       id="path303" />
    <path
       d="M 0,0 C 4.2549166,0.47276852 6.2254284,2.9254748 9,6 9.33,6.66 9.66,7.32 10,8 6.2227291,6.18691 2.6273018,4.0926741 -1,2 -0.67,1.34 -0.34,0.68 0,0 Z"
       fill="#353439"
       transform="translate(89,178)"
       id="path304" />
    <path
       d="m 0,0 c 0,0.99 0,1.98 0,3 -0.99,0.495 -0.99,0.495 -2,1 0,0.66 0,1.32 0,2 0.66,0.66 1.32,1.32 2,2 C -2.97,7.505 -2.97,7.505 -6,7 -6,4 -6,4 -4.6875,2.375 -3,1 -3,1 0,0 Z"
       fill="#020304"
       transform="translate(199,172)"
       id="path305" />
    <path
       d="M 0,0 C 3.8209724,0.53069061 6.061714,1.4970157 9,4 8.34,4.66 7.68,5.32 7,6 2.3230769,4.5230769 2.3230769,4.5230769 0.6875,1.875 0.460625,1.25625 0.23375,0.6375 0,0 Z"
       fill="#535358"
       transform="translate(205,64)"
       id="path307" />
    <path
       d="M 0,0 C 0,1.98 0,3.96 0,6 -0.66,6 -1.32,6 -2,6 -2.33,6.66 -2.66,7.32 -3,8 -3.33,5.69 -3.66,3.38 -4,1 -2,0 -2,0 0,0 Z"
       fill="#49494b"
       transform="translate(85,251)"
       id="path310" />
    <path
       d="M 0,0 C 1.32,0 2.64,0 4,0 4.33,1.65 4.66,3.3 5,5 0.25,4.25 0.25,4.25 -2,2 -1.34,1.34 -0.68,0.68 0,0 Z"
       fill="#706f74"
       transform="translate(152,215)"
       id="path313" />
    <path
       d="M 0,0 C -2,2 -2,2 -4,3 -4.33,3.99 -4.66,4.98 -5,6 -5.66,6 -6.32,6 -7,6 -7,4.68 -7,3.36 -7,2 -7.66,1.67 -8.32,1.34 -9,1 -3.375,-1.125 -3.375,-1.125 0,0 Z"
       fill="#4c4c4e"
       transform="translate(249,178)"
       id="path314" />
    <path
       d="M 0,0 C 0.66,0 1.32,0 2,0 2,0.66 2,1.32 2,2 2.66,2 3.32,2 4,2 4,3.65 4,5.3 4,7 3.34,7 2.68,7 2,7 2,7.66 2,8.32 2,9 1.34,8.67 0.68,8.34 0,8 0,5.36 0,2.72 0,0 Z"
       fill="#29282c"
       transform="translate(144,54)"
       id="path316" />
    <path
       d="M 0,0 C 2.475,0.99 2.475,0.99 5,2 5,2.66 5,3.32 5,4 7.475,4.99 7.475,4.99 10,6 9.01,6.495 9.01,6.495 8,7 4.4375,5.8125 4.4375,5.8125 1,4 0.0625,1.8125 0.0625,1.8125 0,0 Z"
       fill="#5a5a5d"
       transform="translate(226,48)"
       id="path317" />
    <path
       d="m 0,0 c 2.31,0.33 4.62,0.66 7,1 0,0.66 0,1.32 0,2 1.98,0 3.96,0 6,0 0,0.33 0,0.66 0,1 C 8.2152118,4.0976487 3.7231431,3.7711254 -1,3 -0.67,2.01 -0.34,1.02 0,0 Z"
       fill="#404045"
       transform="translate(149,221)"
       id="path318" />
    <path
       d="M 0,0 C 1.5,1.375 1.5,1.375 3,3 3,3.66 3,4.32 3,5 3.66,5 4.32,5 5,5 6.0625,6.8125 6.0625,6.8125 7,9 6.67,9.99 6.34,10.98 6,12 3.5638427,8.3877668 1.2091966,4.7556343 -1,1 -0.67,0.67 -0.34,0.34 0,0 Z"
       fill="#1c1c21"
       transform="translate(189,208)"
       id="path319" />
    <path
       d="m 0,0 c 2.0182292,0.06510417 4.0364583,0.13020833 6.0546875,0.1953125 -0.33,1.32 -0.66,2.64 -1,4 -0.66,0 -1.32,0 -2,0 0,-0.66 0,-1.32 0,-2 -2.31,0 -4.62,0 -7,0 2,-2 2,-2 3.9453125,-2.1953125 z"
       fill="#333237"
       transform="translate(113.94531,162.80469)"
       id="path321" />
    <path
       d="M 0,0 C 0.33,0.66 0.66,1.32 1,2 -0.3125,4.625 -0.3125,4.625 -2,7 -2.66,7 -3.32,7 -4,7 -4.33,8.32 -4.66,9.64 -5,11 -5.33,10.34 -5.66,9.68 -6,9 -4.2129372,5.54912 -2.7414678,2.7414678 0,0 Z"
       fill="#89888d"
       transform="translate(105,66)"
       id="path322" />
    <path
       d="M 0,0 C 2.45331,3.679965 2.3950789,5.6541317 2,10 1.01,10.66 0.02,11.32 -1,12 -0.67,8.04 -0.34,4.08 0,0 Z"
       fill="#89898b"
       transform="translate(135,58)"
       id="path323" />
    <path
       d="M 0,0 C 0.33,0.66 0.66,1.32 1,2 -0.125,4.625 -0.125,4.625 -2,7 -4.6875,7.3125 -4.6875,7.3125 -7,7 -4.6666667,4.6666667 -2.3333333,2.3333333 0,0 Z"
       fill="#878788"
       transform="translate(106,51)"
       id="path325" />
    <path
       d="M 0,0 C 1,2 1,2 0.1875,4.8125 -0.83599774,7.5597834 -1.8837765,10.289172 -3,13 -3.66,12.01 -4.32,11.02 -5,10 -3.35,6.7 -1.7,3.4 0,0 Z"
       fill="#6e6d71"
       transform="translate(98,77)"
       id="path334" />
    <path
       d="M 0,0 C -2,3 -2,3 -5,4 -5.33,4.66 -5.66,5.32 -6,6 -6.66,6 -7.32,6 -8,6 -6.5378151,1.3697479 -6.5378151,1.3697479 -4,-0.375 -2,-1 -2,-1 0,0 Z"
       fill="#9b9b9e"
       transform="translate(114,60)"
       id="path335" />
    <path
       d="M 0,0 C 3.7029369,-0.33663062 5.3953438,-0.47736015 8.375,1.875 10,4 10,4 10,6 9.34,6 8.68,6 8,6 8,5.34 8,4.68 8,4 7.05125,3.71125 6.1025,3.4225 5.125,3.125 2,2 2,2 0,0 Z"
       fill="#27262c"
       transform="translate(134,48)"
       id="path337" />
    <path
       d="M 0,0 C -0.56371414,3.269542 -1.4996227,4.8257588 -4,7 -4.33,5.35 -4.66,3.7 -5,2 -2,0 -2,0 0,0 Z"
       fill="#353537"
       transform="translate(233,305)"
       id="path338" />
    <path
       d="M 0,0 C 0.99,0 1.98,0 3,0 4.2566498,2.9060026 5,4.7960458 5,8 4.01,7.67 3.02,7.34 2,7 0.8125,3.4375 0.8125,3.4375 0,0 Z"
       fill="#232228"
       transform="translate(138,228)"
       id="path339" />
    <path
       d="M 0,0 C 3.0061727,3.0061727 2.5958532,5.823816 3,10 1.5,8.625 1.5,8.625 0,7 0,6.34 0,5.68 0,5 -0.66,4.67 -1.32,4.34 -2,4 -1.34,4 -0.68,4 0,4 0,2.68 0,1.36 0,0 Z"
       fill="#303135"
       transform="translate(194,208)"
       id="path340" />
    <path
       d="M 0,0 C 0.99,0.33 1.98,0.66 3,1 2.67,4.63 2.34,8.26 2,12 1.67,12 1.34,12 1,12 1,9.36 1,6.72 1,4 0.34,4 -0.32,4 -1,4 -0.67,2.68 -0.34,1.36 0,0 Z"
       fill="#323337"
       transform="translate(251,175)"
       id="path343" />
    <path
       d="M 0,0 C 0.66,0.33 1.32,0.66 2,1 -1.96,4.465 -1.96,4.465 -6,8 -6.66,7.67 -7.32,7.34 -8,7 -5.4837822,4.3939173 -2.9486564,2.1061832 0,0 Z"
       fill="#3b3c41"
       transform="translate(106,128)"
       id="path345" />
    <path
       d="M 0,0 C 0.33,0 0.66,0 1,0 1.33,1.98 1.66,3.96 2,6 1.01,6.33 0.02,6.66 -1,7 -1.66,6.67 -2.32,6.34 -3,6 -2.4265506,3.1327531 -2.1385485,2.1385485 0,0 Z"
       fill="#636366"
       transform="translate(98,58)"
       id="path347" />
    <path
       d="M 0,0 C -0.598125,0.28875 -1.19625,0.5775 -1.8125,0.875 -4.1932779,2.0474203 -4.1932779,2.0474203 -7,4 -7,3.01 -7,2.02 -7,1 -7.99,0.67 -8.98,0.34 -10,0 -6.4235515,-1.2380014 -3.6630523,-0.74926071 0,0 Z"
       fill="#66656a"
       transform="translate(141,38)"
       id="path350" />
    <path
       d="M 0,0 C 0.99,0.66 1.98,1.32 3,2 2.34,3.32 1.68,4.64 1,6 0.01,5.34 -0.98,4.68 -2,4 -2,3.01 -2,2.02 -2,1 -1.34,0.67 -0.68,0.34 0,0 Z"
       fill="#535356"
       transform="translate(106,300)"
       id="path351" />
    <path
       d="M 0,0 C 1.65,1.65 3.3,3.3 5,5 4.67,5.99 4.34,6.98 4,8 3.34,8 2.68,8 2,8 0.74335022,5.0939974 0,3.2039542 0,0 Z"
       fill="#86858a"
       transform="translate(144,215)"
       id="path352" />
    <path
       d="M 0,0 C 0.66,0 1.32,0 2,0 2.66,1.98 3.32,3.96 4,6 3.01,6 2.02,6 1,6 0.34,4.35 -0.32,2.7 -1,1 -0.67,0.67 -0.34,0.34 0,0 Z"
       fill="#a3a2a7"
       transform="translate(146,213)"
       id="path353" />
    <path
       d="M 0,0 C 2.8125,0.1875 2.8125,0.1875 6,1 7.875,3.5625 7.875,3.5625 9,6 7.68,5.67 6.36,5.34 5,5 5,4.34 5,3.68 5,3 4.360625,2.87625 3.72125,2.7525 3.0625,2.625 2.381875,2.41875 1.70125,2.2125 1,2 0.67,1.34 0.34,0.68 0,0 Z"
       fill="#26272c"
       transform="translate(90,202)"
       id="path354" />
    <path
       d="m 0,0 c 0.66,0 1.32,0 2,0 0,1.32 0,2.64 0,4 -1.32,0 -2.64,0 -4,0 -0.33,0.66 -0.66,1.32 -1,2 0,-0.66 0,-1.32 0,-2 -0.99,0.33 -1.98,0.66 -3,1 0,-0.66 0,-1.32 0,-2 1.65,0 3.3,0 5,0 0.33,-0.99 0.66,-1.98 1,-3 z"
       fill="#727177"
       transform="translate(158,175)"
       id="path355" />
    <path
       d="M 0,0 C 1.65,0.33 3.3,0.66 5,1 4.67,2.32 4.34,3.64 4,5 1.525,4.01 1.525,4.01 -1,3 -0.67,2.01 -0.34,1.02 0,0 Z"
       fill="#636365"
       transform="translate(234,159)"
       id="path357" />
    <path
       d="M 0,0 C 0.33,0 0.66,0 1,0 1,3.3 1,6.6 1,10 0.34,10 -0.32,10 -1,10 -2.2307692,4.5846154 -2.2307692,4.5846154 -1.0625,1.625 -0.5365625,0.820625 -0.5365625,0.820625 0,0 Z"
       fill="#949397"
       transform="translate(240,112)"
       id="path358" />
    <path
       d="M 0,0 C 1.0448029,3.1344087 1.1531766,4.0209604 0,7 -0.99,7.66 -1.98,8.32 -3,9 -2.5020163,5.2651222 -2.1250824,3.1876237 0,0 Z"
       fill="#dfdfe0"
       transform="translate(105,74)"
       id="path360" />
    <path
       d="M 0,0 C 1.98,0.495 1.98,0.495 4,1 4,2.32 4,3.64 4,5 2.35,5 0.7,5 -1,5 -0.67,3.35 -0.34,1.7 0,0 Z"
       fill="#111015"
       transform="translate(210,41)"
       id="path363" />
    <path
       d="M 0,0 C 1.1875,1.625 1.1875,1.625 2,4 0.625,7.25 0.625,7.25 -1,10 -2.467268,6.1851033 -1.4333642,3.7098838 0,0 Z"
       fill="#616264"
       transform="translate(244,211)"
       id="path365" />
    <path
       d="M 0,0 C 0.33,0 0.66,0 1,0 1,2.31 1,4.62 1,7 -0.32,6.34 -1.64,5.68 -3,5 -2.0311463,3.315037 -1.0301328,1.6482124 0,0 Z"
       fill="#49494d"
       transform="translate(193,205)"
       id="path366" />
    <path
       d="M 0,0 C 1.32,0.33 2.64,0.66 4,1 4,2.32 4,3.64 4,5 3.01,5.495 3.01,5.495 2,6 1.34,4.02 0.68,2.04 0,0 Z"
       fill="#5b5c60"
       transform="translate(186,199)"
       id="path367" />
    <path
       d="M 0,0 C -3.085593,2.2688184 -4.4220938,3.0545195 -8.3125,2.6875 -9.199375,2.460625 -10.08625,2.23375 -11,2 c 0,-0.33 0,-0.66 0,-1 7.4285714,-2.4285714 7.4285714,-2.4285714 11,-1 z"
       fill="#5a5b60"
       transform="translate(106,126)"
       id="path368" />
    <path
       d="M 0,0 C 0.75,1.5625 0.75,1.5625 1,4 -0.13084437,6.5028641 -1.5213952,8.6700772 -3,11 -3.75,9.4375 -3.75,9.4375 -4,7 -2.8691556,4.4971359 -1.4786048,2.3299228 0,0 Z"
       fill="#a0a0a3"
       transform="translate(131,69)"
       id="path370" />
    <path
       d="M 0,0 C 6.75,0.75 6.75,0.75 9,3 6.69,2.67 4.38,2.34 2,2 2,2.66 2,3.32 2,4 1.34,4 0.68,4 0,4 0,2.68 0,1.36 0,0 Z"
       fill="#27282c"
       transform="translate(200,60)"
       id="path372" />
    <path
       d="M 0,0 C 0.33,0.66 0.66,1.32 1,2 0.34,2 -0.32,2 -1,2 -0.67,2.99 -0.34,3.98 0,5 -1.65,5.66 -3.3,6.32 -5,7 -3.7502324,3.3468333 -3.3290125,2.2193416 0,0 Z"
       fill="#49494c"
       transform="translate(111,48)"
       id="path373" />
    <path
       d="M 0,0 C 0.33,0 0.66,0 1,0 1.9824852,4.0527516 2.0815957,7.8386174 2,12 1.67,12 1.34,12 1,12 -1.2767857,3.9642857 -1.2767857,3.9642857 0,0 Z"
       fill="#323137"
       transform="translate(80,225)"
       id="path376" />
    <path
       d="M 0,0 C 0.99,0.99 1.98,1.98 3,3 -0.50776784,4.603551 -3.1435488,5.2203686 -7,5 -3.25,3 -3.25,3 -1,3 -0.67,2.01 -0.34,1.02 0,0 Z"
       fill="#252526"
       transform="translate(139,175)"
       id="path378" />
    <path
       d="M 0,0 C 0.6875,1.625 0.6875,1.625 1,4 -0.4375,7.25 -0.4375,7.25 -2,10 -2.6875,8.375 -2.6875,8.375 -3,6 -1.5625,2.75 -1.5625,2.75 0,0 Z"
       fill="#b6b5b8"
       transform="translate(101,73)"
       id="path381" />
  </g>
</svg>
