<?xml version="1.0" encoding="UTF-8" standalone="no"?>
<svg
   version="1.1"
   width="203.9523"
   height="311.9964"
   id="svg381"
   sodipodi:docname="informante.svg"
   xmlns:inkscape="http://www.inkscape.org/namespaces/inkscape"
   xmlns:sodipodi="http://sodipodi.sourceforge.net/DTD/sodipodi-0.dtd"
   xmlns="http://www.w3.org/2000/svg"
   xmlns:svg="http://www.w3.org/2000/svg">
  <defs
     id="defs381" />
  <sodipodi:namedview
     id="namedview381"
     pagecolor="#ffffff"
     bordercolor="#000000"
     borderopacity="0.25"
     inkscape:showpageshadow="2"
     inkscape:pageopacity="0.0"
     inkscape:pagecheckerboard="0"
     inkscape:deskcolor="#d1d1d1">
    <inkscape:page
       x="0"
       y="0"
       width="203.9523"
       height="311.9964"
       id="page2"
       margin="0"
       bleed="0" />
  </sodipodi:namedview>
  <g
     id="g382"
     transform="translate(-405.94901,-32.636677)">
    <path
       d="M 0,0 C 0.999104,0.1652417 1.998208,0.3304834 3.0275879,0.50073242 24.952816,4.4308134 43.780341,16.69834 57,34.550781 67.53588,50.875908 71.446081,71.286184 74.25,90.1875 c 0.132935,0.872051 0.265869,1.744102 0.402832,2.642578 4.797863,31.517482 4.986858,62.401562 -1.477051,93.716792 -0.753947,3.66183 -1.29591,7.30166 -1.738281,11.01563 -2.128622,14.55825 -7.632741,29.05327 -13.1875,42.625 -0.452461,1.22396 -0.452461,1.22396 -0.914063,2.47266 C 55.346649,247.97934 52.895554,252.98334 50.25,258 c -0.498505,0.95205 -0.498505,0.95205 -1.00708,1.92334 -2.016181,3.7488 -4.266731,7.0032 -6.99292,10.26416 -0.433125,0.7425 -0.86625,1.485 -1.3125,2.25 -2.546429,4.14974 -5.419614,8.13564 -8.6875,11.75 -0.66,0 -1.32,0 -2,0 -0.229453,0.57105 -0.458906,1.14211 -0.695313,1.73047 C 22.833455,297.60969 5.6622337,304.83674 -6.75,308.1875 c -16.566458,4.19758 -34.798315,-0.0938 -49.367187,-8.33984 -9.973485,-6.40646 -19.405338,-14.21983 -26.632813,-23.66016 0,-0.66 0,-1.32 0,-2 -0.99,-0.33 -1.98,-0.66 -3,-1 -0.977981,-1.61873 -1.944184,-3.24628 -2.835937,-4.91406 -1.253602,-2.24639 -2.649108,-4.33812 -4.101563,-6.46094 -4.426649,-6.5729 -8.05013,-13.29054 -11.0625,-20.625 -0.61483,-1.33773 -1.23081,-2.67492 -1.84766,-4.01172 -2.36609,-5.3233 -4.24279,-10.75871 -6.02734,-16.30078 -0.51446,-1.59763 -0.51446,-1.59763 -1.03931,-3.22754 -3.93269,-12.61604 -6.54605,-25.50447 -9.08569,-38.45996 -0.17725,-0.8445 -0.35449,-1.68899 -0.53711,-2.55908 -6.20672,-32.72933 -3.75156,-69.63976 3.91992,-101.837404 0.55643,-2.347222 1.07773,-4.698615 1.58594,-7.056641 4.13166,-18.594705 12.36068,-39.624776 29.03125,-50.546875 0.66,0 1.32,0 2,0 0,-0.66 0,-1.32 0,-2 3.637857,-2.055863 7.310096,-4.039181 11,-6 1.446328,-0.7889062 1.446328,-0.7889062 2.921875,-1.59375 C -50.377989,-3.298029 -23.272128,-3.8622592 0,0 Z"
       fill="#17171b"
       transform="translate(531.75,34.8125)"
       id="path1" />
    <path
       d="M 0,0 C 0.91330078,0.00451172 1.8266016,0.00902344 2.7675781,0.01367188 4.9909574,0.0253126 7.2141912,0.04166149 9.4375,0.0625 c 0,0.33 0,0.66 0,1 -4.95,0.33 -9.9,0.66 -15,1 -0.33,0.99 -0.66,1.98 -1,3 -2.6411727,1.3205863 -4.985094,1.410647 -7.925781,1.71875 -1.18916,0.1276172 -2.378321,0.2552344 -3.603516,0.3867187 -1.248457,0.1301954 -2.496914,0.2603907 -3.783203,0.3945313 -2.454642,0.2583834 -4.909079,0.5187259 -7.363281,0.78125 -1.092239,0.114082 -2.184478,0.2281641 -3.309815,0.3457031 -2.974977,0.3297109 -2.974977,0.3297109 -5.722168,0.9179688 C -40.5625,10.0625 -40.5625,10.0625 -43.5625,10.0625 c -1.671,0.310884 -3.338715,0.640803 -5,1 -0.33,0.99 -0.66,1.98 -1,3 -2.580729,2.322656 -3.451761,3 -7,3 0,0.99 0,1.98 0,3 -0.99,0 -1.98,0 -3,0 0,0.99 0,1.98 0,3 4.228121,-1.222377 4.228121,-1.222377 7.898438,-3.554688 3.69598,-2.541845 7.780896,-1.842457 12.101562,-1.445312 4.135168,1.014286 7.487839,2.591661 11,5 1.437352,2.874705 1.381726,4.818946 1,8 -2.375,2.375 -2.375,2.375 -5,4 -0.66,0 -1.32,0 -2,0 -1.272534,3.647932 -2.328292,7.193654 -3,11 0.66,0 1.32,0 2,0 0.75233,9.027961 -1.988694,16.483042 -7,24 -0.689398,2.326719 -1.354669,4.660676 -2,7 -3.099073,9.559331 -12.478859,15.716295 -20.652344,20.820312 C -67.5625,99.0625 -67.5625,99.0625 -70.5625,99.0625 c 0,-0.99 0,-1.98 0,-3 -1.639687,0.680625 -1.639687,0.680625 -3.3125,1.375 -0.614883,0.255234 -1.229766,0.510469 -1.863281,0.773437 -2.089558,0.91963 -2.089558,0.91963 -4.824219,2.851563 0.380646,-11.369874 0.841146,-22.730776 1.875,-34.0625 0.06623,-0.813076 0.132451,-1.626152 0.200684,-2.463867 0.4729,-4.79354 1.539996,-8.208896 3.924316,-12.473633 0.492775,-1.426061 0.954737,-2.863412 1.375,-4.3125 1.335825,-4.236065 3.280433,-7.793499 5.636719,-11.546875 1.172158,-2.538905 1.162333,-4.374613 0.988281,-7.140625 0,-0.33 0,-0.66 0,-1 -0.66,0 -1.32,0 -2,0 -0.2475,0.53625 -0.495,1.0725 -0.75,1.625 -2.241635,4.259107 -4.761839,8.052942 -8.25,11.375 -0.33,0.66 -0.66,1.32 -1,2 -0.66,0 -1.32,0 -2,0 -0.06188,0.61875 -0.12375,1.2375 -0.1875,1.875 -0.8125,2.125 -0.8125,2.125 -3.375,3.375 -0.804375,0.2475 -1.60875,0.495 -2.4375,0.75 0.515487,-4.666872 1.721857,-7.662667 4.3125,-11.5625 0.594258,-0.908789 1.188516,-1.817578 1.800781,-2.753906 4.166632,-5.926452 8.766617,-11.673872 14.886719,-15.683594 0.66,0 1.32,0 2,0 0,-0.66 0,-1.32 0,-2 3.637857,-2.055863 7.310096,-4.039181 11,-6 1.446328,-0.788906 1.446328,-0.788906 2.921875,-1.59375 C -34.525118,1.7935186 -16.773356,-0.15998065 0,0 Z"
       fill="#25242a"
       transform="translate(509.5625,32.9375)"
       id="path3" />
    <path
       d="m 0,0 c 7.2591445,1.7643754 11.731558,4.7867824 17,10 0.60457,0.567187 1.209141,1.134375 1.832031,1.71875 C 20.272034,13.094678 21.64346,14.541719 23,16 c 0,0.66 0,1.32 0,2 0.66,0 1.32,0 2,0 9.840753,20.125147 14.173642,40.784508 11,63 -0.66,0 -1.32,0 -2,0 0,-0.99 0,-1.98 0,-3 -2.97,-0.99 -2.97,-0.99 -6,-2 0,-0.99 0,-1.98 0,-3 -1.65,0 -3.3,0 -5,0 0,-0.66 0,-1.32 0,-2 -1.32,-0.33 -2.64,-0.66 -4,-1 0,-0.66 0,-1.32 0,-2 -1.65,0 -3.3,0 -5,0 -1.51655,-2.751686 -2.30365,-4.997013 -2.632812,-8.117188 -0.08379,-0.772148 -0.167579,-1.544296 -0.253907,-2.339843 C 11.034648,56.745039 10.956016,55.947109 10.875,55.125 10.788633,54.334805 10.702266,53.544609 10.613281,52.730469 9.4037999,41.1924 9.4037999,41.1924 11,38 10.751681,34.970503 10.412211,32.008714 10,29 9.7969727,27.414453 9.7969727,27.414453 9.5898438,25.796875 8.7098905,19.437549 7.4744624,13.917193 5,8 4.6463139,6.6719205 4.3077553,5.3394684 4,4 2.68,3.67 1.36,3.34 0,3 0,2.01 0,1.02 0,0 Z"
       fill="#4f4f53"
       transform="translate(545,64)"
       id="path6" />
    <path
       d="M 0,0 C 1.7924414,0.01740234 1.7924414,0.01740234 3.6210938,0.03515625 5.4174023,0.04869141 5.4174023,0.04869141 7.25,0.0625 c 0.9268359,0.01160156 1.8536719,0.02320313 2.808594,0.03515625 0.05424,1.91635215 0.0929,3.83314925 0.125,5.74999995 0.0232,1.0673438 0.04641,2.1346875 0.07031,3.2343751 -0.190435,2.9403257 -0.6686112,4.5392437 -2.1953122,7.0156247 -0.6600001,0 -1.3200001,0 -2.0000001,0 -2.2932952,4.008529 -2.6651831,7.917447 -3.2421874,12.441406 -0.931113,3.143707 -2.16381944,3.69256 -4.7578125,5.558594 -0.6885083,2.031657 -0.6885083,2.031657 -0.7500001,4.1875 -0.0825,1.258125 -0.165,2.51625 -0.25,3.8125 -0.66,0 -1.3199999,0 -1.9999999,0 C -6.3350405,45.512837 -6.3350405,45.512837 -7.53125,49 c -1.6628011,5.12615 -3.787479,9.105298 -8.410156,12.097656 -2.927003,0.986755 -4.820004,1.052131 -8,1 -2.705631,-1.745568 -2.96594,-2.897819 -4,-6 -0.13931,-4.14775 0.05165,-8.290739 0.1875,-12.4375 0.02804,-1.688994 0.02804,-1.688994 0.05664,-3.412109 0.261839,-7.988367 1.8281,-14.719944 4.75586,-22.150391 0.99,0 1.98,0 3,0 0.309375,-0.78375 0.61875,-1.5675 0.9375,-2.375 1.0625,-2.625 1.0625,-2.625 2.0625,-4.625 0.66,0 1.32,0 2,0 0.06188,-0.594258 0.12375,-1.1885154 0.1875,-1.800781 1.155715,-3.1282108 2.935728,-3.7971388 5.8124997,-5.3867187 C -2.0964726,0.069604 -2.0964726,0.069604 0,0 Z"
       fill="#d8d8d9"
       transform="translate(459.94141,59.902344)"
       id="path7" />
    <path
       d="m 0,0 c 3.0170025,5.0403038 3.4317372,8.8200679 3.3632813,14.511719 4.985e-4,0.808871 9.97e-4,1.617743 0.00151,2.451126 -0.00233,1.70699 -0.01201,3.413984 -0.02861,5.120895 -0.023452,2.578529 -0.020571,5.156012 -0.013916,7.734619 C 3.2843218,52.715678 3.2843218,52.715678 -1,57 c -1.9711914,0.227051 -1.9711914,0.227051 -4.3515625,0.195312 -0.8507812,-0.0064 -1.7015625,-0.01289 -2.578125,-0.01953 -0.8894531,-0.01676 -1.7789063,-0.03352 -2.6953125,-0.05078 -1.345781,-0.01353 -1.345781,-0.01353 -2.71875,-0.02734 C -15.562766,57.07405 -17.781251,57.041123 -20,57 c -0.33,-0.66 -0.66,-1.32 -1,-2 -0.99,2.475 -0.99,2.475 -2,5 -0.33,0 -0.66,0 -1,0 0.140429,-1.646303 0.287493,-3.292042 0.4375,-4.9375 0.121816,-1.374785 0.121816,-1.374785 0.246094,-2.777344 C -23,50 -23,50 -22,49 c 0.251537,-2.185041 0.4752,-4.373299 0.6875,-6.5625 0.847349,-7.366786 3.031647,-13.72032 5.808594,-20.558594 1.458917,-3.619742 2.457507,-7.288403 3.441406,-11.066406 1.206781,-4.0868308 2.17917,-6.5442319 5.625,-9.125 C -3,0 -3,0 0,0 Z"
       fill="#88878c"
       transform="translate(502,168)"
       id="path8" />
    <path
       d="M 0,0 C 0.91330078,0.00451172 1.8266016,0.00902344 2.7675781,0.01367188 4.9909574,0.0253126 7.2141912,0.04166149 9.4375,0.0625 c 0,0.33 0,0.66 0,1 -4.95,0.33 -9.9,0.66 -15,1 -0.33,0.99 -0.66,1.98 -1,3 -2.6411727,1.3205863 -4.985094,1.410647 -7.925781,1.71875 -1.18916,0.1276172 -2.378321,0.2552344 -3.603516,0.3867187 -1.248457,0.1301954 -2.496914,0.2603907 -3.783203,0.3945313 -2.454642,0.2583834 -4.909079,0.5187259 -7.363281,0.78125 -1.092239,0.114082 -2.184478,0.2281641 -3.309815,0.3457031 -2.974977,0.3297109 -2.974977,0.3297109 -5.722168,0.9179688 C -40.5625,10.0625 -40.5625,10.0625 -43.5625,10.0625 c -1.671,0.310884 -3.338715,0.640803 -5,1 -0.33,0.99 -0.66,1.98 -1,3 -2.580729,2.322656 -3.451761,3 -7,3 0,0.99 0,1.98 0,3 -0.99,0 -1.98,0 -3,0 0,0.99 0,1.98 0,3 0.66,0.66 1.32,1.32 2,2 -2.31,2.64 -4.62,5.28 -7,8 -0.66,-0.66 -1.32,-1.32 -2,-2 0,-0.99 0,-1.98 0,-3 -0.66,0 -1.32,0 -2,0 -0.2475,0.53625 -0.495,1.0725 -0.75,1.625 -2.241635,4.259107 -4.761839,8.052942 -8.25,11.375 -0.33,0.66 -0.66,1.32 -1,2 -0.66,0 -1.32,0 -2,0 -0.06188,0.61875 -0.12375,1.2375 -0.1875,1.875 -0.8125,2.125 -0.8125,2.125 -3.375,3.375 -0.804375,0.2475 -1.60875,0.495 -2.4375,0.75 0.515487,-4.666872 1.721857,-7.662667 4.3125,-11.5625 0.594258,-0.908789 1.188516,-1.817578 1.800781,-2.753906 4.166632,-5.926452 8.766617,-11.673872 14.886719,-15.683594 0.66,0 1.32,0 2,0 0,-0.66 0,-1.32 0,-2 3.637857,-2.055863 7.310096,-4.039181 11,-6 1.446328,-0.788906 1.446328,-0.788906 2.921875,-1.59375 C -34.525118,1.7935186 -16.773356,-0.15998065 0,0 Z"
       fill="#2a292e"
       transform="translate(509.5625,32.9375)"
       id="path11" />
    <path
       d="M 0,0 C 0.66,0 1.32,0 2,0 2.268125,0.804375 2.53625,1.60875 2.8125,2.4375 3.204375,3.283125 3.59625,4.12875 4,5 4.99,5.33 5.98,5.66 7,6 7.0141797,7.1743359 7.0283594,8.3486719 7.0429687,9.5585938 7.313463,20.422688 8.9572855,29.783694 12.383301,40.069336 13.843394,44.640363 14.89398,49.333137 16,54 14.160889,53.768066 14.160889,53.768066 12,53 7.1555517,46.531061 5.6518644,38.393333 4.1875,30.625 3.971582,29.558945 3.7556641,28.492891 3.5332031,27.394531 2.6932691,23.154864 2,19.336816 2,15 c -0.66,0 -1.32,0 -2,0 -1.7376087,6.015864 -2.351656,11.436998 -2.3125,17.6875 0.00201,0.878496 0.00403,1.756992 0.0061,2.662109 0.094189,6.149897 0.9374517,11.717519 2.5720215,17.66211 C 1.4775316,57.943147 1.735686,62.941576 2,68 -1,67 -1,67 -3,64 -6.0965892,52.392917 -5.1152263,38.896735 -5.1875,27 -5.2004712,25.867397 -5.2134424,24.734795 -5.2268066,23.567871 -5.2463903,5.825103 -5.2463903,5.825103 0,0 Z"
       fill="#57575a"
       transform="translate(519,159)"
       id="path12" />
    <path
       d="M 0,0 C 4.7857505,0.8622101 9.4355602,2.1685277 14.125,3.4375 21.038348,5.2874577 27.915247,6.9333069 35,8 35,8.33 35,8.66 35,9 26.459561,9.599329 19.106692,7.3924889 11,5 c 2.716047,2.8742012 2.716047,2.8742012 6,5 0,0.66 0,1.32 0,2 0.66,0 1.32,0 2,0 1.069245,3.207736 1.16685,5.629848 1.1875,9 0.01418,1.051875 0.02836,2.10375 0.04297,3.1875 C 20,27 20,27 18,30 13.33727,29.762546 10.074847,29.018369 6.6210937,25.746094 1,18.83788 1,18.83788 1,15 0.34,15 -0.32,15 -1,15 -2.5170843,4.4419134 -2.5170843,4.4419134 0,0 Z"
       fill="#504f54"
       transform="translate(421,174)"
       id="path13" />
    <path
       d="m 0,0 c 7.1800373,3.1725746 7.1800373,3.1725746 8.6875,6.1875 0.375,2.875 0.375,2.875 0,6 -2.375,2.375 -2.375,2.375 -5,4 -0.66,0 -1.32,0 -2,0 0,0.66 0,1.32 0,2 -0.53625,0.515625 -1.0725,1.03125 -1.625,1.5625 -4.6216209,4.743243 -8.0769618,10.232797 -10.375,16.4375 -1,-2 -1,-2 -0.1875,-5.4375 1.1875,-3.5625 1.1875,-3.5625 3.1875,-6.5625 0.66,0 1.32,0 2,0 0.66,-5.28 1.32,-10.56 2,-16 -8.342427,0.17563 -13.674146,0.5037333 -20.292969,5.722656 C -25.3125,15.1875 -25.3125,15.1875 -27.3125,15.1875 c -0.33,1.32 -0.66,2.64 -1,4 -0.66,0 -1.32,0 -2,0 -0.309375,0.78375 -0.61875,1.5675 -0.9375,2.375 -1.0625,2.625 -1.0625,2.625 -2.0625,4.625 -0.66,0 -1.32,0 -2,0 1.488192,-6.283478 5.204747,-10.920328 9,-16 0.638086,-0.8913867 0.638086,-0.8913867 1.289063,-1.8007812 C -18.345615,-0.4034764 -10.501619,-2.5758688 0,0 Z"
       fill="#b2b2b3"
       transform="translate(473.3125,51.8125)"
       id="path14" />
    <path
       d="M 0,0 C 1.3129102,-0.05607422 1.3129102,-0.05607422 2.6523438,-0.11328125 5.0625,0.3125 5.0625,0.3125 6.8789062,2.1445313 8.0625,4.3125 8.0625,4.3125 8.0625,7.3125 c 0.99,0.33 1.98,0.66 3,1 0,0.66 0,1.32 0,2 1.392188,-0.12375 1.392188,-0.12375 2.8125,-0.25 1.051875,0.0825 2.10375,0.165 3.1875,0.25 1.699219,2.015625 1.699219,2.015625 3,4 -0.850781,0.01418 -1.701563,0.02836 -2.578125,0.04297 -8.9825948,0.35357 -17.14280186,1.899278 -25.8056641,4.317138 -0.8169433,0.224056 -1.6338867,0.448111 -2.4755859,0.678955 -0.726709,0.208345 -1.453418,0.41669 -2.202148,0.631348 -1.938477,0.32959 -1.938477,0.32959 -4.938477,-0.67041 0,-0.99 0,-1.98 0,-3 0.66,0 1.32,0 2,0 -0.06188,-1.216875 -0.12375,-2.43375 -0.1875,-3.6875 0.02083,-3.9222069 0.513156,-6.2815772 3.1875,-9.3125 3.0625,-1.25 3.0625,-1.25 6,-2 C -4.4933206,0.0904103 -2.7272013,0.07608932 0,0 Z"
       fill="#3a393f"
       transform="translate(441.9375,152.6875)"
       id="path15" />
    <path
       d="M 0,0 C 3.7486264,8.3515908 5.4477865,15.820377 5,25 4.67,25.66 4.34,26.32 4,27 1.5063843,25.796186 -0.68143083,24.545713 -3,23 -5.0290124,22.579351 -7.0738172,22.231585 -9.125,21.9375 -14.900421,21.099579 -14.900421,21.099579 -16,20 -16.659817,14.909986 -16.893448,11.191264 -13.75,7 -11.489615,5.3560833 -9.5400062,4.1112527 -7,3 -6.13375,2.46375 -5.2675,1.9275 -4.375,1.375 -2,0 -2,0 0,0 Z"
       fill="#3f3f41"
       transform="translate(538,238)"
       id="path17" />
    <path
       d="M 0,0 C 0.33,0 0.66,0 1,0 0.99476318,0.73114014 0.98952637,1.4622803 0.98413086,2.2155762 0.96329839,5.539542 0.95031986,8.863494 0.9375,12.1875 c -0.008379,1.150488 -0.0167578,2.300977 -0.0253906,3.486328 -0.003223,1.111817 -0.006445,2.223633 -0.009766,3.369141 -0.007855,1.531769 -0.007855,1.531769 -0.0158691,3.094482 C 0.99480533,24.869016 1.3829313,27.341694 2,30 9.2785605,30.000428 9.2785605,30.000428 15.4375,26.5625 18.794608,22.672819 19.891469,17.92032 21,13 c 0.66,0 1.32,0 2,0 0,-0.66 0,-1.32 0,-2 0.66,0 1.32,0 2,0 C 25,8.36 25,5.72 25,3 25.99,2.67 26.98,2.34 28,2 27.835645,2.8604492 27.835645,2.8604492 27.667969,3.7382813 27.430137,5.0125195 27.430137,5.0125195 27.1875,6.3125 26.899395,7.7994336 26.899395,7.7994336 26.605469,9.3164063 26.141692,12.137967 25.808147,14.87359 25.550781,17.714844 24.234459,30.554932 24.234459,30.554932 20.6875,34.707031 18.182323,36.436623 15.775082,37.76308 13,39 12.01,39.66 11.02,40.32 10,41 9.01,41 8.02,41 7,41 7,40.01 7,39.02 7,38 5.906875,38.45375 4.81375,38.9075 3.6875,39.375 3.0726172,39.630234 2.4577344,39.885469 1.8242187,40.148437 -0.26533932,41.068067 -0.26533932,41.068067 -3,43 -2.5177194,28.594318 -1.6159533,14.323936 0,0 Z"
       fill="#747479"
       transform="translate(432,91)"
       id="path18" />
    <path
       d="m 0,0 c 0,1.32 0,2.64 0,4 -0.99,0.33 -1.98,0.66 -3,1 -0.33,0.66 -0.66,1.32 -1,2 -4.69305,1.6412959 -9.782683,1.1842582 -14.6875,1.1875 -1.43376,0.018369 -1.43376,0.018369 -2.896484,0.037109 C -27.701738,8.2371201 -33.07772,7.5430864 -39,6 -38,3 -38,3 -34.625,0.9375 -23.549159,-4.2246332 -11.226891,-4.55584 0,0 Z"
       fill="#202121"
       transform="translate(575,172)"
       id="path23" />
    <path
       d="M 0,0 C 1.98,0 3.96,0 6,0 6,0.33 6,0.66 6,1 6.6780469,1.0373828 7.3560938,1.0747656 8.0546875,1.1132812 16.590127,1.7162001 24.843506,2.9904539 32,8 c -1.338767,2.677533 -3.148617,3.287592 -5.847168,4.380371 -4.027861,1.1593 -8.055274,1.009339 -12.215332,0.932129 -0.872051,0.0032 -1.744102,0.0064 -2.642578,0.0098 C 6.4756023,13.282135 2.5217162,12.86363 -2,11 -2,10.34 -2,9.68 -2,9 -2.99,9 -3.98,9 -5,9 -4.67,7.35 -4.34,5.7 -4,4 -0.535,3.505 -0.535,3.505 3,3 3,2.34 3,1.68 3,1 2.01,0.67 1.02,0.34 0,0 Z"
       fill="#202020"
       transform="translate(447,167)"
       id="path24" />
    <path
       d="M 0,0 C 0.99,0.33 1.98,0.66 3,1 3.5086667,3.3525834 4.0070625,5.706614 4.5,8.0625 4.6430859,8.7192773 4.7861719,9.3760547 4.9335937,10.052734 5.8395245,14.4314 6.1403115,18.504187 6,23 c 0.66,0 1.32,0 2,0 -0.33,2.31 -0.66,4.62 -1,7 0.66,0 1.32,0 2,0 0.1933594,1.218164 0.3867188,2.436328 0.5859375,3.691406 0.2628008,1.623734 0.5258345,3.24743 0.7890625,4.871094 0.126328,0.799863 0.252656,1.599727 0.382813,2.423828 C 11.716432,46.857874 13.11713,52.35139 15,58 13.68,58.99 12.36,59.98 11,61 6.4173616,47.467809 1.925882,33.974018 -1.125,20 -1.4424719,18.569987 -1.4424719,18.569987 -1.7663574,17.111084 -3.2476382,9.9618969 -3.2476382,9.9618969 -2,6 c 0.33,0.66 0.66,1.32 1,2 0.33,-2.64 0.66,-5.28 1,-8 z"
       fill="#252529"
       transform="translate(414,209)"
       id="path26" />
    <path
       d="M 0,0 C 1.1328125,5.7578125 1.1328125,5.7578125 -0.0625,7.9375 -1.558433,11.228552 -0.13495777,13.721233 1,17 c -7.4071181,-0.622722 -14.681941,-1.70488 -22,-3 0.33,-0.99 0.66,-1.98 1,-3 0.06665,-1.3943966 0.08538,-2.7916987 0.0625,-4.1875 C -19.958125,5.554375 -19.97875,4.29625 -20,3 -13.458416,-0.65111665 -7.3612037,-0.29887594 0,0 Z"
       fill="#3d3e3e"
       transform="translate(581,153)"
       id="path30" />
    <path
       d="M 0,0 C 2.5076852,0.61790086 4.3706905,0.43531302 6.921875,0.09765625 7.7210937,-0.00417969 8.5203125,-0.10601562 9.34375,-0.2109375 9.9470313,-0.29472656 10.550313,-0.37851562 11.171875,-0.46484375 8.6693864,1.203482 6.7603831,2.158973 3.984375,3.1601563 3.2689453,3.4205469 2.5535156,3.6809375 1.8164062,3.9492188 1.2737109,4.1425781 0.73101562,4.3359375 0.171875,4.5351562 c 0.65226562,0.063164 1.3045312,0.1263282 1.9765625,0.1914063 4.9359402,0.691614 8.1861365,1.3163327 11.4609375,5.2460938 0.857478,1.1851107 1.711769,2.3725367 2.5625,3.5624997 0.547852,0.525938 1.095703,1.051875 1.660156,1.59375 1.339844,1.40625 1.339844,1.40625 1.339844,3.46875 -1,1.9375 -1,1.9375 -3.5625,3.1875 -0.804375,0.2475 -1.60875,0.495 -2.4375,0.75 -0.226875,-1.258125 -0.45375,-2.51625 -0.6875,-3.8125 -0.786972,-3.136803 -1.062009,-3.977629 -3.625,-6.125 -5.6707155,-2.241911 -11.6284948,-2.9372801 -17.6875,-2.0625 -2.316141,1.150272 -4.262448,2.427648 -6.308594,4.003907 -0.558164,0.32871 -1.116328,0.657421 -1.691406,0.996093 -0.99,-0.33 -1.98,-0.66 -3,-1 0.33,-0.99 0.66,-1.98 1,-3 0.66,-0.33 1.32,-0.66 2,-1 0.33,-0.9899997 0.66,-1.9799997 1,-2.9999998 0.598125,-0.144375 1.19625,-0.28875 1.8125,-0.4375 2.392133,-0.4173817 2.392133,-0.4173817 4.25,-2.625 0.639375,-0.6393749 1.27875,-1.2787499 1.9375,-1.9374999 0.99,0 1.98,0 3,0 0.33,-0.66 0.66,-1.3200001 1,-2.00000005 2,-1 2,-1 3.828125,-0.53515625 z"
       fill="#242328"
       transform="translate(468.82812,41.464844)"
       id="path32" />
    <path
       d="M 0,0 C 0,0.66 0,1.32 0,2 1.1562891,1.9613281 2.3125781,1.9226562 3.5039063,1.8828125 7.8862137,1.8847409 11.733549,2.7111132 15.9375,3.875 c 1.394304,0.3680495 2.788834,0.7352423 4.183594,1.1015625 0.663706,0.1769238 1.327412,0.3538477 2.01123,0.5361328 C 25.731105,6.4516714 29.363994,7.2208558 33,8 c -2.533649,3.049116 -5.149706,3.975154 -8.875,5.1875 -1.028672,0.34418 -2.057344,0.688359 -3.117188,1.042969 C 18.184142,14.952888 15.895277,15.154913 13,15 13.495,14.4225 13.99,13.845 14.5,13.25 16.3698,10.895994 16.3698,10.895994 16,7 1.5475715,3.5560171 -11.873015,4.5356358 -25,12 c 1.382183,-2.8765948 2.597486,-4.8746993 5,-7 0.556875,-0.515625 1.11375,-1.03125 1.6875,-1.5625 C -12.613254,-0.10527438 -6.4967649,-0.23202732 0,0 Z"
       fill="#020203"
       transform="translate(560,165)"
       id="path33" />
    <path
       d="m 0,0 c 3,1 3,1 4.1708984,2.588623 1.1430519,3.324477 1.1147845,6.5198169 1.0947266,9.993408 0.00191,0.732404 0.00383,1.464808 0.0058,2.219406 0.00136,1.547393 -0.00231,3.094796 -0.010681,4.642167 -0.010658,2.350444 -1.176e-4,4.700116 0.012695,7.050537 -0.00132,1.508465 -0.00389,3.01693 -0.00781,4.52539 0.00405,0.695032 0.0081,1.390063 0.012268,2.106156 C 5.2269343,38.5193 4.9578777,44.042122 1,48 c -0.99,0 -1.98,0 -3,0 -0.1262197,-7.446965 -0.1262197,-7.446965 0.4863281,-10.130859 0.65662877,-3.667634 0.74615909,-7.299008 0.83007815,-11.013672 0.0207811,-0.769787 0.0415622,-1.539574 0.062973,-2.332688 0.0650812,-2.445008 0.12418664,-4.890118 0.18312073,-7.335281 0.0432247,-1.663422 0.0868402,-3.326833 0.13085938,-4.990234 C -0.19990093,8.1316135 -0.09851829,4.0658593 0,0 Z"
       fill="#b7b6bb"
       transform="translate(500,173)"
       id="path35" />
    <path
       d="m 0,0 c 0.42781312,8.7939363 -0.70032804,16.513115 -3,25 0.474375,-0.495 0.94875,-0.99 1.4375,-1.5 C 0,22 0,22 1,22 c 0.6708184,6.439856 -1.24569762,9.837834 -5,15 -1.32,-0.66 -2.64,-1.32 -4,-2 0,-0.99 0,-1.98 0,-3 -0.99,0 -1.98,0 -3,0 0.633158,-5.125247 1.6816066,-9.965308 3.0625,-14.9375 0.2794043,-1.025771 0.2794043,-1.025771 0.5644531,-2.072266 C -6.9191094,13.325797 -6.4600908,11.662747 -6,10 c 0.66,0 1.32,0 2,0 C -3.951016,9.3619141 -3.902031,8.7238281 -3.8515625,8.0664063 -3.7767969,7.2401172 -3.7020313,6.4138281 -3.625,5.5625 -3.5553906,4.7387891 -3.4857813,3.9150781 -3.4140625,3.0664063 -3.2774219,2.3844922 -3.1407812,1.7025781 -3,1 -1,0 -1,0 0,0 Z"
       fill="#cccbd0"
       transform="translate(494,180)"
       id="path37" />
    <path
       d="m 0,0 c 0,0.66 0,1.32 0,2 -2.31,0.66 -4.62,1.32 -7,2 -0.33,1.32 -0.66,2.64 -1,4 0.99,0 1.98,0 3,0 0,0.66 0,1.32 0,2 6.2043072,1.152672 12.2072492,1.183863 18.5,1.1875 1.672559,0.01837 1.672559,0.01837 3.378906,0.03711 C 22.35327,11.234397 26.864354,11.109283 32,9 c 0.99,0 1.98,0 3,0 0,0.66 0,1.32 0,2 -17.949681,6.485046 -38.2331251,3.68317 -56,-2 -0.66,-0.33 -1.32,-0.66 -2,-1 0.33,-1.32 0.66,-2.64 1,-4 2.539584,-0.6756137 5.081188,-1.3406583 7.625,-2 0.712852,-0.1907812 1.425703,-0.3815625 2.160156,-0.578125 C -8.0415146,0.34982713 -4.3482125,-0.21946814 0,0 Z"
       fill="#040506"
       transform="translate(450,168)"
       id="path39" />
    <path
       d="M 0,0 C 4.6746185,-0.32613618 7.1667438,0.29417212 11,3 10.67,3.66 10.34,4.32 10,5 7.525,4.01 7.525,4.01 5,3 5,3.99 5,4.98 5,6 5.598125,6.061875 6.19625,6.12375 6.8125,6.1875 10.083789,7.4025502 10.536909,8.8193665 12,12 c 7.77667,23.44666 7.77667,23.44666 4,31 -0.06895,1.373428 -0.08468,2.750021 -0.0625,4.125 C 15.95813,48.40375 15.97875,49.6825 16,51 15.34,51 14.68,51 14,51 13.92483,50.385923 13.849663,49.771846 13.772217,49.13916 13.419512,46.299926 13.053575,43.46254 12.6875,40.625 12.569551,39.659492 12.451602,38.693984 12.330078,37.699219 11.175964,28.880599 8.9054112,20.781329 5.5,12.5625 5.0978125,11.573789 4.695625,10.585078 4.28125,9.5664063 3.1727676,6.9887578 3.1727676,6.9887578 1.34375,5.4023437 0,4 0,4 0,0 Z"
       fill="#2d2c31"
       transform="translate(540,61)"
       id="path41" />
    <path
       d="M 0,0 C 1.32,0 2.64,0 4,0 3.8838236,1.3757736 3.7565422,2.7506105 3.625,4.125 3.5553906,4.8907031 3.4857813,5.6564062 3.4140625,6.4453125 3,9 3,9 1.9804687,11.707031 0.68746443,16.049671 0.65981993,20.055333 0.6875,24.5625 0.689514,25.45002 0.691528,26.337539 0.693604,27.251953 0.7873779,33.437696 1.6215005,39.032379 3.265625,45.011719 4.4775316,49.943147 4.735686,54.941576 5,60 2,59 2,59 0,56 -3.1170307,44.316296 -2.1158646,30.721967 -2.1875,18.75 -2.200471,17.583882 -2.213442,16.417764 -2.226807,15.216309 -2.228017,14.108521 -2.229227,13.000732 -2.230467,11.859375 -2.234577,10.874209 -2.238687,9.889043 -2.242918,8.8740234 -1.9720397,5.6691976 -1.1238841,3.0033345 0,0 Z"
       fill="#717275"
       transform="translate(516,167)"
       id="path44" />
    <path
       d="M 0,0 C 2,1 2,1 3.0351563,3.765625 3.3741797,4.9154687 3.7132031,6.0653125 4.0625,7.25 4.4041016,8.3895312 4.7457031,9.5290625 5.0976562,10.703125 5.8529734,13.462812 6.4871117,16.187046 7,19 c 0.66,0 1.32,0 2,0 0.66,0.66 1.32,1.32 2,2 2.108208,-0.318518 2.108208,-0.318518 4,-1 2.774711,6.243099 3.376342,11.197966 3,18 -0.99,0.495 -0.99,0.495 -2,1 0,-1.65 0,-3.3 0,-5 -1.65,0 -3.3,0 -5,0 C 10.690625,32.906875 10.38125,31.81375 10.0625,30.6875 9.416621,28.44592 8.7376883,26.213065 8,24 7.38125,23.7525 6.7625,23.505 6.125,23.25 2.3079982,21.004705 1.5221344,16.75627 0.3125,12.6875 -0.17855281,8.4644459 -0.07420472,4.2461588 0,0 Z"
       fill="#232428"
       transform="translate(521,193)"
       id="path45" />
    <path
       d="M 0,0 C 1.9062623,1.5396734 3.0627851,3.0928127 4.4375,5.125 6.2341433,7.280972 7.2704898,7.6235158 10,8 10,8.66 10,9.32 10,10 9.2497656,10.121172 8.4995313,10.242344 7.7265625,10.367188 1.8688684,11.326256 -3.9484396,12.357525 -9.7460938,13.632813 -12.198171,14.032284 -14.519849,14.061238 -17,14 c 1.952164,-1.952164 3.532,-2.848266 6,-4 -0.33,-0.99 -0.66,-1.98 -1,-3 1.215456,-3.1345979 2.1774374,-5.3693687 4.875,-7.4375 C -4.3562515,-1.170404 -2.7096874,-0.90322912 0,0 Z"
       fill="#606166"
       transform="translate(446,157)"
       id="path46" />
    <path
       d="M 0,0 C 0.66,0 1.32,0 2,0 1.8356445,0.89525391 1.8356445,0.89525391 1.6679687,1.8085937 0.07358834,10.532317 -1.4640977,19.265836 -3,28 c -15.744875,3.444191 -15.744875,3.444191 -23,3 0,-2.64 0,-5.28 0,-8 2,3 2,3 2,5 7.278561,4.28e-4 7.278561,4.28e-4 13.4375,-3.4375 C -7.2053918,20.672819 -6.1085306,15.92032 -5,11 c 0.66,0 1.32,0 2,0 0,-0.66 0,-1.32 0,-2 0.66,0 1.32,0 2,0 C -1.020625,7.700625 -1.04125,6.40125 -1.0625,5.0625 -1.0839945,3.7083437 -1.071482,2.3524392 -1,1 -0.67,0.67 -0.34,0.34 0,0 Z"
       fill="#9a999f"
       transform="translate(458,93)"
       id="path53" />
    <path
       d="M 0,0 C 1.4783226,2.9566452 1.0603278,5.7422974 1,9 0.67,9 0.34,9 0,9 0,7.35 0,5.7 0,4 -3.718049,5.517571 -7.2319319,7.0755938 -10.6875,9.125 -13.367303,10.641869 -15.09005,11.378703 -18,12 c -1.739553,6.430135 -2.249915,12.349496 -2,19 -0.66,0 -1.32,0 -2,0 -0.40317,-2.671 -0.72638,-5.31431 -1,-8 -0.114727,-0.925547 -0.229453,-1.851094 -0.347656,-2.804688 C -23.565816,17.268005 -23.647307,14.867929 -23,12 -21.073675,10.082275 -19.302673,9.0497501 -16.847656,7.9023437 -14.818386,7.1429795 -14.818386,7.1429795 -14,5 c -2.97,0 -5.94,0 -9,0 0,-0.33 0,-0.66 0,-1 3.457763,-0.6696467 6.9163,-1.3352109 10.375,-2 0.984844,-0.1907812 1.969687,-0.3815625 2.984375,-0.578125 C -8.6996094,1.2414062 -7.7585937,1.0609375 -6.7890625,0.875 -5.919751,0.70742187 -5.0504394,0.53984375 -4.1547852,0.3671875 -2,0 -2,0 0,0 Z"
       fill="#27282a"
       transform="translate(591,177)"
       id="path54" />
    <path
       d="M 0,0 C 0.66,0 1.32,0 2,0 2.054236,1.9163522 2.0929,3.8331493 2.125,5.75 2.148203,6.8173437 2.171406,7.8846875 2.195312,8.984375 2.0048769,11.924701 1.526701,13.523619 0,16 c -0.66,0 -1.32,0 -2,0 -2.2932952,4.008528 -2.6651831,7.917446 -3.2421875,12.441406 C -6.1733004,31.585112 -7.4060069,32.133965 -10,34 c -0.688508,2.031657 -0.688508,2.031657 -0.75,4.1875 -0.0825,1.258125 -0.165,2.51625 -0.25,3.8125 -0.66,0 -1.32,0 -2,0 0,0.66 0,1.32 0,2 -0.66,0 -1.32,0 -2,0 -0.33,0.99 -0.66,1.98 -1,3 -2.5625,1.1875 -2.5625,1.1875 -5,2 0,-3.555359 0.841485,-4.619419 2.75,-7.5625 2.144541,-3.45035 3.884343,-6.759959 5.3125,-10.5625 C -11.198497,26.276465 -9.1412403,21.825048 -6,18 c 0.66,0 1.32,0 2,0 0.66,-1.65 1.32,-3.3 2,-5 0.66,0 1.32,0 2,0 C 0,8.71 0,4.42 0,0 Z"
       fill="#c3c3c4"
       transform="translate(468,60)"
       id="path56" />
    <path
       d="M 0,0 C 2.375,-0.125 2.375,-0.125 5,0 5.66,0.66 6.32,1.32 7,2 8.2065625,2.433125 8.2065625,2.433125 9.4375,2.875 12.407013,4.1786885 13.520564,5.1233192 15,8 14.875,10.625 14.875,10.625 14,13 10.149689,15.566874 8.4143024,14.832887 4,14 4,13.34 4,12.68 4,12 3.34,12 2.68,12 2,12 -0.60018816,8.0997178 -0.15085514,4.5256543 0,0 Z"
       fill="#6c6b71"
       transform="translate(425,182)"
       id="path58" />
    <path
       d="M 0,0 C 1.0354051,3.1848935 0.94040666,5.1303187 0.00390625,8.328125 -0.22490234,9.1273438 -0.45371094,9.9265625 -0.68945312,10.75 -0.93630859,11.575 -1.1831641,12.4 -1.4375,13.25 -1.6804883,14.090469 -1.9234766,14.930938 -2.1738281,15.796875 -2.7737395,17.867157 -3.3857082,19.933939 -4,22 c 0.99,0 1.98,0 3,0 -0.33,0.99 -0.66,1.98 -1,3 -0.66,0 -1.32,0 -2,0 0,0.99 0,1.98 0,3 0.66,0 1.32,0 2,0 0.33,0.99 0.66,1.98 1,3 3.3,0 6.6,0 10,0 0,0.99 0,1.98 0,3 1.65,0 3.3,0 5,0 0,0.33 0,0.66 0,1 -6.27,0 -12.54,0 -19,0 -0.33,-0.66 -0.66,-1.32 -1,-2 -0.99,2.475 -0.99,2.475 -2,5 -0.33,0 -0.66,0 -1,0 0.1404288,-1.646303 0.2874933,-3.292042 0.4375,-4.9375 0.1218164,-1.374785 0.1218164,-1.374785 0.2460937,-2.777344 C -8,28 -8,28 -7,27 -6.7243808,24.732134 -6.4802854,22.460417 -6.25,20.1875 -5.4119941,12.861564 -3.2427987,6.6464997 0,0 Z"
       fill="#6d6c71"
       transform="translate(487,190)"
       id="path60" />
    <path
       d="M 0,0 C 1.3084559,3.2711396 0.72583,5.4653011 -0.33203125,8.7382813 -1.5122188,12.734355 -2.2735991,16.836402 -3.1210938,20.914062 -4,24 -4,24 -5.4921875,26.472656 -7.3180583,29.533118 -7.9497485,32.334528 -8.6875,35.8125 -9.0645508,37.554668 -9.0645508,37.554668 -9.4492188,39.332031 -9.6309766,40.212461 -9.8127344,41.092891 -10,42 c -0.33,0 -0.66,0 -1,0 0.368326,-24.982658 0.368326,-24.982658 5,-35 0.99,0 1.98,0 3,0 C -2.690625,6.21625 -2.38125,5.4325 -2.0625,4.625 -1,2 -1,2 0,0 Z"
       fill="#cac9cd"
       transform="translate(443,71)"
       id="path61" />
    <path
       d="m 0,0 c 7.1800373,3.1725746 7.1800373,3.1725746 8.6875,6.1875 0.375,2.875 0.375,2.875 0,6 -4.1052632,4 -4.1052632,4 -6,4 C 2.67332,15.572617 2.659141,14.957734 2.644531,14.324219 2.5968359,13.515977 2.5491406,12.707734 2.5,11.875 2.447793,10.674238 2.447793,10.674238 2.3945313,9.4492188 1.8500941,7.0181319 1.8500941,7.0181319 -0.34375,5.40625 -4.150342,3.8435438 -7.5873738,3.8592784 -11.625,4 c -0.740566,0.013535 -1.481133,0.02707 -2.244141,0.041016 -1.81477,0.035125 -3.629162,0.088925 -5.443359,0.1464844 C -13.551986,-1.7650308 -7.9862233,-1.958885 0,0 Z"
       fill="#717274"
       transform="translate(473.3125,51.8125)"
       id="path62" />
    <path
       d="M 0,0 C 2.31,0.33 4.62,0.66 7,1 7.1933594,2.2181641 7.3867187,3.4363281 7.5859375,4.6914062 7.8487383,6.3151398 8.1117715,7.9388357 8.375,9.5625 8.5013281,10.362363 8.6276562,11.162227 8.7578125,11.986328 9.7164322,17.857874 11.11713,23.35139 13,29 11.68,29.99 10.36,30.98 9,32 7.7107457,28.088043 6.4292398,24.173641 5.1547852,20.256836 4.720373,18.925416 4.283869,17.594677 3.8452148,16.264648 3.2141938,14.350122 2.5913702,12.4329 1.96875,10.515625 1.5916992,9.3635254 1.2146484,8.2114258 0.82617188,7.0244141 0,4 0,4 0,0 Z"
       fill="#373739"
       transform="translate(416,238)"
       id="path63" />
    <path
       d="M 0,0 C 0.33,0.99 0.66,1.98 1,3 0.5565625,3.5839453 0.113125,4.1678906 -0.34375,4.7695312 -3.0733513,8.4454802 -3.328424,12.769364 -4.15625,17.199219 -4.4346875,18.123477 -4.713125,19.047734 -5,20 c -0.99,0.33 -1.98,0.66 -3,1 -0.3572994,1.327112 -0.6832542,2.662629 -1,4 -0.639375,0.99 -1.27875,1.98 -1.9375,3 -2.564866,4.240826 -2.980004,8.668454 -3.570313,13.523437 C -14.670234,42.340703 -14.832656,43.157969 -15,44 c -0.99,0.495 -0.99,0.495 -2,1 0.562639,-9.85589 1.667089,-19.520953 7,-28 0.4125,-1.051875 0.825,-2.10375 1.25,-3.1875 C -6.664493,8.7170992 -3.2397191,4.4113436 0,0 Z"
       fill="#4e4d53"
       transform="translate(473,70)"
       id="path67" />
    <path
       d="M 0,0 C 0,0.33 0,0.66 0,1 -0.74765625,1.0489844 -1.4953125,1.0979687 -2.265625,1.1484375 -3.2504688,1.2232031 -4.2353125,1.2979687 -5.25,1.375 -6.7117969,1.4794141 -6.7117969,1.4794141 -8.203125,1.5859375 -10.896332,1.9846525 -12.669633,2.6350706 -15,4 c 0.33,2.31 0.66,4.62 1,7 6.93,0.495 6.93,0.495 14,1 0.33,1.65 0.66,3.3 1,5 -7.4071181,-0.622722 -14.681941,-1.70488 -22,-3 0.33,-0.99 0.66,-1.98 1,-3 0.06665,-1.3943966 0.08538,-2.7916987 0.0625,-4.1875 C -19.958125,5.554375 -19.97875,4.29625 -20,3 -13.458416,-0.65111665 -7.3612037,-0.29887594 0,0 Z"
       fill="#333436"
       transform="translate(581,153)"
       id="path69" />
    <path
       d="M 0,0 C 0.66,0.66 1.32,1.32 2,2 1.8632812,4.6445312 1.8632812,4.6445312 1.3125,7.8125 1.1436328,8.8501953 0.97476562,9.8878906 0.80078125,10.957031 -0.02683011,14.101954 -1.2612127,16.27559 -3,19 c -0.7067073,2.69255 -0.7067073,2.69255 -1,5 -0.66,0 -1.32,0 -2,0 -0.1327734,0.603281 -0.2655469,1.206562 -0.4023437,1.828125 C -6.5789453,26.627344 -6.7555469,27.426562 -6.9375,28.25 -7.1115234,29.038906 -7.2855469,29.827812 -7.4648437,30.640625 -7.7297461,31.808516 -7.7297461,31.808516 -8,33 -8.1875586,34.075078 -8.1875586,34.075078 -8.3789063,35.171875 -9,37 -9,37 -12,39 c -1.192326,2.05004 -1.192326,2.05004 -2,4 -0.625,-1.875 -0.625,-1.875 -1,-4 0.66,-0.66 1.32,-1.32 2,-2 0.312519,-1.802772 0.551323,-3.618659 0.75,-5.4375 C -11.253072,24.905594 -8.8184354,19.530506 -5,14 -4.34,13.67 -3.68,13.34 -3,13 -2.373308,10.835325 -1.8457263,8.6413548 -1.375,6.4375 -1.1146094,5.2399609 -0.85421875,4.0424219 -0.5859375,2.8085938 -0.39257812,1.8817578 -0.19921875,0.95492187 0,0 Z"
       fill="#3f3e44"
       transform="translate(470,77)"
       id="path72" />
    <path
       d="m 0,0 c 0.33,0 0.66,0 1,0 0.8695192,5.2658082 1.1920719,10.353279 1.1875,15.6875 6.445e-4,0.782944 0.00129,1.565889 0.00195,2.372559 C 2.131261,24.510124 1.3850709,30.692981 0,37 c -0.99,0 -1.98,0 -3,0 -0.1319257,-7.164053 0.2503935,-14.183161 0.9375,-21.3125 0.087012,-0.962285 0.1740234,-1.92457 0.2636719,-2.916016 C -1.3948546,8.4474716 -0.90557534,4.2520814 0,0 Z"
       fill="#f5f4f7"
       transform="translate(502,181)"
       id="path74" />
    <path
       d="M 0,0 C 4.7857505,0.8622101 9.4355602,2.1685277 14.125,3.4375 21.038348,5.2874577 27.915247,6.9333069 35,8 35,8.33 35,8.66 35,9 26.459561,9.599329 19.106692,7.3924889 11,5 11,5.66 11,6.32 11,7 8.03,6.67 5.06,6.34 2,6 1.67,8.97 1.34,11.94 1,15 0.34,15 -0.32,15 -1,15 -2.5170843,4.4419134 -2.5170843,4.4419134 0,0 Z"
       fill="#57565a"
       transform="translate(421,174)"
       id="path76" />
    <path
       d="M 0,0 C 0.66,0 1.32,0 2,0 2.268125,0.804375 2.53625,1.60875 2.8125,2.4375 3.204375,3.283125 3.59625,4.12875 4,5 4.99,5.33 5.98,5.66 7,6 7,10.29 7,14.58 7,19 6.34,18.01 5.68,17.02 5,16 4.67,18.64 4.34,21.28 4,24 3.67,24 3.34,24 3,24 2.67,21.03 2.34,18.06 2,15 1.34,15 0.68,15 0,15 0.33,12.69 0.66,10.38 1,8 -0.32,8 -1.64,8 -3,8 -2.4527632,4.6253728 -1.9451,2.91765 0,0 Z"
       fill="#444346"
       transform="translate(519,159)"
       id="path78" />
    <path
       d="M 0,0 C 3.0769231,5.4153846 3.0769231,5.4153846 2.6875,8.375 2.460625,8.91125 2.23375,9.4475 2,10 1.71125,9.360625 1.4225,8.72125 1.125,8.0625 0.17176549,5.8479392 0.17176549,5.8479392 -2,5 -2.433125,5.86625 -2.433125,5.86625 -2.875,6.75 -3.9166667,8.8333333 -4.9583333,10.916667 -6,13 c -0.33,-0.99 -0.66,-1.98 -1,-3 -2.7710688,2.345919 -3.520593,4.147762 -4.1875,7.6875 -0.237832,1.212363 -0.237832,1.212363 -0.480469,2.449219 C -11.777539,20.751602 -11.887109,21.366484 -12,22 c -0.66,0 -1.32,0 -2,0 0.497348,-6.714194 1.580484,-14.5088713 6.4921875,-19.5234375 C -4.8918506,0.64148479 -3.2117706,0 0,0 Z"
       fill="#4c4b50"
       transform="translate(502,168)"
       id="path81" />
    <path
       d="m 0,0 c 0.33,0.66 0.66,1.32 1,2 -3.6977861,8.320019 -12.44558,12.713589 -20,17 0.66,-1.65 1.32,-3.3 2,-5 0.66,0 1.32,0 2,0 -0.33,-0.99 -0.66,-1.98 -1,-3 0.99,-0.33 1.98,-0.66 3,-1 0,-0.66 0,-1.32 0,-2 2.14281,-1.4658235 4.267064,-2.8112351 6.5,-4.125 C -5.8799609,3.5024609 -5.2599219,3.1299219 -4.6210937,2.7460938 -3.0846216,1.8242105 -1.5427932,0.91126525 0,0 Z"
       fill="#26252b"
       transform="translate(453,124)"
       id="path83" />
    <path
       d="m 0,0 c 0.66,0.33 1.32,0.66 2,1 -1.1958751,5.3814379 -3.4981844,10.110088 -6,15 -0.66,-0.33 -1.32,-0.66 -2,-1 -0.66,0.66 -1.32,1.32 -2,2 -0.99,0 -1.98,0 -3,0 -1.687988,1.437502 -1.687988,1.437502 -3,3 0,-1.32 0,-2.64 0,-4 0.66,0 1.32,0 2,0 0.66,-1.65 1.32,-3.3 2,-5 0.66,0 1.32,0 2,0 0.2475,-0.721875 0.495,-1.44375 0.75,-2.1875 C -5.6160118,5.1360265 -3.6779658,1.8389829 0,0 Z"
       fill="#26252b"
       transform="translate(443,60)"
       id="path85" />
    <path
       d="M 0,0 C 0.33,0 0.66,0 1,0 1,2.31 1,4.62 1,7 1.66,7.33 2.32,7.66 3,8 3.061875,7.4225 3.12375,6.845 3.1875,6.25 4.3265911,3.0955939 6.30168,1.888824 9,0 9.33,0 9.66,0 10,0 10.670818,6.4398562 8.7543024,9.8378342 5,15 3.68,14.34 2.36,13.68 1,13 1,12.01 1,11.02 1,10 0.01,10 -0.98,10 -2,10 -1.5417753,6.5305845 -1.1086832,3.3260495 0,0 Z"
       fill="#aaa9ae"
       transform="translate(485,202)"
       id="path87" />
    <path
       d="M 0,0 C -1.5046362,4.0242342 -3.8505429,5.5206562 -7.4375,7.75 -8.8896289,8.6703906 -8.8896289,8.6703906 -10.371094,9.609375 -13,11 -13,11 -16,11 c 0,-0.99 0,-1.98 0,-3 -1.093125,0.45375 -2.18625,0.9075 -3.3125,1.375 -0.614883,0.2552344 -1.229766,0.5104687 -1.863281,0.773438 C -23.265339,11.068067 -23.265339,11.068067 -26,13 c 0,-1.98 0,-3.96 0,-6 1.01707,-0.1469531 1.01707,-0.1469531 2.054688,-0.296875 C -16.050733,5.4347438 -7.6199332,0 0,0 Z"
       fill="#4b4b51"
       transform="translate(455,121)"
       id="path88" />
    <path
       d="m 0,0 c 0.33,1.32 0.66,2.64 1,4 0.99,0 1.98,0 3,0 0,0.66 0,1.32 0,2 6.204307,1.152672 12.207249,1.1838626 18.5,1.1875 1.672559,0.018369 1.672559,0.018369 3.378906,0.037109 C 31.35327,7.2343967 35.864354,7.1092833 41,5 c 0.99,0 1.98,0 3,0 0,0.66 0,1.32 0,2 C 32.197815,11.264015 16.176239,12.258413 4,9 1.125,6.6875 1.125,6.6875 -1,4 -0.8125,1.6875 -0.8125,1.6875 0,0 Z"
       fill="#111213"
       transform="translate(441,172)"
       id="path89" />
    <path
       d="M 0,0 C 0.99,0 1.98,0 3,0 2.34,6.93 1.68,13.86 1,21 -2,22 -2,22 -3.9804688,21.101562 -9.744697,17.245141 -15.228143,12.909585 -19,7 c -0.214844,-2.7773438 -0.214844,-2.7773438 0,-5 1.143037,1.7145549 2.282305,3.4316683 3.410156,5.15625 C -11.45428,13.022297 -8.0727956,15.604687 -1,17 0.18681726,13.439548 0.09689832,10.561917 0.0625,6.8125 0.05347656,5.5401953 0.04445313,4.2678906 0.03515625,2.9570313 0.02355469,1.9812109 0.01195312,1.0053906 0,0 Z"
       fill="#2c2c31"
       transform="translate(440,187)"
       id="path90" />
    <path
       d="m 0,0 c 9.0932157,-0.38216234 9.0932157,-0.38216234 12.910156,1.6171875 2.833641,3.2272015 3.049601,5.1639796 2.792969,9.3671875 -0.843958,3.412262 -2.833358,5.095364 -5.542969,7.195312 0.165,-0.639375 0.33,-1.278749 0.5,-1.9375 0.659325,-4.038366 0.580038,-7.9805721 0.5,-12.0624995 -2.924604,-1.4623022 -5.556528,-1.2090873 -8.8124997,-1.25 -1.2233204,-0.025781 -2.44664067,-0.051563 -3.7070313,-0.078125 -3.7161775,0.3503467 -5.4768959,1.1956952 -8.4804688,3.328125 -1.3260882,0.6809642 -2.6568662,1.3533059 -4.0000002,2 3.8911722,-6.5943312 3.8911722,-6.5943312 7.5625003,-7.9375 C -4.1836851,0.20412098 -2.0898255,0.13223105 0,0 Z"
       fill="#959597"
       transform="translate(460.83984,54.820312)"
       id="path91" />
    <path
       d="M 0,0 C -0.33,0.99 -0.66,1.98 -1,3 -3.109375,3.9921875 -3.109375,3.9921875 -5.75,4.875 -9.3637487,6.1974783 -10.931986,6.9304043 -13.6875,9.75 -16,12 -16,12 -19.8125,12.3125 -20.864375,12.209375 -21.91625,12.10625 -23,12 c 0.875,-4.75 0.875,-4.75 2,-7 2.511719,-0.5273438 2.511719,-0.5273438 5.6875,-0.9375 C -9.9688883,3.2692085 -5.1463452,0 0,0 Z"
       fill="#4e4d50"
       transform="translate(544,272)"
       id="path92" />
    <path
       d="M 0,0 C 2.97,0.33 5.94,0.66 9,1 9.33,2.65 9.66,4.3 10,6 9.01,6.33 8.02,6.66 7,7 6.67,7.66 6.34,8.32 6,9 2.4354558,10.370979 -1.2335599,10.072432 -5,10 -4.360625,9.278125 -3.72125,8.55625 -3.0625,7.8125 -1.0132646,5.0180882 -0.38667054,3.3833673 0,0 Z"
       fill="#343536"
       transform="translate(565,170)"
       id="path93" />
    <path
       d="M 0,0 C 0.33,1.32 0.66,2.64 1,4 1.66,4 2.32,4 3,4 2.6505456,11.748541 0.80074753,18.336434 -1.9375,25.5625 -2.297793,26.558301 -2.6580859,27.554102 -3.0292969,28.580078 -5.729315,35.864658 -5.729315,35.864658 -8,37 c 0.5764808,-7.35013 2.7104616,-14.014246 5,-21 0.66,0 1.32,0 2,0 0.33,-5.28 0.66,-10.56 1,-16 z"
       fill="#6e6e73"
       transform="translate(588,188)"
       id="path94" />
    <path
       d="m 0,0 c 6.5669497,5.1597462 8.9186674,15.014774 10,23 0.138282,3.023759 0.09618,5.970369 0,9 C 7.2728584,29.272858 7.0428414,26.798342 6.125,23.0625 4.6758695,17.301306 2.9414055,11.795596 0.734375,6.2695312 0,4 0,4 0,0 Z"
       fill="#cacbcc"
       transform="translate(570,87)"
       id="path97" />
    <path
       d="m 0,0 c 7.8822202,0.51599184 15.344583,2.0921453 23,4 0,0.33 0,0.66 0,1 C 21.35,5.33 19.7,5.66 18,6 17.67,6.99 17.34,7.98 17,9 12.203237,8.4875862 9.1353952,7.1518603 5.125,4.5 4.1582031,3.8709375 3.1914063,3.241875 2.1953125,2.59375 1.4708594,2.0678125 0.74640625,1.541875 0,1 0,0.67 0,0.34 0,0 Z"
       fill="#e1e1e4"
       transform="translate(478,274)"
       id="path99" />
    <path
       d="M 0,0 C 0.33,2.64 0.66,5.28 1,8 1.99,8.33 2.98,8.66 4,9 4,9.33 4,9.66 4,10 2.5411989,9.8589225 1.0829645,9.7119759 -0.375,9.5625 -1.5931641,9.4406836 -1.5931641,9.4406836 -2.8359375,9.3164063 -5,9 -5,9 -7,8 c 0,-0.66 0,-1.32 0,-2 -0.99,0 -1.98,0 -3,0 0.33,-1.65 0.66,-3.3 1,-5 3.1964086,-1.06546953 5.6574728,-1.07427838 9,-1 z"
       fill="#3a3b3b"
       transform="translate(452,170)"
       id="path100" />
    <path
       d="m 0,0 c 0,0.66 0,1.32 0,2 -2.64,0 -5.28,0 -8,0 0,0.66 0,1.32 0,2 1.32,0.33 2.64,0.66 4,1 C -4.845625,5.1701562 -5.69125,5.3403125 -6.5625,5.515625 -13.296562,6.9542655 -19.009065,8.5933899 -25,12 c 1.382183,-2.8765948 2.597486,-4.8746993 5,-7 0.556875,-0.515625 1.11375,-1.03125 1.6875,-1.5625 C -12.613254,-0.10527438 -6.4967649,-0.23202732 0,0 Z"
       fill="#101012"
       transform="translate(560,165)"
       id="path101" />
    <path
       d="m 0,0 c 1.98,0.99 3.96,1.98 6,3 0,0.66 0,1.32 0,2 0.66,0 1.32,0 2,0 1.0692454,3.2077361 1.1668496,5.629848 1.1875,9 0.01418,1.051875 0.028359,2.10375 0.042969,3.1875 C 9,20 9,20 7,23 5.5389094,22.744459 4.081119,22.469996 2.625,22.1875 1.8128906,22.03668 1.0007812,21.885859 0.1640625,21.730469 -2,21 -2,21 -4,18 c 0.9075,0.0825 1.815,0.165 2.75,0.25 3.2868728,0.03364 3.2868728,0.03364 5.5625,-1.9375 C 6.2495725,13.657993 7.0806008,12.304631 7,9 4.7084892,6.3750522 4.7084892,6.3750522 2,4 0.6875,1.6875 0.6875,1.6875 0,0 Z"
       fill="#45454b"
       transform="translate(432,181)"
       id="path102" />
    <path
       d="m 0,0 c 1.1166728,3.3500184 0.76286236,5.5925481 0,9 -15.744875,3.444191 -15.744875,3.444191 -23,3 0,-2.64 0,-5.28 0,-8 2,3 2,3 2,5 4.29,0 8.58,0 13,0 0.66,-1.32 1.32,-2.64 2,-4 0.99,-0.33 1.98,-0.66 3,-1 1.685386,-1.9966531 1.685386,-1.9966531 3,-4 z"
       fill="#909096"
       transform="translate(455,112)"
       id="path105" />
    <path
       d="M 0,0 C 1.4783226,2.9566452 1.0603278,5.7422974 1,9 0.67,9 0.34,9 0,9 0,7.35 0,5.7 0,4 -3.774655,5.5406755 -7.2743183,7.1156794 -10.75,9.25 -11.8225,9.8275 -12.895,10.405 -14,11 c -0.99,-0.33 -1.98,-0.66 -3,-1 1.98,-1.32 3.96,-2.64 6,-4 -1.814141,-1.8141405 -4.549591,-1.6350454 -7,-2 0,-0.33 0,-0.66 0,-1 2.624597,-0.5022007 5.249634,-1.0018536 7.875,-1.5 C -9.3786328,1.3569141 -8.6322656,1.2138281 -7.8632812,1.0664062 -2.2265625,0 -2.2265625,0 0,0 Z"
       fill="#505052"
       transform="translate(591,177)"
       id="path106" />
    <path
       d="M 0,0 C -0.6496875,0.8353125 -0.6496875,0.8353125 -1.3125,1.6875 -3.055226,3.9794499 -3.055226,3.9794499 -4.4375,6.5625 -6.1010467,9.1576329 -7.2367926,10.618396 -10,12 c -2.6875,-0.6875 -2.6875,-0.6875 -5,-2 -0.33,-0.66 -0.66,-1.32 -1,-2 1.456668,-1.1479501 2.915389,-2.2932942 4.375,-3.4375 1.218164,-0.9571289 1.218164,-0.9571289 2.4609375,-1.9335937 C -5.8744849,0.15281626 -4.0727508,-0.10717765 0,0 Z"
       fill="#111015"
       transform="translate(542,276)"
       id="path108" />
    <path
       d="M 0,0 C 3,1 3,1 4.5,2.875 9.0168157,12.285033 11.662355,24.564225 11,35 10.34,35.66 9.68,36.32 9,37 8.8008398,35.627148 8.8008398,35.627148 8.5976563,34.226562 8.4210547,33.038047 8.2444531,31.849531 8.0625,30.625 7.8884766,29.441641 7.7144531,28.258281 7.5351562,27.039062 7.1653721,24.092976 7.1653721,24.092976 6,22 5.8709013,20.668849 5.7709245,19.334792 5.6875,18 5.1493384,12.547806 3.1592598,7.9842914 1,3 0.67,2.01 0.34,1.02 0,0 Z"
       fill="#3d3c41"
       transform="translate(546,67)"
       id="path111" />
    <path
       d="M 0,0 C 3.5896381,6.440233 4.6211168,14.701878 4,22 3.34,22.66 2.68,23.32 2,24 -1.18247,16.309031 -1.5921965,9.2907516 -1,1 -0.67,0.67 -0.34,0.34 0,0 Z"
       fill="#696a6e"
       transform="translate(524,174)"
       id="path112" />
    <path
       d="m 0,0 c 0,0.33 0,0.66 0,1 -4.95,0.33 -9.9,0.66 -15,1 -0.33,0.99 -0.66,1.98 -1,3 -2.708793,1.3543967 -5.009333,1.0650145 -8,1 0.66,-0.33 1.32,-0.66 2,-1 0,-0.99 0,-1.98 0,-3 -1.98,0.33 -3.96,0.66 -6,1 0,0.66 0,1.32 0,2 -1.32,0.33 -2.64,0.66 -4,1 0,-0.66 0,-1.32 0,-2 -0.66,-0.66 -1.32,-1.32 -2,-2 11.401617,-2.1142071 22.44536,-2.20923895 34,-2 z"
       fill="#5c5c5e"
       transform="translate(519,33)"
       id="path114" />
    <path
       d="M 0,0 C 0,0.99 0,1.98 0,3 0.04125,3.969375 0.0825,4.93875 0.125,5.9375 0.00205862,8.9495639 -0.44446014,10.472248 -2,13 c -0.66,0 -1.32,0 -2,0 -0.061875,0.61875 -0.12375,1.2375 -0.1875,1.875 C -5,17 -5,17 -7.5625,18.25 -8.366875,18.4975 -9.17125,18.745 -10,19 -9.4869258,14.248792 -8.1984268,11.21759 -5.5625,7.25 -4.9450391,6.3064062 -4.3275781,5.3628125 -3.6914063,4.390625 -2,2 -2,2 0,0 Z"
       fill="#5c5c5f"
       transform="translate(433,63)"
       id="path115" />
    <path
       d="m 0,0 c 4.9724485,0.12852855 9.5004486,1.0019193 13.9375,3.3125 2.622578,3.1143112 3.429071,6.0034998 4,10 -0.99,0.66 -1.98,1.32 -3,2 C 14.579427,13.326823 14.221354,11.341146 13.863281,9.3554688 12.505025,6.3581358 10.906504,5.6679148 7.9375,4.3125 4.3678891,3.527641 4.3678891,3.527641 0.625,3.125 -0.62925781,2.9664453 -1.8835156,2.8078906 -3.1757813,2.6445313 -4.1283984,2.5349609 -5.0810156,2.4253906 -6.0625,2.3125 -3.7101773,-0.03982273 -3.1996967,0.01692961 0,0 Z"
       fill="#4d4d51"
       transform="translate(467.0625,48.6875)"
       id="path116" />
    <path
       d="m 0,0 c 7.2670407,0.04404267 12.718,1.0758252 18.828125,5.265625 1.414419,2.8288375 1.319003,4.873767 1,8 -2,1.875 -2,1.875 -4,3 0.226875,-1.258125 0.45375,-2.51625 0.6875,-3.8125 0.443599,-3.1798212 0.443599,-3.1798212 -0.75,-6.0625 -6.2178286,-3.6103521 -12.9179576,-3.6933776 -19.9375,-4.125 2,-2 2,-2 4.171875,-2.265625 z"
       fill="#5f6062"
       transform="translate(462.17187,50.734375)"
       id="path118" />
    <path
       d="m 0,0 c 2.0507813,0.03255208 4.1015625,0.06510417 6.1523437,0.09765625 0,1.31999995 0,2.64000005 0,3.99999995 1.32,-0.3299999 2.6400001,-0.66 4.0000003,-0.9999999 -0.3300002,1.3199999 -0.6600002,2.6399999 -1.0000002,3.9999999 -1.8124206,0.026873 -3.6249524,0.046337 -5.4375,0.0625 -1.009336,0.011602 -2.0186719,0.023203 -3.0585938,0.035156 -2.5039062,-0.097656 -2.5039062,-0.097656 -3.5039063,-1.0976563 -0.125,-2.4999999 -0.125,-2.4999999 0,-5 C -1.8476562,0.09765625 -1.8476562,0.09765625 0,0 Z"
       fill="#5f5f62"
       transform="translate(524.84766,251.90234)"
       id="path119" />
    <path
       d="m 0,0 c 4.875,0.875 4.875,0.875 6,2 0.66,0 1.32,0 2,0 0.2475,0.7425 0.495,1.485 0.75,2.25 1.341473,2.9512406 2.859055,4.5981497 5.25,6.75 -0.66,0.66 -1.32,1.32 -2,2 -0.33,0.99 -0.66,1.98 -1,3 C 10.67,15.01 10.34,14.02 10,13 9.01,12.67 8.02,12.34 7,12 5.5740156,9.6827754 4.2714383,7.3965603 3,5 2.0052296,3.3302067 1.0073975,1.6622058 0,0 Z"
       fill="#3e3e41"
       transform="translate(439,296)"
       id="path122" />
    <path
       d="M 0,0 C 0.33,0.66 0.66,1.32 1,2 4.8217153,3.9957092 7.575913,4.1354322 11.8125,3.625 12.78832,3.5141406 13.764141,3.4032813 14.769531,3.2890625 15.873613,3.1459766 15.873613,3.1459766 17,3 c 0,0.99 0,1.98 0,3 1.65,0 3.3,0 5,0 0,0.33 0,0.66 0,1 C 15.73,7 9.46,7 3,7 2.67,6.34 2.34,5.68 2,5 1.34,6.65 0.68,8.3 0,10 -0.33,10 -0.66,10 -1,10 -0.67,6.7 -0.34,3.4 0,0 Z"
       fill="#4c4c51"
       transform="translate(479,218)"
       id="path125" />
    <path
       d="M 0,0 C 0.66,0 1.32,0 2,0 2.2049609,0.90363281 2.4099219,1.8072656 2.6210938,2.7382813 2.8905078,3.9177734 3.1599219,5.0972656 3.4375,6.3125 3.8377539,8.0701367 3.8377539,8.0701367 4.2460937,9.8632813 4.9531397,13.00237 4.9531397,13.00237 6,16 4.68,16.99 3.36,17.98 2,19 1.2980562,16.942371 0.61398303,14.87864 -0.0625,12.8125 -0.44535156,11.663945 -0.82820313,10.515391 -1.2226562,9.3320313 -1.9973433,6.0113878 -2.0269892,4.2100748 -1,1 -0.67,0.67 -0.34,0.34 0,0 Z"
       fill="#3f4042"
       transform="translate(423,251)"
       id="path127" />
    <path
       d="M 0,0 C 0,0.99 0,1.98 0,3 -0.7425,2.79375 -1.485,2.5875 -2.25,2.375 -4.9249914,1.8339373 -4.9249914,1.8339373 -7.1875,2.5625 -9.7987857,4.6335197 -10.207129,6.8285172 -11,10 c 0,0.66 0,1.32 0,2 0.66,0.33 1.32,0.66 2,1 -2.3125,0.625 -2.3125,0.625 -5,1 -0.99,-0.66 -1.98,-1.32 -3,-2 0.45375,-0.721875 0.9075,-1.44375 1.375,-2.1875 1.684014,-2.7120975 1.684014,-2.7120975 2.5625,-5.5 C -12,2 -12,2 -10.375,0.6875 -6.8623354,-0.32932398 -3.6509949,-0.12169983 0,0 Z"
       fill="#4f4f54"
       transform="translate(446,155)"
       id="path129" />
    <path
       d="m 0,0 c 0.66,0.33 1.32,0.66 2,1 -1.96608043,4.6565063 -3.5429201,6.6541685 -8,9 -0.33,0.66 -0.66,1.32 -1,2 -1.8476563,0.851563 -1.8476563,0.851563 -4.0625,1.625 -0.733477,0.260391 -1.466953,0.520781 -2.222656,0.789063 C -13.851055,14.607422 -14.416953,14.800781 -15,15 c 1.637762,-4.913285 5.7237663,-8.1983296 10,-11 0.66,0 1.32,0 2,0 0,-0.66 0,-1.32 0,-2 0.99,-0.66 1.98,-1.32 3,-2 z"
       fill="#6e6e72"
       transform="translate(449,48)"
       id="path132" />
    <path
       d="m 0,0 c 0,3.96 0,7.92 0,12 -0.99,0.33 -1.98,0.66 -3,1 -1.2244528,1.629481 -1.2244528,1.629481 -2.1875,3.5625 C -5.785625,17.696875 -6.38375,18.83125 -7,20 c -1.467268,-3.814897 -0.4333642,-6.290116 1,-10 0.66,0 1.32,0 2,0 C -3.951016,9.3619141 -3.902031,8.7238281 -3.8515625,8.0664063 -3.7767969,7.2401172 -3.7020313,6.4138281 -3.625,5.5625 -3.5553906,4.7387891 -3.4857813,3.9150781 -3.4140625,3.0664063 -3.2774219,2.3844922 -3.1407812,1.7025781 -3,1 -1,0 -1,0 0,0 Z"
       fill="#c6c6c9"
       transform="translate(494,180)"
       id="path135" />
    <path
       d="M 0,0 C 0.33,0 0.66,0 1,0 1.082841,1.3530746 1.1400037,2.7077241 1.1875,4.0625 1.222305,4.8166016 1.257109,5.5707031 1.2929687,6.3476562 0.97010282,9.2706692 -0.08858535,11.445838 -1.3029785,14.097412 -2.5162478,17.409148 -2.4940281,20.754675 -2.5625,24.25 -2.7439602,31.61594 -2.7439602,31.61594 -5,35 -4.6316741,10.017342 -4.6316741,10.017342 0,0 Z"
       fill="#9e9da2"
       transform="translate(437,78)"
       id="path136" />
    <path
       d="M 0,0 C 6.27,0.66 12.54,1.32 19,2 18,4 18,4 16.320312,4.6132812 13.479983,5.0866694 10.754496,5.1698127 7.875,5.1875 6.8205469,5.2016797 5.7660937,5.2158594 4.6796875,5.2304687 2,5 2,5 0,3 0,2.01 0,1.02 0,0 Z"
       fill="#212125"
       transform="translate(498,230)"
       id="path138" />
    <path
       d="M 0,0 C 0.12375,1.134375 0.2475,2.26875 0.375,3.4375 0.58125,4.613125 0.7875,5.78875 1,7 1.66,7.33 2.32,7.66 3,8 1.2079345,7.859152 -0.58364917,7.712163 -2.375,7.5625 -3.3727344,7.4812891 -4.3704687,7.4000781 -5.3984375,7.3164062 -8,7 -8,7 -10,6 -9,3 -9,3 -6.125,1.3125 -3,0 -3,0 0,0 Z"
       fill="#343435"
       transform="translate(546,172)"
       id="path139" />
    <path
       d="M 0,0 C 0.66,0.66 1.32,1.32 2,2 1.8632812,4.6445312 1.8632812,4.6445312 1.3125,7.8125 1.1436328,8.8501953 0.97476562,9.8878906 0.80078125,10.957031 -0.02683011,14.101954 -1.2612127,16.27559 -3,19 c -0.7067073,2.69255 -0.7067073,2.69255 -1,5 -0.66,0 -1.32,0 -2,0 -0.33,0.99 -0.66,1.98 -1,3 0.1414899,-1.604556 0.2883569,-3.208638 0.4375,-4.8125 0.081211,-0.89332 0.1624219,-1.786641 0.2460938,-2.707031 C -6,17 -6,17 -5,14 -4.34,13.67 -3.68,13.34 -3,13 -2.373308,10.835325 -1.8457263,8.6413548 -1.375,6.4375 -1.1146094,5.2399609 -0.85421875,4.0424219 -0.5859375,2.8085938 -0.39257812,1.8817578 -0.19921875,0.95492187 0,0 Z"
       fill="#333238"
       transform="translate(470,77)"
       id="path142" />
    <path
       d="M 0,0 C 0.33,0 0.66,0 1,0 1.0489844,1.2297656 1.0979687,2.4595313 1.1484375,3.7265625 1.2235103,5.3593957 1.2990561,6.9922071 1.375,8.625 1.4059375,9.4332422 1.436875,10.241484 1.46875,11.074219 1.8475682,19.03901 1.8475682,19.03901 5.625,25.875 6.07875,26.24625 6.5325,26.6175 7,27 6.67,24.36 6.34,21.72 6,19 c 2.2901365,3.435205 2.1784297,4.985331 2,9 -1.98,0 -3.96,0 -6,0 -1.98960773,-3.318308 -2.2361745,-5.799597 -2.1953125,-9.640625 0.006445,-1.069922 0.0128906,-2.139844 0.0195313,-3.242187 C -0.1590234,14.006016 -0.1422656,12.894844 -0.1249999,11.75 -0.1159769,10.623359 -0.106953,9.4967188 -0.09765615,8.3359375 -0.07410658,5.5570763 -0.0412168,2.7786461 0,0 Z"
       fill="#3b3b3e"
       transform="translate(514,200)"
       id="path143" />
    <path
       d="M 0,0 C 0.33,0 0.66,0 1,0 1.9422013,5.5270861 2.1211615,10.837584 2.0625,16.4375 2.05799,17.264434 2.05348,18.091367 2.048828,18.943359 2.0371581,20.962271 2.0192272,22.981146 2,25 1.67,25 1.34,25 1,25 0.67,22.69 0.34,20.38 0,18 c -0.33,1.65 -0.66,3.3 -1,5 -0.33,0 -0.66,0 -1,0 0.1413473,-2.896115 0.2879153,-5.791808 0.4375,-8.6875 0.039316,-0.816621 0.078633,-1.633242 0.1191406,-2.474609 C -1.23102,7.8034419 -0.95552078,3.9425269 0,0 Z"
       fill="#eae9ec"
       transform="translate(502,181)"
       id="path144" />
    <path
       d="m 0,0 c 0.66,0.33 1.32,0.66 2,1 -1.19899698,3.0831351 -2.47700477,6.0627949 -4,9 0.66,0.66 1.32,1.32 2,2 0,0.99 0,1.98 0,3 -2.64,0.33 -5.28,0.66 -8,1 0,-1.32 0,-2.64 0,-4 0.66,0 1.32,0 2,0 0.1121484,-0.572344 0.2242969,-1.144687 0.3398438,-1.734375 C -4.9277697,7.7521089 -3.8614515,5.9406946 -2.4375,3.75 -1.9824609,3.0435938 -1.5274219,2.3371875 -1.0585937,1.609375 -0.53458984,0.81273437 -0.53458984,0.81273437 0,0 Z"
       fill="#393a3d"
       transform="translate(432,157)"
       id="path145" />
    <path
       d="M 0,0 C 2,1 2,1 3.0351563,3.5625 5.8918116,13.120891 6.7595338,22.068745 7,32 6.34,32 5.68,32 5,32 4.9195947,31.385923 4.8391894,30.771846 4.7563477,30.13916 4.382676,27.300641 4.0038631,24.46283 3.625,21.625 3.4986719,20.659492 3.3723438,19.693984 3.2421875,18.699219 2.397774,12.408338 1.3272842,6.2070554 0,0 Z"
       fill="#28272c"
       transform="translate(549,80)"
       id="path146" />
    <path
       d="M 0,0 C 0.33,0 0.66,0 1,0 1.66,5.61 2.32,11.22 3,17 0,16 0,16 -2,13 -3.1140452,8.9894372 -3.0812478,5.1436398 -3,1 c 0.66,1.32 1.32,2.64 2,4 0.33,-1.65 0.66,-3.3 1,-5 z"
       fill="#5a5a5d"
       transform="translate(518,210)"
       id="path147" />
    <path
       d="M 0,0 C 0.99,0.33 1.98,0.66 3,1 2.67,4.63 2.34,8.26 2,12 c -0.66,0 -1.32,0 -2,0 -0.33,0.99 -0.66,1.98 -1,3 0.66,0 1.32,0 2,0 0,2.97 0,5.94 0,9 C -0.63440175,20.731197 -1.4804395,18.487456 -2.1875,15 -2.3666797,14.154375 -2.5458594,13.30875 -2.7304688,12.4375 -3.003341,9.9697859 -2.7642412,8.3415049 -2,6 c 0.33,0.66 0.66,1.32 1,2 0.33,-2.64 0.66,-5.28 1,-8 z"
       fill="#48484b"
       transform="translate(414,209)"
       id="path148" />
    <path
       d="m 0,0 c 1.98,0 3.96,0 6,0 0,0.99 0,1.98 0,3 2.97,0.495 2.97,0.495 6,1 0,0.33 0,0.66 0,1 C 10.438832,5.3395162 8.8759866,5.6713254 7.3125,6 6.0073242,6.2784375 6.0073242,6.2784375 4.6757812,6.5625 2.0628704,6.9897205 -0.35813038,7.076162 -3,7 -2.01,4.69 -1.02,2.38 0,0 Z"
       fill="#898a8f"
       transform="translate(440,159)"
       id="path149" />
    <path
       d="M 0,0 C 12.408134,-1.070839 12.408134,-1.070839 16.160156,1.453125 17.622768,3.2336956 18.801357,5.0359073 20,7 20.823711,7.7889062 20.823711,7.7889062 21.664062,8.59375 22.104922,9.0578125 22.545781,9.521875 23,10 c -0.3125,2.1875 -0.3125,2.1875 -1,4 -0.66,0 -1.32,0 -2,0 C 19.815664,13.385117 19.631328,12.770234 19.441406,12.136719 17.721928,7.1941154 17.721928,7.1941154 13.976563,3.7695313 11.653434,2.9885477 9.4117499,2.4329819 7,2 6.2935938,1.8723828 5.5871875,1.7447656 4.859375,1.6132812 3.246369,1.3608392 1.6234798,1.1727106 0,1 0,0.67 0,0.34 0,0 Z"
       fill="#2b2b30"
       transform="translate(465,48)"
       id="path150" />
    <path
       d="M 0,0 C 0.33,0.99 0.66,1.98 1,3 0.33677734,3.875918 0.33677734,3.875918 -0.33984375,4.7695312 -2.4824288,7.6481572 -2.8755562,10.182124 -3.5625,13.6875 -3.9793826,15.804887 -4.4444979,17.914686 -5,20 -5.66,20.33 -6.32,20.66 -7,21 -8.3458577,15.953034 -8.759224,13.447541 -6.2851562,8.7304688 -4.271651,5.7473669 -2.2013534,2.8468268 0,0 Z"
       fill="#434348"
       transform="translate(473,70)"
       id="path152" />
    <path
       d="M 0,0 C 0.33,1.32 0.66,2.64 1,4 2.65,4 4.3,4 6,4 5.67,4.99 5.34,5.98 5,7 c -17.826087,3.043478 -17.826087,3.043478 -26,1 0,-0.33 0,-0.66 0,-1 C -10.605,6.505 -10.605,6.505 0,6 0,4.02 0,2.04 0,0 Z"
       fill="#232327"
       transform="translate(520,280)"
       id="path153" />
    <path
       d="M 0,0 C 2.31,0 4.62,0 7,0 7.33,2.64 7.66,5.28 8,8 4.8526282,7.300584 1.9741112,6.239213 -1,5 -0.67,3.35 -0.34,1.7 0,0 Z"
       fill="#5a5b5d"
       transform="translate(572,158)"
       id="path154" />
    <path
       d="m 0,0 c 0.33,0 0.66,0 1,0 0,4.29 0,8.58 0,13 -1.32,0 -2.64,0 -4,0 C -5,10 -5,10 -5,7 -5.61875,6.7525 -6.2375,6.505 -6.875,6.25 -9.3506869,4.7937136 -9.95125,3.6218749 -11,1 c 0.99,0 1.98,0 3,0 0.33,0.99 0.66,1.98 1,3 2.5044752,1.2186993 2.5044752,1.2186993 5,2 0,0.99 0,1.98 0,3 0.66,0 1.32,0 2,0 C 0,6.03 0,3.06 0,0 Z"
       fill="#303132"
       transform="translate(581,136)"
       id="path155" />
    <path
       d="M 0,0 C 3,1 3,1 4.25,2.8125 5.1163774,5.3394341 4.8849214,6.5222199 4,9 3.71125,8.360625 3.4225,7.72125 3.125,7.0625 2.1717655,4.8479392 2.1717655,4.8479392 0,4 -0.28875,4.5775 -0.5775,5.155 -0.875,5.75 -1.9166667,7.8333333 -2.9583333,9.9166667 -4,12 -4.33,11.01 -4.66,10.02 -5,9 -5.99,9.33 -6.98,9.66 -8,10 -6.7597639,6.2792918 -5.0426985,5.3747891 -2,3 -1.34,2.01 -0.68,1.02 0,0 Z"
       fill="#68676d"
       transform="translate(500,169)"
       id="path159" />
    <path
       d="m 0,0 c 8.1355459,-0.48597288 16.603464,0.30173217 24,4 0,0.66 0,1.32 0,2 C 22.395366,5.6899112 20.791308,5.3768371 19.1875,5.0625 18.29418,4.8884766 17.400859,4.7144531 16.480469,4.5351562 14,4 14,4 11,3 8.9410638,2.7767419 6.8776635,2.5929424 4.8125,2.4375 3.1824805,2.3118164 3.1824805,2.3118164 1.5195312,2.1835938 0.68808594,2.1230078 -0.14335937,2.0624219 -1,2 -0.67,1.34 -0.34,0.68 0,0 Z"
       fill="#040406"
       transform="translate(453,167)"
       id="path160" />
    <path
       d="M 0,0 C 0,0.33 0,0.66 0,1 -1.9363704,1.5043569 -3.8741415,2.0033387 -5.8125,2.5 -6.8914453,2.7784375 -7.9703906,3.056875 -9.0820313,3.34375 -12,4 -12,4 -15,4 c -0.2475,0.5775 -0.495,1.155 -0.75,1.75 -1.416833,2.5502997 -3.126275,4.267857 -5.25,6.25 0.6,-5.4 0.6,-5.4 2.125,-7.6875 C -12.655232,-0.04133762 -7.405793,-0.40232678 0,0 Z"
       fill="#2a2a30"
       transform="translate(447,153)"
       id="path161" />
    <path
       d="M 0,0 C -2.5024887,1.6683258 -4.4114919,2.6238167 -7.1875,3.625 -8.2606445,4.0155859 -8.2606445,4.0155859 -9.3554688,4.4140625 -9.8981641,4.6074219 -10.440859,4.8007812 -11,5 c 1.65,0.33 3.3,0.66 5,1 0,0.33 0,0.66 0,1 C -6.5800781,7.060586 -7.1601562,7.1211719 -7.7578125,7.1835937 -12.200929,7.6601656 -16.599054,8.2100867 -21,9 c 2.353852,-3.785577 4.723216,-5.0834237 8.8125,-6.75 1.01707,-0.4279688 2.034141,-0.8559375 3.0820312,-1.296875 C -5.8941402,-0.0324903 -3.3373707,-0.17958945 0,0 Z"
       fill="#1e1d23"
       transform="translate(480,41)"
       id="path164" />
    <path
       d="m 0,0 c -5.625,4 -5.625,4 -9,4 -0.33,0.99 -0.66,1.98 -1,3 -1.75,1.8125 -1.75,1.8125 -4,3 -2.75,-0.8125 -2.75,-0.8125 -5,-2 2.649832,-3.1419441 5.810485,-4.5381979 9.5,-6.25 C -8.3553125,1.2085937 -7.210625,0.6671875 -6.03125,0.109375 -3,-1 -3,-1 0,0 Z"
       fill="#48484c"
       transform="translate(470,40)"
       id="path166" />
    <path
       d="M 0,0 C 0.33,0 0.66,0 1,0 1,1.98 1,3.96 1,6 8.1260258,4.7985413 8.1260258,4.7985413 14.875,2.3125 18.180579,0.92415699 18.787827,0.96403959 22,2 14.919021,5.6045296 7.7618686,7.4164348 0,9 0,6.03 0,3.06 0,0 Z"
       fill="#6d6d72"
       transform="translate(430,120)"
       id="path173" />
    <path
       d="M 0,0 C 1.32,0.33 2.64,0.66 4,1 0.37,4.63 -3.26,8.26 -7,12 -7.33,10.68 -7.66,9.36 -8,8 -5.75,5.4375 -5.75,5.4375 -3,3 -2.484375,2.38125 -1.96875,1.7625 -1.4375,1.125 -0.963125,0.75375 -0.48875,0.3825 0,0 Z"
       fill="#dfdfe0"
       transform="translate(454,63)"
       id="path177" />
    <path
       d="M 0,0 C 1.6056867,0.28317926 3.2095205,0.57687791 4.8125,0.875 6.1524805,1.1186328 6.1524805,1.1186328 7.5195312,1.3671875 10,2 10,2 13,4 12.34,4 11.68,4 11,4 11,4.99 11,5.98 11,7 9.35,7 7.7,7 6,7 6,6.34 6,5.68 6,5 5.195625,4.731875 4.39125,4.46375 3.5625,4.1875 2.716875,3.795625 1.87125,3.40375 1,3 0.67,2.01 0.34,1.02 0,0 Z"
       fill="#141518"
       transform="translate(432,179)"
       id="path178" />
    <path
       d="M 0,0 C 3.7763972,0.51032394 5.4472258,1.2076693 8,4 6.7358175,4.6996544 5.463346,5.3843476 4.1875,6.0625 3.4798047,6.4453516 2.7721094,6.8282031 2.0429688,7.2226562 0,8 0,8 -3,7 -2.01,4.69 -1.02,2.38 0,0 Z"
       fill="#39393a"
       transform="translate(471,172)"
       id="path182" />
    <path
       d="M 0,0 C -3.296843,3.153502 -6.5559932,3.6220876 -10.871094,4.4609375 -13.430329,5.1089641 -15.09759,6.1803031 -17,8 c 0,-1.98 0,-3.96 0,-6 0.759258,-0.1327734 1.518516,-0.2655469 2.300781,-0.4023438 C -13.705352,1.4210547 -12.711484,1.2444531 -11.6875,1.0625 -10.701367,0.88847656 -9.7152344,0.71445313 -8.6992188,0.53515625 -2.2377496,-0.74591652 -2.2377496,-0.74591652 0,0 Z"
       fill="#54545a"
       transform="translate(446,126)"
       id="path183" />
    <path
       d="M 0,0 C 0.33,0 0.66,0 1,0 1,2.31 1,4.62 1,7 1.66,7 2.32,7 3,7 2.67,9.31 2.34,11.62 2,14 -1,14 -1,14 -2.6875,12.625 -4,11 -4,11 -4,9 c 0.66,0 1.32,0 2,0 0,-0.66 0,-1.32 0,-2 0.66,0 1.32,0 2,0 C 0,4.69 0,2.38 0,0 Z"
       fill="#2c2b30"
       transform="translate(419,225)"
       id="path184" />
    <path
       d="m 0,0 c 0,0.33 0,0.66 0,1 -3.2275481,0.6746675 -6.4572693,1.3383057 -9.6875,2 -0.912012,0.1907813 -1.824023,0.3815625 -2.763672,0.578125 -0.88623,0.1804688 -1.772461,0.3609375 -2.685547,0.546875 -1.21756,0.2513672 -1.21756,0.2513672 -2.459717,0.5078125 C -20.100619,5.0153713 -22.470755,5.0629851 -25,5 -19.287764,-0.71223637 -7.6599798,-0.46686107 0,0 Z"
       fill="#a4a5a8"
       transform="translate(454,166)"
       id="path185" />
    <path
       d="m 0,0 c -0.53031138,4.5076467 -2.2522112,7.4195479 -5,11 -0.66,0 -1.32,0 -2,0 C -7.75,8.8125 -7.75,8.8125 -8,6 -4.0454545,0 -4.0454545,0 0,0 Z"
       fill="#37363b"
       transform="translate(440,60)"
       id="path188" />
    <path
       d="M 0,0 C 0.33,0 0.66,0 1,0 1,1.65 1,3.3 1,5 2.98,4.67 4.96,4.34 7,4 6.67,4.99 6.34,5.98 6,7 4.02,7 2.04,7 0,7 0,6.01 0,5.02 0,4 -2.64,4.33 -5.28,4.66 -8,5 -7.34,3.68 -6.68,2.36 -6,1 -5.38125,1.20625 -4.7625,1.4125 -4.125,1.625 -3.073125,1.810625 -3.073125,1.810625 -2,2 -1.34,1.34 -0.68,0.68 0,0 Z"
       fill="#747379"
       transform="translate(496,217)"
       id="path190" />
    <path
       d="M 0,0 C 1.32,0.66 2.64,1.32 4,2 4.7877462,10.035011 4.7877462,10.035011 1.5,14.0625 0.675,14.701875 -0.15,15.34125 -1,16 -0.83628906,15.294883 -0.67257812,14.589766 -0.50390625,13.863281 0.01699824,10.903413 0.09866732,8.1893873 0.0625,5.1875 0.05347656,4.2116797 0.04445313,3.2358594 0.03515625,2.2304688 0.02355469,1.4944141 0.01195312,0.75835937 0,0 Z"
       fill="#8c8c8e"
       transform="translate(472,57)"
       id="path192" />
    <path
       d="M 0,0 C 2.7839183,1.3919591 2.97899,3.1557578 4,6 5.65,5.67 7.3,5.34 9,5 8.8466016,5.6432422 8.6932031,6.2864844 8.5351563,6.9492187 7.8425333,10.897675 7.6419912,14.813189 7.4375,18.8125 7.3943164,19.600762 7.3511328,20.389023 7.3066406,21.201172 7.2012168,23.133942 7.1001691,25.06695 7,27 6.67,27 6.34,27 6,27 6,20.73 6,14.46 6,8 4.68,7.67 3.36,7.34 2,7 1.87625,6.195625 1.7525,5.39125 1.625,4.5625 1.315625,3.2940625 1.315625,3.2940625 1,2 0.34,1.67 -0.32,1.34 -1,1 -0.67,0.67 -0.34,0.34 0,0 Z"
       fill="#2b2b2c"
       transform="translate(520,157)"
       id="path193" />
    <path
       d="M 0,0 C 4.29,0 8.58,0 13,0 11.871936,3.3841925 11.390535,3.6098781 8.5,5.375 5.4644233,7.4044993 5.4644233,7.4044993 4.0625,10.8125 4.041875,11.534375 4.02125,12.25625 4,13 3.34,12.34 2.68,11.68 2,11 2.0625,8.5625 2.0625,8.5625 3,6 5.5,4.3125 5.5,4.3125 8,3 8.33,2.34 8.66,1.68 9,1 6.03,1 3.06,1 0,1 0,0.67 0,0.34 0,0 Z"
       fill="#2e2f32"
       transform="translate(568,181)"
       id="path195" />
    <path
       d="m 0,0 c 0.66,0.33 1.32,0.66 2,1 0,0.66 0,1.32 0,2 -9.496133,3.0214969 -18.16257,3.3370693 -28,3 0,-0.33 0,-0.66 0,-1 1.95293,-0.1817578 1.95293,-0.1817578 3.945313,-0.3671875 C -20.328089,4.4639061 -18.601529,4.294615 -16.875,4.125 -16.019062,4.0463672 -15.163125,3.9677344 -14.28125,3.8867188 -6.5669463,3.4289904 -6.5669463,3.4289904 0,0 Z"
       fill="#040406"
       transform="translate(483,176)"
       id="path200" />
    <path
       d="M 0,0 C 0.66,0 1.32,0 2,0 1.34,3.63 0.68,7.26 0,11 c -0.66,0 -1.32,0 -2,0 -0.268125,0.94875 -0.53625,1.8975 -0.8125,2.875 C -4,17 -4,17 -7,19 c 0.66,-2.64 1.32,-5.28 2,-8 0.66,0 1.32,0 2,0 0,-0.66 0,-1.32 0,-2 0.66,0 1.32,0 2,0 C -1.020625,7.700625 -1.04125,6.40125 -1.0625,5.0625 -1.0839945,3.7083437 -1.071482,2.3524392 -1,1 -0.67,0.67 -0.34,0.34 0,0 Z"
       fill="#a5a4aa"
       transform="translate(458,93)"
       id="path203" />
    <path
       d="m 0,0 c 2.6015625,-0.29296875 2.6015625,-0.29296875 5.625,-0.1875 1.5043359,0.0406055 1.5043359,0.0406055 3.0390625,0.0820313 C 9.4349219,-0.07066406 10.205781,-0.03585938 11,0 c 0.221515,1.7900847 0.426822,3.5821816 0.625,5.375 0.116016,0.9977344 0.232031,1.9954687 0.351563,3.0234375 C 11.984297,9.2569531 11.992031,10.115469 12,11 11.34,11.66 10.68,12.32 10,13 9.67,9.7 9.34,6.4 9,3 4.9819531,2.1590134 1.9819646,1.9459505 -2,3 -1.34,2.01 -0.68,1.02 0,0 Z"
       fill="#cbcbcb"
       transform="translate(457,60)"
       id="path204" />
    <path
       d="M 0,0 C 1.1330859,0.00386719 2.2661719,0.00773437 3.4335938,0.01171875 6.3782454,0.29478764 8.0757307,0.77889045 10.5625,2.3125 c 0,0.66 0,1.32 0,2 C 9.9827441,4.1495142 9.4029883,3.9865283 8.8056641,3.8186035 5.3357688,3.0357244 1.849877,3.2093764 -1.6875,3.25 -2.8051172,3.25677 -2.8051172,3.25677 -3.9453125,3.263672 -5.7760764,3.2754075 -7.6067987,3.2933415 -9.4375,3.3125 -6.7720966,-0.28247465 -4.2904015,-0.06330899 0,0 Z"
       fill="#7d7d7f"
       transform="translate(463.4375,52.6875)"
       id="path205" />
    <path
       d="M 0,0 C 5.7737892,0.4811491 9.9585984,2.1846718 15,5 13.68,6.65 12.36,8.3 11,10 8.474113,7.6370734 7.1117916,6.3353749 6,3 2.9915258,1.7747974 2.9915258,1.7747974 0,1 0,0.67 0,0.34 0,0 Z"
       fill="#555557"
       transform="translate(543,38)"
       id="path206" />
    <path
       d="M 0,0 C 2.31,0.33 4.62,0.66 7,1 7,1.33 7,1.66 7,2 5.35,2.33 3.7,2.66 2,3 1.67,3.99 1.34,4.98 1,6 -4.5384615,5.3846154 -4.5384615,5.3846154 -6.875,3.4375 -7.24625,2.963125 -7.6175,2.48875 -8,2 -5.36,1.67 -2.72,1.34 0,1 0,0.67 0,0.34 0,0 Z"
       fill="#a3a2a6"
       transform="translate(494,277)"
       id="path212" />
    <path
       d="M 0,0 C 1.65,0 3.3,0 5,0 2.5000038,3.4821376 1.1980971,5.1603806 -3,6 -3.99,7.485 -3.99,7.485 -5,9 -5.66,9 -6.32,9 -7,9 -6.8125,6.625 -6.8125,6.625 -6,4 -3.5,2.8125 -3.5,2.8125 -1,2 -0.67,1.34 -0.34,0.68 0,0 Z"
       fill="#28282b"
       transform="translate(528,239)"
       id="path216" />
    <path
       d="M 0,0 C 1.9031888,2.8547833 2.4619099,4.4194131 3.125,7.6875 3.2925781,8.4957422 3.4601562,9.3039844 3.6328125,10.136719 3.7539844,10.751602 3.8751563,11.366484 4,12 2.0859375,11.636719 2.0859375,11.636719 0,11 -1.375,8.8125 -1.375,8.8125 -2,6 -1.125,2.6875 -1.125,2.6875 0,0 Z"
       fill="#444348"
       transform="translate(531,201)"
       id="path217" />
    <path
       d="M 0,0 C 0.33,0 0.66,0 1,0 1.25,6.625 1.25,6.625 -1,10 -2.4610906,9.7444595 -3.918881,9.4699963 -5.375,9.1875 -6.5931641,8.9612695 -6.5931641,8.9612695 -7.8359375,8.7304688 -10,8 -10,8 -12,5 c 0.939727,0.1256836 0.939727,0.1256836 1.898437,0.2539062 1.2258989,0.152754 1.2258989,0.152754 2.476563,0.3085938 1.2181641,0.1566211 1.2181641,0.1566211 2.4609375,0.3164062 C -2.9510081,6.1823733 -2.9510081,6.1823733 -1,5 -0.34444881,2.4726677 -0.34444881,2.4726677 0,0 Z"
       fill="#3c3c41"
       transform="translate(440,194)"
       id="path218" />
    <path
       d="m 0,0 c -2.6707973,3.2107419 -5.9219339,4.5097725 -9.6875,6.1875 -1.179492,0.5298047 -2.358984,1.0596094 -3.574219,1.6054687 C -14.165352,8.1912891 -15.068984,8.5896094 -16,9 -12.915518,1.9583529 -7.6072299,-0.77624795 0,0 Z"
       fill="#040406"
       transform="translate(551,168)"
       id="path220" />
    <path
       d="m 0,0 c 0.66,0.33 1.32,0.66 2,1 -1.28062485,1.7074998 -2.61767557,3.373736 -4,5 -0.66,0 -1.32,0 -2,0 0,0.66 0,1.32 0,2 -2.31,0.33 -4.62,0.66 -7,1 0.33,-0.66 0.66,-1.32 1,-2 0.66,0 1.32,0 2,0 C -8,6.34 -8,5.68 -8,5 -6.3203125,3.6757813 -6.3203125,3.6757813 -4.125,2.3125 -3.4057031,1.8548828 -2.6864063,1.3972656 -1.9453125,0.92578125 -0.98238281,0.46751953 -0.98238281,0.46751953 0,0 Z"
       fill="#38383d"
       transform="translate(448,127)"
       id="path222" />
    <path
       d="M 0,0 C 0.99,0.66 1.98,1.32 3,2 2.649375,2.515625 2.29875,3.03125 1.9375,3.5625 0.71633101,6.1311036 0.71633101,6.1311036 1.5625,9.5625 2,13 2,13 0.6875,14.75 -0.1478125,15.36875 -0.1478125,15.36875 -1,16 -1.66,16.99 -2.32,17.98 -3,19 -2.3767988,12.560254 -1.3599174,6.324276 0,0 Z"
       fill="#58575a"
       transform="translate(413,111)"
       id="path223" />
    <path
       d="M 0,0 C -2.4358974,6.5769231 -2.4358974,6.5769231 -5,8.5 -7,9 -7,9 -10,8 -8.02,6.68 -6.04,5.36 -4,4 -5.8141405,2.1858595 -8.5495905,2.3649546 -11,2 c 0,-0.33 0,-0.66 0,-1 1.4562672,-0.36256858 2.9151119,-0.71479793 4.375,-1.0625 1.2181641,-0.29583984 1.2181641,-0.29583984 2.4609375,-0.59765625 C -2,-1 -2,-1 0,0 Z"
       fill="#404043"
       transform="translate(584,179)"
       id="path225" />
    <path
       d="m 0,0 c 1.8871875,0.061875 1.8871875,0.061875 3.8125,0.125 0.33,1.65 0.66,3.3 1,5 -0.33,-0.99 -0.66,-1.98 -1,-3 -3.43793339,0.1812982 -3.43793339,0.1812982 -7,1 -1.5129429,1.9359703 -1.5129429,1.9359703 -2,4 -0.66,-0.33 -1.32,-0.66 -2,-1 0,-1.32 0,-2.64 0,-4 C -4.0986148,0.06574319 -3.4781407,-0.1140374 0,0 Z"
       fill="#4d4e4e"
       transform="translate(575.1875,155.875)"
       id="path226" />
    <path
       d="M 0,0 C 0.67578125,1.7226562 0.67578125,1.7226562 1,4 -0.14453125,6.1835937 -0.14453125,6.1835937 -1.8125,8.4375 -4.0827423,11.538187 -5.6906414,14.378506 -7,18 -8,16 -8,16 -7.1875,12.5625 -6,9 -6,9 -4,6 c 0.66,0 1.32,0 2,0 0.66,-1.98 1.32,-3.96 2,-6 z"
       fill="#a2a2a5"
       transform="translate(470,70)"
       id="path227" />
    <path
       d="M 0,0 C 1.65,0 3.3,0 5,0 4.67,1.65 4.34,3.3 4,5 3.34,5 2.68,5 2,5 1.67,6.32 1.34,7.64 1,9 0.34,9 -0.32,9 -1,9 -0.67,6.03 -0.34,3.06 0,0 Z"
       fill="#424443"
       transform="translate(565,170)"
       id="path228" />
    <path
       d="M 0,0 C 1,2 1,2 0.0625,5.125 -0.288125,6.07375 -0.63875,7.0225 -1,8 -1.66,8 -2.32,8 -3,8 -3.309375,8.78375 -3.61875,9.5675 -3.9375,10.375 -5,13 -5,13 -6,15 -6.66,15 -7.32,15 -8,15 -6.5119429,9.1965773 -3.4090245,4.8240912 0,0 Z"
       fill="#908f94"
       transform="translate(446,63)"
       id="path230" />
    <path
       d="m 0,0 c 0.66,0.33 1.32,0.66 2,1 0,0.66 0,1.32 0,2 4.62,0 9.24,0 14,0 0,0.33 0,0.66 0,1 -5.28,0 -10.56,0 -16,0 0,1.98 0,3.96 0,6 -0.66,0 -1.32,0 -2,0 0.875,-7.75 0.875,-7.75 2,-10 z"
       fill="#28272d"
       transform="translate(480,222)"
       id="path231" />
    <path
       d="M 0,0 C 0,0.99 0,1.98 0,3 1.65,3 3.3,3 5,3 5,3.33 5,3.66 5,4 0.38,4 -4.24,4 -9,4 -8.67,3.01 -8.34,2.02 -8,1 -5.2373571,0.40267181 -2.8396723,0 0,0 Z"
       fill="#414046"
       transform="translate(496,221)"
       id="path232" />
    <path
       d="M 0,0 C 2.625,1.4375 2.625,1.4375 5,3 4.34,4.65 3.68,6.3 3,8 2.01,7.67 1.02,7.34 0,7 0,6.01 0,5.02 0,4 -0.66,4 -1.32,4 -2,4 -2,3.01 -2,2.02 -2,1 -1.34,0.67 -0.68,0.34 0,0 Z"
       fill="#99989d"
       transform="translate(485,214)"
       id="path233" />
    <path
       d="M 0,0 C 1.27875,0.2475 2.5575,0.495 3.875,0.75 4.9539453,0.95882812 4.9539453,0.95882812 6.0546875,1.171875 8,2 8,2 10,6 7.03,5.01 4.06,4.02 1,3 1,5.31 1,7.62 1,10 0.34,9.67 -0.32,9.34 -1,9 -1.125,2.25 -1.125,2.25 0,0 Z"
       fill="#5b5a5f"
       transform="translate(424,179)"
       id="path234" />
    <path
       d="M 0,0 C -0.33,0.99 -0.66,1.98 -1,3 -7.93,2.505 -7.93,2.505 -15,2 -9.7122302,-0.64388491 -5.7559952,-1.5236458 0,0 Z"
       fill="#545456"
       transform="translate(485,37)"
       id="path235" />
    <path
       d="M 0,0 C 1.32,0 2.64,0 4,0 3.8849034,1.4175056 3.7574634,2.8340117 3.625,4.25 3.5553906,5.0389062 3.4857813,5.8278125 3.4140625,6.640625 2.9849289,9.085877 2.2139936,10.848369 1,13 1,10.36 1,7.72 1,5 0.34,5 -0.32,5 -1,5 -0.67,3.35 -0.34,1.7 0,0 Z"
       fill="#5b5a5e"
       transform="translate(516,167)"
       id="path237" />
    <path
       d="M 0,0 C 0.66,0 1.32,0 2,0 1.7447613,1.6275223 1.4702551,3.252032 1.1875,4.875 1.0366797,5.7799219 0.88585937,6.6848437 0.73046875,7.6171875 0,10 0,10 -3,12 c -1.1923261,2.05004 -1.1923261,2.05004 -2,4 -0.75,-1.6875 -0.75,-1.6875 -1,-4 1.3166566,-1.679872 2.6526303,-3.34466 4,-5 0.8840703,-2.3188728 1.42947818,-4.5752823 2,-7 z"
       fill="#35343a"
       transform="translate(461,104)"
       id="path238" />
    <path
       d="M 0,0 C 3.625,0.375 3.625,0.375 7,1 6.34,2.65 5.68,4.3 5,6 1.535,4.02 1.535,4.02 -2,2 -1.34,1.34 -0.68,0.68 0,0 Z"
       fill="#3f3f42"
       transform="translate(463,322)"
       id="path243" />
    <path
       d="M 0,0 C 0.66,0.33 1.32,0.66 2,1 1.79375,1.78375 1.5875,2.5675 1.375,3.375 1.25125,4.24125 1.1275,5.1075 1,6 1.66,6.66 2.32,7.32 3,8 2.01,8.495 2.01,8.495 1,9 0.34,8.67 -0.32,8.34 -1,8 -1,7.34 -1,6.68 -1,6 -1.99,6 -2.98,6 -4,6 -3.67,4.35 -3.34,2.7 -3,1 -2.01,0.67 -1.02,0.34 0,0 Z"
       fill="#292a2a"
       transform="translate(446,170)"
       id="path245" />
    <path
       d="M 0,0 C 0.66,0.33 1.32,0.66 2,1 1.34,1.66 0.68,2.32 0,3 -0.88778692,4.9648883 -0.88778692,4.9648883 -1.625,7.125 -1.8853906,7.8494531 -2.1457813,8.5739063 -2.4140625,9.3203125 -2.6074219,9.8746094 -2.8007813,10.428906 -3,11 c 1.65,0 3.3,0 5,0 -3,2 -3,2 -5.6875,1.625 C -4.450625,12.41875 -5.21375,12.2125 -6,12 -2.2857143,2.2857143 -2.2857143,2.2857143 0,0 Z"
       fill="#45464b"
       transform="translate(435,156)"
       id="path247" />
    <path
       d="M 0,0 C -3.4208778,1.92992 -5.8891025,2.1149689 -9.828125,2.0039063 -13.271467,1.9977132 -16.594479,2.513497 -20,3 -14.806186,-2.1938144 -6.6700913,-1.0587447 0,0 Z"
       fill="#202024"
       transform="translate(564,164)"
       id="path248" />
    <path
       d="M 0,0 C 2.3667885,2.0613965 3.8281942,3.5091263 4.875,6.5 5.0172328,9.3446563 4.340225,10.548116 3,13 2.4924214,11.586031 1.9942507,10.168683 1.5,8.75 1.0823437,7.5666406 1.0823437,7.5666406 0.65625,6.359375 0,4 0,4 0,0 Z"
       fill="#919294"
       transform="translate(570,87)"
       id="path250" />
    <path
       d="M 0,0 C 0.91007812,0.00902344 1.8201562,0.01804688 2.7578125,0.02734375 3.4564844,0.03894531 4.1551562,0.05054688 4.875,0.0625 c 0,0.66 0,1.32 0,2 -3.63,0.66 -7.26,1.32 -11,2 -0.33,-0.99 -0.66,-1.98 -1,-3 C -4.6002454,-0.19987731 -2.8129953,-0.03606404 0,0 Z"
       fill="#302f33"
       transform="translate(475.125,38.9375)"
       id="path251" />
    <path
       d="M 0,0 C 2,3 2,3 1.609375,5.4453125 1.3257812,6.3296094 1.0421875,7.2139062 0.75,8.125 0.34007812,9.4591797 0.34007812,9.4591797 -0.078125,10.820313 -1,13 -1,13 -3,14 -2.4859483,9.0308336 -1.7661512,4.7097365 0,0 Z"
       fill="#545557"
       transform="translate(583,211)"
       id="path253" />
    <path
       d="M 0,0 C 1.32,0 2.64,0 4,0 6.2568454,5.3600079 7.3626386,9.1977825 7,15 5.2386247,11.74823 4.009446,8.3800074 2.78125,4.9023437 1.9618397,2.7293127 1.9618397,2.7293127 0,0 Z"
       fill="#2c2c31"
       transform="translate(532,213)"
       id="path254" />
    <path
       d="M 0,0 C 1.32,0.33 2.64,0.66 4,1 3.67,2.32 3.34,3.64 3,5 5.64,5.66 8.28,6.32 11,7 7.1627935,7.9593016 5.6478711,8.1519593 2,7 0,4 0,4 0,0 Z"
       fill="#434446"
       transform="translate(565,157)"
       id="path259" />
    <path
       d="M 0,0 C 2,3 2,3 2,5 4.31,5 6.62,5 9,5 8.67,5.99 8.34,6.98 8,8 5.36,8 2.72,8 0,8 0,5.36 0,2.72 0,0 Z"
       fill="#9b9ca1"
       transform="translate(432,116)"
       id="path260" />
    <path
       d="m 0,0 c 0.33,0 0.66,0 1,0 0,2.64 0,5.28 0,8 -0.66,0 -1.32,0 -2,0 0,0.66 0,1.32 0,2 -0.66,0 -1.32,0 -2,0 -0.33,0.99 -0.66,1.98 -1,3 C -4.33,12.34 -4.66,11.68 -5,11 -4.0039062,8.3984375 -4.0039062,8.3984375 -2.5625,5.375 -2.0894141,4.3721094 -1.6163281,3.3692188 -1.1289062,2.3359375 -0.75636719,1.5650781 -0.38382812,0.79421875 0,0 Z"
       fill="#b3b3b7"
       transform="translate(456,94)"
       id="path261" />
    <path
       d="M 0,0 C 0.33,0 0.66,0 1,0 1.3795229,6.1988748 0.8352113,10.447711 -2,16 -3.2697706,12.190688 -2.5207451,10.18381 -1.5625,6.3125 -1.2750391,5.1330078 -0.98757813,3.9535156 -0.69140625,2.7382813 -0.46324219,1.8346484 -0.23507812,0.93101563 0,0 Z"
       fill="#a7a6ab"
       transform="translate(437,78)"
       id="path263" />
    <path
       d="m 0,0 c -1.125,2 -1.125,2 -3,4 -3.1875,0.25 -3.1875,0.25 -6,0 0,-0.99 0,-1.98 0,-3 2.9566452,-1.4783226 5.7422974,-1.06032783 9,-1 z"
       fill="#878689"
       transform="translate(533,278)"
       id="path266" />
    <path
       d="M 0,0 C 0.66,0 1.32,0 2,0 2,2.97 2,5.94 2,9 1.01,9 0.02,9 -1,9 -1.625,5.625 -1.625,5.625 -2,2 -1.34,1.34 -0.68,0.68 0,0 Z"
       fill="#2c2c2f"
       transform="translate(423,251)"
       id="path267" />
    <path
       d="M 0,0 C 0.99,0.33 1.98,0.66 3,1 3,1.66 3,2.32 3,3 2.34,3 1.68,3 1,3 1,9.6 1,16.2 1,23 0.67,23 0.34,23 0,23 0,15.41 0,7.82 0,0 Z"
       fill="#a4a4a8"
       transform="translate(500,173)"
       id="path270" />
    <path
       d="M 0,0 C 1.4137734,2.6390437 2.3724014,5.0712063 3,8 3.66,7.34 4.32,6.68 5,6 5,9.3 5,12.6 5,16 1.1976572,10.93021 -0.38526352,6.3568481 0,0 Z"
       fill="#828284"
       transform="translate(576,109)"
       id="path271" />
    <path
       d="M 0,0 C 0.66,0.33 1.32,0.66 2,1 0.52307692,6.6615385 0.52307692,6.6615385 -2.125,8.375 -2.74375,8.58125 -3.3625,8.7875 -4,9 -3.3846154,3.4615385 -3.3846154,3.4615385 -1.4375,1.125 -0.963125,0.75375 -0.48875,0.3825 0,0 Z"
       fill="#b1b1b4"
       transform="translate(461,85)"
       id="path273" />
    <path
       d="M 0,0 C 0.66,0 1.32,0 2,0 -1.9342105,10.289474 -1.9342105,10.289474 -6,13 -6,9.6226814 -5.5498309,9.0672036 -3.5625,6.5 -1.8025612,4.2135837 -0.93348793,2.8004638 0,0 Z"
       fill="#e5e5e5"
       transform="translate(464,68)"
       id="path274" />
    <path
       d="M 0,0 C 4.875,0.875 4.875,0.875 6,2 6.66,2 7.32,2 8,2 7.4265506,4.8672469 7.1385485,5.8614515 5,8 4.1638282,6.8562364 3.3311354,5.7099286 2.5,4.5625 2.0359375,3.9244141 1.571875,3.2863281 1.09375,2.6289063 0,1 0,1 0,0 Z"
       fill="#5c5c5f"
       transform="translate(439,296)"
       id="path277" />
    <path
       d="M 0,0 C 0.33,1.32 0.66,2.64 1,4 1.66,4 2.32,4 3,4 2.67,7.3 2.34,10.6 2,14 0,12 0,12 -0.1953125,9.1796875 -0.17210937,8.0891406 -0.14890625,6.9985938 -0.125,5.875 -0.10695313,4.7792969 -0.08890625,3.6835938 -0.0703125,2.5546875 -0.04710937,1.7116406 -0.02390625,0.86859375 0,0 Z"
       fill="#5b5a5f"
       transform="translate(588,188)"
       id="path280" />
    <path
       d="M 0,0 C 1.8577676,3.1349829 2.2014048,5.3747143 2,9 1.67,9 1.34,9 1,9 0.67,10.98 0.34,12.96 0,15 -0.33,15 -0.66,15 -1,15 -1.0268541,12.687562 -1.0463284,10.375037 -1.0625,8.0625 -1.0741016,6.7747266 -1.0857031,5.4869531 -1.0976562,4.1601562 -1,1 -1,1 0,0 Z"
       fill="#595a5e"
       transform="translate(524,174)"
       id="path281" />
    <path
       d="M 0,0 C 0.33,0 0.66,0 1,0 1.2358396,5.7780702 0.86783046,10.513248 -1,16 -1.33,16 -1.66,16 -2,16 -2.054498,14.27119 -2.093017,12.541873 -2.125,10.8125 -2.1482031,9.8495703 -2.1714063,8.8866406 -2.1953125,7.8945312 -1.9913544,4.8718722 -1.2687463,2.7323002 0,0 Z"
       fill="#bab9be"
       transform="translate(436,89)"
       id="path283" />
    <path
       d="M 0,0 C 3.6027191,0.97370786 4.7977709,1.6899154 6.875,4.875 8,8 8,8 7.8125,10.3125 7,12 7,12 5,13 4.9742188,12.396719 4.9484375,11.793438 4.921875,11.171875 4.5966802,5.8946466 4.5966802,5.8946466 1.9375,1.4375 1.298125,0.963125 0.65875,0.48875 0,0 Z"
       fill="#3b3b3f"
       transform="translate(477,51)"
       id="path285" />
    <path
       d="M 0,0 C 0.66,0 1.32,0 2,0 2.33,1.65 2.66,3.3 3,5 2.01,5.66 1.02,6.32 0,7 -0.99,6.34 -1.98,5.68 -3,5 c 0,-0.66 0,-1.32 0,-2 0.66,0 1.32,0 2,0 0.33,-0.99 0.66,-1.98 1,-3 z"
       fill="#b5b4b9"
       transform="translate(489,210)"
       id="path286" />
    <path
       d="M 0,0 C 0.99,0.33 1.98,0.66 3,1 3,2.32 3,3.64 3,5 2.01,5.33 1.02,5.66 0,6 -0.33,6.66 -0.66,7.32 -1,8 -1.99,7.67 -2.98,7.34 -4,7 -2.68,4.69 -1.36,2.38 0,0 Z"
       fill="#252726"
       transform="translate(572,171)"
       id="path288" />
    <path
       d="m 0,0 c 0.75,1.625 0.75,1.625 1,4 -1.29327628,2.0261328 -2.6296945,4.0251479 -4,6 -0.7821559,2.72825 -0.7821559,2.72825 -1,5 -0.33,0 -0.66,0 -1,0 0,-2.64 0,-5.28 0,-8 0.66,0 1.32,0 2,0 C -2.690625,6.21625 -2.38125,5.4325 -2.0625,4.625 -1,2 -1,2 0,0 Z"
       fill="#bebdc0"
       transform="translate(443,71)"
       id="path289" />
    <path
       d="M 0,0 C 0.99,0.33 1.98,0.66 3,1 2.0457819,2.1492627 1.0864795,3.2943054 0.125,4.4375 -0.40867187,5.0755859 -0.94234375,5.7136719 -1.4921875,6.3710937 -3,8 -3,8 -5,9 -3.9093133,5.2245461 -3.0916909,2.5295653 0,0 Z"
       fill="#2c2b31"
       transform="translate(477,67)"
       id="path290" />
    <path
       d="m 0,0 c 0,0.33 0,0.66 0,1 -2.64,0.33 -5.28,0.66 -8,1 0,0.66 0,1.32 0,2 -1.32,0.33 -2.64,0.66 -4,1 0,-0.66 0,-1.32 0,-2 -0.66,-0.66 -1.32,-1.32 -2,-2 4.672012,-1.20568053 9.2149629,-1.09382426 14,-1 z"
       fill="#454548"
       transform="translate(499,34)"
       id="path292" />
    <path
       d="m 0,0 c 2.0507813,0.03255208 4.1015625,0.06510417 6.1523437,0.09765625 0,0.66 0,1.31999995 0,2.00000005 -1.98,0.33 -3.9599999,0.66 -5.99999995,1 0,0.66 0,1.3199999 0,1.9999999 -0.99,0.33 -1.97999995,0.66 -3.00000005,1 -0.042721,-1.666119 -0.040638,-3.3338288 0,-5 C -1.8476562,0.09765625 -1.8476562,0.09765625 0,0 Z"
       fill="#535456"
       transform="translate(524.84766,251.90234)"
       id="path293" />
    <path
       d="M 0,0 C 5.75,0.875 5.75,0.875 8,2 8,2.66 8,3.32 8,4 5.69,4 3.38,4 1,4 0.67,2.68 0.34,1.36 0,0 Z"
       fill="#2b2c30"
       transform="translate(498,230)"
       id="path296" />
    <path
       d="M 0,0 C 0.66,0.33 1.32,0.66 2,1 2.5935561,3.6486043 2.7420927,6.2919732 3,9 2.01,8.67 1.02,8.34 0,8 -0.38063221,5.6739143 -0.71269945,3.3394474 -1,1 -0.67,0.67 -0.34,0.34 0,0 Z"
       fill="#646367"
       transform="translate(518,218)"
       id="path297" />
    <path
       d="M 0,0 C 0.33,0 0.66,0 1,0 0.63076923,6.4 0.63076923,6.4 -2.5625,9.4375 -3.7690625,10.210938 -3.7690625,10.210938 -5,11 -5,7.6112149 -4.356388,6.6024278 -2.5625,3.8125 -2.1100391,3.0970703 -1.6575781,2.3816406 -1.1914062,1.6445312 -0.79824219,1.1018359 -0.40507812,0.55914062 0,0 Z"
       fill="#c1c1c5"
       transform="translate(452,98)"
       id="path299" />
    <path
       d="M 0,0 C 0.66,0 1.32,0 2,0 1.125,5.75 1.125,5.75 0,8 -0.66,8 -1.32,8 -2,8 -3,5 -3,5 -1.6875,2.3125 -1.130625,1.549375 -0.57375,0.78625 0,0 Z"
       fill="#e1e1e1"
       transform="translate(444,76)"
       id="path301" />
    <path
       d="M 0,0 C 0.99,0 1.98,0 3,0 3,0.66 3,1.32 3,2 3.99,2.33 4.98,2.66 6,3 7.7058657,4.6265232 9.3777546,6.2900657 11,8 10.67,8.66 10.34,9.32 10,10 8.658266,9.0745629 7.3267984,8.1342259 6,7.1875 5.2575,6.6654297 4.515,6.1433594 3.75,5.6054687 3.1725,5.0756641 2.595,4.5458594 2,4 2,3.01 2,2.02 2,1 1.34,0.67 0.68,0.34 0,0 Z"
       fill="#222327"
       transform="translate(565,135)"
       id="path306" />
    <path
       d="M 0,0 C 0.99,0 1.98,0 3,0 3.33,1.32 3.66,2.64 4,4 2.02,4.66 0.04,5.32 -2,6 -2.33,5.34 -2.66,4.68 -3,4 -1.6875,2 -1.6875,2 0,0 Z"
       fill="#201f24"
       transform="translate(452,51)"
       id="path308" />
    <path
       d="M 0,0 C 0.99,0 1.98,0 3,0 2,3 2,3 0.0390625,4.0195312 -0.75757813,4.2812109 -1.5542187,4.5428906 -2.375,4.8125 -3.1664844,5.0870703 -3.9579688,5.3616406 -4.7734375,5.6445312 -7,6 -7,6 -10,4 -9.3619141,3.7950391 -8.7238281,3.5900781 -8.0664063,3.3789063 -7.2401172,3.1094922 -6.4138281,2.8400781 -5.5625,2.5625 -4.7387891,2.2956641 -3.9150781,2.0288281 -3.0664063,1.7539062 -1.0378041,1.1784451 -1.0378041,1.1784451 0,0 Z"
       fill="#333336"
       transform="translate(541,272)"
       id="path309" />
    <path
       d="M 0,0 C 2.2901365,3.4352048 2.1784297,4.985331 2,9 0.02,9 -1.96,9 -4,9 -4,7.35 -4,5.7 -4,4 -1.525,5.98 -1.525,5.98 1,8 0.67,5.36 0.34,2.72 0,0 Z"
       fill="#444348"
       transform="translate(520,219)"
       id="path311" />
    <path
       d="M 0,0 C 1.6463429,2.9634171 2.5568109,5.6317626 3,9 2.67,9.66 2.34,10.32 2,11 1.34,11 0.68,11 0,11 -0.19491452,9.5426391 -0.38069358,8.0840541 -0.5625,6.625 -0.66691406,5.8128906 -0.77132812,5.0007812 -0.87890625,4.1640625 -1,2 -1,2 0,0 Z"
       fill="#303034"
       transform="translate(578,218)"
       id="path312" />
    <path
       d="M 0,0 C 0.99,0.99 1.98,1.98 3,3 -0.82320557,4.4225881 -3.9128131,5.2404228 -8,5 -5.4400838,2.9886372 -2.954097,1.371545 0,0 Z"
       fill="#272728"
       transform="translate(479,175)"
       id="path315" />
    <path
       d="M 0,0 C 0.66,0.66 1.32,1.32 2,2 0,5 0,5 -2.625,5.6875 -3.800625,5.8421875 -3.800625,5.8421875 -5,6 -4.75,4.125 -4.75,4.125 -4,2 -1.9375,0.75 -1.9375,0.75 0,0 Z"
       fill="#0a0a0e"
       transform="translate(485,179)"
       id="path320" />
    <path
       d="M 0,0 C 2.25,0.25 2.25,0.25 4,1 3,4 3,4 1.1523437,4.9492187 0.42144531,5.1928516 -0.30945313,5.4364844 -1.0625,5.6875 -2.1627148,6.0645508 -2.1627148,6.0645508 -3.2851563,6.4492187 -3.8510547,6.6309766 -4.4169531,6.8127344 -5,7 -3.8687344,3.6062033 -2.7733392,2.2186714 0,0 Z"
       fill="#66666b"
       transform="translate(439,56)"
       id="path324" />
    <path
       d="m 0,0 c 0.66,0.33 1.32,0.66 2,1 0,0.66 0,1.32 0,2 -4.455,1.485 -4.455,1.485 -9,3 0.33,-0.99 0.66,-1.98 1,-3 0.99,0 1.98,0 3,0 0.33,-0.66 0.66,-1.32 1,-2 0.66,-0.33 1.32,-0.66 2,-1 z"
       fill="#2a292d"
       transform="translate(467,41)"
       id="path326" />
    <path
       d="M 0,0 C 0.66,0.33 1.32,0.66 2,1 0.60667426,4.3672039 -0.9789286,5.9859524 -4,8 -4.33,6.35 -4.66,4.7 -5,3 -4.360625,2.87625 -3.72125,2.7525 -3.0625,2.625 -2.0415625,2.315625 -2.0415625,2.315625 -1,2 -0.67,1.34 -0.34,0.68 0,0 Z"
       fill="#212124"
       transform="translate(544,272)"
       id="path327" />
    <path
       d="M 0,0 C 1.5840999,0.11487748 3.1672896,0.24234508 4.75,0.375 6.0725781,0.47941406 6.0725781,0.47941406 7.421875,0.5859375 9.9906638,0.99850055 11.75841,1.7116096 14,3 12.229923,3.0811411 10.458779,3.1392551 8.6875,3.1875 7.7013672,3.2223047 6.7152344,3.2571094 5.6992187,3.2929688 3,3 3,3 1.1445312,1.4882812 0.76683594,0.99714844 0.38914062,0.50601562 0,0 Z"
       fill="#b4b3b8"
       transform="translate(478,274)"
       id="path328" />
    <path
       d="M 0,0 C 2.4375,0.375 2.4375,0.375 5,1 5.33,1.66 5.66,2.32 6,3 3.36,3.33 0.72,3.66 -2,4 -1.34,2.68 -0.68,1.36 0,0 Z"
       fill="#5f5e63"
       transform="translate(490,218)"
       id="path329" />
    <path
       d="M 0,0 C 0.33,0 0.66,0 1,0 1,1.65 1,3.3 1,5 1.99,5 2.98,5 4,5 4.33,3.68 4.66,2.36 5,1 5.125,3.375 5.125,3.375 5,6 4.34,6.66 3.68,7.32 3,8 2.01,8 1.02,8 0,8 0,5.36 0,2.72 0,0 Z"
       fill="#cdccd2"
       transform="translate(498,213)"
       id="path330" />
    <path
       d="M 0,0 C 0.33,0 0.66,0 1,0 0.979375,1.11375 0.95875,2.2275 0.9375,3.375 0.73619282,6.8321592 0.73619282,6.8321592 2,9 0.68,9.33 -0.64,9.66 -2,10 -1.5417753,6.5305845 -1.1086832,3.3260495 0,0 Z"
       fill="#b8b7bc"
       transform="translate(485,202)"
       id="path331" />
    <path
       d="M 0,0 C 0,2.64 0,5.28 0,8 -0.99,7.67 -1.98,7.34 -3,7 -3,5.02 -3,3.04 -3,1 -1,0 -1,0 0,0 Z"
       fill="#222126"
       transform="translate(420,184)"
       id="path332" />
    <path
       d="m 0,0 c 1.6875,1.5625 1.6875,1.5625 3,3 -1.98,0 -3.96,0 -6,0 0,-0.66 0,-1.32 0,-2 -1.98,0 -3.96,0 -6,0 0,-0.33 0,-0.66 0,-1 5.625,-1.125 5.625,-1.125 9,0 z"
       fill="#2c2b2f"
       transform="translate(459,164)"
       id="path333" />
    <path
       d="M 0,0 C 4.401144,0.50298788 6.7119502,2.0877273 10,5 9.67,5.99 9.34,6.98 9,8 8.62875,7.5875 8.2575,7.175 7.875,6.75 5.8889054,4.8014659 5.8889054,4.8014659 2.8125,2.875 1.884375,2.25625 0.95625,1.6375 0,1 0,0.67 0,0.34 0,0 Z"
       fill="#454549"
       transform="translate(472,50)"
       id="path336" />
    <path
       d="M 0,0 C 0.125,3.375 0.125,3.375 0,7 -0.66,7.66 -1.32,8.32 -2,9 -2.66,7.02 -3.32,5.04 -4,3 -1.125,0 -1.125,0 0,0 Z"
       fill="#9c9ba1"
       transform="translate(495,202)"
       id="path341" />
    <path
       d="M 0,0 C 0.66,0 1.32,0 2,0 3,3 3,3 2.2226563,4.8242187 1.1484375,6.5494792 0.07421875,8.2747396 -1,10 -2.467268,6.1851033 -1.4333642,3.7098838 0,0 Z"
       fill="#b7b6bb"
       transform="translate(488,190)"
       id="path342" />
    <path
       d="M 0,0 C 0.66,0 1.32,0 2,0 1.67,2.31 1.34,4.62 1,7 0.67,6.34 0.34,5.68 0,5 -0.66,5 -1.32,5 -2,5 -2.33,5.66 -2.66,6.32 -3,7 -2.3872239,4.0382488 -1.7462748,2.6194122 0,0 Z"
       fill="#3c3c3e"
       transform="translate(519,159)"
       id="path344" />
    <path
       d="M 0,0 C 1.1084492,3.3253476 0.84454356,5.6218257 0,9 -0.99,8.67 -1.98,8.34 -3,8 -1.125,1.125 -1.125,1.125 0,0 Z"
       fill="#7f7e84"
       transform="translate(455,112)"
       id="path346" />
    <path
       d="M 0,0 C -6.2857143,4.4285714 -6.2857143,4.4285714 -10,5 -10.33,4.34 -10.66,3.68 -11,3 -9.7358175,2.3003456 -8.463346,1.6156524 -7.1875,0.9375 -6.4798047,0.55464844 -5.7721094,0.17179687 -5.0429687,-0.22265625 -3,-1 -3,-1 0,0 Z"
       fill="#838384"
       transform="translate(470,40)"
       id="path348" />
    <path
       d="M 0,0 C 1.98,0.495 1.98,0.495 4,1 4.33,2.32 4.66,3.64 5,5 2.03,4.505 2.03,4.505 -1,4 -0.67,2.68 -0.34,1.36 0,0 Z"
       fill="#101113"
       transform="translate(546,40)"
       id="path349" />
    <path
       d="M 0,0 C 2.64,0.33 5.28,0.66 8,1 8,1.99 8,2.98 8,4 5.36,3.34 2.72,2.68 0,2 0,1.34 0,0.68 0,0 Z"
       fill="#0b0c0e"
       transform="translate(564,167)"
       id="path356" />
    <path
       d="M 0,0 C 0.66,0 1.32,0 2,0 1.34,3.63 0.68,7.26 0,11 -0.33,11 -0.66,11 -1,11 -1.0268815,9.3542543 -1.0463412,7.7083859 -1.0625,6.0625 -1.0741016,5.1459766 -1.0857031,4.2294531 -1.0976562,3.2851563 -1,1 -1,1 0,0 Z"
       fill="#9d9ca1"
       transform="translate(458,93)"
       id="path359" />
    <path
       d="M 0,0 C 0.99,0.33 1.98,0.66 3,1 2.360625,1.78375 1.72125,2.5675 1.0625,3.375 -0.98142313,5.7953928 -0.98142313,5.7953928 -2,8 -2.66,8 -3.32,8 -4,8 -3.4007217,4.6440417 -2.1537756,2.6219877 0,0 Z"
       fill="#2f2e34"
       transform="translate(437,63)"
       id="path361" />
    <path
       d="M 0,0 C 1.32,0.66 2.64,1.32 4,2 4,2.99 4,3.98 4,5 3.01,5.66 2.02,6.32 1,7 0.34,5.02 -0.32,3.04 -1,1 -0.67,0.67 -0.34,0.34 0,0 Z"
       fill="#0a090e"
       transform="translate(561,47)"
       id="path362" />
    <path
       d="M 0,0 C 0.33,0.66 0.66,1.32 1,2 1.66,2 2.32,2 3,2 2.67,3.98 2.34,5.96 2,8 0.4375,6.25 0.4375,6.25 -1,4 -0.6875,1.75 -0.6875,1.75 0,0 Z"
       fill="#606063"
       transform="translate(432,279)"
       id="path364" />
    <path
       d="m 0,0 c 1.6008015,4.0020038 0.29279692,7.0455624 -1,11 -0.33,0 -0.66,0 -1,0 C -2.25,3.375 -2.25,3.375 0,0 Z"
       fill="#d1d1d2"
       transform="translate(441,78)"
       id="path369" />
    <path
       d="M 0,0 C 7.75,-0.125 7.75,-0.125 10,1 9.67,1.66 9.34,2.32 9,3 6.525,2.01 6.525,2.01 4,1 4,1.66 4,2.32 4,3 2.68,2.34 1.36,1.68 0,1 0,0.67 0,0.34 0,0 Z"
       fill="#3b3b40"
       transform="translate(541,63)"
       id="path371" />
    <path
       d="M 0,0 C 3.0438672,-0.08226668 5.0717535,0.02391783 8,1 8.33,1.99 8.66,2.98 9,4 5.1790276,3.4693094 2.938286,2.5029843 0,0 Z"
       fill="#292a2c"
       transform="translate(530,260)"
       id="path374" />
    <path
       d="M 0,0 C 1.98,0.99 1.98,0.99 4,2 4,2.66 4,3.32 4,4 3.34,4 2.68,4 2,4 1.67,5.32 1.34,6.64 1,8 0.67,5.36 0.34,2.72 0,0 Z"
       fill="#757476"
       transform="translate(416,238)"
       id="path375" />
    <path
       d="M 0,0 C 2.97,0.495 2.97,0.495 6,1 5.01,1.495 5.01,1.495 4,2 4,2.99 4,3.98 4,5 2.68,4.67 1.36,4.34 0,4 0,2.6666667 0,1.3333333 0,0 Z"
       fill="#0c0d10"
       transform="translate(439,181)"
       id="path377" />
    <path
       d="M 0,0 C 0.66,0 1.32,0 2,0 2,1.65 2,3.3 2,5 1.01,5.33 0.02,5.66 -1,6 -1.625,4.125 -1.625,4.125 -2,2 -1.34,1.34 -0.68,0.68 0,0 Z"
       fill="#111114"
       transform="translate(581,159)"
       id="path379" />
    <path
       d="M 0,0 C 1.485,0.99 1.485,0.99 3,2 3.6875,5.625 3.6875,5.625 4,9 3.525625,8.505 3.05125,8.01 2.5625,7.5 1.240763,5.884578 1.240763,5.884578 0,6 0,4.02 0,2.04 0,0 Z"
       fill="#b2b4b6"
       transform="translate(574,96)"
       id="path380" />
  </g>
</svg>
