<?xml version="1.0" standalone="no"?>
<!DOCTYPE svg PUBLIC "-//W3C//DTD SVG 20010904//EN"
 "http://www.w3.org/TR/2001/REC-SVG-20010904/DTD/svg10.dtd">
<svg version="1.0" xmlns="http://www.w3.org/2000/svg"
 width="500.000000pt" height="500.000000pt" viewBox="0 0 500.000000 500.000000"
 preserveAspectRatio="xMidYMid meet">

<g transform="translate(0.000000,500.000000) scale(0.100000,-0.100000)"
fill="#000000" stroke="none">
<path d="M1565 4445 c-232 -42 -420 -172 -498 -345 -62 -136 -133 -387 -97
-340 9 12 10 7 6 -25 -24 -155 -26 -222 -9 -340 9 -66 17 -150 18 -188 1 -37
4 -70 7 -73 3 -2 4 -18 2 -34 -3 -23 0 -28 12 -23 13 5 15 1 9 -18 -17 -53
-24 -66 -56 -99 -19 -19 -43 -51 -53 -70 -10 -19 -27 -44 -36 -55 -64 -72
-107 -218 -110 -370 -1 -61 -1 -112 0 -115 1 -3 3 -21 4 -40 2 -19 20 -78 41
-130 21 -52 38 -102 39 -110 2 -27 63 -93 78 -85 10 6 10 5 1 -5 -9 -10 -3
-20 30 -48 67 -56 174 -101 298 -126 l113 -23 -45 -31 c-88 -62 -87 -61 -61
-62 33 0 20 -15 -43 -46 -30 -15 -66 -39 -81 -53 l-27 -25 28 -22 c15 -12 70
-39 121 -60 52 -21 92 -40 89 -42 -14 -14 -299 104 -316 130 -4 7 -9 7 -12 1
-4 -6 4 -43 17 -84 113 -352 346 -664 645 -863 572 -380 1231 -349 1763 85
201 165 345 343 453 564 52 107 118 292 109 306 -3 5 -38 26 -77 45 -101 50
-267 146 -267 155 0 3 24 9 53 13 246 32 387 127 492 335 57 113 78 205 79
346 1 172 -24 251 -139 450 -79 135 -96 278 -60 504 20 129 16 319 -9 406
-104 360 -343 572 -695 616 -86 11 -116 10 -223 -4 -68 -10 -145 -22 -173 -27
-226 -42 -288 -51 -420 -56 -126 -6 -175 -3 -305 16 -85 12 -184 29 -220 37
-193 42 -346 52 -475 28z m165 -26 c0 -6 -9 -8 -22 -4 -18 5 -19 4 -8 -4 8 -5
11 -13 7 -17 -3 -4 -14 -1 -24 7 -10 9 -14 9 -10 2 9 -14 -3 -18 -118 -33 -89
-12 -157 -31 -137 -38 10 -3 9 -9 -5 -24 -18 -20 -17 -20 5 -14 30 10 28 -5
-8 -39 -30 -29 -39 -55 -19 -55 6 0 -6 -21 -27 -46 -28 -35 -32 -43 -14 -33
62 38 63 38 77 23 15 -14 10 -34 -8 -34 -6 0 -7 5 -3 11 15 24 -35 -12 -55
-40 -19 -26 -27 -51 -17 -51 2 0 29 11 60 25 148 65 328 85 436 46 92 -32 131
-51 191 -92 104 -70 85 -74 -33 -6 -139 80 -368 99 -526 44 -39 -14 -100 -45
-135 -70 -86 -61 -186 -161 -199 -198 -6 -17 -12 -28 -14 -26 -9 9 28 91 56
127 36 45 38 55 8 39 -18 -10 -20 -9 -14 6 4 12 2 16 -8 12 -13 -5 -13 -1 -5
21 6 14 8 37 4 49 -3 14 3 40 16 66 12 23 15 36 8 30 -16 -15 -33 -17 -24 -3
3 6 1 10 -5 10 -6 0 -4 10 6 25 9 14 22 25 28 25 7 0 23 11 36 25 23 24 30 41
33 76 1 9 10 22 20 29 15 9 18 9 11 -2 -11 -19 25 9 53 40 12 14 33 26 47 28
14 1 38 12 53 24 15 11 37 20 49 18 11 -1 27 2 35 9 20 16 46 21 127 22 45 1
72 -3 72 -10z m-52 -56 c-10 -2 -28 -2 -40 0 -13 2 -5 4 17 4 22 1 32 -1 23
-4z m115 -10 c-18 -2 -48 -2 -65 0 -18 2 -4 4 32 4 36 0 50 -2 33 -4z m370 0
c-7 -2 -19 -2 -25 0 -7 3 -2 5 12 5 14 0 19 -2 13 -5z m90 -10 c-7 -2 -21 -2
-30 0 -10 3 -4 5 12 5 17 0 24 -2 18 -5z m578 -282 c-9 -6 -10 -11 -2 -15 6
-4 11 -13 11 -19 0 -7 -7 -3 -15 7 -15 20 -12 36 8 36 8 0 8 -3 -2 -9z m-21
-31 c0 -5 -2 -10 -4 -10 -3 0 -8 5 -11 10 -3 6 -1 10 4 10 6 0 11 -4 11 -10z
m-25 -30 c-8 -25 11 -51 30 -44 11 5 12 0 3 -24 -7 -17 -20 -33 -29 -35 -24
-7 -30 2 -18 26 7 12 8 22 1 26 -5 3 -8 20 -6 36 3 28 2 29 -12 11 -11 -16
-11 -22 -1 -28 6 -4 7 -8 2 -8 -14 0 -17 -43 -5 -74 7 -20 4 -29 -15 -50 -28
-30 -37 -33 -28 -8 6 15 5 15 -10 3 -25 -20 -32 -6 -12 25 9 15 12 23 6 20 -6
-4 -11 -2 -11 4 0 17 40 93 63 118 26 28 51 30 42 2z m82 0 c14 0 14 -2 0 -18
-10 -10 -15 -21 -12 -24 3 -3 -2 -11 -11 -19 -15 -12 -16 -11 -9 10 6 21 5 23
-14 18 -25 -6 -38 10 -22 26 9 9 11 8 6 -3 -4 -11 2 -15 20 -15 30 0 31 3 8
22 -17 14 -17 14 0 9 10 -3 26 -6 34 -6z m-1139 -192 l47 -13 -75 -5 c-61 -4
-75 -8 -78 -22 -3 -13 3 -18 20 -18 l23 -1 -25 -14 c-16 -9 -20 -14 -9 -15 31
0 17 -30 -15 -31 l-31 -2 29 -4 c16 -3 35 -11 43 -19 8 -8 26 -14 39 -14 14 0
23 -4 20 -9 -3 -4 -38 -6 -78 -3 -114 7 -209 -23 -282 -87 l-29 -26 22 33 c12
17 19 32 14 32 -16 0 -12 44 5 65 9 11 3 8 -14 -7 -44 -40 -49 -34 -15 15 42
62 127 115 223 141 67 18 107 19 166 4z m982 -32 c0 -3 -4 -8 -10 -11 -5 -3
-10 -1 -10 4 0 6 5 11 10 11 6 0 10 -2 10 -4z m407 -89 c7 -4 10 -14 7 -21 -3
-7 2 -16 10 -19 26 -10 18 -24 -31 -58 -27 -18 -69 -52 -95 -76 -54 -49 -67
-53 -60 -18 2 14 -1 31 -7 38 -12 15 1 38 61 104 21 24 38 46 38 51 0 11 60 9
77 -1z m-1793 -137 c-6 -6 -10 -3 -10 10 0 13 4 16 10 10 7 -7 7 -13 0 -20z
m1117 -30 c6 0 7 5 4 10 -3 6 -1 10 4 10 6 0 11 -6 11 -12 0 -10 3 -9 9 1 5 7
14 10 20 7 17 -11 13 -26 -6 -27 -17 -1 -17 -2 0 -6 12 -3 17 -14 17 -38 0
-19 4 -36 10 -40 5 -3 7 -12 3 -20 -3 -9 0 -22 7 -30 7 -8 8 -15 3 -15 -14 0
-27 -118 -15 -133 14 -18 21 -108 11 -135 -6 -16 -6 -29 1 -37 7 -9 6 -21 -5
-41 -16 -31 -21 -119 -6 -110 5 4 6 -5 2 -21 -6 -22 -3 -31 13 -44 17 -14 18
-19 8 -32 -11 -13 -16 -35 -21 -105 -1 -7 -6 -10 -13 -6 -7 5 -9 2 -5 -8 3 -9
-1 -28 -9 -43 -8 -15 -12 -31 -9 -35 6 -9 -14 -59 -24 -61 -35 -6 -66 -2 -64
8 2 9 -6 11 -27 6 -24 -4 -30 -2 -30 11 0 14 -4 15 -20 6 -12 -6 -18 -16 -14
-23 4 -7 4 -9 -1 -5 -4 4 -20 1 -36 -7 -21 -11 -35 -12 -55 -5 -21 8 -31 7
-44 -5 -9 -8 -23 -15 -31 -15 -12 0 -11 -2 1 -10 20 -13 0 -13 -38 1 -36 12
-48 39 -32 68 13 26 35 38 91 50 83 19 99 20 99 9 0 -6 11 -1 25 12 13 12 22
27 19 31 -3 5 2 6 10 3 26 -10 64 103 90 266 26 164 28 229 12 345 -8 60 -13
112 -11 115 2 3 4 30 6 60 3 70 9 88 21 66 5 -9 14 -16 19 -16z m-776 -40 c3
-5 15 -10 25 -10 10 0 22 -4 25 -10 3 -5 0 -7 -9 -4 -17 7 -56 -12 -56 -27 0
-6 13 -8 31 -5 28 4 30 2 27 -22 -5 -46 -71 -39 -91 10 -4 9 -12 5 -25 -11
-29 -36 -52 -22 -49 28 1 21 5 37 9 35 4 -2 10 1 13 7 4 5 14 8 22 5 8 -3 11
-1 8 4 -4 6 8 10 29 10 19 0 38 -4 41 -10z m1509 -32 c-16 -13 -31 -27 -33
-32 -8 -19 -71 -76 -83 -76 -7 0 -2 9 11 19 16 12 20 21 12 25 -8 5 -8 13 -1
27 6 11 15 17 20 14 5 -3 12 0 16 6 6 11 61 38 78 39 5 0 -4 -10 -20 -22z m48
-70 c-6 -6 -22 -8 -36 -4 -23 6 -24 9 -14 26 17 26 52 30 56 6 2 -10 -1 -23
-6 -28z m-1015 -30 c-3 -8 -6 -5 -6 6 -1 11 2 17 5 13 3 -3 4 -12 1 -19z
m-894 -82 c58 -55 103 -87 174 -123 l95 -48 147 0 c136 0 151 2 224 29 43 15
80 26 83 23 9 -9 -154 -66 -223 -78 -118 -21 -265 8 -372 73 -71 43 -154 113
-183 155 -16 24 -28 43 -26 43 2 0 38 -33 81 -74z m932 -30 c15 -11 17 -22 12
-77 -6 -68 -73 -258 -121 -339 -32 -56 -32 -60 -1 -60 16 0 25 6 25 15 0 8 4
15 9 15 5 0 28 38 50 84 23 46 50 91 61 101 19 17 19 17 16 -16 -2 -19 -9 -47
-15 -63 -6 -16 -10 -31 -7 -33 2 -2 12 16 22 41 20 48 33 59 35 29 0 -15 2
-15 9 2 15 34 11 -6 -5 -59 -8 -27 -15 -59 -14 -70 1 -18 2 -18 9 4 7 20 8 21
9 5 1 -29 -25 -59 -44 -51 -9 3 -14 2 -10 -3 3 -5 -7 -19 -22 -30 -22 -18 -39
-21 -102 -20 -42 0 -90 -4 -108 -9 -26 -8 -33 -7 -37 5 -6 14 -9 14 -26 -2
-29 -27 -24 -3 5 25 14 13 25 34 25 46 0 13 5 26 10 29 6 3 10 14 10 24 0 10
8 29 19 42 24 31 39 95 20 83 -12 -6 -12 -5 -1 8 15 18 5 51 -12 41 -6 -4 -13
-8 -16 -8 -3 -1 -23 -12 -45 -25 -22 -14 -44 -25 -50 -25 -5 0 -41 -11 -80
-24 -77 -25 -315 -43 -285 -22 9 6 33 8 57 5 108 -16 297 52 411 148 26 22 63
48 83 58 48 25 69 71 70 157 1 61 2 64 8 25 4 -23 16 -48 26 -56z m-130 -5 c3
-5 0 -13 -6 -17 -7 -4 -9 -3 -5 4 3 5 0 13 -6 15 -9 4 -10 6 -1 6 6 1 14 -3
18 -8z m-876 -61 c23 -27 48 -50 54 -50 14 0 46 -33 71 -71 15 -24 15 -27 1
-33 -9 -3 -14 -10 -11 -14 3 -5 -22 5 -54 21 -38 19 -57 34 -51 40 12 12 2 38
-23 59 -23 18 -43 13 -27 -6 6 -7 8 -16 4 -19 -3 -4 -1 -7 5 -7 7 0 12 -4 12
-10 0 -5 -7 -10 -16 -10 -13 0 -14 -3 -4 -15 10 -11 9 -18 -3 -30 -19 -18 -39
-19 -56 -2 -11 10 -14 9 -18 -1 -3 -7 -15 -23 -27 -34 -11 -12 -14 -17 -6 -12
8 4 -2 -12 -23 -36 -21 -25 -44 -45 -50 -45 -7 -1 -11 -7 -9 -14 2 -8 -2 -27
-7 -43 -11 -32 1 -70 20 -65 6 1 13 -8 15 -20 4 -24 -11 -32 -19 -10 -4 9 -7
9 -16 0 -6 -7 -8 -11 -5 -8 9 6 34 -14 34 -28 0 -6 -3 -7 -7 -3 -9 9 -43 -61
-43 -88 0 -17 2 -18 9 -6 6 8 7 18 5 22 -3 4 6 19 20 33 13 13 27 32 30 42 4
10 18 27 33 37 l27 20 -33 -60 c-17 -32 -26 -51 -19 -40 7 10 38 45 68 78 42
45 68 64 110 79 50 17 51 19 15 13 -22 -3 -57 -14 -78 -24 -21 -11 -34 -13
-28 -6 36 43 222 89 253 61 8 -7 9 -6 4 3 -4 7 -1 12 8 12 9 0 16 -4 16 -9 0
-11 64 -33 97 -33 13 0 26 -4 29 -9 3 -5 13 -9 22 -9 12 0 7 6 -13 20 -36 24
-26 26 16 4 24 -12 28 -18 19 -29 -8 -10 -7 -17 5 -29 24 -23 36 -20 29 9 -5
19 -2 25 10 25 9 0 19 -7 22 -15 3 -8 21 -23 40 -35 20 -11 33 -24 30 -29 -3
-5 4 -11 16 -14 12 -4 19 -9 16 -13 -4 -3 2 -15 12 -27 11 -11 17 -23 15 -27
-3 -5 2 -11 11 -14 9 -3 14 -13 10 -21 -3 -8 3 -19 13 -25 10 -5 24 -29 30
-54 15 -61 14 -89 -3 -51 l-13 30 -7 -40 c-4 -21 -10 -66 -12 -98 -5 -69 -26
-107 -56 -102 -19 4 -19 3 -4 -14 9 -9 16 -21 16 -26 0 -5 -6 0 -14 10 -12 16
-16 17 -30 6 -9 -7 -14 -17 -11 -21 3 -5 -15 -28 -40 -51 -25 -23 -45 -49 -45
-58 0 -9 9 -3 23 16 12 18 26 33 31 33 5 0 15 8 22 17 7 10 15 15 19 11 4 -4
-9 -21 -29 -38 -20 -18 -36 -38 -36 -44 0 -19 -132 -101 -143 -89 -4 3 -24 -2
-47 -11 -45 -18 -135 -22 -145 -6 -4 6 11 10 37 10 24 0 50 4 57 9 10 6 -21
11 -90 13 -57 2 -112 7 -121 12 -13 6 -18 4 -18 -7 0 -17 -15 -17 -46 1 -12 6
-25 8 -29 4 -3 -4 -5 -1 -3 7 2 7 -3 16 -11 19 -8 3 -11 0 -7 -7 5 -7 1 -9 -8
-5 -9 3 -14 9 -11 14 11 19 -24 43 -65 45 -38 1 -44 5 -57 35 l-14 34 26 -24
c14 -13 25 -20 25 -15 0 10 -53 61 -69 66 -7 3 -9 12 -6 22 6 13 11 14 27 6
18 -10 18 -9 8 10 -6 12 -21 67 -35 124 -13 56 -24 94 -24 85 -1 -22 -21 -24
-21 -3 0 8 -5 15 -11 15 -5 0 -7 -4 -4 -10 3 -5 1 -10 -4 -10 -12 0 -15 28
-11 105 2 45 11 82 35 139 7 16 6 17 -14 7 -22 -12 -22 -12 -7 24 9 20 36 61
62 91 46 54 51 73 7 32 -13 -12 -23 -17 -23 -12 0 5 18 24 40 43 22 19 40 38
40 43 0 18 55 78 72 78 23 0 39 53 32 104 -4 25 -2 52 5 62 9 17 10 17 11 -6
1 -23 2 -23 10 -5 5 11 9 16 9 10 1 -5 19 -11 41 -12 37 -2 40 -1 30 17 -26
49 -1 39 49 -20z m939 4 c-8 -9 -40 -17 -74 -20 -42 -3 -53 -2 -39 5 11 5 36
10 56 10 20 1 42 8 49 16 7 9 15 13 18 10 3 -3 -1 -12 -10 -21z m1319 -60 c-3
-3 -12 -4 -19 -1 -8 3 -5 6 6 6 11 1 17 -2 13 -5z m-1157 -129 c0 -8 -4 -15
-10 -15 -5 0 -7 7 -4 15 4 8 8 15 10 15 2 0 4 -7 4 -15z m-905 -14 c-3 -5 4
-12 15 -16 11 -4 18 -10 15 -15 -3 -5 1 -10 7 -13 7 -2 10 -8 6 -12 -11 -11
-60 24 -52 37 5 8 1 9 -12 5 -18 -7 -18 -7 0 8 23 17 30 19 21 6z m2330 -90
c-7 -12 31 -25 45 -16 15 9 50 -4 50 -19 0 -6 16 -18 36 -25 24 -9 32 -16 26
-24 -15 -19 -4 -64 37 -146 48 -98 57 -131 35 -131 -13 0 -14 -3 -5 -13 6 -8
8 -16 5 -20 -3 -3 -6 -27 -6 -53 0 -27 -3 -53 -6 -59 -4 -5 -7 -16 -8 -23 -1
-7 -14 -28 -28 -46 -14 -19 -23 -36 -21 -38 8 -8 -88 -102 -115 -114 -42 -19
-135 -44 -165 -44 -23 0 -26 2 -15 15 11 13 8 14 -17 9 -24 -5 -35 -1 -51 17
-13 13 -33 22 -51 22 -17 0 -28 4 -25 9 7 10 -17 10 -34 -1 -10 -6 -1 -14 30
-30 36 -18 38 -21 13 -16 -16 4 -46 17 -66 31 -48 33 -62 30 -21 -5 22 -19 30
-31 22 -36 -6 -4 -18 -1 -27 7 -14 11 -16 11 -9 -1 6 -9 5 -12 -5 -9 -8 3 -13
11 -11 17 1 7 -2 10 -7 7 -5 -3 -22 1 -37 9 -16 8 -25 15 -19 15 5 0 4 5 -3
12 -16 16 -15 28 3 28 23 0 18 16 -12 39 -16 11 -23 21 -16 21 7 0 9 9 5 22
-5 20 -6 20 -12 3 -5 -16 -9 -13 -28 17 -12 19 -22 43 -22 52 0 9 -7 27 -15
40 -14 21 -14 24 -1 29 8 3 17 1 20 -6 2 -7 2 15 -1 48 -8 99 28 197 97 263
55 53 73 67 105 81 17 7 42 20 57 27 14 8 43 15 65 15 34 2 35 2 8 7 -26 4
-28 5 -10 12 28 12 218 12 210 1z m-1561 -189 c3 -5 -8 -6 -24 -4 -33 5 -93
-23 -151 -69 -20 -16 -40 -25 -44 -21 -5 4 -5 2 -2 -5 4 -6 2 -17 -5 -25 -7
-7 -14 -35 -16 -62 -3 -69 -18 -92 -27 -43 -7 36 -5 51 10 92 6 15 5 17 -3 10
-7 -6 -21 -35 -32 -65 l-20 -55 6 45 c15 113 132 208 256 210 26 0 49 -4 52
-8z m36 -17 c0 -8 -4 -15 -10 -15 -5 0 -10 7 -10 15 0 8 5 15 10 15 6 0 10 -7
10 -15z m-1413 -217 c-3 -8 -6 -5 -6 6 -1 11 2 17 5 13 3 -3 4 -12 1 -19z
m1551 -246 c10 -7 11 -19 2 -57 -6 -26 -11 -63 -12 -81 -1 -36 1 -35 -88 -54
-74 -16 -130 -36 -225 -81 -92 -43 -281 -109 -313 -109 -31 0 -27 21 11 56 62
58 121 95 102 64 -17 -27 20 -4 81 53 78 71 148 127 160 127 4 0 15 6 23 13
18 16 106 44 162 53 21 4 36 10 33 15 -7 11 47 12 64 1z m256 -112 c4 -41 3
-50 -4 -38 -6 10 -13 42 -16 70 -4 35 -2 48 4 38 5 -8 12 -40 16 -70z m936 16
c0 -2 -13 -6 -29 -8 -17 -2 -28 -1 -25 4 5 8 54 12 54 4z m-2510 -16 c0 -5 -7
-7 -15 -4 -8 4 -15 8 -15 10 0 2 7 4 15 4 8 0 15 -4 15 -10z m825 -104 c-16
-13 -66 -43 -110 -66 -63 -32 -74 -36 -50 -16 26 23 171 105 185 106 3 0 -8
-11 -25 -24z m593 -216 c5 -47 -16 -60 -99 -60 -122 0 -148 13 -135 65 8 33
45 41 148 35 l83 -5 3 -35z m260 29 c32 -11 47 -35 37 -61 -7 -18 -140 -32
-195 -20 -31 7 -35 12 -38 41 -2 20 2 37 10 42 19 12 150 11 186 -2z m-552
-41 l-1 -43 -43 -3 c-51 -4 -74 12 -70 47 3 27 27 38 84 40 30 1 31 0 30 -41z
m759 -2 c15 -25 -18 -46 -71 -46 -52 0 -59 9 -40 54 l14 34 43 -12 c24 -7 48
-21 54 -30z m-896 1 c11 -16 10 -20 -5 -33 -29 -22 -68 -14 -72 15 -6 42 49
55 77 18z m934 -22 c-3 -9 -8 -14 -10 -11 -3 3 -2 9 2 15 9 16 15 13 8 -4z
m-1446 -77 c-2 -18 -4 -6 -4 27 0 33 2 48 4 33 2 -15 2 -42 0 -60z m-59 -170
c-3 -50 -4 -48 -13 32 -5 47 -11 76 -13 65 -7 -36 -22 -41 -22 -7 0 21 5 32
14 32 8 0 18 8 22 18 10 20 17 -59 12 -140z m326 80 c-3 -4 -39 -8 -80 -8 -41
0 -73 3 -70 8 2 4 38 8 80 8 41 0 73 -3 70 -8z m-493 -164 c92 -32 326 -91
433 -109 21 -3 36 -9 33 -12 -16 -16 -374 64 -476 106 -41 17 -82 31 -92 31
-10 0 -21 5 -24 10 -11 17 18 11 126 -26z m741 -36 c14 -11 14 -17 2 -45 -11
-27 -20 -33 -43 -33 -60 0 -70 14 -51 64 8 21 16 26 43 26 18 0 40 -6 49 -12z
m998 2 c0 -16 -33 -29 -51 -19 -11 6 -17 5 -16 -4 2 -57 -16 -78 -27 -33 -11
46 5 61 72 65 12 0 22 -3 22 -9z m-857 -27 c12 -7 8 -61 -5 -65 -7 -3 -34 -3
-60 0 -44 4 -48 6 -48 31 0 40 18 53 65 45 22 -3 43 -8 48 -11z m733 -18 c-3
-9 -9 -14 -13 -12 -5 3 -13 -1 -20 -8 -10 -11 -10 -15 0 -18 7 -3 -7 -6 -29
-6 -30 -1 -44 4 -48 15 -13 34 -6 43 47 51 56 10 73 4 63 -22z m-570 -10 c13
-10 14 -14 5 -15 -11 0 -11 -3 0 -17 8 -9 9 -14 2 -10 -6 4 -13 2 -15 -4 -2
-7 -22 -8 -56 -3 -41 5 -52 10 -52 25 0 37 78 53 116 24z m415 -6 c27 -27 16
-36 -51 -41 -53 -3 -55 -2 -58 24 -2 19 2 28 15 31 42 11 74 6 94 -14z m-287
-11 c9 -12 16 -26 16 -30 0 -5 -27 -8 -60 -8 -57 0 -60 1 -60 24 0 27 11 34
57 35 22 1 37 -6 47 -21z m154 -10 c3 -28 3 -28 -57 -28 -52 0 -61 3 -61 18 0
30 22 43 70 40 41 -3 45 -6 48 -30z m-893 -36 c-3 -3 -11 0 -18 7 -9 10 -8 11
6 5 10 -3 15 -9 12 -12z m142 12 c-3 -3 -12 -4 -19 -1 -8 3 -5 6 6 6 11 1 17
-2 13 -5z m148 -36 c23 0 328 -40 333 -44 2 -1 1 -12 -3 -23 -7 -24 -35 -29
-35 -6 0 8 -4 15 -10 15 -5 0 -10 -5 -10 -11 0 -6 -7 -9 -15 -6 -8 4 -17 2
-20 -3 -4 -6 -16 -10 -29 -10 -31 0 -180 46 -233 71 -46 22 -58 36 -20 24 12
-4 31 -7 42 -7z m425 -53 c0 -2 -3 -10 -6 -19 -5 -12 -9 -13 -25 -3 -26 16
-24 25 6 25 14 0 25 -2 25 -3z m-148 -294 c-18 -11 43 -21 99 -15 37 3 39 2
17 -5 -15 -5 -35 -16 -44 -25 -8 -9 -21 -16 -28 -16 -7 0 -24 -9 -37 -21 -18
-15 -20 -22 -10 -28 8 -5 -4 -13 -36 -21 -26 -7 -60 -20 -74 -28 -45 -26 -94
15 -54 44 10 8 15 14 10 14 -5 0 -17 -7 -27 -17 -10 -9 -21 -13 -25 -9 -4 4 6
18 22 32 27 22 27 24 5 13 -23 -11 -24 -11 -11 4 20 25 77 58 124 73 49 15 89
18 69 5z"/>
<path d="M2216 2741 c19 -18 34 -19 34 0 0 6 -4 7 -10 4 -5 -3 -10 -1 -10 4 0
6 -8 11 -17 11 -15 0 -14 -2 3 -19z"/>
<path d="M1337 3025 c3 -8 9 -12 14 -9 12 7 11 11 -5 17 -10 4 -13 1 -9 -8z"/>
<path d="M1735 2480 c-3 -5 1 -10 10 -10 9 0 13 5 10 10 -3 6 -8 10 -10 10 -2
0 -7 -4 -10 -10z"/>
<path d="M1767 2327 c-3 -7 -2 -19 3 -26 5 -10 8 -9 13 2 3 7 2 19 -3 26 -5
10 -8 9 -13 -2z"/>
<path d="M3620 2860 c-16 -6 -6 -7 30 -3 30 3 57 7 59 9 8 7 -64 2 -89 -6z"/>
<path d="M742 2450 c0 -19 2 -27 5 -17 2 9 2 25 0 35 -3 9 -5 1 -5 -18z"/>
</g>
</svg>
