<?xml version="1.0" standalone="no"?>
<!DOCTYPE svg PUBLIC "-//W3C//DTD SVG 20010904//EN"
 "http://www.w3.org/TR/2001/REC-SVG-20010904/DTD/svg10.dtd">
<svg version="1.0" xmlns="http://www.w3.org/2000/svg"
 width="500.000000pt" height="500.000000pt" viewBox="0 0 500.000000 500.000000"
 preserveAspectRatio="xMidYMid meet">

<g transform="translate(0.000000,500.000000) scale(0.100000,-0.100000)"
fill="#000000" stroke="none">
<path d="M3060 4730 c0 -5 7 -10 15 -10 8 0 15 5 15 10 0 6 -7 10 -15 10 -8 0
-15 -4 -15 -10z"/>
<path d="M2455 4669 c-4 -6 -5 -13 -2 -16 7 -7 27 6 27 18 0 12 -17 12 -25 -2z"/>
<path d="M3358 4653 c7 -3 16 -2 19 1 4 3 -2 6 -13 5 -11 0 -14 -3 -6 -6z"/>
<path d="M3551 4646 c2 -2 14 -9 27 -15 17 -9 22 -9 22 1 0 8 -12 15 -27 16
-14 1 -25 0 -22 -2z"/>
<path d="M2580 4610 c0 -5 4 -10 9 -10 6 0 13 5 16 10 3 6 -1 10 -9 10 -9 0
-16 -4 -16 -10z"/>
<path d="M3453 4613 c-13 -2 -23 -8 -23 -12 0 -5 11 -6 25 -3 14 2 25 8 25 13
0 5 -1 8 -2 8 -2 -1 -13 -4 -25 -6z"/>
<path d="M3394 4601 c3 -5 -1 -14 -9 -21 -8 -7 -15 -21 -15 -30 0 -10 -6 -20
-12 -23 -7 -2 -10 -7 -7 -11 3 -3 20 12 38 34 30 37 34 60 10 60 -6 0 -8 -4
-5 -9z"/>
<path d="M3642 4563 c5 -6 16 -9 24 -6 19 7 54 -25 54 -50 0 -16 -2 -17 -15
-7 -21 18 -32 4 -13 -17 24 -28 29 -61 10 -65 -22 -4 -61 34 -86 84 -13 26
-29 44 -41 46 -17 2 -18 1 -5 -10 21 -18 42 -58 31 -58 -5 0 -14 7 -21 15 -7
8 -20 15 -29 15 -14 -1 -14 -2 2 -11 9 -5 17 -18 17 -28 0 -10 9 -30 21 -45
15 -19 16 -24 5 -20 -9 3 -16 10 -16 15 0 23 -29 5 -35 -22 -4 -18 -16 -35
-30 -41 -13 -6 -26 -18 -29 -27 -3 -9 -5 0 -4 19 0 51 -1 57 -12 40 -5 -8 -10
-27 -10 -42 0 -15 -4 -30 -10 -33 -6 -3 -7 1 -4 9 3 9 3 23 0 32 -5 13 -9 14
-21 4 -7 -6 -12 -17 -9 -24 3 -7 -8 -18 -23 -25 -18 -8 -23 -15 -15 -20 12 -7
10 -89 -2 -110 -4 -6 -5 -15 -1 -20 3 -5 1 -12 -4 -15 -5 -4 -13 4 -16 15 -7
20 -8 20 -17 6 -14 -26 -26 -20 -22 11 2 18 -1 29 -9 29 -7 0 -12 -15 -11 -39
0 -21 -2 -36 -4 -33 -3 3 -16 -4 -28 -16 -22 -20 -23 -20 -18 -2 4 12 0 22 -9
26 -10 4 -13 -1 -10 -17 3 -13 -2 -30 -11 -39 -10 -10 -12 -18 -6 -22 18 -11
11 -25 -13 -25 -18 0 -25 -9 -36 -44 -8 -30 -19 -46 -33 -49 -14 -4 -19 -11
-14 -22 5 -13 2 -15 -15 -10 -16 5 -20 3 -17 -6 3 -8 -2 -19 -11 -26 -13 -10
-13 -12 -2 -13 8 0 22 6 31 13 9 6 -4 -6 -28 -29 -26 -24 -42 -46 -38 -52 4
-8 2 -10 -7 -6 -20 7 -33 -16 -16 -27 11 -7 9 -13 -10 -28 -19 -15 -21 -19 -8
-24 9 -3 18 1 21 9 3 8 12 14 19 12 12 -3 34 12 65 44 11 12 19 14 28 7 9 -8
11 -5 7 10 -4 16 1 23 22 31 15 6 31 8 36 5 4 -3 11 6 15 20 3 14 12 25 20 25
8 0 14 7 14 15 0 8 7 15 16 15 9 0 12 5 8 12 -5 7 -2 9 8 5 11 -4 14 -1 11 12
-2 10 3 24 13 32 15 12 16 12 10 -9 -10 -31 2 -27 16 6 l12 27 4 -27 c4 -32
22 -38 22 -9 0 11 5 23 10 26 6 3 10 -3 10 -14 0 -21 17 -37 27 -27 4 4 2 11
-4 17 -13 13 3 59 19 59 5 0 20 12 34 28 21 22 23 28 10 30 -29 6 -17 17 22
19 30 1 34 0 21 -10 -9 -7 -14 -18 -11 -26 2 -7 0 -16 -6 -20 -7 -4 -8 -12 -1
-21 6 -10 11 -12 17 -4 4 6 14 14 22 17 12 4 11 6 -2 6 -22 1 -24 17 -3 25 8
3 15 13 15 23 0 15 2 15 14 -3 8 -10 11 -21 7 -24 -13 -8 -8 -40 6 -40 7 0 13
-5 13 -11 0 -6 -7 -9 -15 -5 -16 6 -22 -19 -6 -28 13 -8 44 31 35 45 -5 9 -2
10 11 5 11 -4 22 -2 27 6 6 11 8 11 8 0 0 -7 -7 -15 -15 -18 -23 -9 -18 -26 6
-19 15 5 19 4 14 -4 -4 -7 -1 -18 5 -26 7 -8 9 -15 4 -15 -5 0 -2 -4 6 -10 9
-6 17 -5 22 3 6 9 11 7 19 -6 6 -9 14 -15 20 -12 5 3 6 -1 3 -9 -4 -11 2 -19
20 -26 14 -5 26 -15 26 -23 0 -7 32 -41 70 -76 39 -35 68 -66 66 -69 -3 -2
-11 0 -18 4 -18 12 -68 14 -68 3 0 -5 5 -9 10 -9 6 0 10 -9 10 -21 0 -11 5
-17 10 -14 6 3 10 1 10 -4 0 -12 -20 -14 -44 -5 -14 5 -14 9 -4 22 11 13 10
15 -10 10 -15 -4 -25 -1 -32 10 -7 13 -10 9 -10 -18 -1 -30 -6 -37 -35 -51
-37 -17 -46 -14 -19 6 18 13 55 101 46 109 -3 4 -18 6 -34 6 -25 0 -28 3 -23
20 3 11 2 20 -3 20 -5 0 -8 -19 -7 -42 3 -47 -22 -118 -42 -118 -7 0 -10 7 -6
17 4 11 3 14 -5 9 -7 -4 -12 -13 -12 -19 0 -7 -10 -18 -21 -26 -19 -11 -21
-11 -16 3 8 21 -8 29 -23 11 -13 -15 -35 -10 -25 6 4 5 1 9 -4 9 -6 0 -11 -7
-11 -15 0 -8 -5 -15 -11 -15 -7 0 -8 7 -4 18 4 9 10 25 12 35 3 9 9 17 14 17
5 0 9 5 9 10 0 16 -26 12 -42 -7 -9 -10 -18 -34 -22 -53 -5 -27 -11 -36 -28
-37 -12 -1 -35 -12 -51 -24 -23 -17 -31 -19 -38 -8 -6 11 -9 10 -15 -4 -3 -9
-15 -17 -26 -17 -15 0 -18 -5 -13 -20 4 -13 2 -21 -7 -22 -7 0 -18 -2 -23 -2
-6 -1 -20 -11 -33 -24 -12 -12 -26 -22 -32 -22 -5 0 -1 9 10 20 22 22 26 40
10 40 -5 0 -10 -6 -10 -14 0 -7 -9 -16 -20 -19 -11 -3 -19 -11 -18 -17 2 -7
-3 -15 -10 -17 -11 -4 -12 22 -2 72 5 24 -2 25 -30 5 -16 -12 -30 -18 -30 -13
0 4 -5 0 -11 -10 -14 -24 -4 -34 16 -17 11 9 19 10 26 3 8 -8 -7 -19 -46 -37
-35 -16 -59 -33 -62 -46 -3 -11 -11 -20 -19 -20 -7 0 -16 -5 -20 -12 -5 -8 -2
-9 9 -5 23 9 21 -10 -2 -22 -21 -12 -32 -5 -24 15 3 8 -1 14 -10 14 -10 0 -13
-7 -10 -20 5 -17 3 -18 -21 -7 -14 7 -26 20 -26 31 0 11 -5 16 -14 13 -10 -4
-14 3 -13 29 1 20 -5 39 -12 43 -8 5 -11 17 -6 30 8 27 -11 28 -27 1 -7 -11
-17 -20 -22 -20 -4 0 -3 6 3 14 9 10 8 15 -3 19 -8 3 -17 1 -19 -6 -2 -7 -8
-8 -13 -4 -5 5 0 15 11 23 16 12 17 17 6 23 -9 6 -10 11 -2 15 20 13 12 27 -8
16 -28 -14 -30 -13 -23 13 5 20 4 21 -12 8 -11 -10 -15 -22 -12 -37 5 -18 3
-22 -9 -18 -10 4 -15 0 -15 -10 0 -9 -10 -21 -22 -26 -22 -9 -22 -9 3 -9 17
-1 29 6 33 16 6 15 8 15 16 3 6 -10 4 -21 -7 -32 -12 -14 -13 -18 -3 -18 11 0
11 -3 2 -12 -16 -16 -15 -31 1 -22 7 4 8 3 4 -2 -5 -5 -16 -9 -24 -9 -9 0 -18
-5 -20 -12 -3 -7 3 -10 15 -7 15 5 18 0 16 -27 -2 -36 -19 -51 -50 -43 -12 3
-30 -3 -45 -16 -13 -12 -19 -19 -13 -16 40 20 134 9 134 -16 0 -13 -18 -9 -23
5 -3 9 -10 7 -23 -6 -18 -17 -18 -18 -1 -11 15 5 17 2 13 -20 -3 -14 0 -26 5
-26 5 0 9 -7 9 -15 0 -13 4 -14 23 -4 19 11 20 10 10 -3 -7 -8 -10 -18 -6 -21
3 -4 -2 -9 -11 -13 -20 -8 -21 -24 -1 -24 18 0 19 -9 5 -44 -5 -14 -6 -26 -1
-26 15 0 18 -47 5 -71 -7 -15 -9 -31 -4 -45 5 -12 6 -25 3 -28 -3 -3 -7 -24
-9 -47 -2 -33 0 -39 9 -30 6 6 12 19 12 29 0 9 9 18 20 20 16 4 17 2 7 -11 -9
-10 -10 -22 -2 -41 10 -27 2 -34 -17 -15 -7 7 -12 4 -16 -10 -3 -12 -2 -21 2
-21 4 0 6 -54 5 -120 -1 -66 2 -122 6 -125 5 -3 6 -23 4 -45 -2 -21 1 -42 6
-45 5 -3 7 -12 3 -20 -3 -9 0 -22 7 -30 10 -12 10 -15 -1 -15 -10 -1 -9 -4 3
-14 13 -9 14 -16 6 -24 -8 -8 -6 -15 6 -28 16 -16 16 -18 -4 -39 l-21 -22 26
4 c23 5 25 3 23 -26 -1 -20 -8 -31 -18 -31 -12 -1 -12 -3 3 -11 17 -10 24 -39
8 -39 -5 0 -8 -11 -8 -24 0 -38 -25 -84 -53 -98 -14 -7 -42 -23 -62 -35 -45
-28 -52 -28 -44 -5 3 9 -4 5 -17 -10 -12 -16 -27 -28 -33 -28 -6 0 -21 -11
-34 -25 -15 -16 -19 -25 -10 -25 10 0 11 -3 3 -11 -15 -15 -33 -3 -33 21 0 13
-5 17 -15 14 -8 -4 -15 -13 -15 -21 0 -8 -4 -12 -10 -8 -6 4 -6 15 0 31 12 31
12 34 2 34 -5 0 -15 -11 -22 -25 -12 -23 -32 -35 -29 -17 3 20 -2 33 -11 27
-6 -4 -24 1 -41 9 -17 9 -35 13 -40 10 -17 -10 -9 9 9 22 15 12 14 13 -10 14
-18 0 -28 -5 -28 -15 0 -8 -4 -15 -10 -15 -15 0 -95 -65 -99 -81 -2 -8 -5 -21
-7 -29 -5 -18 56 -103 88 -124 15 -10 55 -16 113 -18 69 -3 101 -9 138 -27 27
-13 44 -27 40 -33 -3 -6 -1 -8 5 -4 12 7 45 -22 37 -34 -3 -4 5 -10 16 -13 17
-5 20 -11 17 -31 -6 -29 -1 -31 26 -11 16 12 23 10 66 -18 27 -18 48 -36 46
-42 -1 -5 -16 -13 -33 -17 -17 -4 -36 -15 -43 -23 -7 -8 -19 -15 -26 -15 -8 0
-14 -4 -14 -9 0 -13 -57 -31 -75 -25 -8 4 -15 10 -15 16 0 5 -4 7 -9 3 -25
-15 -21 60 3 77 7 5 4 8 -7 8 -10 0 -24 -14 -34 -35 -12 -26 -21 -34 -32 -28
-9 4 -31 6 -49 6 -21 -1 -30 2 -26 9 5 7 2 8 -5 4 -7 -5 -18 0 -27 10 -13 17
-13 17 -5 -7 11 -30 6 -40 -15 -32 -8 3 -14 1 -14 -5 0 -5 -8 -12 -17 -16 -10
-3 -24 -9 -30 -12 -9 -4 -13 4 -13 23 0 15 -7 37 -16 48 -15 20 -15 20 -34 -5
-11 -14 -20 -29 -20 -33 0 -17 -59 -67 -79 -67 -12 0 -53 -24 -91 -52 -65 -49
-70 -55 -70 -90 0 -28 4 -38 16 -38 8 0 12 -5 9 -11 -4 -6 -13 -8 -21 -5 -8 3
-15 2 -15 -2 -1 -4 -3 -20 -5 -37 -3 -16 -5 -37 -7 -45 -1 -8 1 -16 6 -17 21
-8 34 1 55 37 23 41 23 41 80 39 31 -1 82 2 113 6 65 9 79 -2 45 -34 -15 -14
-22 -30 -19 -42 7 -25 14 -24 49 9 55 53 98 64 223 58 84 -3 117 -8 130 -20
16 -15 21 -15 54 -1 50 21 140 18 166 -6 12 -12 18 -26 14 -41 -4 -21 -3 -22
10 -6 21 26 51 24 44 -3 -4 -16 -3 -18 8 -9 11 9 20 7 39 -7 20 -14 25 -26 24
-55 -1 -28 -6 -38 -18 -38 -9 0 -20 -3 -24 -8 -12 -12 -126 -30 -132 -20 -3 4
-10 6 -15 3 -31 -20 -149 -29 -149 -12 -1 7 -6 5 -14 -6 -7 -9 -21 -17 -31
-17 -18 0 -18 21 0 64 6 14 5 18 -6 14 -8 -2 -15 -14 -17 -25 -7 -45 -51 -63
-130 -51 -18 3 -35 2 -37 -3 -7 -11 -48 -7 -57 5 -9 13 -48 18 -48 6 0 -6 -9
-10 -19 -10 -10 0 -21 -6 -24 -14 -6 -15 12 -26 44 -26 11 0 18 -4 14 -9 -3
-5 0 -13 6 -17 8 -5 9 -3 4 6 -6 10 -4 12 9 7 10 -4 22 -7 28 -7 6 0 5 -6 -2
-15 -7 -9 -10 -18 -7 -22 4 -3 -1 -12 -11 -20 -15 -13 -14 -14 16 -10 18 2 35
0 38 -5 3 -5 10 -6 15 -3 21 13 29 -7 14 -36 -14 -26 -14 -30 0 -35 8 -4 25 4
39 17 21 20 36 24 88 25 35 0 74 4 88 9 23 7 24 6 10 -10 -8 -9 -16 -29 -18
-43 -3 -22 -1 -24 12 -12 9 7 16 18 16 25 0 12 31 45 43 45 4 0 7 -7 7 -15 0
-8 -5 -15 -10 -15 -6 0 -14 -9 -18 -19 -4 -11 -24 -33 -46 -50 -32 -26 -35
-31 -18 -31 11 0 24 4 27 10 3 5 15 15 25 20 16 9 19 8 14 -7 -5 -15 -3 -15
13 3 10 11 23 22 28 23 6 2 16 6 24 9 8 3 17 0 19 -6 2 -7 12 -12 23 -12 12 0
19 -7 19 -20 0 -11 -5 -20 -11 -20 -5 0 -7 -5 -4 -11 5 -7 15 -3 29 10 12 12
26 18 30 14 4 -4 13 -8 19 -8 7 -1 24 -5 39 -9 23 -7 27 -12 22 -32 -4 -13 -2
-24 4 -24 16 0 12 -69 -5 -85 -8 -8 -11 -15 -7 -15 3 0 2 -6 -4 -13 -6 -7 -9
-23 -5 -35 5 -20 1 -22 -31 -22 -25 0 -36 -4 -36 -15 0 -18 -16 -20 -23 -2 -3
6 -6 0 -6 -14 -1 -21 -9 -30 -38 -42 -35 -15 -36 -15 -8 -11 l30 4 -30 -14
c-35 -17 -55 -20 -55 -7 0 5 6 12 13 15 6 4 2 4 -10 2 -34 -6 -27 10 10 24 17
7 26 14 19 17 -7 3 -28 -5 -48 -16 -19 -12 -33 -17 -29 -12 3 5 1 13 -5 16
-12 8 12 51 39 72 14 11 13 12 -7 13 -12 0 -25 -7 -28 -15 -4 -8 -10 -15 -15
-15 -5 0 -4 12 1 26 6 14 7 30 4 36 -3 5 3 4 15 -4 17 -10 23 -10 33 1 11 11
9 12 -7 7 -29 -8 -48 25 -35 59 13 33 13 31 -9 32 -15 1 -18 -5 -17 -35 1 -20
-4 -49 -11 -64 -7 -15 -13 -36 -13 -48 0 -11 -5 -20 -11 -20 -6 0 -9 -9 -6
-19 3 -12 -1 -22 -9 -25 -8 -3 -14 -15 -14 -26 0 -11 -7 -32 -16 -45 -14 -21
-22 -24 -53 -20 -33 4 -38 1 -50 -26 -10 -22 -16 -27 -22 -18 -10 17 27 89 46
89 8 0 15 3 15 8 0 15 -50 7 -56 -10 -3 -9 -14 -20 -25 -23 -11 -4 -18 -9 -15
-12 6 -6 -18 -33 -30 -33 -3 0 -2 6 4 13 6 7 7 18 3 25 -6 9 -12 7 -26 -8 -11
-12 -13 -20 -6 -20 7 0 9 -4 6 -10 -4 -6 -11 -5 -20 3 -8 7 -10 16 -4 22 5 5
9 16 9 24 0 12 -3 12 -12 3 -7 -7 -12 -24 -13 -39 0 -29 -12 -38 -34 -24 -17
11 -5 51 15 51 8 0 14 4 14 9 0 13 -39 21 -46 10 -3 -6 -11 -5 -20 2 -11 9
-14 8 -14 -5 0 -9 -9 -21 -20 -28 -11 -7 -20 -18 -20 -25 0 -16 -61 1 -76 21
-5 8 -22 18 -37 21 -15 4 -27 14 -27 22 0 8 -5 11 -10 8 -6 -4 -19 -1 -28 6
-30 23 6 -12 88 -86 98 -87 180 -134 315 -181 154 -52 236 -52 390 0 61 20
144 58 187 84 96 58 233 176 306 262 111 130 264 389 347 585 26 61 51 119 56
130 16 36 49 138 49 153 0 7 6 28 13 45 8 18 31 86 52 152 20 66 53 156 72
200 20 44 39 96 44 115 20 88 31 125 44 149 52 92 87 213 121 416 51 300 70
658 44 835 -32 223 -42 285 -60 385 -58 324 -166 638 -270 789 -66 96 -167
191 -203 191 -18 0 -23 -3 -15 -12z m-12 -126 c0 -5 -4 -5 -10 -2 -5 3 -10 14
-10 23 0 15 2 15 10 2 5 -8 10 -19 10 -23z m30 -40 c0 -5 -4 -5 -10 -2 -5 3
-10 14 -10 23 0 15 2 15 10 2 5 -8 10 -19 10 -23z m-90 -7 c0 -5 -4 -10 -10
-10 -5 0 -10 5 -10 10 0 6 5 10 10 10 6 0 10 -4 10 -10z m115 -30 c-4 -12 -1
-28 7 -37 10 -13 10 -15 0 -9 -7 4 -20 2 -28 -5 -13 -11 -14 -9 -8 17 6 28 22
54 31 54 2 0 1 -9 -2 -20z m-122 -40 c2 -10 0 -24 -5 -31 -8 -11 -9 -10 -4 4
5 16 -2 21 -21 15 -5 -1 -7 -8 -5 -15 1 -6 -7 -17 -18 -23 -12 -6 -20 -7 -20
-1 0 5 6 12 13 15 9 5 9 7 -1 12 -10 5 -8 12 8 29 24 26 45 24 53 -5z m146
-78 c8 -15 6 -19 -7 -19 -22 0 -35 19 -19 29 16 10 15 11 26 -10z m-174 -2
c-3 -5 2 -10 11 -10 17 0 16 -1 -1 -14 -14 -10 -17 -21 -13 -47 3 -19 4 -39 1
-45 -4 -13 -53 -6 -53 8 0 5 9 6 20 3 23 -7 28 10 5 19 -8 3 -15 11 -15 18 0
9 3 8 10 -2 5 -8 10 -13 11 -10 3 20 8 38 15 55 7 19 7 19 -13 3 -30 -27 -40
-21 -13 7 23 24 47 35 35 15z m27 -112 c-7 -7 -12 -8 -12 -2 0 6 3 14 7 17 3
4 9 5 12 2 2 -3 -1 -11 -7 -17z m-222 8 c0 -2 -7 -9 -15 -16 -13 -11 -14 -10
-9 4 5 14 24 23 24 12z m260 -81 c10 -12 10 -15 -4 -15 -9 0 -16 7 -16 15 0 8
2 15 4 15 2 0 9 -7 16 -15z m-390 -39 c0 -3 -4 -8 -10 -11 -5 -3 -10 -1 -10 4
0 6 5 11 10 11 6 0 10 -2 10 -4z m-10 -40 c0 -2 -7 -6 -15 -10 -8 -3 -15 -1
-15 4 0 6 7 10 15 10 8 0 15 -2 15 -4z m-25 -46 c3 -5 1 -10 -4 -10 -6 0 -11
5 -11 10 0 6 2 10 4 10 3 0 8 -4 11 -10z m705 -214 c0 -3 -4 -8 -10 -11 -5 -3
-10 -1 -10 4 0 6 5 11 10 11 6 0 10 -2 10 -4z m-1080 -226 c0 -5 -4 -10 -10
-10 -5 0 -10 5 -10 10 0 6 5 10 10 10 6 0 10 -4 10 -10z m4 -464 c-3 -14 -10
-26 -15 -26 -12 0 -11 4 3 35 14 31 21 26 12 -9z m-13 -89 c-8 -8 -11 -7 -11
4 0 20 13 34 18 19 3 -7 -1 -17 -7 -23z m1171 -223 c8 -7 -21 -64 -33 -64 -5
0 -9 -9 -9 -19 0 -10 -7 -21 -15 -25 -8 -3 -20 -17 -25 -31 -6 -15 -14 -24
-19 -21 -4 3 -16 -3 -26 -14 -10 -11 -22 -17 -27 -14 -5 3 -17 -1 -27 -10 -10
-9 -32 -18 -49 -19 -17 -1 -30 -6 -29 -12 1 -5 -6 -9 -16 -7 -10 2 -30 -4 -44
-13 -19 -13 -27 -14 -33 -5 -5 9 -9 9 -14 1 -4 -6 -1 -11 6 -11 9 -1 9 -4 -3
-13 -8 -7 -15 -21 -15 -32 0 -11 -4 -31 -8 -45 l-7 -25 20 25 c11 14 22 22 26
18 3 -3 -8 -22 -25 -42 -17 -19 -29 -40 -25 -46 5 -7 12 -5 21 7 12 16 13 15
11 -13 -2 -27 -5 -30 -19 -23 -24 13 -28 11 -28 -9 0 -10 -5 -23 -12 -30 -17
-17 -2 -28 17 -12 8 7 15 8 15 3 0 -9 -36 -43 -46 -43 -3 0 -4 7 0 15 3 8 2
15 -3 15 -5 0 -11 -10 -14 -22 -4 -12 -9 -19 -13 -15 -4 4 -13 2 -21 -4 -9 -9
-13 -8 -13 0 0 6 17 28 38 48 29 29 31 33 10 20 -31 -19 -52 -22 -43 -7 4 6 4
18 1 27 -5 11 -10 13 -20 4 -7 -6 -16 -8 -19 -5 -3 4 -9 -6 -13 -21 -5 -20 -9
-23 -15 -13 -14 21 -11 28 16 40 14 6 25 17 25 25 0 17 -17 17 -23 1 -4 -10
-8 -10 -15 0 -12 17 -24 -15 -27 -73 -1 -22 -3 -48 -4 -58 0 -10 -5 -16 -10
-13 -4 3 -6 18 -4 33 4 27 4 27 -11 9 -15 -18 -21 -46 -17 -70 2 -9 -18 -26
-30 -26 -9 0 2 49 12 56 11 6 12 24 2 23 -28 -5 -33 4 -30 56 2 30 6 57 10 61
4 4 7 12 7 18 0 6 -5 3 -11 -6 -13 -23 -33 -24 -25 -2 6 14 4 15 -9 4 -11 -9
-12 -15 -5 -20 7 -5 6 -11 -4 -19 -13 -11 -15 -3 -14 66 1 43 4 65 6 48 2 -16
8 -34 14 -40 7 -7 9 -1 5 20 -3 20 0 33 11 42 15 11 15 12 -6 13 -21 0 -23 4
-21 40 2 29 -2 43 -15 53 -22 16 -34 87 -15 87 8 0 8 4 -1 15 -9 11 -9 15 -1
15 7 0 10 4 6 10 -9 14 52 41 93 42 20 0 71 -9 112 -20 94 -25 151 -36 168
-33 8 1 19 -3 27 -9 9 -7 15 -8 20 -1 3 6 16 10 28 9 48 -3 208 56 256 93 25
20 34 23 43 13z m-342 -309 c0 -8 -2 -15 -4 -15 -2 0 -6 7 -10 15 -3 8 -1 15
4 15 6 0 10 -7 10 -15z m10 -165 c0 -5 -5 -10 -11 -10 -5 0 -7 5 -4 10 3 6 8
10 11 10 2 0 4 -4 4 -10z m-355 -20 c-3 -5 -11 -10 -16 -10 -6 0 -7 5 -4 10 3
6 11 10 16 10 6 0 7 -4 4 -10z m325 0 c0 -5 -2 -10 -4 -10 -3 0 -8 5 -11 10
-3 6 -1 10 4 10 6 0 11 -4 11 -10z m-154 -48 c-12 -11 -18 7 -10 30 l8 23 4
-23 c2 -13 1 -26 -2 -30z m-13 -43 c-9 -9 -12 -7 -10 9 1 14 5 18 11 12 7 -7
6 -14 -1 -21z m124 19 c-10 -5 -15 -13 -12 -19 4 -5 2 -9 -3 -9 -5 0 -12 8
-14 18 -4 13 2 17 21 19 21 1 22 0 8 -9z m-51 -20 c-10 -6 -20 -7 -24 -3 -9 8
20 25 31 18 5 -3 2 -10 -7 -15z m-141 -18 c-3 -5 -11 -10 -16 -10 -6 0 -7 5
-4 10 3 6 11 10 16 10 6 0 7 -4 4 -10z m50 1 c3 -5 1 -12 -5 -16 -5 -3 -10 1
-10 9 0 18 6 21 15 7z m85 -11 c0 -5 -5 -10 -11 -10 -5 0 -7 5 -4 10 3 6 8 10
11 10 2 0 4 -4 4 -10z m-168 -42 c-7 -7 -12 -8 -12 -2 0 14 12 26 19 19 2 -3
-1 -11 -7 -17z m202 -12 c-7 -28 -26 -26 -22 2 3 17 19 34 26 28 1 -2 0 -15
-4 -30z m-34 14 c0 -5 -5 -10 -11 -10 -5 0 -7 5 -4 10 3 6 8 10 11 10 2 0 4
-4 4 -10z m-140 -30 c0 -5 -2 -10 -4 -10 -3 0 -8 5 -11 10 -3 6 -1 10 4 10 6
0 11 -4 11 -10z m75 -70 c3 -5 1 -10 -4 -10 -6 0 -11 5 -11 10 0 6 2 10 4 10
3 0 8 -4 11 -10z m-815 -4 c0 -2 -7 -7 -16 -10 -8 -3 -12 -2 -9 4 6 10 25 14
25 6z m-130 -569 c8 3 5 -3 -8 -12 -26 -19 -34 -15 -39 17 -3 20 -2 20 14 6
10 -8 25 -13 33 -11z m572 -339 c-15 -15 -26 -4 -18 18 5 13 9 15 18 6 9 -9 9
-15 0 -24z m-662 -128 c0 -5 -4 -10 -10 -10 -5 0 -10 5 -10 10 0 6 5 10 10 10
6 0 10 -4 10 -10z m94 -54 c-10 -8 -21 -12 -24 -10 -5 6 21 24 34 24 6 0 1 -6
-10 -14z m-44 -11 c-7 -8 -17 -15 -22 -15 -11 0 14 29 26 30 5 0 3 -7 -4 -15z
m50 -95 c0 -5 -5 -10 -11 -10 -5 0 -7 5 -4 10 3 6 8 10 11 10 2 0 4 -4 4 -10z
m265 -20 c3 -5 -1 -10 -10 -10 -9 0 -13 5 -10 10 3 6 8 10 10 10 2 0 7 -4 10
-10z m275 -150 c0 -5 -5 -10 -11 -10 -5 0 -7 5 -4 10 3 6 8 10 11 10 2 0 4 -4
4 -10z m-110 -210 c0 -5 -4 -10 -10 -10 -5 0 -10 5 -10 10 0 6 5 10 10 10 6 0
10 -4 10 -10z m-148 -82 c-7 -7 -12 -8 -12 -2 0 14 12 26 19 19 2 -3 -1 -11
-7 -17z m-497 -18 c-3 -5 -11 -10 -16 -10 -6 0 -7 5 -4 10 3 6 11 10 16 10 6
0 7 -4 4 -10z"/>
<path d="M3371 2594 c0 -35 1 -37 11 -16 6 12 17 22 25 22 7 0 13 5 13 11 0 5
-5 7 -10 4 -6 -4 -17 -1 -25 5 -13 11 -15 7 -14 -26z"/>
<path d="M3247 2613 c-4 -3 -7 -11 -7 -17 0 -6 5 -5 12 2 6 6 9 14 7 17 -3 3
-9 2 -12 -2z"/>
<path d="M3400 2580 c0 -5 5 -10 11 -10 5 0 7 5 4 10 -3 6 -8 10 -11 10 -2 0
-4 -4 -4 -10z"/>
<path d="M3475 2549 c-11 -17 1 -21 15 -4 8 9 8 15 2 15 -6 0 -14 -5 -17 -11z"/>
<path d="M3230 2512 c0 -13 23 -32 37 -32 11 0 11 5 3 20 -10 19 -40 28 -40
12z"/>
<path d="M3339 2505 c-6 -42 -5 -55 7 -59 7 -3 18 2 24 10 9 10 9 14 1 14 -6
0 -11 -6 -11 -12 0 -9 -3 -8 -10 2 -5 8 -5 17 0 20 5 3 5 12 0 20 -6 8 -10 11
-11 5z"/>
<path d="M3540 2465 c-13 -14 -20 -25 -17 -25 10 0 49 41 45 46 -3 2 -15 -7
-28 -21z"/>
<path d="M3441 2448 c-1 -10 -5 -18 -11 -18 -5 0 -10 -7 -10 -15 0 -20 6 -19
30 5 21 21 27 35 11 26 -5 -4 -12 0 -14 6 -3 8 -6 6 -6 -4z"/>
<path d="M3490 2440 c0 -5 5 -10 10 -10 6 0 10 5 10 10 0 6 -4 10 -10 10 -5 0
-10 -4 -10 -10z"/>
<path d="M3372 2433 c-6 -2 -10 -9 -7 -13 7 -11 35 -2 35 11 0 10 -8 10 -28 2z"/>
<path d="M3330 2419 c0 -5 5 -7 10 -4 6 3 10 8 10 11 0 2 -4 4 -10 4 -5 0 -10
-5 -10 -11z"/>
<path d="M3458 2395 c-25 -34 -23 -55 6 -55 14 0 30 10 40 25 20 31 10 32 -21
3 -26 -24 -30 -14 -8 16 8 11 15 23 15 28 0 15 -15 7 -32 -17z"/>
<path d="M3401 2394 c0 -11 3 -14 6 -6 3 7 2 16 -1 19 -3 4 -6 -2 -5 -13z"/>
<path d="M3497 2323 c-4 -3 -7 -11 -7 -17 0 -6 5 -5 12 2 6 6 9 14 7 17 -3 3
-9 2 -12 -2z"/>
<path d="M3334 2309 c-9 -16 17 -20 31 -5 14 13 13 15 -6 13 -11 -1 -23 -5
-25 -8z"/>
<path d="M3430 2309 c0 -5 5 -7 10 -4 6 3 10 8 10 11 0 2 -4 4 -10 4 -5 0 -10
-5 -10 -11z"/>
<path d="M3348 2258 c-10 -15 -12 -30 -7 -43 5 -13 8 -15 8 -5 1 8 8 27 15 43
18 32 4 36 -16 5z"/>
<path d="M3305 2190 c-3 -5 -1 -10 4 -10 6 0 11 5 11 10 0 6 -2 10 -4 10 -3 0
-8 -4 -11 -10z"/>
<path d="M1944 4525 c-17 -13 -34 -34 -37 -45 -5 -20 -4 -20 26 -3 36 20 56
42 57 61 0 18 -11 15 -46 -13z"/>
<path d="M3475 4540 c3 -5 8 -10 11 -10 2 0 4 5 4 10 0 6 -5 10 -11 10 -5 0
-7 -4 -4 -10z"/>
<path d="M3660 4540 c0 -5 7 -10 15 -10 8 0 15 5 15 10 0 6 -7 10 -15 10 -8 0
-15 -4 -15 -10z"/>
<path d="M2784 4509 c-3 -5 6 -9 20 -9 31 0 34 6 6 13 -11 3 -23 1 -26 -4z"/>
<path d="M3655 4500 c3 -5 8 -10 11 -10 2 0 4 5 4 10 0 6 -5 10 -11 10 -5 0
-7 -4 -4 -10z"/>
<path d="M3090 4489 c0 -5 5 -7 10 -4 6 3 10 8 10 11 0 2 -4 4 -10 4 -5 0 -10
-5 -10 -11z"/>
<path d="M3354 4464 c-18 -14 -18 -14 6 -3 31 14 36 19 24 19 -6 0 -19 -7 -30
-16z"/>
<path d="M3650 4475 c0 -13 38 -46 44 -37 6 9 -4 20 -31 36 -7 4 -13 4 -13 1z"/>
<path d="M3035 4459 c-4 -6 -5 -12 -2 -15 2 -3 7 2 10 11 7 17 1 20 -8 4z"/>
<path d="M3278 4463 c-14 -4 -33 -31 -26 -39 2 -1 14 6 27 17 26 21 26 27 -1
22z"/>
<path d="M2176 4421 c-4 -5 -3 -16 0 -25 5 -13 9 -14 20 -5 8 6 14 18 14 25 0
16 -26 19 -34 5z"/>
<path d="M3525 4420 c3 -5 8 -10 11 -10 2 0 4 5 4 10 0 6 -5 10 -11 10 -5 0
-7 -4 -4 -10z"/>
<path d="M3177 4407 c-17 -14 -31 -77 -17 -77 6 0 10 9 10 19 0 34 10 49 31
44 10 -3 19 -1 19 5 0 16 -27 22 -43 9z"/>
<path d="M3356 4395 c4 -8 8 -15 10 -15 2 0 4 7 4 15 0 8 -4 15 -10 15 -5 0
-7 -7 -4 -15z"/>
<path d="M3395 4390 c4 -12 1 -28 -6 -36 -6 -8 -9 -17 -6 -20 8 -9 39 55 32
66 -11 18 -26 10 -20 -10z"/>
<path d="M3500 4391 c0 -12 5 -21 10 -21 6 0 10 6 10 14 0 8 -4 18 -10 21 -5
3 -10 -3 -10 -14z"/>
<path d="M3112 4366 c1 -14 6 -22 10 -20 12 7 10 44 -2 44 -5 0 -9 -11 -8 -24z"/>
<path d="M2050 4360 c0 -5 5 -10 10 -10 6 0 10 5 10 10 0 6 -4 10 -10 10 -5 0
-10 -4 -10 -10z"/>
<path d="M3078 4362 c-12 -2 -18 -12 -17 -30 0 -15 3 -20 6 -12 3 8 12 21 21
27 18 15 14 21 -10 15z"/>
<path d="M1750 4325 c0 -8 5 -15 10 -15 6 0 10 7 10 15 0 8 -4 15 -10 15 -5 0
-10 -7 -10 -15z"/>
<path d="M2990 4300 c0 -23 -5 -30 -19 -30 -11 0 -23 -5 -26 -10 -4 -6 -1 -9
7 -8 15 4 13 -65 -2 -70 -6 -2 -8 -8 -4 -13 6 -11 22 4 48 44 24 35 30 117 10
117 -9 0 -14 -11 -14 -30z"/>
<path d="M3215 4270 c-3 -5 -1 -10 4 -10 6 0 11 5 11 10 0 6 -2 10 -4 10 -3 0
-8 -4 -11 -10z"/>
<path d="M2509 4254 c-12 -14 -11 -16 5 -13 11 2 21 10 24 17 5 17 -13 15 -29
-4z"/>
<path d="M3355 4260 c-3 -5 1 -10 9 -10 9 0 16 5 16 10 0 6 -4 10 -9 10 -6 0
-13 -4 -16 -10z"/>
<path d="M3270 4248 c0 -18 18 -34 28 -24 3 4 -2 14 -11 23 -16 16 -17 16 -17
1z"/>
<path d="M2664 4195 c-12 -30 -17 -55 -12 -55 10 0 47 77 48 98 0 28 -16 8
-36 -43z"/>
<path d="M2813 4225 c-9 -24 1 -27 15 -5 8 13 8 20 2 20 -6 0 -13 -7 -17 -15z"/>
<path d="M3243 4217 c3 -9 -1 -21 -9 -28 -11 -9 -12 -15 -3 -25 16 -20 37 -17
49 5 14 26 14 26 -17 46 -22 15 -25 15 -20 2z"/>
<path d="M1992 4209 c-20 -7 -21 -12 -11 -30 10 -19 13 -20 26 -6 23 23 13 46
-15 36z"/>
<path d="M3343 4213 c-20 -7 -15 -19 7 -20 11 -1 20 2 20 7 0 12 -13 18 -27
13z"/>
<path d="M3075 4203 c-31 -8 -40 -20 -25 -38 16 -19 46 -20 54 0 3 8 12 12 21
9 8 -3 15 -4 15 -1 0 9 -31 37 -38 36 -4 -1 -16 -3 -27 -6z"/>
<path d="M3100 4100 c0 -5 4 -10 9 -10 6 0 13 5 16 10 3 6 -1 10 -9 10 -9 0
-16 -4 -16 -10z"/>
<path d="M2668 4093 c6 -3 9 -9 6 -15 -4 -6 1 -8 11 -6 29 5 27 23 -3 24 -15
1 -21 -1 -14 -3z"/>
<path d="M1680 4073 c-21 -7 -40 -33 -40 -54 0 -29 29 -31 56 -2 35 37 25 71
-16 56z"/>
<path d="M2800 4070 c0 -5 5 -10 11 -10 5 0 7 5 4 10 -3 6 -8 10 -11 10 -2 0
-4 -4 -4 -10z"/>
<path d="M2200 4039 c0 -5 5 -7 10 -4 6 3 10 8 10 11 0 2 -4 4 -10 4 -5 0 -10
-5 -10 -11z"/>
<path d="M3455 4010 c3 -5 8 -10 11 -10 2 0 4 5 4 10 0 6 -5 10 -11 10 -5 0
-7 -4 -4 -10z"/>
<path d="M2715 3989 c-4 -6 -5 -12 -2 -15 2 -3 7 2 10 11 7 17 1 20 -8 4z"/>
<path d="M1855 3959 c-8 -23 -1 -34 14 -24 13 8 15 45 2 45 -5 0 -13 -9 -16
-21z"/>
<path d="M1223 3936 c2 -30 27 -50 27 -22 0 9 -4 16 -9 16 -5 0 -12 8 -15 18
-2 9 -4 4 -3 -12z"/>
<path d="M2936 3917 c-16 -12 -16 -14 -2 -26 17 -14 36 -7 36 14 0 21 -15 26
-34 12z"/>
<path d="M3410 3920 c-8 -5 -12 -11 -9 -14 3 -3 14 1 25 9 21 16 8 20 -16 5z"/>
<path d="M3360 3909 c0 -5 5 -7 10 -4 6 3 10 8 10 11 0 2 -4 4 -10 4 -5 0 -10
-5 -10 -11z"/>
<path d="M2665 3880 c-4 -6 -3 -16 3 -22 13 -13 23 4 13 21 -7 10 -10 10 -16
1z"/>
<path d="M2382 3868 c-18 -18 -14 -38 7 -38 24 0 33 13 25 34 -7 19 -16 20
-32 4z"/>
<path d="M2710 3870 c0 -5 5 -10 10 -10 6 0 10 5 10 10 0 6 -4 10 -10 10 -5 0
-10 -4 -10 -10z"/>
<path d="M3741 3864 c0 -11 3 -14 6 -6 3 7 2 16 -1 19 -3 4 -6 -2 -5 -13z"/>
<path d="M2920 3860 c-13 -8 -12 -10 3 -10 9 0 17 5 17 10 0 12 -1 12 -20 0z"/>
<path d="M3598 3803 c7 -3 16 -2 19 1 4 3 -2 6 -13 5 -11 0 -14 -3 -6 -6z"/>
<path d="M2735 3760 c-3 -5 1 -10 9 -10 8 0 18 5 21 10 3 6 -1 10 -9 10 -8 0
-18 -4 -21 -10z"/>
<path d="M3610 3760 c0 -5 5 -10 10 -10 6 0 10 5 10 10 0 6 -4 10 -10 10 -5 0
-10 -4 -10 -10z"/>
<path d="M3496 3744 c-8 -22 1 -31 16 -16 9 9 9 15 1 23 -7 7 -12 5 -17 -7z"/>
<path d="M3782 3730 c0 -14 2 -19 5 -12 2 6 2 18 0 25 -3 6 -5 1 -5 -13z"/>
<path d="M3560 3725 c-8 -10 -9 -19 -4 -25 5 -5 16 2 27 16 14 19 15 24 4 24
-8 0 -20 -7 -27 -15z"/>
<path d="M3009 3703 c-8 -16 -18 -31 -24 -35 -6 -5 -4 -12 5 -18 13 -9 13 -10
0 -11 -8 -1 -19 -1 -24 0 -5 1 -6 -5 -3 -13 4 -10 1 -13 -9 -9 -8 3 -14 -1
-14 -11 0 -9 5 -16 12 -16 6 0 3 -9 -7 -20 -15 -17 -16 -20 -3 -20 9 0 23 17
31 39 9 22 21 42 26 45 6 4 8 12 5 19 -2 7 5 22 16 34 21 23 26 43 12 43 -5 0
-15 -12 -23 -27z"/>
<path d="M2250 3689 c0 -5 5 -7 10 -4 6 3 10 8 10 11 0 2 -4 4 -10 4 -5 0 -10
-5 -10 -11z"/>
<path d="M2696 3683 c-6 -14 -5 -15 5 -6 7 7 10 15 7 18 -3 3 -9 -2 -12 -12z"/>
<path d="M2813 3672 c1 -14 5 -18 11 -12 7 7 6 14 -1 21 -9 9 -12 7 -10 -9z"/>
<path d="M1673 3669 c-6 -6 -8 -19 -6 -30 4 -14 9 -16 23 -9 12 6 16 17 13 30
-6 23 -14 25 -30 9z"/>
<path d="M3030 3659 c0 -5 5 -7 10 -4 6 3 10 8 10 11 0 2 -4 4 -10 4 -5 0 -10
-5 -10 -11z"/>
<path d="M2677 3640 c-3 -11 -1 -20 4 -20 5 0 9 2 9 4 0 2 3 11 6 20 3 9 2 16
-4 16 -5 0 -12 -9 -15 -20z"/>
<path d="M2197 3631 c-3 -14 -1 -18 9 -14 16 6 18 19 5 27 -5 3 -11 -3 -14
-13z"/>
<path d="M2420 3630 c0 -5 4 -10 9 -10 6 0 13 5 16 10 3 6 -1 10 -9 10 -9 0
-16 -4 -16 -10z"/>
<path d="M1902 3595 c-6 -14 -17 -25 -23 -25 -7 0 -26 -14 -42 -32 -30 -31
-77 -47 -77 -26 0 6 -11 8 -25 6 -14 -3 -25 -1 -25 3 0 8 14 13 31 11 4 -1 15
8 24 18 10 11 15 20 12 20 -14 0 -87 -33 -87 -39 0 -13 -45 -7 -58 8 -8 9 -11
10 -7 3 5 -10 1 -10 -19 0 -28 12 -50 3 -27 -11 11 -7 11 -10 0 -14 -12 -5
-11 -7 1 -16 12 -8 10 -12 -10 -19 -14 -5 -28 -8 -32 -5 -5 2 -8 -1 -8 -7 0
-7 -7 -10 -15 -6 -9 3 -15 0 -15 -9 0 -8 -6 -15 -14 -15 -7 0 -19 -7 -26 -15
-7 -9 -19 -14 -26 -11 -7 3 -16 -4 -19 -15 -5 -14 -13 -18 -28 -14 l-22 5 21
-11 c18 -9 20 -14 10 -35 -6 -13 -17 -24 -25 -24 -8 0 -11 -3 -8 -7 12 -12
-26 -43 -52 -43 -23 1 -24 2 -8 11 9 5 22 7 27 4 6 -3 10 -1 10 4 0 6 -13 11
-30 11 -34 0 -40 -19 -12 -46 15 -16 15 -17 0 -12 -21 9 -31 -2 -17 -19 7 -8
8 -13 1 -13 -5 0 -12 -9 -15 -21 -4 -15 0 -23 13 -26 18 -5 18 -6 -2 -34 -12
-16 -19 -32 -15 -36 4 -3 7 -1 7 5 0 7 5 12 11 12 6 0 9 -6 6 -14 -5 -13 25
-46 44 -46 5 0 -2 -11 -16 -25 -31 -32 -31 -35 -2 -27 18 4 20 3 11 -9 -15
-19 -24 -59 -13 -59 11 0 34 42 31 58 -2 6 2 12 8 12 5 0 10 9 10 20 0 11 5
20 10 20 6 0 10 -5 10 -11 0 -6 6 -9 13 -6 6 2 17 -5 23 -16 10 -17 14 -11 32
49 70 229 247 305 469 200 40 -19 78 -39 85 -45 73 -58 81 -68 63 -74 -13 -5
-16 -3 -11 8 3 9 0 15 -8 15 -15 0 -31 -64 -21 -80 8 -14 -8 -13 -22 1 -8 8
-11 6 -10 -7 2 -13 -6 -18 -33 -18 -27 -1 -35 -5 -37 -21 -2 -11 0 -14 3 -7 3
6 16 12 29 12 13 0 26 -6 28 -12 3 -8 6 -6 6 5 1 9 6 17 12 17 6 0 9 -8 7 -17
-3 -13 -12 -17 -31 -15 -18 2 -27 -2 -27 -12 0 -7 8 -13 18 -12 20 1 24 -35 4
-42 -7 -2 -10 2 -6 12 8 21 -6 20 -21 -1 -11 -14 -15 -15 -28 -4 -13 10 -20
10 -39 -3 -12 -9 -19 -16 -15 -16 4 0 0 -12 -10 -26 -17 -26 -17 -26 4 -20 12
4 24 2 28 -4 3 -6 -3 -10 -15 -10 -11 0 -23 -7 -26 -15 -8 -20 -24 -19 -40 3
-12 16 -12 16 -11 -3 1 -11 11 -24 22 -29 16 -7 17 -9 5 -13 -8 -3 -23 -12
-32 -21 -10 -8 -18 -10 -18 -4 0 6 5 12 11 14 6 2 7 12 2 26 -8 22 -10 21 -31
-17 -16 -27 -28 -38 -38 -34 -8 3 -13 12 -10 19 3 8 -4 18 -14 24 -18 10 -19
8 -10 -15 13 -34 13 -42 -2 -27 -9 9 -14 7 -24 -6 -8 -9 -14 -12 -14 -5 0 6 7
18 15 27 8 8 12 22 9 30 -8 20 -24 21 -24 1 0 -8 -5 -15 -11 -15 -6 0 -9 -8
-7 -18 4 -15 1 -18 -16 -15 -17 4 -21 -1 -21 -21 0 -24 1 -25 13 -9 14 19 14
19 16 -19 1 -16 -2 -28 -6 -28 -4 0 -8 5 -8 12 0 6 -3 8 -6 5 -8 -8 14 -37 27
-37 5 0 9 10 9 23 0 12 4 28 8 34 4 7 7 -10 6 -37 -2 -47 -1 -50 24 -56 15 -3
44 -10 66 -16 120 -30 358 48 468 153 49 48 57 60 62 104 4 28 3 71 -2 98 -8
41 -7 51 11 74 l21 26 8 -24 9 -24 18 24 c10 13 17 36 16 52 -1 21 3 29 14 29
13 0 13 2 2 9 -11 7 -11 13 3 32 9 13 16 38 16 57 0 24 4 31 13 26 6 -4 9 -4
5 1 -4 4 -3 14 3 22 9 11 5 12 -21 6 -20 -4 -31 -2 -27 3 3 6 2 16 -3 24 -5 8
-1 23 10 39 10 14 21 37 25 51 5 23 5 23 -8 8 -21 -27 -25 -22 -20 25 4 30 0
54 -12 76 -10 21 -14 43 -10 60 l7 26 -26 -24 c-23 -21 -26 -22 -32 -7 -6 15
-7 15 -19 0 -7 -10 -10 -25 -8 -33 2 -9 -7 -36 -20 -61 -20 -37 -29 -45 -53
-45 -16 -1 -35 -5 -43 -10 -11 -6 -13 -4 -8 9 6 15 3 17 -18 12 -18 -5 -27 -2
-31 8 -8 20 -65 39 -78 26 -7 -7 -4 -10 7 -10 22 0 22 -18 0 -20 -57 -5 -115
-1 -127 9 -16 13 -10 51 8 51 7 0 12 15 13 35 1 20 7 42 13 50 7 8 8 15 3 15
-5 0 -15 -11 -21 -25z m415 -57 c-3 -8 -6 -5 -6 6 -1 11 2 17 5 13 3 -3 4 -12
1 -19z m-454 -26 c-3 -12 -9 -19 -14 -16 -5 3 -3 14 3 24 15 24 19 21 11 -8z
m191 -408 c5 -14 4 -15 -9 -4 -17 14 -19 20 -6 20 5 0 12 -7 15 -16z m36 6 c0
-5 -4 -10 -10 -10 -5 0 -10 5 -10 10 0 6 5 10 10 10 6 0 10 -4 10 -10z m-350
-360 c-18 -12 -30 -13 -30 -2 0 4 10 9 22 9 18 2 20 0 8 -7z"/>
<path d="M3286 3612 c-3 -5 1 -9 9 -9 8 0 15 4 15 9 0 4 -4 8 -9 8 -6 0 -12
-4 -15 -8z"/>
<path d="M2407 3588 c-7 -25 -3 -33 12 -23 13 8 15 45 2 45 -5 0 -11 -10 -14
-22z"/>
<path d="M1600 3580 c-8 -5 -12 -11 -9 -14 2 -3 11 -1 19 4 8 5 12 11 9 14 -2
3 -11 1 -19 -4z"/>
<path d="M3285 3582 c-9 -6 -17 -42 -10 -42 1 0 10 11 19 25 16 24 12 32 -9
17z"/>
<path d="M1523 3556 c3 -7 0 -19 -6 -25 -13 -13 2 -15 21 -3 14 9 6 42 -10 42
-6 0 -8 -6 -5 -14z"/>
<path d="M2563 3553 c-3 -10 -8 -21 -10 -25 -2 -5 0 -8 5 -8 5 0 14 11 20 25
7 16 8 25 1 25 -5 0 -12 -8 -16 -17z"/>
<path d="M1445 3541 c-3 -6 -15 -11 -26 -11 -25 0 -25 -16 1 -23 14 -3 24 1
31 15 11 20 6 37 -6 19z"/>
<path d="M2090 3529 c0 -5 5 -7 10 -4 6 3 10 8 10 11 0 2 -4 4 -10 4 -5 0 -10
-5 -10 -11z"/>
<path d="M3190 3519 c0 -5 5 -7 10 -4 6 3 10 8 10 11 0 2 -4 4 -10 4 -5 0 -10
-5 -10 -11z"/>
<path d="M1910 3500 c-13 -8 -12 -10 3 -10 9 0 17 5 17 10 0 12 -1 12 -20 0z"/>
<path d="M2705 3470 c-3 -5 -1 -10 4 -10 6 0 11 5 11 10 0 6 -2 10 -4 10 -3 0
-8 -4 -11 -10z"/>
<path d="M1350 3433 c0 -25 1 -25 18 -10 10 10 25 17 33 18 8 0 6 4 -6 9 -35
15 -45 11 -45 -17z"/>
<path d="M2540 3446 c7 -7 14 -6 21 1 9 9 7 12 -9 10 -14 -1 -18 -5 -12 -11z"/>
<path d="M2443 3414 c3 -3 1 -18 -4 -33 -6 -15 -6 -22 -1 -16 17 18 24 55 11
55 -7 0 -10 -3 -6 -6z"/>
<path d="M1322 3403 c-6 -2 -10 -8 -7 -12 2 -5 0 -22 -4 -39 -9 -29 -8 -30 17
-26 41 8 51 24 17 25 -28 0 -29 1 -7 9 12 5 22 14 22 19 0 6 -8 7 -17 4 -12
-5 -15 -2 -10 10 3 9 5 17 4 16 -1 0 -8 -3 -15 -6z"/>
<path d="M2433 3339 c-18 -5 -33 -12 -33 -15 0 -4 6 -4 14 -1 8 3 16 1 18 -4
2 -6 12 -1 22 10 11 12 17 21 15 20 -2 0 -19 -5 -36 -10z"/>
<path d="M2575 3310 c-3 -5 -2 -10 4 -10 5 0 13 5 16 10 3 6 2 10 -4 10 -5 0
-13 -4 -16 -10z"/>
<path d="M2523 3235 c-16 -11 -39 -65 -28 -65 6 0 57 72 53 75 -2 3 -14 -2
-25 -10z"/>
<path d="M2660 3235 c-15 -19 -11 -25 12 -16 11 4 14 11 9 19 -6 10 -10 10
-21 -3z"/>
<path d="M1380 3000 c-13 -8 -12 -10 3 -10 9 0 17 5 17 10 0 12 -1 12 -20 0z"/>
<path d="M1130 2985 c-7 -8 -16 -12 -21 -9 -5 3 -6 -2 -2 -11 5 -15 8 -14 26
4 12 11 18 23 15 26 -3 3 -11 -1 -18 -10z"/>
<path d="M1895 2990 c3 -5 8 -10 11 -10 2 0 4 5 4 10 0 6 -5 10 -11 10 -5 0
-7 -4 -4 -10z"/>
<path d="M1695 2939 c-11 -17 1 -21 15 -4 8 9 8 15 2 15 -6 0 -14 -5 -17 -11z"/>
<path d="M1722 2910 c-6 -11 -12 -22 -12 -25 0 -11 20 6 30 26 14 25 -2 25
-18 -1z"/>
<path d="M1290 2900 c-8 -5 -11 -12 -7 -16 4 -4 15 0 24 9 18 18 8 23 -17 7z"/>
<path d="M1675 2860 c-3 -5 -2 -10 4 -10 5 0 13 5 16 10 3 6 2 10 -4 10 -5 0
-13 -4 -16 -10z"/>
<path d="M1590 2810 c0 -5 5 -10 10 -10 6 0 10 5 10 10 0 6 -4 10 -10 10 -5 0
-10 -4 -10 -10z"/>
<path d="M1340 2755 c-7 -9 -8 -15 -2 -15 5 0 12 7 16 15 3 8 4 15 2 15 -2 0
-9 -7 -16 -15z"/>
<path d="M2210 2664 c0 -8 5 -12 10 -9 6 3 10 10 10 16 0 5 -4 9 -10 9 -5 0
-10 -7 -10 -16z"/>
<path d="M2320 2639 c0 -5 5 -7 10 -4 6 3 10 8 10 11 0 2 -4 4 -10 4 -5 0 -10
-5 -10 -11z"/>
<path d="M2195 2590 c-3 -5 -1 -10 4 -10 6 0 11 5 11 10 0 6 -2 10 -4 10 -3 0
-8 -4 -11 -10z"/>
<path d="M2567 2574 c-4 -4 -7 -14 -7 -23 0 -11 3 -12 11 -4 6 6 10 16 7 23
-2 6 -7 8 -11 4z"/>
<path d="M1910 2540 c0 -5 5 -10 10 -10 6 0 10 5 10 10 0 6 -4 10 -10 10 -5 0
-10 -4 -10 -10z"/>
<path d="M1746 2461 c-14 -5 -16 -10 -8 -15 7 -4 12 -15 12 -26 0 -13 5 -17
20 -13 11 3 20 10 20 15 0 6 -7 7 -16 4 -13 -5 -15 -1 -10 19 4 14 5 25 4 24
-2 0 -12 -4 -22 -8z"/>
<path d="M1462 2399 c-7 -10 -8 -19 -3 -19 13 0 33 28 23 33 -4 3 -13 -3 -20
-14z"/>
<path d="M1995 2380 c-3 -5 -1 -10 4 -10 6 0 11 5 11 10 0 6 -2 10 -4 10 -3 0
-8 -4 -11 -10z"/>
<path d="M2142 2327 c-12 -13 -22 -28 -22 -33 0 -6 -12 -21 -26 -35 -14 -13
-33 -40 -43 -59 -10 -22 -24 -36 -39 -38 -24 -4 -29 -17 -9 -25 7 -4 3 -8 -10
-12 -13 -4 -21 -11 -18 -15 2 -4 0 -23 -6 -43 -5 -20 -9 -40 -9 -43 1 -4 -13
-14 -30 -22 -17 -8 -38 -28 -46 -44 -8 -15 -19 -28 -24 -28 -24 0 5 -29 36
-35 20 -3 32 -10 28 -16 -3 -6 -8 -8 -11 -5 -7 7 -33 -19 -33 -33 0 -5 15 -12
33 -14 30 -4 29 -4 -8 -6 -30 -1 -45 -8 -58 -26 -18 -25 -18 -25 7 -25 l25 0
-18 -39 c-9 -22 -28 -49 -42 -60 -19 -16 -22 -22 -11 -32 10 -11 12 -10 12 0
0 11 3 11 15 1 12 -10 19 -8 36 11 11 13 18 18 14 12 -3 -7 -3 -13 2 -13 13 1
54 38 51 47 -2 7 20 61 59 140 9 18 20 30 24 27 5 -3 9 4 9 15 0 11 14 35 30
53 17 18 35 51 41 73 6 22 15 51 20 65 12 35 21 89 23 130 0 21 8 40 19 48 11
9 16 24 15 44 -1 18 3 33 10 36 19 6 14 22 -6 22 -10 0 -28 -10 -40 -23z m22
-43 c3 -8 2 -12 -4 -9 -6 3 -10 10 -10 16 0 14 7 11 14 -7z m-222 -306 c-7 -7
-12 -8 -12 -2 0 6 3 14 7 17 3 4 9 5 12 2 2 -3 -1 -11 -7 -17z m138 -2 c0 -2
-8 -10 -17 -17 -16 -13 -17 -12 -4 4 13 16 21 21 21 13z m-170 -16 c0 -5 -5
-10 -11 -10 -5 0 -7 5 -4 10 3 6 8 10 11 10 2 0 4 -4 4 -10z m44 -185 c-6 -16
-24 -21 -24 -7 0 11 11 22 21 22 5 0 6 -7 3 -15z"/>
<path d="M1659 2247 c-12 -17 -14 -28 -6 -44 10 -23 27 -31 27 -13 0 6 7 10
15 10 18 0 19 11 3 45 -14 30 -18 31 -39 2z"/>
<path d="M2021 2201 c-8 -5 -9 -11 -3 -15 5 -3 12 1 16 9 6 17 6 18 -13 6z"/>
<path d="M1695 2160 c3 -5 8 -10 11 -10 2 0 4 5 4 10 0 6 -5 10 -11 10 -5 0
-7 -4 -4 -10z"/>
<path d="M1346 2141 c-3 -4 6 -8 20 -9 13 -1 24 0 24 2 0 7 -40 14 -44 7z"/>
<path d="M1806 2129 c-18 -17 -18 -19 -2 -19 9 0 19 7 23 15 8 23 0 25 -21 4z"/>
<path d="M1851 2124 c-22 -27 -29 -60 -11 -49 6 3 10 14 10 24 0 10 10 26 23
34 12 9 17 16 10 16 -6 1 -21 -11 -32 -25z"/>
<path d="M1200 2125 c0 -3 7 -16 16 -29 8 -13 20 -46 27 -72 7 -26 18 -49 25
-52 11 -3 10 2 -2 26 -8 16 -13 42 -10 56 2 15 1 25 -4 22 -5 -3 -6 8 -4 25 4
26 1 29 -22 29 -14 0 -26 -2 -26 -5z"/>
<path d="M1609 2123 c0 -5 -2 -18 -3 -30 -1 -12 1 -20 4 -18 8 5 11 55 4 55
-2 0 -4 -3 -5 -7z"/>
<path d="M1465 2110 c-3 -5 -1 -10 4 -10 6 0 11 5 11 10 0 6 -2 10 -4 10 -3 0
-8 -4 -11 -10z"/>
<path d="M1765 2090 c-3 -5 -1 -10 4 -10 6 0 11 5 11 10 0 6 -2 10 -4 10 -3 0
-8 -4 -11 -10z"/>
<path d="M1807 2093 c-4 -3 -7 -11 -7 -17 0 -6 5 -5 12 2 6 6 9 14 7 17 -3 3
-9 2 -12 -2z"/>
<path d="M1420 2084 c0 -2 9 -8 20 -14 11 -6 20 -7 20 -2 0 6 -9 12 -20 15
-11 3 -20 3 -20 1z"/>
<path d="M1480 2069 c0 -5 5 -7 10 -4 6 3 10 8 10 11 0 2 -4 4 -10 4 -5 0 -10
-5 -10 -11z"/>
<path d="M1940 2059 c0 -5 5 -7 10 -4 6 3 10 8 10 11 0 2 -4 4 -10 4 -5 0 -10
-5 -10 -11z"/>
<path d="M1545 2050 c-3 -6 -11 -7 -17 -4 -7 5 -9 -2 -4 -22 3 -16 8 -36 10
-43 1 -8 8 -17 14 -19 9 -3 10 3 2 23 -13 34 -13 35 4 29 19 -7 28 22 11 36
-9 8 -15 8 -20 0z"/>
<path d="M1405 2040 c3 -6 -1 -13 -10 -16 -12 -5 -13 -9 -3 -21 10 -13 13 -12
20 8 8 21 9 21 28 4 24 -22 26 -43 5 -51 -11 -5 -13 -13 -9 -28 4 -11 7 -29 6
-40 -1 -18 -1 -18 13 0 9 12 10 24 4 36 -6 11 -4 21 6 32 21 21 19 35 -11 62
-25 24 -61 34 -49 14z"/>
<path d="M1480 2041 c0 -6 5 -13 10 -16 6 -3 10 1 10 9 0 9 -4 16 -10 16 -5 0
-10 -4 -10 -9z"/>
<path d="M1620 2016 c0 -13 -6 -26 -12 -29 -10 -3 -10 -9 -2 -23 29 -49 62
-11 41 46 -14 36 -27 39 -27 6z"/>
<path d="M1913 2028 c-13 -6 -23 -15 -23 -20 0 -5 14 -2 30 7 45 23 38 35 -7
13z"/>
<path d="M2605 2030 c-3 -5 -1 -10 4 -10 6 0 11 5 11 10 0 6 -2 10 -4 10 -3 0
-8 -4 -11 -10z"/>
<path d="M1738 2009 c-10 -6 -15 -16 -11 -25 3 -9 0 -20 -8 -25 -9 -5 -4 -7
16 -5 17 2 37 4 45 5 12 1 11 4 -4 16 -10 7 -15 18 -12 24 9 14 -7 21 -26 10z"/>
<path d="M1386 1971 c-4 -7 -5 -15 -2 -18 9 -9 19 4 14 18 -4 11 -6 11 -12 0z"/>
<path d="M1500 1956 c0 -8 -6 -17 -12 -20 -9 -4 -8 -5 2 -5 29 2 40 -1 40 -12
0 -5 -4 -7 -10 -4 -5 3 -10 1 -10 -4 0 -6 5 -11 11 -11 8 0 9 -4 0 -13 -6 -8
-8 -17 -4 -20 13 -14 21 -6 28 29 5 29 2 40 -14 55 -24 23 -31 24 -31 5z"/>
<path d="M1388 1923 c6 -2 18 -2 25 0 6 3 1 5 -13 5 -14 0 -19 -2 -12 -5z"/>
<path d="M1381 1884 c0 -11 3 -14 6 -6 3 7 2 16 -1 19 -3 4 -6 -2 -5 -13z"/>
<path d="M1557 1870 c3 -11 9 -17 15 -14 5 3 4 12 -3 20 -16 19 -18 18 -12 -6z"/>
<path d="M1371 1833 c-12 -13 -11 -14 8 -8 25 8 31 -19 6 -29 -18 -7 -20 -26
-2 -26 22 0 39 38 27 60 -13 24 -20 24 -39 3z"/>
<path d="M1740 1839 c0 -5 5 -7 10 -4 6 3 10 8 10 11 0 2 -4 4 -10 4 -5 0 -10
-5 -10 -11z"/>
<path d="M1800 1799 c0 -5 5 -7 10 -4 6 3 10 8 10 11 0 2 -4 4 -10 4 -5 0 -10
-5 -10 -11z"/>
<path d="M1965 1739 c-11 -17 1 -21 15 -4 8 9 8 15 2 15 -6 0 -14 -5 -17 -11z"/>
<path d="M1410 1719 c0 -5 5 -7 10 -4 6 3 10 8 10 11 0 2 -4 4 -10 4 -5 0 -10
-5 -10 -11z"/>
<path d="M1485 1720 c3 -5 8 -10 11 -10 2 0 4 5 4 10 0 6 -5 10 -11 10 -5 0
-7 -4 -4 -10z"/>
<path d="M1540 1681 c0 -19 17 -38 25 -29 7 7 -7 48 -16 48 -5 0 -9 -9 -9 -19z"/>
<path d="M2502 1679 c2 -6 8 -10 13 -10 5 0 11 4 13 10 2 6 -4 11 -13 11 -9 0
-15 -5 -13 -11z"/>
<path d="M2175 1670 c-7 -11 30 -32 39 -23 11 11 6 21 -14 26 -11 3 -22 1 -25
-3z"/>
<path d="M1406 1662 c-2 -4 4 -9 15 -9 10 -1 19 2 19 8 0 11 -27 12 -34 1z"/>
<path d="M2590 1655 c-7 -9 -11 -18 -8 -20 3 -3 11 1 18 10 7 9 11 18 8 20 -3
3 -11 -1 -18 -10z"/>
<path d="M1890 1638 c-20 -7 -22 -11 -10 -18 10 -6 20 -4 29 5 20 19 12 25
-19 13z"/>
<path d="M1510 1610 c0 -5 5 -10 10 -10 6 0 10 5 10 10 0 6 -4 10 -10 10 -5 0
-10 -4 -10 -10z"/>
<path d="M2625 1600 c-10 -11 -13 -20 -7 -20 6 0 16 9 22 20 6 11 9 20 7 20
-2 0 -12 -9 -22 -20z"/>
<path d="M1870 1590 c-9 -6 -10 -10 -3 -10 6 0 15 5 18 10 8 12 4 12 -15 0z"/>
<path d="M2358 1543 c-27 -7 -22 -33 6 -33 19 0 23 4 19 20 -3 11 -6 19 -7 19
0 -1 -9 -3 -18 -6z"/>
<path d="M2586 1515 c-9 -26 -7 -32 5 -12 6 10 9 21 6 23 -2 3 -7 -2 -11 -11z"/>
<path d="M1525 1489 c-4 -11 -4 -23 -1 -26 8 -9 36 17 36 33 0 22 -28 16 -35
-7z"/>
<path d="M1720 1481 c0 -5 5 -13 10 -16 6 -3 10 -2 10 4 0 5 -4 13 -10 16 -5
3 -10 2 -10 -4z"/>
<path d="M1547 1434 c-11 -11 -8 -44 4 -44 6 0 9 -7 5 -15 -3 -9 0 -15 8 -15
9 0 13 12 12 37 -1 35 -14 51 -29 37z"/>
<path d="M1922 1418 c-7 -7 -12 -20 -12 -30 0 -10 -8 -18 -17 -19 -14 0 -15
-2 -3 -6 8 -3 17 -9 20 -12 11 -13 48 -29 54 -24 8 8 8 67 0 87 -7 19 -25 21
-42 4z"/>
<path d="M1766 1265 c4 -8 10 -15 15 -15 5 0 9 7 9 15 0 8 -7 15 -15 15 -9 0
-12 -6 -9 -15z"/>
<path d="M1586 1101 c-4 -7 -5 -15 -2 -18 9 -9 19 4 14 18 -4 11 -6 11 -12 0z"/>
<path d="M2820 1066 c0 -9 5 -16 10 -16 6 0 10 4 10 9 0 6 -4 13 -10 16 -5 3
-10 -1 -10 -9z"/>
<path d="M2940 1050 c0 -5 5 -10 11 -10 5 0 7 5 4 10 -3 6 -8 10 -11 10 -2 0
-4 -4 -4 -10z"/>
<path d="M2892 1018 c-1 -26 1 -30 9 -15 6 10 6 23 1 33 -7 12 -9 8 -10 -18z"/>
<path d="M2590 1016 c0 -14 -4 -28 -10 -31 -5 -3 -10 -11 -10 -17 0 -6 8 -4
18 5 19 17 28 67 12 67 -6 0 -10 -11 -10 -24z"/>
<path d="M2810 1020 c0 -5 5 -10 11 -10 5 0 7 5 4 10 -3 6 -8 10 -11 10 -2 0
-4 -4 -4 -10z"/>
<path d="M2330 880 c0 -5 5 -10 10 -10 6 0 10 5 10 10 0 6 -4 10 -10 10 -5 0
-10 -4 -10 -10z"/>
<path d="M1785 851 c-3 -5 -1 -12 5 -16 5 -3 10 1 10 9 0 18 -6 21 -15 7z"/>
<path d="M2310 850 c0 -5 5 -10 10 -10 6 0 10 5 10 10 0 6 -4 10 -10 10 -5 0
-10 -4 -10 -10z"/>
<path d="M2030 814 c0 -17 22 -14 28 4 2 7 -3 12 -12 12 -9 0 -16 -7 -16 -16z"/>
<path d="M2130 800 c-6 -19 -5 -50 1 -50 13 0 17 14 8 35 -4 11 -8 18 -9 15z"/>
<path d="M2400 789 c0 -5 5 -7 10 -4 6 3 10 8 10 11 0 2 -4 4 -10 4 -5 0 -10
-5 -10 -11z"/>
<path d="M2365 765 c-5 -11 -10 -24 -13 -30 -3 -5 3 -3 13 7 9 9 15 22 12 30
-3 9 -7 7 -12 -7z"/>
<path d="M2094 746 c-3 -14 -13 -30 -22 -35 -15 -8 -9 -31 8 -31 10 0 34 79
26 87 -3 3 -8 -6 -12 -21z"/>
<path d="M2627 735 c-20 -19 -41 -35 -48 -35 -7 0 -10 -2 -7 -5 9 -9 58 6 58
17 0 5 10 18 23 28 12 10 19 21 16 24 -3 3 -22 -10 -42 -29z"/>
<path d="M1815 729 c-11 -17 1 -21 15 -4 8 9 8 15 2 15 -6 0 -14 -5 -17 -11z"/>
<path d="M2536 721 c-4 -6 -2 -11 4 -11 6 0 8 -4 5 -10 -3 -5 -1 -10 4 -10 13
0 14 10 2 29 -6 9 -11 10 -15 2z"/>
<path d="M2797 650 c-9 -11 -12 -22 -7 -25 5 -3 14 4 20 16 15 28 8 33 -13 9z"/>
<path d="M1833 618 c11 -15 21 -28 21 -28 1 0 2 13 3 30 2 26 -1 29 -21 28
l-24 -2 21 -28z"/>
<path d="M2870 639 c0 -5 -4 -8 -8 -5 -10 6 -43 -30 -35 -38 11 -11 23 -6 23
10 0 8 4 13 9 9 6 -3 15 4 21 15 7 13 7 20 0 20 -5 0 -10 -5 -10 -11z"/>
<path d="M2061 626 c-11 -13 -11 -20 -3 -28 8 -8 13 -7 18 5 10 27 0 41 -15
23z"/>
<path d="M2327 633 c-4 -3 -7 -11 -7 -17 0 -6 5 -5 12 2 6 6 9 14 7 17 -3 3
-9 2 -12 -2z"/>
<path d="M2907 623 c-4 -3 -7 -13 -7 -22 1 -14 2 -14 14 1 7 10 17 14 21 10 5
-4 5 -1 1 6 -8 13 -19 16 -29 5z"/>
<path d="M2966 584 c-9 -23 -2 -28 13 -10 7 8 8 17 3 20 -6 3 -13 -1 -16 -10z"/>
<path d="M2910 575 c-8 -9 -8 -15 -2 -15 12 0 26 19 19 26 -2 2 -10 -2 -17
-11z"/>
<path d="M1982 538 c1 -29 5 -37 15 -33 8 3 19 5 24 5 5 0 9 13 9 29 0 23 -5
30 -25 33 -23 5 -25 3 -23 -34z"/>
<path d="M2836 561 c-4 -6 -5 -15 -1 -20 3 -5 -4 -16 -16 -24 -15 -11 -17 -16
-7 -20 9 -4 7 -6 -4 -6 -21 -1 -24 -17 -4 -24 9 -4 12 -15 8 -34 -5 -26 -4
-27 12 -14 12 10 16 24 13 40 -4 17 1 33 12 46 15 17 16 24 6 43 -8 15 -15 20
-19 13z"/>
<path d="M2929 555 c-1 -3 -2 -9 -3 -14 0 -5 -4 -13 -8 -17 -5 -4 -8 -14 -8
-22 0 -12 3 -12 15 -2 8 7 15 19 15 27 0 8 5 11 10 8 6 -3 10 -2 10 3 0 10
-29 25 -31 17z"/>
<path d="M2886 538 c-11 -37 -14 -60 -6 -52 11 12 24 64 16 64 -4 0 -8 -6 -10
-12z"/>
<path d="M2896 465 c-3 -8 -1 -15 3 -15 5 0 11 7 15 15 3 8 1 15 -3 15 -5 0
-11 -7 -15 -15z"/>
<path d="M1960 463 c0 -7 12 -25 26 -40 16 -18 22 -21 15 -8 -15 32 -40 61
-41 48z"/>
<path d="M2566 455 c-3 -8 -1 -15 4 -15 6 0 10 7 10 15 0 8 -2 15 -4 15 -2 0
-6 -7 -10 -15z"/>
<path d="M2395 430 c-3 -5 -1 -10 4 -10 6 0 11 5 11 10 0 6 -2 10 -4 10 -3 0
-8 -4 -11 -10z"/>
<path d="M2380 390 c0 -5 9 -10 20 -10 11 0 20 5 20 10 0 6 -9 10 -20 10 -11
0 -20 -4 -20 -10z"/>
<path d="M2466 383 c-6 -14 -5 -15 5 -6 7 7 10 15 7 18 -3 3 -9 -2 -12 -12z"/>
<path d="M2577 340 c-9 -11 -13 -20 -7 -20 5 0 14 9 20 20 6 11 9 20 8 20 -2
0 -11 -9 -21 -20z"/>
</g>
</svg>
